<svg width="165" height="238" viewBox="0 0 165 238" fill="none" xmlns="http://www.w3.org/2000/svg">
<path d="M40.358 3.61324C41.0293 3.7793 41.6908 3.95694 42.3835 4.02186C43.657 4.10867 44.7584 4.57653 46.0017 4.83518C48.1643 5.22128 50.2911 5.8122 52.4166 6.36524C54.3905 7.04448 56.2887 7.83294 58.3333 8.32481C59.0432 8.36179 59.5702 8.0016 60.2644 8.37633C61.0029 8.58194 61.0402 9.06054 61.2851 9.70286C60.5073 9.5601 59.7393 9.40104 59.0007 9.10794C57.1179 8.45466 55.2765 7.83555 53.3554 7.30189C52.026 7.19238 50.7169 7.02191 49.4166 6.69559C47.3554 6.02122 45.1824 5.67505 43.0665 5.20738C41.8896 4.93386 40.7441 4.99692 39.538 5.03716C38.1676 5.14889 37.0447 6.54145 35.8603 7.21124C34.4204 8.01876 33.1463 9.06697 31.6817 9.82894C32.4577 11.4306 33.7766 12.7837 35.1758 13.8503C36.6519 14.6682 37.7336 16.0034 39.0959 17.0383C40.2256 17.8734 41.1669 18.9 42.2238 19.8207C42.9492 20.4493 43.7796 20.9291 44.5268 21.5346C45.88 20.5262 47.3647 19.7104 48.7498 18.743C49.9627 17.8801 51.2499 17.2436 52.3356 16.2048C53.3367 15.4311 54.4681 14.8143 55.5262 14.1153C53.7734 15.2908 52.1336 16.5567 50.4946 17.8842C48.6905 19.2239 46.874 20.4948 45.2134 22.025C45.0001 22.2655 44.9637 22.4939 45.176 22.7523C45.6258 23.3904 46.2727 23.868 46.7585 24.4786C47.4271 25.3067 48.1179 26.0928 48.8491 26.8634C49.7571 27.8087 50.5164 28.7692 51.6596 29.4438C51.5382 28.8496 51.4358 28.2487 51.1031 27.7271C50.7399 27.2946 49.7953 27.2303 49.6341 26.6303C49.3211 25.7049 48.6628 24.7494 48.7628 23.7801C48.7103 23.067 49.3056 22.4271 49.8198 22.0146C50.6243 21.6662 51.4408 21.3961 52.1827 20.9137C52.9625 20.515 53.4908 19.8285 54.2954 19.4706C54.8549 19.22 55.3669 18.8949 55.9084 18.6131C56.5763 18.8169 57.2501 19.255 57.5848 19.8854C57.98 20.9099 57.8421 22.1668 57.77 23.2408C57.7122 24.0339 56.9832 24.1927 56.4858 24.686C55.7553 25.4596 55.1669 26.381 54.5032 27.213C54.0383 27.7238 54.0065 28.5104 53.7638 29.1687C53.5252 28.7393 53.1683 28.4299 53.2474 27.9094C53.4283 27.0911 54.3483 26.4571 54.6521 25.7105C54.8137 24.9083 55.0138 24.1662 54.6595 23.3839C54.3721 22.6554 53.7915 22.0707 52.9781 22.0311C52.227 21.9481 51.5107 22.6251 50.9034 22.9998C50.9407 24.2138 51.5247 24.9428 52.3925 25.7098C53.1131 25.5106 53.4834 25.3899 54.1941 25.7627C53.4059 26.4 52.7284 26.6618 51.7401 26.8353C51.7433 28.0981 51.7395 29.2661 52.4791 30.3538C53.1896 29.9013 53.8992 29.489 54.6637 29.1348C55.6262 28.6793 56.3078 27.9802 57.079 27.2715C57.8333 26.5813 58.7722 26.4964 59.6257 25.8844C60.9197 24.981 62.3214 24.1938 63.5449 23.1916C64.5014 22.3268 65.5951 21.7091 66.6224 20.9242C66.6409 19.4609 65.7888 18.536 65.171 17.2859C64.5482 16.0499 63.734 14.9319 63.1397 13.6825C62.5246 12.4207 61.701 11.3001 61.1767 9.98623C61.5084 9.99231 61.8377 10.0007 62.1693 10.0115C62.6143 10.8386 63.077 11.6142 63.4244 12.4838C64.0092 14.0144 64.8439 15.4331 65.5334 16.9215C66.1989 18.3312 67.086 19.6354 67.6444 21.0897C66.3586 21.8586 65.2685 22.8878 63.9758 23.6471C63.1319 24.16 62.37 24.8713 61.477 25.2813C60.5111 25.6847 59.4446 26.1589 58.6729 26.8841C58.4547 27.4129 58.7742 28.1754 58.9422 28.6952C59.6568 30.397 60.0818 32.1931 60.8011 33.8927C60.6539 34.0355 60.5043 34.1807 60.3547 34.3259C59.4041 32.1853 58.8542 29.8398 57.8724 27.7244C56.3514 28.3005 54.9372 29.2104 53.6208 30.1606C53.0726 30.5249 53.1633 31.0286 53.0357 31.6023C52.4731 31.6045 51.9472 31.5533 51.392 31.4493C51.34 33.1222 51.4934 34.7695 51.8827 36.3968C52.073 37.1536 52.5413 37.9861 52.4533 38.7642C52.3578 39.6485 52.38 40.5334 52.3057 41.4183C52.1584 40.6413 52.2686 39.8259 52.0525 39.0684C51.6015 37.5507 51.3429 35.9669 51.1404 34.3987C51.0498 33.4269 51.3507 32.4249 50.9626 31.4904C50.778 31.1594 50.3049 30.9747 50.0018 30.7684C49.7214 31.7071 49.9847 32.5532 49.9983 33.4947C50.0223 35.1411 50.3961 36.7302 51.0237 38.2454C50.9536 39.057 50.5784 39.6481 50.0134 40.206C51.0109 40.9644 51.4788 41.908 51.9871 43.0228C52.1669 42.8004 52.3468 42.578 52.5243 42.3531C52.5569 42.8293 52.5824 43.3076 52.6103 43.7836C52.3388 44.1857 52.1701 44.4345 52.277 44.9479C52.7052 47.1769 53.6092 49.295 54.1576 51.5128C53.9815 51.4988 53.8052 51.4873 53.6267 51.4732C53.5639 50.9822 53.5405 50.5134 53.3095 50.0653C52.6637 48.7152 51.9503 47.4296 51.5495 45.9746C51.2133 45.0344 51.2776 44.0807 50.8199 43.1988C50.4863 42.5259 50.2643 41.8156 50.0662 41.0917C48.6367 40.6628 47.3104 40.707 46.0163 40.0427C46.031 39.835 46.0434 39.6249 46.0558 39.4171C46.9687 39.4309 47.8774 39.5131 48.79 39.5387C49.3282 39.5713 49.8811 39.2118 50.3709 39.0162C50.3215 38.646 50.2697 38.2758 50.2251 37.9035C50.0884 36.1501 49.3809 34.5407 49.3463 32.7569C49.2925 32.0036 49.6725 31.318 49.9509 30.6441C48.1339 28.9757 45.9863 28.0012 43.9094 26.74C42.6504 25.9938 42.1548 24.8415 41.1998 23.8027C40.6204 25.4834 39.995 27.2102 39.7313 28.9723C39.7404 29.6322 39.0559 30.1705 38.549 30.4792C37.7644 30.5112 37.0515 30.4103 36.3083 30.7579C34.0624 31.6986 31.6637 32.2666 29.4541 33.2602C28.316 34.0494 27.0207 34.3593 25.7911 34.9499C24.8116 35.4263 23.7856 35.788 22.8085 36.2644C23.316 37.5921 24.0213 38.8255 24.5385 40.1463C25.2238 41.7953 25.9519 43.4289 26.6753 45.06C27.2316 45.9515 27.4873 46.9109 27.7678 47.9112C26.3625 47.8234 25.1741 48.3725 23.8344 48.6671C22.8662 48.8836 21.9827 49.4712 21.0069 49.6166C20.9289 49.3522 20.8558 49.0831 20.7873 48.8142C21.1158 48.5766 21.452 48.3156 21.8121 48.1308C22.551 48.0432 23.2449 48.1531 23.9802 47.933C24.9287 47.6569 25.8873 47.4472 26.8184 47.1114C26.5221 46.8272 26.2183 46.5547 25.905 46.2889C26.0044 45.4355 25.9141 44.6339 25.5124 43.8646C24.3824 41.8378 23.1876 39.8636 22.258 37.7307C21.0804 38.6868 21.5142 39.8612 21.2829 41.1795C20.5918 40.1286 20.9734 38.9134 20.9733 37.7169C19.8201 38.8226 18.5481 39.7857 17.4519 40.9638C16.6896 41.7814 16.0221 42.6701 15.2898 43.5122C15.1388 43.435 14.9901 43.358 14.839 43.2832C15.6644 41.7412 16.9632 40.7432 18.1893 39.5496C18.9946 38.7945 19.4246 37.6231 20.1982 36.8199C20.5988 36.4304 21.0911 36.1379 21.5125 35.768C22.174 35.2078 22.8122 34.6376 23.7109 34.5636C25.0429 34.387 26.183 33.7965 27.4605 33.446C27.069 32.2773 26.9895 31.0528 26.6121 29.8821C26.2736 28.6628 25.7041 27.6433 25.5883 26.3682C25.7883 26.3686 25.9884 26.3689 26.1884 26.3693C26.5337 27.6928 27.1187 28.935 27.4024 30.2735C27.6116 31.1183 27.9409 31.959 28.2615 32.7688C29.1026 31.5369 29.5086 30.1947 29.9494 28.7848C30.2969 27.616 30.8559 26.552 31.2594 25.4036C31.9386 23.5008 32.6193 21.6335 33.5593 19.8413C34.0843 18.6345 34.4825 17.4151 35.2261 16.3108C35.008 16.0948 34.7946 15.8789 34.5524 15.6883C33.7509 15.5497 32.8501 16.0801 32.14 16.419C31.1993 16.8538 30.6289 17.7166 29.6977 18.1445C29.931 17.2992 30.7261 16.6715 31.3869 16.1398C32.2227 15.6692 33.1603 15.4495 33.963 14.893C33.0205 14.3795 31.9866 14.3106 31.0032 13.9238C29.2274 13.1337 27.373 12.4741 25.5213 11.8925C25.8145 13.1343 26.2452 14.3371 26.5692 15.5726C26.7922 16.4272 27.1796 17.2055 27.6144 17.9685C27.8736 17.7742 28.1304 17.5773 28.3872 17.3829C28.1516 17.7647 27.9182 18.1489 27.6894 18.5356C27.4403 18.1509 27.1984 17.7617 27.009 17.3407C26.4627 16.1492 25.7223 15.0946 25.3117 13.838C25.0616 13.0324 24.6178 12.437 24.035 11.8452C23.4019 13.0445 23.0164 14.3211 22.5417 15.5836C21.6181 17.7497 20.8807 19.9963 20.0992 22.218C19.6071 24.0712 18.8129 25.8694 18.4919 27.753C19.4922 27.4758 20.4669 27.1908 21.3834 26.6915C22.4865 26.0741 23.7071 25.4667 24.9494 25.2075C23.2617 26.7819 20.9113 27.4859 19.1335 28.9942C20.8653 30.0314 22.7653 30.8412 24.6893 31.4482C25.4361 31.699 26.4323 31.5848 26.9602 32.206C26.8679 32.4093 26.735 32.5431 26.5615 32.6096C25.1529 32.6518 23.7562 31.765 22.3978 31.4088C21.107 31.0756 19.9021 30.5153 18.6163 30.1728C18.0762 30.029 17.6235 29.7834 17.3516 29.2751C17.2618 28.5493 17.603 27.7232 17.7995 27.0307C18.324 25.4715 18.4157 23.9983 19.0906 22.5423C19.4743 21.7079 19.8741 20.8881 20.174 20.0161C20.7775 18.3147 21.6688 16.6798 22.2746 14.9809C22.7565 13.527 23.2293 12.0588 23.7998 10.6356C24.0346 10.0103 24.4111 9.554 24.8887 9.09796C25.1049 9.66625 25.1971 10.203 25.236 10.8046C26.1498 11.2441 27.1248 11.4982 28.0561 11.8979C29.3439 12.4415 30.6451 12.9191 32.0121 13.2164C31.3261 11.8724 30.4509 10.656 29.8435 9.27138C30.5106 8.77287 31.2314 8.37741 31.9594 7.97976C34.0335 6.76038 36.1254 5.30026 38.4522 4.6028C39.1519 4.39125 39.7613 4.03078 40.358 3.61324Z" fill="#202530"/>
<path d="M36.9556 16.5984C38.2513 17.5678 39.4621 18.639 40.7651 19.5991C41.6933 20.4906 42.5884 21.3883 43.5722 22.2221C44.9561 23.799 46.4612 25.2372 47.9319 26.7289C47.4651 26.9464 46.8335 27.5309 46.3082 27.2716C45.0513 26.8069 44.0366 25.4332 42.9762 24.6472C41.7678 23.7604 40.9324 22.3677 40.1092 21.1407C39.0557 19.6242 37.9492 18.156 36.9556 16.5984Z" fill="white"/>
<path d="M35.6555 16.745C37.3946 18.4185 38.8742 20.3975 40.3246 22.3191C40.7178 22.776 40.7109 23.3221 40.4879 23.8555C39.8262 25.345 39.2671 26.8748 38.862 28.4583C38.7172 29.06 38.4347 29.5233 37.8764 29.8213C36.5566 30.5373 34.9633 30.9011 33.5308 31.3281C32.2604 31.7639 31.0018 32.2048 29.6837 32.481C30.0265 30.6642 30.6235 28.9414 31.214 27.1948C31.9757 24.5492 32.7999 21.9455 34.0256 19.4725C34.5429 18.4736 34.7607 17.5002 35.6555 16.745Z" fill="white"/>
<path d="M56.4416 20.0479C57.3022 20.6374 57.2391 21.636 57.2789 22.5687C57.3095 23.0329 56.8815 23.4808 56.6436 23.8578C56.373 23.8533 56.1001 23.8487 55.8295 23.8465C55.656 23.3574 55.5163 22.836 55.2737 22.3781C54.9474 21.7881 54.4424 21.4702 53.9931 21C54.0119 20.5394 54.5133 20.441 54.8411 20.2342C55.3453 20.0271 55.9396 19.6119 56.4416 20.0479Z" fill="white"/>
<path d="M27.1532 20.1016C26.9333 21.0655 26.5895 21.9978 26.3415 22.9563C26.1569 23.5522 25.9971 24.2812 25.5431 24.7307C25.3188 24.7605 25.1179 24.6986 24.9384 24.5404C25.102 24.029 25.3807 23.6223 25.6466 23.1633C26.2411 22.1829 26.5795 21.0943 27.1532 20.1016Z" fill="#202530"/>
<path d="M49.8702 23.56C50.234 24.7114 50.9262 25.5354 51.6703 26.4481C50.7254 26.3035 50.2367 25.6218 49.8286 24.824C49.7186 24.4311 49.8388 23.9612 49.8702 23.56Z" fill="white"/>
<path d="M48.3677 27.1065C49.3883 28.251 50.5141 29.3343 51.4194 30.5704C49.7843 29.7106 48.2103 28.6656 46.6809 27.6311C47.226 27.3896 47.7834 27.2217 48.3677 27.1065Z" fill="white"/>
<path d="M59.7699 35.9262C60.0679 35.7777 60.3988 35.8145 60.7627 36.0366C59.3701 37.4838 57.681 37.4502 55.9948 38.3201C55.5796 38.5412 55.179 38.4695 54.7312 38.4936C54.7474 38.2268 54.7636 37.9577 54.7798 37.6909C56.4384 37.0734 58.1444 36.6297 59.7699 35.9262Z" fill="#202530"/>
<path d="M45.2742 41.7453C44.0342 42.3758 42.6668 42.5562 41.4248 43.1749C39.2482 44.1694 36.9694 44.6481 34.697 45.3375C33.5305 45.672 32.3077 45.9033 31.1873 46.3666C31.0845 46.338 30.9816 46.3117 30.8811 46.2832C32.0458 45.8352 33.0616 45.2273 34.3043 44.9539C35.2343 44.7553 36.1594 44.566 37.0682 44.2818C38.5526 43.8466 40.0348 43.1324 41.5901 42.7818C42.84 42.5015 44.011 41.9945 45.2742 41.7453Z" fill="#202530"/>
<path d="M13.5256 44.0256C14.4814 44.0192 15.2675 44.5736 16.2048 44.5525C17.1583 44.5437 18.0069 44.9554 18.9538 44.9299C19.632 44.9141 20.2659 44.6086 20.9 44.3859C20.2002 45.0609 19.4911 45.5489 18.5763 45.8898C17.6321 44.7922 16.3556 45.0104 15.0642 45.0697C15.5201 46.0224 15.9572 46.9771 16.3227 47.9677C17.629 47.9678 18.3762 47.1829 19.4701 46.6527C18.8681 48.0159 17.4018 48.941 16.4019 50.0341C16.1088 49.6175 15.8349 49.1896 15.5587 48.7617C14.253 48.9224 13.0556 49.4523 11.7627 49.6629C10.652 49.8404 9.5796 50.1749 8.47071 50.3713C7.82038 50.4919 7.2879 50.7905 6.68811 51.0519C6.87378 52.3571 7.05184 53.5913 7.73079 54.7507C8.37639 54.0767 8.55044 52.9721 9.26577 52.4251C10.1148 52.1724 11.1087 52.3349 11.9991 52.2133C13.438 52.276 15.42 52.9152 15.9847 54.4004C15.9588 55.0476 15.7661 55.6836 15.6909 56.3272C15.6563 56.8536 15.0039 57.1468 14.5613 57.2467C12.8986 57.5614 10.9272 57.7051 9.34707 56.9981C8.62094 56.5823 8.32009 55.4562 7.88351 54.7617C8.0286 55.4417 8.22894 56.0781 8.19919 56.7844C8.18592 57.5833 8.23265 58.3365 8.67165 59.0286C9.5637 59.4912 10.8153 59.3291 11.8016 59.4157C13.3071 59.3595 14.761 59.6613 16.2586 59.7302C17.3636 59.7772 18.436 60.093 19.5419 60.1968C21.0476 60.3156 22.4986 60.7356 24.0094 60.8379C23.6684 60.1789 23.3028 59.5619 23.0857 58.8446C22.477 56.4976 21.3708 54.275 20.1983 52.1643C19.8674 51.664 19.7332 51.112 19.5878 50.5361C18.5099 50.4377 17.4696 50.6217 16.3976 50.6629C17.3822 50.2647 18.3998 49.8626 19.4127 49.5526C19.9498 49.3511 20.3874 49.542 20.8937 49.7204C20.7362 50.9129 21.2135 51.8591 21.5621 52.9557C22.0059 54.3834 22.6995 55.7087 23.186 57.1233C23.6937 58.5385 24.6222 59.6972 25.0114 61.1424C23.4496 61.1925 21.8911 61.1126 20.3598 60.797C18.3338 60.5917 16.3275 60.3515 14.2863 60.3752C15.7621 62.3139 17.6096 63.9831 19.5424 65.4464C19.8 65.6847 19.741 66.2459 19.815 66.5741C18.7465 66.1071 17.9567 65.328 17.1948 64.4668C15.8424 62.9521 13.8772 62.4811 13.2315 60.3885C11.881 60.2737 10.5331 60.2442 9.19155 60.0563C8.57467 60.0643 8.04807 59.7624 7.73441 59.2318C6.84669 57.5823 6.30207 55.769 6.18976 53.8933C6.26049 52.6868 5.552 51.7631 5.30253 50.5602C7.54295 49.74 9.80471 49.6533 12.1123 49.1516C13.2742 48.817 14.4487 48.6318 15.5756 48.1899C15.2427 46.5663 14.1604 45.5315 13.5256 44.0256Z" fill="#202530"/>
<path d="M22.3681 45.2391C23.3931 45.1942 24.5209 45.8283 25.3444 46.3931C24.539 46.4104 23.5416 46.5742 22.7743 46.2969C22.4753 46.0221 21.7407 45.5707 22.3681 45.2391Z" fill="#202530"/>
<path d="M52.8751 51.4141C52.7021 51.8306 52.4231 52.2515 52.3505 52.7013C52.5187 53.6751 52.9142 54.5033 52.7588 55.5233C52.7417 56.2866 52.112 56.8925 51.7126 57.509C51.4959 57.5153 51.2793 57.5192 51.0602 57.5255C50.9939 56.8025 50.8257 56.0132 50.9311 55.2947C51.0273 54.6563 51.1669 54.0734 51.1059 53.4192C50.8889 53.0685 50.5787 52.8643 50.26 52.6221C51.2382 52.2923 51.867 51.353 52.8751 51.4141Z" fill="#202530"/>
<path d="M51.458 52.2459C51.8505 52.821 52.3052 53.4545 52.4475 54.1486C52.5833 55.2871 52.5095 56.4297 51.636 57.2729C51.48 56.8386 51.2706 56.462 51.2921 55.9872C51.3085 54.6966 51.2545 53.4916 51.458 52.2459Z" fill="white"/>
<path d="M48.1928 53.3757C45.6254 54.4666 42.9554 54.9638 40.4838 56.3599C40.9179 56.78 41.3595 57.1838 41.8617 57.5205C43.3192 58.5153 44.4812 59.7485 45.7643 60.9375C46.8774 61.8691 47.9763 62.8051 48.9973 63.8431C50.325 65.0356 51.6627 66.2071 52.8887 67.5104C53.9614 68.642 55.4905 69.3241 56.4551 70.5405C56.2238 71.0288 55.8559 71.3363 55.5137 71.7414C55.0334 72.2991 54.7353 73.0079 54.2761 73.5732C53.84 74.0611 53.3347 74.4928 52.855 74.9369C52.675 74.703 52.495 74.469 52.3151 74.2351C53.1523 73.4311 54.1443 72.6453 54.8018 71.6902C55.0079 71.362 55.2162 71.0386 55.1794 70.6333C54.8708 70.1809 54.4 69.8142 54.0047 69.4377C51.6601 67.0464 49.274 64.7156 46.6704 62.604C45.0972 61.0694 43.2146 59.9456 41.6169 58.446C40.9307 57.9414 40.2657 57.435 39.6112 56.8886C38.3989 57.0777 37.2605 57.7865 36.1061 58.2016C33.9291 59.2079 31.6413 59.1166 29.4949 60.2183C28.56 60.6106 27.3322 61.6837 26.285 61.3094C26.9203 60.7628 27.804 60.6269 28.4966 60.1408C27.9809 60.0591 27.4622 60.001 26.9488 59.9194C28.0924 59.3762 29.2848 59.3214 30.507 59.109C32.5548 58.6433 34.5742 58.0917 36.553 57.3807C37.8438 56.9713 38.8366 56.2494 40.1302 56.1026C41.2634 55.9683 42.3101 55.2548 43.3973 54.8947C45.0038 54.3822 46.5406 53.7403 48.1928 53.3757Z" fill="#202530"/>
<path d="M11.6012 53.2318C12.245 53.1843 12.9075 53.1397 13.5481 53.2175C14.2389 53.3557 14.8212 53.6921 15.4195 54.0407C15.2806 54.9665 15.0529 55.8687 14.9422 56.7976C14.2168 56.7223 13.1365 56.8131 12.5307 56.3839C12.4288 55.7665 12.4719 55.1835 12.2722 54.6132C12.0983 54.1406 11.8107 53.6958 11.6012 53.2318Z" fill="white"/>
<path d="M9.66275 53.7426C10.3875 53.3804 11.0321 53.9477 11.5043 54.4469C11.8416 54.8787 12.2431 55.2862 11.8036 55.8189C11.4538 56.1529 10.8507 56.7287 10.3269 56.5025C9.7406 56.2322 9.24564 55.7041 8.95659 55.1316C8.87614 54.4084 9.00242 54.0711 9.66275 53.7426Z" fill="white"/>
<path d="M28.9453 61.6632C29.8418 61.6742 31.0845 61.8619 31.6602 62.638C33.6037 64.792 36.0907 66.2102 38.0934 68.2593C39.7104 69.6436 41.1036 71.2256 42.7544 72.5752C43.6839 73.3248 44.7143 73.8997 45.7172 74.54C45.6597 74.7632 45.5999 74.9863 45.5424 75.2095C43.9751 74.0913 42.2113 73.1999 40.7629 71.9405C39.5343 70.7363 38.3277 69.502 37.0749 68.3256C35.7558 67.254 34.2746 66.3579 32.928 65.3541C31.8908 64.5805 30.9892 63.6637 29.969 62.8716C29.5374 62.5343 29.1965 62.152 28.9453 61.6632Z" fill="#202530"/>
<path d="M51.8889 62.3182C52.0918 62.2997 52.2944 62.2931 52.4967 62.2982C52.6906 62.542 52.8748 62.7949 53.059 63.0456C52.6384 63.0207 52.2176 63.0005 51.7968 62.978C51.786 63.401 51.7539 63.8305 51.7879 64.2523C52.018 64.6436 52.3031 65.0032 52.5572 65.3785C52.0663 65.3353 51.7831 65.3659 51.5176 64.8862C50.9529 64.0442 51.5064 63.1077 51.8889 62.3182Z" fill="#202530"/>
<path d="M25.2433 68.3107C26.2943 69.0917 27.4384 69.7309 28.4894 70.5168C29.51 71.29 30.605 71.8239 31.6894 72.497C32.0263 72.6688 32.1814 72.9565 32.3473 73.2823C31.9689 73.8165 31.5695 73.6928 31.1073 73.3571C30.0129 72.5253 28.8105 71.861 27.7402 71.0037C26.2906 69.9784 24.7817 69.5214 23.6119 68.1367C22.0285 68.3873 20.4456 68.25 18.8574 68.413C18.0223 68.4886 17.2406 68.4073 16.4151 68.566C15.264 68.7566 14.2491 69.0523 13.1184 68.5341C14.1627 67.5439 15.6834 67.8143 16.996 67.7508C18.9996 67.6339 21.0041 67.5785 23.0061 67.4308C23.9031 67.3307 24.5423 67.8317 25.2433 68.3107Z" fill="#202530"/>
<path d="M23.4308 68.87C24.0479 69.4981 24.3918 70.5071 24.3483 71.3833C24.3016 72.3847 24.4884 73.3684 24.4135 74.3691C23.6281 73.0438 23.6816 71.591 23.0907 70.2068C22.9295 69.7912 22.7681 69.3828 22.678 68.9454C22.9466 68.5668 23.1967 68.5401 23.4308 68.87Z" fill="#202530"/>
<path d="M13.0315 68.9718C12.8228 69.8674 12.2877 70.5442 11.9183 71.3719C11.4421 72.4192 10.8359 73.3921 10.3876 74.4543C10.1312 75.0933 9.77979 75.6779 9.40505 76.2524C10.1248 77.9354 10.878 79.598 11.6407 81.2609C12.0105 82.4503 12.6157 83.4565 13.3027 84.4836C14.2521 83.063 14.9141 81.4695 15.8381 80.027C16.4727 79.0476 16.9516 77.9863 17.6348 77.0365C18.3527 76.0191 19.027 74.9556 19.8189 73.9921C18.6463 76.4144 17.3713 78.7891 16.2777 81.2512C15.8326 82.2803 15.1901 83.1082 14.8807 84.1691C14.7164 84.7041 14.4778 85.2017 14.232 85.7014C14.3853 85.7834 14.5408 85.8677 14.6965 85.9497C14.9443 85.6439 15.1243 85.2323 15.5135 85.1051C16.6135 84.7027 17.6438 84.1732 18.7015 83.6752C17.7494 84.8333 16.4998 85.473 15.2945 86.3102C17.5842 87.8085 20.1981 88.5892 22.6718 89.8865C22.8571 89.4491 23.031 88.9971 23.242 88.5697C24.6989 85.8875 26.2682 83.2317 27.4532 80.4149C28.1258 78.9565 29.0152 77.6762 29.4249 76.0976C29.6126 76.1189 29.8004 76.1379 29.9906 76.1593C28.9002 78.4938 27.987 80.8967 26.9944 83.2739C26.4237 84.9808 25.51 86.4804 24.4958 87.9514C24.0359 88.6325 23.7206 89.3694 23.3444 90.0928C23.1025 90.4437 23.1053 90.7961 22.579 90.5723C21.2685 89.9998 19.9649 89.4298 18.6191 88.9463C17.5741 88.5768 16.6342 87.957 15.5258 88.0446C14.7433 87.9916 14.1754 88.573 13.4164 88.5254C12.2426 88.4955 11.0799 88.402 9.90555 88.4904C10.9853 89.4401 12.3927 89.814 13.4667 90.8038C12.6665 90.6155 11.9386 90.2683 11.1712 89.9934C12.1362 90.6446 13.1062 91.2794 14.1571 91.7885C14.8592 92.1303 15.4662 92.6022 16.0728 93.0905C17.3332 92.8601 18.6054 92.8145 19.877 92.6979C20.86 92.6401 21.7111 92.3993 22.6604 92.8302C21.671 93.3253 20.6833 93.293 19.6144 93.3982C18.5103 93.4978 17.4099 93.6377 16.314 93.7871C15.3629 92.7769 14.1643 92.3373 12.9332 91.7881C11.3358 90.9245 9.71169 90.0958 8.05487 89.3489C7.98149 90.5672 7.97897 91.7755 8.22374 92.9782C8.4842 94.3043 8.46113 95.6729 8.14759 96.9867C8.72101 97.3915 9.2946 97.7891 9.83394 98.238C10.6054 98.9079 11.4991 99.3965 12.2633 100.073C13.6418 101.307 15.1507 102.318 16.7342 103.264C16.7778 102.011 16.641 100.821 16.3259 99.6092C15.9993 98.4753 16.051 97.2778 15.7956 96.122C14.8089 97.0664 14.0548 98.5819 12.4529 98.359C13.1044 97.8223 13.9564 97.4562 14.5184 96.8273C14.9653 96.0985 15.087 95.1085 14.939 94.2676C14.1488 95.1674 13.7929 96.2011 13.4139 97.3147C13.1217 97.792 12.1269 97.665 11.7006 97.3987C10.7177 96.9907 10.042 96.1671 9.60962 95.215C9.39276 94.6727 9.7526 93.9441 9.8747 93.4009C10.6888 93.2278 11.534 92.8473 12.3491 93.0052C13.2157 93.1739 14.1831 93.3569 14.9408 93.8279C15.2885 94.1276 15.4538 94.6614 15.6744 95.0596C15.9223 94.6568 16.1772 94.2613 16.4506 93.8758C16.7633 94.5387 17.1531 95.3124 17.1104 96.0657C17.0049 97.8081 17.4982 99.509 17.4583 101.263C17.4918 101.978 17.3288 103.019 17.9441 103.538C18.7167 103.607 19.5489 103.46 20.3161 103.371C21.1333 103.26 21.8946 103.22 22.6323 102.811C23.4471 102.332 24.4321 102.566 25.3919 102.401C28.4307 101.93 31.484 101.91 34.5342 101.548C36.3491 101.538 38.1288 101.157 39.9254 101.035C41.416 101.102 42.8176 100.778 44.2843 100.581C45.7111 100.379 47.2948 99.8371 48.7184 100.037C49.5492 100.131 50.3582 100.064 51.1765 99.9123C51.0699 99.1978 51.0368 98.4663 50.8994 97.7581C50.2396 97.1431 48.9272 97.6583 48.1163 97.4295C46.3184 96.7713 44.3952 96.4102 42.5192 96.0433C40.8457 95.5821 39.2103 95.0108 37.5056 94.6647C36.4399 94.4603 35.4843 93.9961 34.4593 93.6721C32.5458 93.1126 30.6753 92.4407 28.741 91.9587C27.2309 91.5514 25.7633 91.3249 24.3102 90.7109C24.3135 90.4887 24.3144 90.2665 24.3177 90.0443C26.2522 89.7767 27.9786 90.2888 29.7666 90.9657C31.9125 91.8243 34.1429 92.3256 36.2533 93.2826C39.3727 94.6413 42.6165 95.4569 45.8663 96.4075C46.4309 96.5117 47.153 96.8091 47.6903 96.5036C48.1048 96.0317 48.0172 95.4052 48.0085 94.8233C47.888 92.8978 48.1328 90.9556 48.0384 89.026C47.9554 88.4942 47.7866 88.0051 47.6111 87.5017C47.7879 87.492 47.9623 87.4823 48.1391 87.475C48.0179 86.6868 47.6902 85.9691 47.5167 85.2009C47.4476 82.7399 46.9132 79.8769 47.2385 77.3621C46.8309 77.0065 46.4972 76.5251 45.9088 76.5243C44.5194 76.4582 43.1696 76.5941 41.7796 76.3695C40.2591 76.092 38.7926 76.1918 37.2599 76.0227C35.7853 75.7936 34.2744 75.8758 32.7824 75.774C31.839 75.757 30.9444 75.4883 30.0047 75.4195C30.2616 75.0359 30.5185 74.6522 30.773 74.2685C32.0234 75.0807 33.7485 74.8078 35.1722 74.8204C36.5599 74.858 37.958 74.9504 39.3319 75.1603C40.5876 75.2987 41.8364 75.2477 43.0817 75.5183C45.2909 75.9245 47.5019 75.8885 49.7351 76.0021C51.7209 76.3081 53.6078 76.0582 55.5926 75.8486C55.782 76.0828 55.9691 76.3145 56.1562 76.5487C54.9589 76.7972 53.7583 76.9889 52.5308 76.9459C51.5242 76.9131 50.563 77.3167 49.6102 77.1174C49.0409 77.0107 48.4765 76.8994 47.9016 76.8304C48.4524 77.4758 49.0297 78.1005 49.5541 78.7665C50.3835 79.8399 51.3844 80.7427 52.1537 81.8665C50.6179 81.3569 49.4099 79.808 48.21 78.8647C47.7076 79.3674 47.9787 79.904 48.003 80.5242C48.1311 81.5915 47.9538 82.6416 48.0962 83.7046C48.2564 84.9005 48.2053 86.169 48.1887 87.3722C48.1685 88.1686 48.3275 88.9482 48.3143 89.7447C48.3313 90.6485 48.2278 91.5704 48.325 92.4667C48.4405 93.2949 48.5913 94.1193 48.7564 94.9393C49.5419 94.2239 50.3091 93.4891 51.051 92.7277C51.6481 92.1115 52.4284 91.7861 53.1844 91.3986C52.6484 91.8343 52.1028 92.1846 51.7666 92.8168C51.0606 94.0166 50.1386 95.0076 49.1927 96.0121C50.0559 96.4999 50.6879 95.9911 51.5768 96.0232C53.0955 95.998 54.566 96.2057 56.0611 96.0025C56.7864 95.9879 57.5393 96.1844 58.2645 96.2667C57.3507 95.2716 56.2466 94.5388 55.2486 93.6172C54.6133 93.0548 53.9806 92.6651 54.0548 91.6951C54.2366 91.5791 54.4284 91.6266 54.6277 91.8421C55.694 93.0397 56.7911 94.1389 58.0387 95.1519C58.0665 94.6135 58.1085 94.0731 58.1104 93.534C57.9924 92.623 57.6091 91.8707 57.6944 90.9247C57.8212 89.6415 57.5701 88.4079 57.5556 87.1306C57.4973 84.5209 57.1606 81.9349 56.5638 79.3966C56.1086 80.0802 55.6054 80.7106 55.0004 81.2674C55.3568 79.8412 56.0581 78.6436 56.7636 77.3728C56.924 76.9891 57.3265 77.0821 57.6707 76.9679C57.7795 77.3159 58.0429 77.6939 57.9302 78.0552C57.5913 79.6238 57.777 81.3925 57.9108 82.9779C57.9679 84.5258 58.0271 86.0809 58.2092 87.6202C58.2859 89.6013 58.0318 91.5386 58.28 93.5312C58.3048 94.6834 58.4903 95.809 58.5695 96.9531C58.3039 97.0291 58.0384 97.1051 57.7728 97.1835C57.5635 98.1004 57.4725 99.0865 57.1441 99.9672C56.9528 100.546 56.1744 100.706 55.6919 100.983C55.2968 100.693 54.8399 100.426 54.5127 100.056C54.2251 99.3349 54.5832 98.3981 54.4615 97.6289C54.1535 96.9708 52.9771 97.1371 52.3758 97.0887C52.0734 98.3343 52.0301 99.5722 52.0707 100.845C51.205 100.828 50.3536 100.892 49.494 101.004C51.4147 101.928 53.4099 102.696 55.3732 103.516C55.7002 103.153 55.9686 102.78 56.4416 102.598C56.8372 102.407 57.2463 102.793 57.6098 102.937C57.3478 103.061 57.0881 103.182 56.8262 103.3C57.0276 103.804 57.2075 104.32 57.4064 104.826C54.7729 104.076 52.3125 102.812 49.6569 102.186C49.1254 101.894 48.8514 101.007 48.1652 101.243C46.3569 101.544 44.5411 101.775 42.7374 102.081C41.986 102.197 41.2655 102.299 40.523 102.065C39.8231 101.818 39.327 102.169 38.6593 102.325C37.888 102.48 37.0334 102.305 36.252 102.394C34.4316 102.711 32.5735 102.844 30.7312 102.913C29.8684 102.964 29.0637 102.769 28.2374 102.96C27.1946 103.149 26.1424 103.243 25.1036 103.46C25.131 103.217 25.156 102.977 25.181 102.734C24.7382 102.746 24.2954 102.758 23.8549 102.771C24.0242 103.979 24.2248 105.161 24.1512 106.389C24.053 108.212 24.2356 110.007 24.4273 111.816C24.5113 112.861 24.2426 114.077 24.9069 114.98C25.5854 115.418 26.394 115.645 27.1582 115.86C29.0507 116.41 30.6915 117.417 32.5558 118.055C34.1603 118.732 35.8237 119.314 37.3684 120.119C39.3254 121.186 41.5372 121.861 43.6039 122.687C45.4511 123.444 46.9428 124.669 48.8721 125.252C48.5005 123.112 48.7608 121.026 48.7026 118.873C48.5484 117.162 48.472 115.448 48.2849 113.738C48.2158 111.551 47.8428 109.47 48.1693 107.275C47.057 106.402 45.7844 106.003 44.4811 105.516C42.8035 104.939 41.0022 104.874 39.3519 104.241C39.4849 104.011 39.6107 103.782 39.7645 103.566C40.5888 103.362 41.5168 103.89 42.3164 104.102C44.2261 104.625 45.9873 105.524 47.8546 106.139C48.7447 106.216 49.6843 105.826 50.5804 105.759C52.4776 105.571 54.4034 105.369 56.3104 105.439C55.6195 105.585 54.9266 105.711 54.2444 105.883C54.5056 106.81 54.885 107.715 55.0657 108.661C55.236 109.829 54.8131 110.818 55.4087 111.924C55.8762 111.678 56.3201 111.254 56.8206 111.104C57.1169 111.113 57.3248 111.731 57.5171 111.944C57.3987 110.863 57.4592 109.779 57.3031 108.699C57.1645 107.672 57.2981 106.677 57.4557 105.662C57.7359 105.657 58.0162 105.65 58.2964 105.646C58.2451 106.737 58.0132 107.805 57.9807 108.896C57.974 111.376 58.5249 113.776 58.5538 116.248C58.839 118.542 58.2811 120.488 58.9818 122.641C59.1251 123.392 59.7204 123.767 59.682 124.539C59.6901 125.792 60.0678 127.228 59.8037 128.446C59.2987 129.053 58.674 129.368 58.537 130.22C58.0785 131.774 58.8215 133.191 58.1769 134.749C57.6203 135.071 57.0488 134.593 56.7545 134.134C56.2065 133.285 56.4058 132.02 56.3979 131.036C56.4973 131.755 56.5008 132.543 56.6949 133.238C56.8361 133.701 57.4589 133.922 57.8315 134.173C57.8897 132.628 57.8631 131.081 57.9072 129.533C56.2938 129.764 54.7343 130.003 53.0873 129.885C53.9854 129.095 55.0792 129.489 56.1511 129.174C56.8058 128.975 57.5138 128.901 58.142 128.633C58.4344 128.333 58.7047 127.978 58.8956 127.6C58.9123 126.759 58.7412 125.896 58.6591 125.054C58.0685 124.954 57.5577 124.771 56.9567 124.898C54.5747 125.267 51.9328 125.678 49.7631 126.772C48.7425 125.996 47.6357 125.37 46.5243 124.743C43.9681 123.451 41.2342 122.762 38.623 121.501C37.8649 121.141 37.1425 120.764 36.3367 120.521C33.4817 119.687 30.7385 118.435 27.9974 117.289C27.0189 116.895 25.9702 116.298 24.919 116.168C24.111 116.194 23.3001 116.521 22.5074 116.686C21.1914 116.976 19.9772 117.517 18.7178 117.987C19.2023 118.647 19.61 119.367 20.121 120.004C20.9263 120.916 21.8473 121.722 22.6501 122.639C23.453 123.553 24.2968 124.43 25.1696 125.28C24.4158 124.748 23.6625 124.384 23.2012 123.551C22.4386 122.347 21.3111 121.796 20.3501 120.712C19.5793 119.834 18.635 119.205 17.6893 118.537C17.77 119.067 17.8953 119.6 17.9099 120.134C17.8538 120.859 17.6313 121.556 17.6221 122.288C17.5501 123.176 17.7578 123.985 17.9384 124.843C19.1831 124.395 20.3761 124.037 21.7175 124.14C21.0058 124.451 20.27 124.694 19.545 124.972C18.9008 125.22 18.4681 125.668 17.9532 126.111C20.2416 126.827 22.1944 128.151 24.4197 129.033C26.5639 130.144 28.6485 131.283 30.9953 131.927C30.8948 130.789 30.843 129.681 30.8791 128.54C30.9277 127.278 30.7285 126.039 30.7417 124.781C29.4267 124.755 28.1504 124.871 26.8468 125.042C27.9113 124.553 29.0186 124.236 30.1293 123.874C28.7452 123.234 27.3583 122.607 25.9641 121.992C26.4797 121.708 26.8799 121.429 27.4602 121.747C28.4334 122.351 29.2867 123.042 30.4078 123.382C31.1341 123.33 31.8331 123.054 32.5682 123.024C34.4556 122.944 36.3336 122.859 38.2245 123.011C36.6598 123.359 35.0725 123.397 33.4924 123.61C32.5569 123.744 31.9511 124.06 31.45 124.88C31.3558 125.717 31.4043 126.583 31.4959 127.423C31.683 129.227 31.3091 131.154 31.6781 132.932C32.9297 132.307 34.2623 132.107 35.6365 131.938C38.4128 131.425 41.2759 131.387 44.0645 131.037C45.7497 130.668 47.3166 130.141 49.0789 130.256C47.8106 130.522 46.5624 130.552 45.3289 131.017C43.8454 131.599 42.1919 131.831 40.6258 132.236C39.6734 132.481 38.7034 132.582 37.7233 132.623C35.6063 132.753 33.4355 133.521 31.3527 133.418C30.7455 133.14 30.24 132.655 29.6207 132.388C27.7432 131.619 25.7629 130.914 23.9945 129.925C22.1798 128.999 20.2018 128.573 18.4066 127.624C17.8021 127.33 17.3072 126.799 17.026 126.194C16.92 125.55 17.0784 124.878 17.0032 124.226C16.9113 123.49 16.8383 122.751 16.7464 122.015C16.533 120.412 17.2063 118.927 17.0051 117.309C19.2945 116.781 21.5298 115.977 23.8378 115.738C24.1036 113.99 23.5541 112.368 23.6078 110.629C23.68 108.81 23.3959 107.025 23.2453 105.174C23.2561 104.657 23.4529 104.137 23.567 103.634C21.9502 103.716 20.4122 104.128 18.8195 104.374C18.2407 104.461 17.5757 105.063 17.0306 104.749C16.3957 104.539 15.9832 104.103 15.483 103.688C14.5702 102.932 13.6814 102.155 12.7054 101.477C10.6355 100.129 8.50717 98.7646 6.62508 97.1584C6.98061 96.9688 7.3543 96.8057 7.69402 96.5897C7.46122 94.8245 7.44735 93.0578 7.06829 91.3054C6.85894 90.3755 6.80069 89.6126 6.92602 88.6652C7.07743 88.1725 6.45324 87.913 6.16209 87.6076C7.5143 87.7461 8.79151 87.3175 10.145 87.4064C11.8325 87.4115 13.5123 87.5323 15.1969 87.5586C14.3904 86.8783 13.0795 86.5967 12.6857 85.6053C11.8907 83.8305 11.1454 82.0381 10.2671 80.299C9.67862 78.9125 8.61903 77.6346 8.22751 76.187C8.48528 75.3068 9.29324 74.5423 9.76048 73.7549C10.7585 72.0896 12.0265 70.6345 13.0315 68.9718Z" fill="#202530"/>
<path d="M29.6392 73.9888C28.9647 74.4138 28.2273 74.7167 27.5707 75.1776C27.046 75.5402 26.478 75.7528 25.8622 75.905C25.8787 75.7186 25.8952 75.5346 25.9117 75.3482C27.1881 74.8581 28.2922 73.7394 29.6392 73.9888Z" fill="#202530"/>
<path d="M24.2299 77.1381C23.6606 78.6039 22.8638 79.948 22.3643 81.4487C22.2408 81.3982 22.1197 81.3478 21.9963 81.2974C22.4333 79.9394 22.7883 78.5699 23.3631 77.2556C23.6514 77.2085 23.9394 77.1756 24.2299 77.1381Z" fill="#202530"/>
<path d="M53.1805 84.6285C53.3218 84.5327 53.4677 84.4395 53.6136 84.3486C53.5499 85.832 53.674 87.3367 53.4859 88.8098C53.2071 87.4643 53.0491 85.9966 53.1805 84.6285Z" fill="#202530"/>
<path d="M21.8349 84.2232C21.7749 85.4678 22.2084 86.5618 22.4321 87.7593C21.7323 87.0487 21.2093 86.0517 21.1029 85.0534C21.2055 84.7226 21.6025 84.475 21.8349 84.2232Z" fill="#202530"/>
<path d="M47.6794 85.3043L47.8725 85.3021L47.9764 85.4726L47.8872 85.6477L47.6917 85.6522L47.5949 85.4795L47.6794 85.3043Z" fill="white"/>
<path d="M11.4509 93.7225C11.7741 93.4186 12.5505 93.7079 12.8717 93.9431C13.8338 94.7976 13.4417 96.4215 12.2406 96.8213C11.4605 96.5839 10.8095 95.8958 10.5037 95.1503C10.455 94.565 11.0651 94.0863 11.4509 93.7225Z" fill="white"/>
<path d="M55.0687 97.0885C55.8605 97.0543 56.6545 97.1147 57.4478 97.1089C57.2787 98.2041 57.0632 99.2746 56.7116 100.327C56.0115 100.09 55.3682 100.028 54.9646 99.3323C54.8372 98.6031 54.9397 97.8112 55.0687 97.0885Z" fill="white"/>
<path d="M53.4224 106.113C53.8424 106.256 54.1046 106.868 54.3307 107.231C55.149 108.647 54.9704 110.392 54.5272 111.901C55.3028 112.408 55.7001 112.517 56.6432 112.456C56.9133 113.958 57.0126 115.511 57.3916 116.987C57.5602 116.745 57.6702 116.493 57.7263 116.229C57.6191 115.449 57.5883 114.715 57.6037 113.928L57.7993 113.919C57.7575 115.098 57.8067 116.215 58.2658 117.319C57.9652 117.292 57.6623 117.263 57.3617 117.237C57.6536 118.346 58.1549 119.18 58.1615 120.308C58.1803 121.696 58.3147 123.073 58.2816 124.468C57.3791 124.414 56.4543 124.313 55.5538 124.368C53.8742 124.516 52.224 124.988 50.5591 125.208C50.1105 125.26 49.9107 125.158 49.6613 124.785C49.2419 123.602 49.4359 122.453 49.3849 121.217C49.3904 120.262 49.2308 119.321 49.2504 118.364C49.3413 116.461 48.8732 114.597 48.8771 112.689C48.6018 111.02 48.7726 109.395 48.7708 107.709C49.0707 107.579 49.3705 107.452 49.6726 107.327C49.4454 107.099 49.2182 106.871 48.991 106.641C50.4415 106.339 51.9415 106.127 53.4224 106.113Z" fill="white"/>
<path d="M57.5411 112.583C57.8776 112.4 57.967 113.419 57.7869 113.559C57.3306 113.732 57.3194 112.788 57.5411 112.583Z" fill="white"/>
<path d="M54.2325 116.256C54.7907 116.706 55.3732 117.03 56 117.37C56.2438 118.613 56.2911 119.898 56.5228 121.153C56.1289 121.275 55.758 121.332 55.4742 121.663C55.0555 122.021 54.682 122.638 54.0496 122.426C53.4757 122.224 52.6746 121.7 52.6329 121.03C52.643 120.356 52.9904 119.653 53.2414 119.038C53.7238 118.949 54.2476 118.806 54.7409 118.844C55.2003 118.922 55.6298 119.248 56.0411 119.457C55.8224 118.706 55.892 117.639 54.9806 117.38C54.2476 117.143 53.0467 116.607 52.3618 117.162C51.78 117.828 51.7407 119.002 51.6507 119.853C51.8854 121.084 52.4031 122.289 52.78 123.479C52.3705 123.293 51.9905 123.241 51.7877 122.794C51.246 121.236 50.8716 119.763 51.262 118.11C51.4868 117.324 52.1422 116.636 52.7052 116.064C53.1281 115.535 53.8046 115.959 54.2325 116.256Z" fill="#202530"/>
<path d="M53.3154 120.206C54.0819 120.145 54.4443 120.145 55.0455 120.661C54.689 120.704 54.2671 120.819 53.9117 120.727C53.6917 120.586 53.499 120.39 53.3154 120.206Z" fill="white"/>
<path d="M55.1033 122.729C55.4725 122.836 55.8024 123.099 56.1293 123.295C55.0537 123.754 54.0036 123.581 52.8762 123.488C53.5025 122.835 54.2568 122.79 55.1033 122.729Z" fill="#202530"/>
<path d="M25.3291 125.582C26.5923 126.905 28.0331 128.004 29.3302 129.288C28.2781 128.918 27.7003 128.13 26.7537 127.498C26.0526 127.024 25.5313 126.424 25.3291 125.582Z" fill="#202530"/>
<path d="M23.4018 130.279C20.9312 130.249 18.4355 130.834 16.0328 131.371C17.2614 131.835 18.3562 132.376 19.4928 133.034C22.782 134.931 26.6355 135.559 29.8913 137.384C29.674 137.693 29.5299 138.082 29.1774 138.246C28.2972 138.706 27.3743 139.082 26.5008 139.556C27.2479 140.535 28.1967 141.264 29.1835 141.98C28.1398 141.558 27.1719 141.118 26.3155 140.363C26.0061 140.13 25.921 139.587 26.2684 139.347C27.1368 138.52 28.2559 138.107 29.1019 137.237C26.513 136.026 23.6669 135.954 21.0556 134.79C19.3859 134.183 17.853 133.283 16.1803 132.694C16.3595 133.145 16.5319 133.585 16.8471 133.962C17.747 135.042 18.5911 136.092 19.6287 137.031C18.2972 137.468 17.0165 137.941 15.9092 138.816C17.112 139.554 18.4825 140.081 19.7924 140.589C21.0275 141.072 22.2055 141.677 23.4507 142.134C24.6882 142.62 25.9733 142.896 27.1579 143.515C28.3619 144.113 29.5776 144.066 30.8803 144.116C31.091 142.683 30.7918 141.12 30.5123 139.711C30.3449 138.89 30.4144 138.008 30.3863 137.17C32.4743 137.162 34.3726 136.373 36.4602 136.563C34.6994 137.036 32.9598 137.505 31.1674 137.833C30.9036 138.855 31.2178 139.828 31.2436 140.848C31.2971 141.984 31.0383 142.994 31.467 144.091C33.6028 143.868 35.7269 143.549 37.8571 143.27C41.1963 142.647 44.3831 142.005 47.8031 142.094C49.9469 141.929 52.0647 141.858 54.2109 142.057C52.7196 142.387 51.1586 142.315 49.7254 142.77C48.1101 143.256 46.5119 143.443 44.8532 143.694C43.0245 143.969 41.1614 144.389 39.3273 144.503C38.5188 144.551 37.7461 144.761 36.9904 145.047C37.2595 146.217 37.4057 147.41 37.4363 148.612C37.7148 151.079 37.7829 153.58 37.932 156.045C37.9948 157.182 37.8247 158.317 38.0083 159.429C38.1594 160.702 38.1996 161.99 38.3249 163.265C38.5177 164.287 38.5239 165.247 38.3752 166.281L37.7902 166.146C37.1576 163.999 37.1249 161.397 36.9217 159.212C37.0228 157.089 36.8052 155.002 36.8026 152.886C36.7483 152.061 36.5667 151.241 36.4746 150.42C36.4117 149.378 36.5176 148.272 36.3772 147.221C36.2881 146.561 36.1205 145.933 35.996 145.277C34.4745 145.314 32.994 145.409 31.5692 145.997C31.3172 148.497 31.8849 151.162 32.2429 153.647C32.3679 154.934 32.2131 156.205 32.5054 157.482C32.7502 158.59 32.6768 159.44 32.3551 160.521C33.8296 162.143 35.098 164.003 36.6784 165.533C37.1328 165.987 37.5365 166.494 37.9643 166.983C39.1994 166.541 40.4152 166.12 41.739 166.081C43.6645 165.983 45.6482 165.814 47.4909 165.177C48.0986 164.975 48.7313 164.622 49.3727 164.577C49.7681 164.67 50.1421 164.864 50.5122 165.027C49.2391 165.759 47.8604 165.917 46.4848 166.329C44.813 167.003 43.0524 166.911 41.3051 167.408C40.3026 167.586 39.2651 168.03 38.255 168.045C37.3136 167.207 36.1283 166.614 35.4345 165.577C34.4722 164.267 33.5097 162.967 32.3502 161.824C31.8266 161.312 31.7697 160.681 31.4632 160.054C30.8557 159.786 30.1501 159.671 29.4929 159.602C27.9691 159.544 26.5276 159.401 25.0261 159.763C24.3405 159.882 23.8137 160.33 23.1461 160.481C20.6628 161.042 18.2944 160.785 15.7937 160.644C14.9409 160.579 14.1823 160.886 13.3339 160.929C13.929 160.573 14.6566 160.191 15.3652 160.186C16.5475 160.157 17.6797 160.521 18.869 160.497C20.7233 160.606 22.3662 160.052 24.1925 159.874C25.3853 159.523 26.6268 159.572 27.824 159.236C28.9806 158.92 30.1488 158.89 31.3363 158.843C31.3051 157.756 31.3807 156.73 31.2117 155.692C30.9471 153.976 30.8547 152.242 30.5925 150.524C30.4204 149.332 30.7032 148.025 30.3674 146.881C30.0473 146.329 29.623 145.706 29.2333 145.204C28.2021 144.66 26.9987 144.41 25.9251 143.957C24.5272 143.301 23.001 142.88 21.5247 142.438C19.555 141.777 17.7611 140.866 15.685 140.596C15.5411 140.33 15.3996 140.064 15.2557 139.797C14.8292 139.82 14.405 139.837 13.9753 139.8C13.6822 138.923 13.953 137.993 13.9413 137.066C13.9122 135.436 13.7905 133.837 13.1631 132.314C13.2747 131.816 13.4927 131.204 13.8066 130.801C15.2886 130.186 17.1425 130.588 18.7787 130.294C20.3691 130.046 21.8096 130.045 23.4018 130.279Z" fill="#202530"/>
<path d="M50.9692 131.463C51.7473 131.502 52.4539 131.948 53.1417 132.294C54.1489 132.856 55.2162 133.276 56.1963 133.888C55.9417 134.363 55.5675 134.735 55.6236 135.304C55.6775 136.513 55.9789 137.71 56.0234 138.922C56.0402 139.651 56.2323 140.332 56.4336 141.023C56.1286 141.171 55.8259 141.317 55.5233 141.463C55.185 139.036 54.7652 136.57 54.743 134.113C53.9176 133.716 53.144 133.221 52.2988 132.859C51.623 132.504 50.9791 132.369 50.9692 131.463Z" fill="#202530"/>
<path d="M14.7729 132.329C16.2452 133.76 17.7024 135.23 19.03 136.796C17.8754 137.126 16.7682 137.53 15.6442 137.951C15.292 138.103 15.0454 137.99 14.9068 137.611C14.7352 135.845 14.5559 134.104 14.7729 132.329Z" fill="white"/>
<path d="M18.9424 137.557C20.1617 137.924 21.3827 138.409 22.5687 138.882C21.3094 138.883 19.8513 138.467 18.9424 137.557Z" fill="#202530"/>
<path d="M57.9437 139.867C58.4178 140.288 58.8607 140.737 59.2842 141.207C58.8933 141.303 58.505 141.395 58.1167 141.487C58.0833 141.779 58.0523 142.071 58.019 142.364C58.3787 142.567 58.7457 142.758 59.115 142.95C58.8404 143.198 58.5635 143.444 58.2865 143.69C57.9762 143.304 57.6975 142.975 57.6565 142.459C57.588 141.542 57.3423 140.653 57.9437 139.867Z" fill="#202530"/>
<path d="M29.4691 142.327C29.8206 142.109 30.0792 142.676 29.6537 142.748C29.4184 142.655 29.3561 142.514 29.4691 142.327Z" fill="#202530"/>
<path d="M50.1287 144.045C50.3462 144.008 50.5658 143.981 50.7852 143.958C51.5394 146.046 50.7898 147.94 51.1707 150.175C51.2332 153.546 51.5895 156.93 52.0247 160.27C53.2957 160.269 54.5575 160.167 55.8284 160.263C57.4778 160.378 59.1201 160.217 60.7669 160.339C64.207 160.564 67.6946 160.404 71.1207 160.806C70.0182 160.846 68.9205 160.88 67.8188 160.793C63.7287 160.584 59.6665 160.479 55.582 160.883C54.3499 160.927 53.1373 160.944 51.9194 161.171C51.9319 162.157 52.0805 163.071 52.4502 163.989C56.0234 164.162 59.6222 163.793 63.1983 163.759C65.0373 163.637 66.8364 163.972 68.6802 163.941C66.867 164.159 65.0611 163.905 63.2517 164.16C61.0549 164.281 58.8619 164.44 56.6698 164.656C55.0147 164.86 53.4385 164.645 51.833 165.212C51.5468 164.063 51.3451 162.925 51.2976 161.741C50.6251 157.092 50.1696 152.424 50.1928 147.722C50.2236 146.975 50.2423 146.238 50.1199 145.499C50.0616 145.018 49.9356 144.511 50.1287 144.045Z" fill="#202530"/>
<path d="M58.526 153.786C58.3382 154.413 57.9901 155.052 57.9381 155.705C58.2264 156.309 58.4485 156.461 59.114 156.39C59.8836 155.745 59.6089 154.887 59.7305 153.992C59.9714 154.608 60.3501 155.358 59.9154 155.978C59.5138 156.497 58.7753 157.214 58.061 156.981C57.4082 156.645 57.4741 155.904 57.5136 155.278C57.5221 154.572 58.0721 154.233 58.526 153.786Z" fill="#202530"/>
<path d="M79.4645 162.307C80.0128 162.959 79.355 163.373 78.769 163.554C77.2978 163.928 75.7297 164.137 74.2809 164.648C73.967 164.775 73.7054 165.064 73.4527 165.282C73.9363 165.517 74.4081 165.751 74.9346 165.873C77.5223 166.483 80.321 166.663 82.9636 166.872C83.9982 167.003 85.1011 167.227 86.1139 167.477C86.767 167.709 87.5548 168.108 87.918 168.725C88.2479 169.452 87.58 169.983 87.19 170.508C87.3134 170.102 87.4979 169.695 87.558 169.276C87.5115 168.79 87.0997 168.231 86.623 168.096C84.5354 167.352 82.2164 167.099 80.0162 166.984C77.9806 166.696 75.5548 166.937 73.5856 166.255C72.8309 166.037 73.0403 165.116 73.0107 164.521C73.8913 164.232 74.778 163.98 75.6519 163.678C76.889 163.346 78.1298 163.235 79.2957 162.65C78.1025 161.719 76.8422 161.855 75.456 161.479C76.6964 160.834 78.4899 161.388 79.4645 162.307Z" fill="#202530"/>
<path d="M13.8648 162.266C14.1017 162.856 14.2251 163.555 14.5716 164.088C16.3068 165.178 18.6268 165.393 20.6101 165.611C21.9483 165.839 23.2653 165.79 24.6167 165.867C25.5544 165.924 26.7359 165.739 27.5987 166.149C28.8568 166.843 29.68 167.973 30.6305 169.009C30.1414 169.637 29.5124 170.028 28.8634 170.466C28.3607 170.798 28.221 171.291 27.9958 171.815C29.974 172.7 32.0762 172.777 34.1105 173.396C33.6148 173.547 33.186 173.657 32.6689 173.535C31.2678 173.284 29.7393 173.226 28.3983 172.743C27.6229 172.413 27.1702 171.794 27.4627 170.936C28.0191 170.163 28.8691 169.593 29.6406 169.062C29.1854 168.634 28.7367 168.23 28.4474 167.667C28.0189 166.84 27.1905 166.28 26.2702 166.19C25.1495 166.112 24.0765 166.286 22.9589 166.269C21.6901 166.275 20.459 166 19.1937 165.963C17.6204 165.911 16.0454 165.554 14.602 164.931C13.6968 164.338 13.5242 163.258 13.8648 162.266Z" fill="#202530"/>
<path d="M23.2875 163.256C25.4055 162.898 27.9519 163.093 29.9816 163.804C28.2819 163.908 26.592 163.721 24.8886 163.788C24.3954 163.745 23.4888 163.854 23.2875 163.256Z" fill="#202530"/>
<path d="M86.6626 170.965C86.7203 171.196 86.7685 171.429 86.8167 171.662C85.0607 172.407 83.4197 172.24 81.8377 173.268C82.1715 173.655 82.4966 174.106 82.9101 174.412C83.7317 174.96 84.7676 175.228 85.5454 175.834C85.8073 176.086 86.1649 176.368 86.1146 176.775C86.0844 177.311 85.801 177.72 85.3107 177.932C83.9975 178.573 82.4683 178.823 81.0266 178.966C82.4864 178.667 83.8594 178.359 85.155 177.576C85.4951 177.348 85.6546 177.182 85.689 176.757C84.7643 175.452 82.7134 175.575 81.7601 174.375C81.4343 173.951 80.9592 173.478 81.0917 172.895C81.5123 172.461 82.1258 172.214 82.7101 172.099C84.0774 171.829 85.408 171.617 86.6626 170.965Z" fill="#202530"/>
<path d="M72.3343 171.284C72.326 171.979 72.2335 172.563 71.625 172.98C70.8914 173.413 69.9079 173.49 69.0922 173.727C67.2423 174.28 65.5438 174.523 64.1254 175.967C64.5267 176.476 64.8912 176.949 65.5258 177.169C67.0596 177.756 68.9565 177.672 70.5741 177.649C71.6365 177.613 72.681 177.729 73.7389 177.777C72.7995 177.881 71.8593 177.921 70.9168 177.963C69.4817 178.123 67.9757 178.198 66.5457 177.975C65.5004 177.707 64.4471 177.475 63.7547 176.568C63.4592 176.248 63.4552 175.664 63.8198 175.397C65.8823 173.522 68.9847 173.79 71.3849 172.149C69.5933 171.703 67.7984 171.665 65.9671 171.578C64.0458 171.51 62.1713 171.734 60.255 171.839C57.8873 171.928 55.5385 172.199 53.1644 172.259C49.7081 172.488 46.2519 172.987 42.8222 173.37C41.2441 173.413 39.7094 173.695 38.1368 173.617C39.0313 173.056 40.354 173.243 41.3757 173.144C43.5038 172.948 45.5958 172.594 47.7398 172.601C51.3682 172.273 54.9949 172.1 58.6193 171.746C59.8927 171.743 61.1475 171.73 62.4158 171.561C63.9719 171.362 65.5183 171.453 67.0798 171.417C68.863 171.361 70.5656 171.695 72.3343 171.284Z" fill="#202530"/>
<path d="M56.6636 176.371C57.4964 176.295 58.2409 176.175 58.8566 176.859C58.1174 176.959 57.3734 176.968 56.6344 177.056C56.0614 177.098 55.6171 177.538 55.1666 177.853C55.3837 178.202 55.5791 178.755 55.9747 178.931C56.668 179.249 57.5397 179.217 58.2775 179.084C58.7515 179.046 58.9465 178.6 59.258 178.288C59.2355 178.527 59.2153 178.765 59.1975 179.003C58.0198 179.498 56.8169 179.967 55.5936 179.295C54.7832 178.676 55.0651 177.955 55.0147 177.069C55.5228 176.803 56.0896 176.451 56.6636 176.371Z" fill="#202530"/>
<path d="M46.5695 177.346C47.4071 177.176 48.3346 177.261 49.1687 177.412C48.0571 177.712 46.6816 177.566 45.6721 178.11C45.6247 178.4 45.589 178.695 45.5674 178.99C46.1344 178.997 46.7021 178.981 47.27 178.953C47.2404 179.101 47.2108 179.247 47.1835 179.393C46.6391 179.511 46.143 179.676 45.5816 179.631C45.2519 179.178 45.215 178.501 45.0945 177.963C45.5755 177.744 46.062 177.496 46.5695 177.346Z" fill="#202530"/>
<path d="M92.787 192.861C93.5547 192.837 94.4554 192.884 95.1418 193.255C96.436 194.112 97.8148 194.785 99.0538 195.732L98.9266 195.94C99.3937 195.995 99.8306 196.044 100.229 196.316C100.981 196.792 101.753 197.218 102.579 197.554C102.73 197.721 102.884 197.888 103.036 198.055C102.896 198.639 103.079 199.348 102.399 199.598C101.284 200.133 100.421 200.953 99.4045 201.635C98.6814 202.136 98.0651 202.788 97.4959 203.454C97.3627 203.498 97.2274 203.543 97.0941 203.589C96.9417 203.78 96.7913 203.973 96.6411 204.164C97.6983 204.446 98.7761 204.518 99.8664 204.563C101.062 204.601 102.117 205.136 103.309 205.237C104.589 205.382 105.872 205.574 107.153 205.669C107.41 205.742 107.667 205.816 107.926 205.889C107.523 207.304 107.487 208.853 107.652 210.309C107.781 211.622 107.478 212.9 107.642 214.212C107.635 216.817 107.865 219.652 107.178 222.185C107.032 222.027 106.885 221.867 106.737 221.707C106.025 222.327 105.376 223.008 104.763 223.724C104.652 223.798 104.541 223.869 104.43 223.943C103.767 224.623 103.037 225.23 102.386 225.924C101.672 226.686 100.762 227.109 100.011 227.827C99.3918 228.416 98.9915 229.098 98.2044 229.5C97.8919 229.864 97.5878 230.233 97.2401 230.564C97.1998 230.738 97.1572 230.911 97.1168 231.084L96.8441 231.019C96.2792 231.952 95.4452 232.527 94.7048 233.293C94.0045 233.509 93.3724 233.866 92.6973 234.137C90.8284 233.926 88.9569 233.952 87.0868 233.763C86.0062 233.625 84.9206 233.613 83.8481 233.408C82.27 233.138 80.681 233.173 79.0952 232.998C78.2591 232.924 77.4445 232.78 76.6028 232.804C76.0087 232.648 75.4522 232.443 74.9191 232.133C74.7289 232.148 74.5365 232.163 74.3462 232.178C74.3045 231.954 74.263 231.729 74.2215 231.503C73.9923 231.399 73.7633 231.292 73.5342 231.186C73.6649 230.918 73.7956 230.65 73.9305 230.384C73.7352 230.145 73.5498 229.961 73.2776 229.809C73.1593 225.974 73.1061 222.143 73.0967 218.305C73.1541 217.53 73.1762 216.724 73.3738 215.97C74.2175 213.778 74.99 211.536 75.6092 209.27C75.7177 209.124 75.8239 208.981 75.9302 208.835C76.0871 207.46 76.5325 206.104 77.0006 204.808C77.1683 204.234 77.3528 203.672 77.6081 203.129C78.3508 202.703 79.0621 202.255 79.6553 201.628C80.1649 201.091 80.6891 200.68 81.3185 200.293C81.9108 199.872 82.5344 199.474 83.1921 199.164C84.4822 198.646 85.6086 197.717 86.8049 196.972C88.4032 195.822 90.0725 194.801 91.6263 193.592C91.7801 193.53 91.934 193.465 92.0859 193.397C92.3242 193.227 92.5547 193.04 92.787 192.861Z" fill="#202530"/>
<path d="M93.9739 194.039C95.8325 194.963 97.1727 196.425 99.075 197.308C99.9328 197.687 100.749 198.107 101.539 198.614C100.5 199.73 99.3073 200.634 98.022 201.449C97.233 201.923 96.902 202.763 96.1484 203.264C95.8809 203.45 95.597 203.619 95.3195 203.789C95.2794 203.919 95.2373 204.047 95.1973 204.175C93.6663 204.758 92.4641 206.175 91.0745 207.026C90.2298 207.522 89.403 208.047 88.5604 208.544C87.4892 208.051 86.5216 207.384 85.6127 206.64C84.4572 205.678 83.2228 204.803 82.0204 203.901C81.2431 203.827 80.4745 203.791 79.6948 203.836C78.8166 204.955 78.7433 206.276 78.114 207.498C77.5933 208.611 77.6006 209.969 77.3118 211.176C77.007 212.471 77.086 213.679 76.4717 214.867C76.207 215.271 75.7181 215.56 75.3319 215.841C75.3189 216.298 75.306 216.753 75.2908 217.21C75.4203 217.152 75.5521 217.094 75.6817 217.035C75.7106 216.759 75.7394 216.483 75.7704 216.207C77.3413 215.613 78.5034 214.515 79.9051 213.643C81.0784 212.884 82.1085 211.962 83.2309 211.139C84.0455 210.561 84.6318 209.748 85.4121 209.123C85.2827 209.139 85.1533 209.156 85.0218 209.172C84.5048 209.533 83.9878 209.894 83.5051 210.302C81.6098 211.927 79.4656 213.297 77.36 214.638C77.4029 213.201 77.9617 211.994 78.2451 210.577C78.6262 209.165 78.5316 207.886 79.3335 206.654C79.5544 206.216 79.7909 205.85 80.1335 205.492C80.0604 205.095 79.9831 204.696 79.9099 204.299C80.1397 204.241 80.3693 204.184 80.6012 204.126C80.5912 204.301 80.5835 204.474 80.5736 204.647C81.0235 204.851 81.473 205.061 81.9201 205.275L81.8544 204.673C82.1638 204.821 82.4752 204.971 82.7846 205.118C82.7408 205.276 82.6968 205.437 82.6529 205.595C83.9563 206.292 85.2189 207.056 86.5343 207.732C86.3267 207.937 86.1211 208.144 85.9133 208.351C86.1625 208.181 86.4095 208.011 86.6566 207.841C87.1067 208.231 87.559 208.621 88.009 209.013C87.6988 209.145 87.3907 209.279 87.0787 209.407C87.4523 209.307 87.8211 209.215 88.2104 209.222C88.0131 209.588 87.7672 209.93 87.5425 210.281C89.1457 209.616 90.3902 208.143 91.8009 207.152C92.797 206.484 93.6451 205.661 94.5576 204.893C94.6952 205.077 94.8348 205.263 94.9722 205.448C96.0061 205.375 97.0353 205.345 98.0687 205.471C100.713 205.789 103.343 206.237 105.984 206.581C106.079 207.31 106.184 208.039 106.332 208.761C106.659 210.391 106.727 212.061 106.556 213.712C106.535 214.804 106.522 215.871 106.369 216.955C106.205 218.191 106.535 219.372 106.485 220.592C106.464 220.96 106.205 221.11 105.966 221.346C105.339 221.878 104.776 222.475 104.12 222.98C103.31 223.619 102.667 224.409 101.882 225.08C100.918 225.938 99.814 226.592 98.8894 227.496C97.5552 228.749 95.9889 229.833 94.8115 231.239C94.376 231.735 93.7752 232.039 93.2181 232.378C93.0665 231.983 92.9149 231.588 92.7656 231.191C92.8775 230.948 92.9915 230.705 93.1035 230.46C92.8663 230.421 92.6293 230.377 92.3889 230.354C92.0729 231.39 92.2333 232.545 91.9894 233.613C90.9285 233.472 89.8748 233.321 88.8451 233.017C87.2288 232.691 85.5294 232.867 83.8966 232.6C82.0406 232.279 80.1775 232.348 78.3196 232.021C77.2851 231.877 76.3405 231.606 75.291 231.8C75.1652 231.296 75.0438 230.793 74.9135 230.291C74.4504 229.366 74.7661 228.528 74.6509 227.495C74.4708 225.541 74.4715 223.585 74.3547 221.629C74.2524 220.029 74.3631 218.434 74.2412 216.833C74.2044 216.41 74.4739 216.152 74.6664 215.792C75.0672 213.273 76.0518 210.976 76.7698 208.545C77.2273 207.016 78.0288 205.636 78.5119 204.115C78.2874 204.12 78.0608 204.124 77.8363 204.129C77.795 203.938 77.7559 203.745 77.7146 203.553C77.9986 203.613 78.2825 203.673 78.5663 203.734C78.9518 203.694 79.3392 203.657 79.7264 203.625C80.1588 203.068 80.5077 202.524 81.093 202.111C81.6378 201.719 82.1744 201.32 82.6911 200.888C84.7517 199.19 87.4017 198.227 89.4331 196.508C91.0139 195.854 92.5246 194.943 93.9739 194.039Z" fill="#FF7D54"/>
<path d="M82.0582 205.177L82.2175 205.093L82.3709 205.19L82.3628 205.37L82.2035 205.452L82.0523 205.356L82.0582 205.177Z" fill="#202530"/>
<path d="M100.082 211.373C99.3315 212.551 98.231 212.989 97.142 213.799C95.9234 214.59 94.816 215.531 93.5835 216.298C92.9632 216.716 92.4677 217.31 91.966 217.861C92.3912 219.831 91.9301 221.652 92.0307 223.625C92.0529 224.533 91.9724 225.446 91.8752 226.347C91.4459 225.364 91.4651 224.38 91.2434 223.346C90.9357 221.758 90.8922 220.157 90.9298 218.546C89.1501 217.537 86.7519 217.637 84.7584 217.321C84.1074 217.169 83.5185 216.884 82.8356 216.834C81.7171 216.75 80.5824 216.835 79.4647 216.888C78.6681 216.923 77.7923 217.164 77.0093 216.998C76.9403 216.605 76.9124 216.218 76.8765 215.817C78.8659 216.282 80.8414 216.225 82.8485 216.494C83.7864 216.615 84.7235 216.56 85.663 216.653C87.5658 216.842 89.5359 216.956 91.4389 216.761C92.1779 216.515 92.7947 215.854 93.4642 215.452C94.6558 214.715 95.7854 213.919 96.9085 213.085C97.4369 212.677 98.0412 212.501 98.6644 212.3C98.6935 212.172 98.7248 212.044 98.7539 211.915C99.1974 211.737 99.6389 211.554 100.082 211.373Z" fill="#202530"/>
<path d="M79.6528 220.459C82.071 220.542 84.4908 220.75 86.9105 220.847C86.9232 223.368 87.1863 225.888 87.3102 228.407C87.2918 228.766 87.3604 229.167 87.0144 229.392C86.6233 229.455 86.2095 229.42 85.8164 229.404C83.6064 229.258 81.3926 229.141 79.1813 229.016C79.3702 227.958 79.5657 226.9 79.7612 225.839C80.1145 224.114 79.7077 222.203 79.6528 220.459Z" fill="#202530"/>
<path d="M80.6119 220.696C80.5435 221.436 80.4258 222.162 80.226 222.877C80.1648 222.349 80.0679 221.797 80.1027 221.263C80.084 220.943 80.4094 220.888 80.6119 220.696Z" fill="#FF7D54"/>
<path d="M81.0219 220.882C82.1419 220.939 83.2616 221.003 84.3791 221.067C84.46 222.813 84.6433 224.559 84.6437 226.305C83.1053 226.33 81.6054 226.177 80.0636 226.108C80.3918 224.366 80.6659 222.616 81.0219 220.882Z" fill="#FF7D54"/>
<path d="M84.6962 221.076C84.952 221.095 85.2056 221.114 85.4614 221.133C85.5749 223.3 85.7387 225.463 85.8523 227.628C83.8592 227.724 81.8508 227.479 79.86 227.383C79.9128 227.069 79.9654 226.758 80.0202 226.446C81.5831 226.564 83.1473 226.621 84.71 226.74C84.884 226.325 85.0423 225.955 84.986 225.492C84.8851 224.02 84.7928 222.548 84.6962 221.076Z" fill="#FF7D54"/>
<path d="M85.7738 221.12C86.0178 221.156 86.2639 221.192 86.5079 221.227C86.665 223.811 86.8049 226.394 86.9971 228.973C86.1681 229.042 85.3649 229.04 84.5351 228.971C82.8841 228.833 81.2629 228.86 79.626 228.588C79.6748 228.307 79.7235 228.026 79.7722 227.744C81.3039 227.836 82.8388 227.911 84.3717 228.02C84.882 228.043 85.449 228.101 85.95 227.982C86.1994 227.541 86.1224 226.908 86.1156 226.417C86.0031 224.652 85.8885 222.886 85.7738 221.12Z" fill="#FF7D54"/>
<path d="M131.876 127.85C132.426 127.12 132.366 126.54 131.936 126.1C131.596 125.75 130.956 125.69 130.466 125.93C129.976 126.17 129.306 126.87 129.006 127.47C128.956 127.57 128.976 127.63 129.106 127.65C129.516 127.73 129.866 127.49 130.186 127.09C130.656 126.5 131.266 125.93 131.636 126.32C132.066 126.77 131.136 128.15 129.006 128.78C128.876 128.82 128.856 128.9 128.916 128.97C129.436 129.6 130.076 128.99 130.486 129.27C130.806 129.49 130.506 130.2 130.026 130.8C129.486 131.48 128.656 131.88 128.156 131.57C127.796 131.34 127.806 130.63 128.306 129.83C128.356 129.75 128.326 129.69 128.226 129.69C127.926 129.69 127.576 129.92 127.406 130.34C127.256 130.7 127.226 131.44 127.916 131.89C128.556 132.31 129.756 132.29 130.606 131.25C131.346 130.34 131.486 129.48 130.976 129.05C130.856 128.95 130.686 128.89 130.516 128.85C131.116 128.6 131.626 128.18 131.876 127.85ZM139.791 131.1C139.961 130.83 140.011 130.61 139.991 130.52C139.971 130.42 139.881 130.42 139.821 130.5C139.421 131.03 138.871 131.58 138.031 132C138.451 131.03 139.081 129.82 139.381 129.22C139.631 128.73 139.551 128.3 139.401 128.12C139.331 128.03 139.231 128.04 139.151 128.18C139.051 128.35 138.941 128.53 138.821 128.73C138.831 128.38 138.631 128.07 138.231 128.07C137.721 128.07 136.911 128.52 136.131 129.68C135.321 130.88 135.501 132.13 136.421 132.13C136.791 132.13 137.141 131.92 137.431 131.63C137.331 131.86 137.241 132.1 137.141 132.32C136.151 132.7 135.291 133.31 135.001 134.21C134.811 134.8 134.991 135.15 135.201 135.45C135.381 135.71 135.581 135.74 135.781 135.66C136.591 135.34 137.301 133.75 137.851 132.41C138.681 132.11 139.401 131.71 139.791 131.1ZM137.951 130.32C137.441 131.2 136.931 131.83 136.541 131.82C136.141 131.81 136.251 130.93 136.791 130.07C137.341 129.2 138.071 128.56 138.381 128.58C138.671 128.6 138.581 129.22 137.951 130.32ZM136.971 132.73C136.321 134.25 135.531 135.29 135.401 135.1C135.231 134.86 135.671 133.49 136.971 132.73ZM143.894 128.75C143.914 128.36 143.714 128.03 143.284 128.03C142.784 128.03 141.994 128.48 141.184 129.66C140.354 130.87 140.544 132.14 141.474 132.14C141.954 132.14 142.404 131.77 142.724 131.36C142.724 131.83 143.004 132.15 143.544 132.18C144.094 132.21 144.724 131.66 144.984 131.11C145.114 130.83 145.114 130.58 145.074 130.49C145.034 130.4 144.964 130.41 144.914 130.5C144.564 131.19 144.014 131.87 143.604 131.89C143.264 131.91 143.274 131.48 143.524 130.92C143.764 130.39 144.264 129.64 144.484 129.19C144.724 128.69 144.644 128.26 144.494 128.08C144.424 127.99 144.344 128.01 144.254 128.14C144.144 128.3 144.024 128.51 143.894 128.75ZM143.024 130.3C142.514 131.18 141.994 131.82 141.584 131.81C141.194 131.8 141.324 130.92 141.854 130.06C142.404 129.17 143.134 128.52 143.454 128.55C143.744 128.58 143.654 129.2 143.024 130.3ZM146.707 130C147.597 129.42 148.717 128.22 149.027 126.99C149.147 126.52 149.087 126.15 148.797 125.89C148.657 125.76 148.517 125.78 148.367 125.94C147.347 127 146.207 128.81 145.837 130.55C145.607 131.63 145.977 132.11 146.667 132.13C147.467 132.15 148.197 131.32 148.337 131.02C148.447 130.78 148.487 130.56 148.437 130.4C148.397 130.26 148.287 130.27 148.217 130.4C147.827 131.17 147.127 131.89 146.647 131.85C146.197 131.81 146.307 130.98 146.707 130ZM146.887 129.57C146.957 129.41 147.037 129.25 147.127 129.09C147.817 127.81 148.557 126.7 148.687 126.78C148.817 126.86 148.257 128.46 146.887 129.57ZM150.011 130C150.901 129.42 152.021 128.22 152.331 126.99C152.451 126.52 152.391 126.15 152.101 125.89C151.961 125.76 151.821 125.78 151.671 125.94C150.651 127 149.511 128.81 149.141 130.55C148.911 131.63 149.281 132.11 149.971 132.13C150.771 132.15 151.501 131.32 151.641 131.02C151.751 130.78 151.791 130.56 151.741 130.4C151.701 130.26 151.591 130.27 151.521 130.4C151.131 131.17 150.431 131.89 149.951 131.85C149.501 131.81 149.611 130.98 150.011 130ZM150.191 129.57C150.261 129.41 150.341 129.25 150.431 129.09C151.121 127.81 151.861 126.7 151.991 126.78C152.121 126.86 151.561 128.46 150.191 129.57ZM160.026 131.11C160.176 130.8 160.176 130.6 160.126 130.48C160.096 130.4 159.996 130.4 159.956 130.48C159.566 131.2 159.096 131.85 158.696 131.86C158.316 131.87 158.266 131.42 158.526 130.85C158.766 130.33 159.236 129.61 159.456 129.16C159.706 128.65 159.396 128.14 159.066 128.1C158.726 128.06 158.066 128.6 157.616 129.07C157.726 128.72 157.726 128.38 157.576 128.13C157.516 128.04 157.436 128.04 157.366 128.15C156.826 128.97 156.176 129.7 155.546 129.71C155.556 129.65 155.556 129.58 155.556 129.53C155.616 128.81 155.316 128.75 155.076 128.43C154.876 128.16 154.706 128.07 154.406 128.1C153.806 128.15 153.206 128.72 152.816 129.4C152.366 130.18 152.216 131.06 152.656 131.65C153.046 132.18 153.556 132.19 153.916 132.07C154.656 131.83 155.296 130.8 155.496 129.95C155.846 129.97 156.156 129.88 156.426 129.7C156.126 130.23 155.906 130.75 155.796 131.06C155.626 131.56 155.696 131.88 155.876 132.08C155.966 132.18 156.036 132.12 156.066 132.05C156.476 131.11 156.946 130.15 157.526 129.52C158.166 128.82 158.726 128.56 158.846 128.6C159.016 128.66 158.146 129.72 157.806 130.7C157.516 131.55 157.726 132.17 158.556 132.17C159.146 132.17 159.756 131.67 160.026 131.11ZM154.916 129.53C154.716 129.37 154.646 129.08 154.676 128.86C154.716 128.57 154.926 128.51 154.976 128.83C155.006 129.01 154.976 129.25 154.916 129.53ZM154.846 129.8C154.766 130.05 154.646 130.33 154.476 130.65C153.996 131.55 153.376 131.9 153.106 131.68C152.836 131.46 152.976 130.53 153.416 129.78C153.636 129.41 153.916 129.06 154.196 128.83C154.206 129.22 154.496 129.61 154.846 129.8ZM161.216 130.36C161.206 130.28 161.206 130.2 161.196 130.12C161.186 129.96 161.106 129.92 160.986 130.02C160.646 130.3 160.616 130.96 160.856 131.41C161.196 132.03 161.756 132.18 162.336 132.16C163.046 132.13 163.726 131.75 164.106 131.06C164.276 130.75 164.286 130.49 164.246 130.4C164.206 130.32 164.106 130.29 164.056 130.4C163.806 130.94 163.386 131.54 162.716 131.79C163.076 131.55 163.146 131.13 163.166 130.74C163.196 130.05 163.006 129.27 163.076 128.35C163.116 128.28 163.146 128.22 163.186 128.16C163.316 127.93 163.366 127.82 163.266 127.72C163.176 127.63 162.946 127.67 162.726 127.87C162.516 128.06 162.416 128.25 162.366 128.64C162.076 129.15 161.626 129.8 161.216 130.36ZM162.346 129.28C162.386 130.08 162.536 131.65 162.076 131.79C161.746 131.89 161.456 131.48 161.306 130.9C161.686 130.36 162.056 129.81 162.346 129.28ZM142.843 141.71C142.983 140.62 143.183 140.06 143.363 139.29C143.503 138.68 143.453 138.31 143.123 138.03C143.043 137.96 142.963 138 142.923 138.11C142.583 139.15 142.313 140.58 142.273 141.28C142.243 141.81 142.383 142.01 142.773 142.2C142.873 142.25 142.923 142.18 142.973 142.1C143.933 140.58 144.843 139.62 145.343 138.99C145.663 138.59 145.783 138.33 145.753 138.12C145.733 137.99 145.673 137.97 145.563 138.08C144.883 138.78 143.553 140.54 142.843 141.71ZM146.209 140.36C146.199 140.28 146.199 140.2 146.189 140.12C146.179 139.96 146.099 139.92 145.979 140.02C145.639 140.3 145.609 140.96 145.849 141.41C146.189 142.03 146.749 142.18 147.329 142.16C148.039 142.13 148.719 141.75 149.099 141.06C149.269 140.75 149.279 140.49 149.239 140.4C149.199 140.32 149.099 140.29 149.049 140.4C148.799 140.94 148.379 141.54 147.709 141.79C148.069 141.55 148.139 141.13 148.159 140.74C148.189 140.05 147.999 139.27 148.069 138.35C148.109 138.28 148.139 138.22 148.179 138.16C148.309 137.93 148.359 137.82 148.259 137.72C148.169 137.63 147.939 137.67 147.719 137.87C147.509 138.06 147.409 138.25 147.359 138.64C147.069 139.15 146.619 139.8 146.209 140.36ZM147.339 139.28C147.379 140.08 147.529 141.65 147.069 141.79C146.739 141.89 146.449 141.48 146.299 140.9C146.679 140.36 147.049 139.81 147.339 139.28ZM131.876 147.85C132.426 147.12 132.366 146.54 131.936 146.1C131.596 145.75 130.956 145.69 130.466 145.93C129.976 146.17 129.306 146.87 129.006 147.47C128.956 147.57 128.976 147.63 129.106 147.65C129.516 147.73 129.866 147.49 130.186 147.09C130.656 146.5 131.266 145.93 131.636 146.32C132.066 146.77 131.136 148.15 129.006 148.78C128.876 148.82 128.856 148.9 128.916 148.97C129.436 149.6 130.076 148.99 130.486 149.27C130.806 149.49 130.506 150.2 130.026 150.8C129.486 151.48 128.656 151.88 128.156 151.57C127.796 151.34 127.806 150.63 128.306 149.83C128.356 149.75 128.326 149.69 128.226 149.69C127.926 149.69 127.576 149.92 127.406 150.34C127.256 150.7 127.226 151.44 127.916 151.89C128.556 152.31 129.756 152.29 130.606 151.25C131.346 150.34 131.486 149.48 130.976 149.05C130.856 148.95 130.686 148.89 130.516 148.85C131.116 148.6 131.626 148.18 131.876 147.85ZM139.791 151.1C139.961 150.83 140.011 150.61 139.991 150.52C139.971 150.42 139.881 150.42 139.821 150.5C139.421 151.03 138.871 151.58 138.031 152C138.451 151.03 139.081 149.82 139.381 149.22C139.631 148.73 139.551 148.3 139.401 148.12C139.331 148.03 139.231 148.04 139.151 148.18C139.051 148.35 138.941 148.53 138.821 148.73C138.831 148.38 138.631 148.07 138.231 148.07C137.721 148.07 136.911 148.52 136.131 149.68C135.321 150.88 135.501 152.13 136.421 152.13C136.791 152.13 137.141 151.92 137.431 151.63C137.331 151.86 137.241 152.1 137.141 152.32C136.151 152.7 135.291 153.31 135.001 154.21C134.811 154.8 134.991 155.15 135.201 155.45C135.381 155.71 135.581 155.74 135.781 155.66C136.591 155.34 137.301 153.75 137.851 152.41C138.681 152.11 139.401 151.71 139.791 151.1ZM137.951 150.32C137.441 151.2 136.931 151.83 136.541 151.82C136.141 151.81 136.251 150.93 136.791 150.07C137.341 149.2 138.071 148.56 138.381 148.58C138.671 148.6 138.581 149.22 137.951 150.32ZM136.971 152.73C136.321 154.25 135.531 155.29 135.401 155.1C135.231 154.86 135.671 153.49 136.971 152.73ZM143.894 148.75C143.914 148.36 143.714 148.03 143.284 148.03C142.784 148.03 141.994 148.48 141.184 149.66C140.354 150.87 140.544 152.14 141.474 152.14C141.954 152.14 142.404 151.77 142.724 151.36C142.724 151.83 143.004 152.15 143.544 152.18C144.094 152.21 144.724 151.66 144.984 151.11C145.114 150.83 145.114 150.58 145.074 150.49C145.034 150.4 144.964 150.41 144.914 150.5C144.564 151.19 144.014 151.87 143.604 151.89C143.264 151.91 143.274 151.48 143.524 150.92C143.764 150.39 144.264 149.64 144.484 149.19C144.724 148.69 144.644 148.26 144.494 148.08C144.424 147.99 144.344 148.01 144.254 148.14C144.144 148.3 144.024 148.51 143.894 148.75ZM143.024 150.3C142.514 151.18 141.994 151.82 141.584 151.81C141.194 151.8 141.324 150.92 141.854 150.06C142.404 149.17 143.134 148.52 143.454 148.55C143.744 148.58 143.654 149.2 143.024 150.3ZM146.707 150C147.597 149.42 148.717 148.22 149.027 146.99C149.147 146.52 149.087 146.15 148.797 145.89C148.657 145.76 148.517 145.78 148.367 145.94C147.347 147 146.207 148.81 145.837 150.55C145.607 151.63 145.977 152.11 146.667 152.13C147.467 152.15 148.197 151.32 148.337 151.02C148.447 150.78 148.487 150.56 148.437 150.4C148.397 150.26 148.287 150.27 148.217 150.4C147.827 151.17 147.127 151.89 146.647 151.85C146.197 151.81 146.307 150.98 146.707 150ZM146.887 149.57C146.957 149.41 147.037 149.25 147.127 149.09C147.817 147.81 148.557 146.7 148.687 146.78C148.817 146.86 148.257 148.46 146.887 149.57ZM150.011 150C150.901 149.42 152.021 148.22 152.331 146.99C152.451 146.52 152.391 146.15 152.101 145.89C151.961 145.76 151.821 145.78 151.671 145.94C150.651 147 149.511 148.81 149.141 150.55C148.911 151.63 149.281 152.11 149.971 152.13C150.771 152.15 151.501 151.32 151.641 151.02C151.751 150.78 151.791 150.56 151.741 150.4C151.701 150.26 151.591 150.27 151.521 150.4C151.131 151.17 150.431 151.89 149.951 151.85C149.501 151.81 149.611 150.98 150.011 150ZM150.191 149.57C150.261 149.41 150.341 149.25 150.431 149.09C151.121 147.81 151.861 146.7 151.991 146.78C152.121 146.86 151.561 148.46 150.191 149.57ZM160.026 151.11C160.176 150.8 160.176 150.6 160.126 150.48C160.096 150.4 159.996 150.4 159.956 150.48C159.566 151.2 159.096 151.85 158.696 151.86C158.316 151.87 158.266 151.42 158.526 150.85C158.766 150.33 159.236 149.61 159.456 149.16C159.706 148.65 159.396 148.14 159.066 148.1C158.726 148.06 158.066 148.6 157.616 149.07C157.726 148.72 157.726 148.38 157.576 148.13C157.516 148.04 157.436 148.04 157.366 148.15C156.826 148.97 156.176 149.7 155.546 149.71C155.556 149.65 155.556 149.58 155.556 149.53C155.616 148.81 155.316 148.75 155.076 148.43C154.876 148.16 154.706 148.07 154.406 148.1C153.806 148.15 153.206 148.72 152.816 149.4C152.366 150.18 152.216 151.06 152.656 151.65C153.046 152.18 153.556 152.19 153.916 152.07C154.656 151.83 155.296 150.8 155.496 149.95C155.846 149.97 156.156 149.88 156.426 149.7C156.126 150.23 155.906 150.75 155.796 151.06C155.626 151.56 155.696 151.88 155.876 152.08C155.966 152.18 156.036 152.12 156.066 152.05C156.476 151.11 156.946 150.15 157.526 149.52C158.166 148.82 158.726 148.56 158.846 148.6C159.016 148.66 158.146 149.72 157.806 150.7C157.516 151.55 157.726 152.17 158.556 152.17C159.146 152.17 159.756 151.67 160.026 151.11ZM154.916 149.53C154.716 149.37 154.646 149.08 154.676 148.86C154.716 148.57 154.926 148.51 154.976 148.83C155.006 149.01 154.976 149.25 154.916 149.53ZM154.846 149.8C154.766 150.05 154.646 150.33 154.476 150.65C153.996 151.55 153.376 151.9 153.106 151.68C152.836 151.46 152.976 150.53 153.416 149.78C153.636 149.41 153.916 149.06 154.196 148.83C154.206 149.22 154.496 149.61 154.846 149.8ZM161.216 150.36C161.206 150.28 161.206 150.2 161.196 150.12C161.186 149.96 161.106 149.92 160.986 150.02C160.646 150.3 160.616 150.96 160.856 151.41C161.196 152.03 161.756 152.18 162.336 152.16C163.046 152.13 163.726 151.75 164.106 151.06C164.276 150.75 164.286 150.49 164.246 150.4C164.206 150.32 164.106 150.29 164.056 150.4C163.806 150.94 163.386 151.54 162.716 151.79C163.076 151.55 163.146 151.13 163.166 150.74C163.196 150.05 163.006 149.27 163.076 148.35C163.116 148.28 163.146 148.22 163.186 148.16C163.316 147.93 163.366 147.82 163.266 147.72C163.176 147.63 162.946 147.67 162.726 147.87C162.516 148.06 162.416 148.25 162.366 148.64C162.076 149.15 161.626 149.8 161.216 150.36ZM162.346 149.28C162.386 150.08 162.536 151.65 162.076 151.79C161.746 151.89 161.456 151.48 161.306 150.9C161.686 150.36 162.056 149.81 162.346 149.28Z" fill="#202530"/>
<path d="M80.5 93.9999L80.5606 94.2425L80.5 93.9999ZM65 90L65.3916 92.8601L67.6727 91.0909L65 90ZM146.25 123.5C146.25 120.421 144.808 117.367 142.499 114.53C140.188 111.691 136.993 109.049 133.447 106.789C126.362 102.275 117.815 99.25 112 99.25V99.75C117.685 99.75 126.138 102.725 133.178 107.211C136.694 109.451 139.843 112.059 142.111 114.845C144.38 117.633 145.75 120.579 145.75 123.5H146.25ZM112 99.25C108.46 99.25 106.373 101.73 105.892 104.202C105.652 105.436 105.806 106.691 106.402 107.648C107.004 108.615 108.043 109.25 109.5 109.25V108.75C108.207 108.75 107.333 108.197 106.826 107.383C106.312 106.559 106.16 105.439 106.383 104.298C106.826 102.02 108.739 99.75 112 99.75V99.25ZM109.5 109.25C109.986 109.25 110.38 109.178 110.665 109.016C110.966 108.843 111.13 108.575 111.146 108.245C111.162 107.935 111.046 107.592 110.853 107.239C110.658 106.881 110.369 106.488 110.005 106.07C108.551 104.402 105.792 102.23 102.44 100.162C99.0844 98.0919 95.1142 96.1137 91.2249 94.8406C87.3427 93.5698 83.5076 92.9904 80.4394 93.7574L80.5606 94.2425C83.4924 93.5096 87.2187 94.0553 91.0694 95.3157C94.913 96.5739 98.8473 98.5331 102.178 100.588C105.512 102.645 108.222 104.786 109.628 106.399C109.979 106.801 110.242 107.164 110.414 107.479C110.589 107.798 110.656 108.044 110.647 108.22C110.639 108.376 110.574 108.492 110.416 108.582C110.242 108.681 109.95 108.75 109.5 108.75V109.25ZM80.4394 93.7574C73.1086 95.59 68.691 93.6083 66.5499 91.5954L66.2074 91.9597C68.4898 94.1055 73.0892 96.1102 80.5606 94.2425L80.4394 93.7574Z" fill="#202530"/>
<path d="M114 211L116.414 212.583L116.578 209.701L114 211ZM144.25 155C144.25 159.103 143.534 161.414 142.502 162.812C141.474 164.205 140.105 164.733 138.672 165.2C137.257 165.661 135.746 166.069 134.615 167.274C133.474 168.489 132.75 170.471 132.75 174H133.25C133.25 170.529 133.964 168.698 134.979 167.616C136.004 166.525 137.368 166.151 138.828 165.675C140.27 165.205 141.776 164.639 142.904 163.109C144.029 161.586 144.75 159.147 144.75 155H144.25ZM132.75 174C132.75 175.986 133.963 177.3 135.653 178.081C137.335 178.859 139.519 179.128 141.574 179.037C143.626 178.947 145.591 178.495 146.834 177.794C147.452 177.446 147.93 177.013 148.117 176.495C148.313 175.953 148.168 175.384 147.688 174.835L147.312 175.165C147.707 175.616 147.765 175.998 147.647 176.325C147.52 176.677 147.166 177.033 146.588 177.359C145.44 178.007 143.562 178.449 141.551 178.538C139.544 178.626 137.447 178.36 135.863 177.628C134.287 176.899 133.25 175.73 133.25 174H132.75ZM147.688 174.835C147.195 174.272 146.587 174.072 145.941 174.186C145.314 174.298 144.676 174.699 144.072 175.276C142.862 176.433 141.706 178.38 140.959 180.552C140.212 182.726 139.862 185.159 140.303 187.294C140.746 189.442 141.991 191.287 144.409 192.233L144.591 191.767C142.353 190.891 141.207 189.2 140.793 187.193C140.376 185.174 140.703 182.836 141.432 180.715C142.161 178.593 143.282 176.723 144.418 175.637C144.987 175.092 145.539 174.765 146.028 174.679C146.497 174.596 146.93 174.728 147.312 175.165L147.688 174.835ZM144.409 192.233C147.236 193.339 149.021 195.048 149.849 196.966C150.675 198.883 150.56 201.04 149.527 203.074C147.46 207.148 141.694 210.75 132.5 210.75V211.25C141.806 211.25 147.79 207.602 149.973 203.301C151.065 201.148 151.2 198.836 150.308 196.768C149.416 194.702 147.514 192.911 144.591 191.767L144.409 192.233ZM132.5 210.75C127.32 210.75 122.368 211.149 116.258 210.878L116.236 211.378C122.351 211.649 127.377 211.25 132.5 211.25V210.75Z" fill="#202530"/>
</svg>
