<svg width="115" height="130" viewBox="0 0 115 130" fill="none" xmlns="http://www.w3.org/2000/svg">
<path fill-rule="evenodd" clip-rule="evenodd" d="M82.0992 2.56546C82.6359 2.55454 83.1725 2.54362 83.7092 2.45778C84.4701 2.32987 85.1702 2.42669 85.884 2.52542C86.3133 2.58479 86.7475 2.64484 87.203 2.65715C87.6308 2.68052 88.0453 2.65515 88.4575 2.62993C88.9607 2.59914 89.4604 2.56856 89.9767 2.62711C91.1103 2.7664 92.1946 3.02039 93.2651 3.41366C94.6698 3.80421 96.2223 4.32858 97.3203 5.33089C98.1368 6.15478 98.9716 6.95914 99.8067 7.76375C100.181 8.1247 100.556 8.4857 100.929 8.84854C101.362 9.27414 101.74 9.74131 102.118 10.2085C102.509 10.6918 102.9 11.175 103.352 11.6124C103.687 11.9396 104.024 12.2645 104.361 12.5894L104.361 12.5894L104.361 12.5894C105.371 13.5636 106.381 14.5375 107.333 15.5698C107.693 15.9723 108.102 16.2914 108.508 16.6083L108.508 16.6083L108.508 16.6083C109.012 17.0009 109.511 17.3899 109.905 17.9294C110.518 18.7242 111.068 19.6118 111.476 20.5294C111.787 21.8387 111.577 22.9766 111.346 24.2296L111.346 24.2298L111.346 24.2299L111.346 24.2301C111.325 24.3464 111.303 24.4638 111.282 24.5824C111.185 25.9372 111.532 27.3101 111.877 28.6758C112.115 29.6199 112.353 30.5605 112.443 31.4893C112.561 32.3469 111.95 33.2208 111.449 33.8708C110.395 35.0916 109.417 36.3042 108.785 37.809C108.576 38.3467 108.108 38.5541 107.625 38.7687C107.495 38.8266 107.363 38.885 107.235 38.9506C106.49 39.262 105.811 39.617 105.148 40.0813C105.244 40.1507 105.34 40.2188 105.436 40.2867L105.436 40.2867L105.436 40.2867L105.436 40.2868C105.935 40.6412 106.424 40.9879 106.835 41.4578C108.048 42.7988 109.341 44.2599 110.14 45.8931C110.923 47.6492 111.646 49.4189 112.07 51.3034C112.276 53.0185 112.232 54.7801 112.098 56.5006C111.996 57.4573 111.579 58.1758 111.143 58.9258C110.817 59.4884 110.48 60.0686 110.258 60.7803C109.818 62.1712 109.068 63.2439 108.283 64.3653L108.283 64.3654C107.963 64.8226 107.638 65.288 107.325 65.7864C106.685 66.6931 105.953 67.5124 105.154 68.2853C103.5 70.0449 101.642 71.6944 99.8152 73.3149C99.4701 73.6211 99.1263 73.9262 98.7851 74.2309C98.1936 74.7699 97.5546 75.2452 96.9154 75.7206C96.3563 76.1364 95.7971 76.5524 95.2694 77.0112C94.7315 77.4824 94.3283 78.0364 93.9259 78.5894C93.5378 79.1227 93.1504 79.655 92.6436 80.1109C91.9125 80.7801 91.1869 81.4082 90.3381 81.9244C89.6946 82.3273 89.0157 82.6512 88.3357 82.9755C87.8036 83.2294 87.2709 83.4835 86.754 83.7761C87.1836 84.0194 87.6208 84.2567 88.0593 84.4947C89.2892 85.1623 90.5293 85.8354 91.6415 86.6628C93.246 87.8563 94.2919 89.525 95.3105 91.2101C96.2661 92.8892 96.7046 94.6845 97.1523 96.5171L97.1524 96.5175C97.1998 96.7116 97.2474 96.9062 97.2956 97.1011C97.4099 97.5737 97.3933 98.0236 97.3761 98.4921C97.3711 98.63 97.3659 98.7696 97.3641 98.9118C97.3533 99.3737 97.361 99.8476 97.3688 100.325C97.3848 101.307 97.401 102.302 97.2573 103.238C96.9739 104.896 96.5816 106.521 96.1882 108.151L96.1882 108.151C96.038 108.773 95.8876 109.396 95.7431 110.022C95.5476 110.914 95.2305 111.754 94.9128 112.596C94.6745 113.227 94.4359 113.859 94.2481 114.515C93.3692 116.942 91.929 119.176 90.0753 120.979L89.8735 121.175L89.8734 121.175C87.9576 123.037 86.136 124.808 83.816 126.201C82.2772 126.911 80.5522 127.67 78.8463 127.733C78.3765 127.768 77.9214 127.822 77.4706 127.875C76.6631 127.971 75.8694 128.065 75.0294 128.047C72.8527 128.017 70.6677 127.708 68.5785 127.088C67.5709 126.795 66.6213 126.152 65.7295 125.549C65.5767 125.446 65.4257 125.344 65.2763 125.245C63.1757 123.737 61.6722 121.881 60.1193 119.963L60.1192 119.963C59.644 119.376 59.1641 118.783 58.6611 118.193C58.5618 118.059 58.4614 117.924 58.3605 117.789C57.6318 116.813 56.8801 115.805 56.3967 114.711C56.3007 114.509 56.2112 114.299 56.1212 114.088C55.9314 113.644 55.7395 113.194 55.4794 112.799C54.5773 112.573 53.5399 112.709 52.552 112.838C52.1697 112.888 51.7948 112.937 51.438 112.963C49.773 113.083 48.1096 113.493 46.4472 113.903C44.4683 114.391 42.4906 114.878 40.513 114.875C39.6833 114.924 38.9501 114.743 38.1952 114.556L38.1951 114.556C37.8489 114.471 37.4982 114.384 37.1315 114.318C35.8993 114.086 34.711 113.788 33.6212 113.144C32.0304 112.152 30.675 110.743 29.5031 109.293C29.154 108.885 28.7684 108.516 28.3826 108.146L28.3826 108.146L28.3825 108.146L28.3824 108.146L28.3824 108.146C28.0754 107.852 27.7684 107.558 27.4797 107.244C25.2536 104.568 22.9016 101.973 20.3771 99.5727C19.5751 98.8401 18.8686 98.0242 18.1615 97.2076L18.1615 97.2076L18.1614 97.2076L18.1614 97.2075L18.1613 97.2075C17.5189 96.4656 16.8759 95.723 16.1604 95.0418C14.4316 93.3154 12.2406 91.9739 10.0931 90.659C9.42092 90.2475 8.75304 89.8385 8.10492 89.4212C7.51112 89.1251 6.97473 88.7699 6.44325 88.418L6.44309 88.4179C5.65124 87.8936 4.87028 87.3765 3.92658 87.0725C3.08496 86.7623 2.74483 85.9394 2.42749 85.1716L2.3823 85.0624C2.27707 84.7678 2.16427 84.468 2.04998 84.1643C1.51598 82.7453 0.949622 81.2403 0.972174 79.7668C0.971541 79.6065 0.970488 79.4467 0.969435 79.2873C0.956824 77.3786 0.944678 75.5397 1.66491 73.7147L1.71342 73.5967C2.34342 72.0634 3.03097 70.3901 4.19218 69.1866C5.5311 67.7254 6.99599 66.2834 8.66896 65.2074L8.67331 65.2048C9.15733 64.9156 9.77963 64.5439 10.3611 64.612C11.3632 64.9726 12.3288 65.4386 13.2947 65.9049C14.4139 66.445 15.5335 66.9855 16.7107 67.3622C18.2379 67.9328 19.8042 68.2425 21.3767 68.5534L21.3768 68.5534C22.2656 68.7292 23.1565 68.9053 24.0434 69.1292C26.9786 69.9485 30.0946 70.1889 33.1311 70.0086C33.2648 69.9922 33.3966 69.9751 33.527 69.9583C34.7211 69.8035 35.7891 69.6652 36.9617 70.2216C38.5744 71.2595 39.8093 72.6278 40.9703 74.1271C41.1993 74.3792 41.4287 74.6281 41.657 74.8758C42.9792 76.3103 44.2644 77.7045 45.2171 79.4582C46.6244 81.4355 48.385 83.2981 50.4988 84.5271C51.2985 84.9436 52.0158 85.4664 52.7341 85.99C53.2924 86.3969 53.8512 86.8043 54.4499 87.1626C55.5588 87.8672 56.2324 88.8559 56.9388 89.9292C57.0565 89.7337 57.1749 89.5327 57.2951 89.3286L57.2953 89.3283C58.0111 88.1127 58.7894 86.791 59.8467 85.9118C59.9768 85.8088 60.1054 85.7055 60.2333 85.6028C60.9263 85.0461 61.601 84.5041 62.4123 84.0983C62.8258 83.8997 63.2197 83.6806 63.6113 83.4627L63.6114 83.4627L63.6115 83.4626L63.6116 83.4626L63.6118 83.4625L63.6119 83.4625C64.3457 83.0543 65.0716 82.6505 65.9034 82.3941C66.2708 82.2914 66.6342 82.1863 66.9951 82.0818C69.3309 81.4058 71.5589 80.7609 74.0848 81.0259C73.9758 80.8919 73.8708 80.7581 73.7668 80.6257L73.7668 80.6256C73.2964 80.0264 72.8494 79.4569 72.1654 79.0431C72.0645 78.9829 71.9636 78.9238 71.863 78.865L71.8629 78.8649L71.8627 78.8648L71.8625 78.8646C71.2835 78.5258 70.7167 78.1941 70.2432 77.6939C69.1507 76.5332 68.1513 75.367 67.5243 73.8841C67.0424 72.8871 66.9139 71.883 66.7797 70.8354C66.7287 70.4366 66.6768 70.0315 66.6043 69.6181C66.3712 68.4889 66.4836 67.4369 66.5997 66.3498C66.6651 65.7382 66.7316 65.1156 66.7385 64.4618C67.1129 62.0579 68.5697 59.7378 69.9495 57.5404C70.4664 56.7171 70.9726 55.911 71.4069 55.1242C71.7346 54.4632 72.1086 53.8315 72.4825 53.2002L72.4826 53.2002C72.9305 52.4439 73.3781 51.6881 73.7453 50.8828C74.1779 49.9735 74.7288 49.145 75.2793 48.3172C75.8647 47.4368 76.4497 46.5572 76.8913 45.5817C77.2725 44.7569 77.7916 44.0458 78.3171 43.3259C78.4824 43.0995 78.6483 42.8723 78.8107 42.6403C78.1543 41.4818 77.6648 40.2614 77.1743 39.0387C76.8219 38.1601 76.4691 37.2804 76.0535 36.4216C75.7356 35.7514 75.591 35.0539 75.4468 34.3583C75.2954 33.6281 75.1445 32.8999 74.794 32.2076C74.03 30.7273 73.644 28.9903 73.7234 27.3271C73.7579 26.1741 73.7578 25.0253 73.7576 23.8777C73.7574 21.9317 73.7572 19.9892 73.926 18.0359C73.9844 17.5324 73.9813 17.024 73.9782 16.5159C73.9747 15.9519 73.9713 15.3884 74.0519 14.8324C74.2578 13.9309 74.5265 13.0285 74.795 12.1267C75.0121 11.3976 75.2291 10.6687 75.4128 9.94098C75.8646 8.16577 76.6175 6.51345 77.5238 4.92669C77.6883 4.60872 78.0636 4.44244 78.4107 4.28863C78.5317 4.23503 78.6492 4.18294 78.7532 4.12648C78.8997 4.25758 79.0462 4.388 79.1927 4.51843L79.194 4.51953C79.3401 4.64956 79.4861 4.77959 79.6322 4.9103C78.7642 6.41787 78.181 7.93362 77.773 9.62144C77.5769 10.4341 77.2918 11.2463 77.0061 12.06C76.5938 13.2346 76.1804 14.4124 76.0316 15.5998C76.0309 16.1611 76.0346 16.7239 76.0384 17.2875L76.0384 17.2881C76.0503 19.0828 76.0622 20.8854 75.933 22.6706C75.7166 24.0081 75.6806 25.3503 75.6443 26.7013V26.7013V26.7013V26.7013V26.7014L75.6346 27.0595C75.6356 27.1384 75.6348 27.2203 75.6339 27.3037C75.6302 27.6587 75.6263 28.0422 75.766 28.354C75.9916 28.8701 76.2458 29.3833 76.5017 29.9001L76.5018 29.9001C76.9136 30.7316 77.3298 31.5721 77.6388 32.4479L77.7194 32.6757L77.7194 32.6759C77.9387 33.2967 78.1585 33.9189 78.4 34.5345C78.5905 34.5967 78.8096 34.6324 79.0327 34.6687C79.5921 34.7597 80.1761 34.8547 80.3934 35.3838C80.8125 36.0628 80.6803 37.041 80.5668 37.8802C80.5402 38.0772 80.5146 38.2666 80.4974 38.4427C80.2209 37.6015 80.0046 36.7439 79.7937 35.8836C79.6295 35.8992 79.466 35.9142 79.3027 35.9291C79.123 35.9456 78.9436 35.962 78.7642 35.9792C78.9584 36.9491 79.3066 37.8573 79.6551 38.7663C79.9504 39.5365 80.2459 40.3072 80.4481 41.1164L80.4492 41.1165C80.6925 41.1301 80.9359 41.1437 81.1792 41.1601C81.6763 39.59 81.9151 37.9184 82.1478 36.2902L82.1649 36.1704C82.2505 35.52 82.5166 34.9796 82.7876 34.4294C82.924 34.1524 83.0616 33.873 83.178 33.5759C83.1576 33.0054 82.9837 32.4255 82.812 31.8531C82.7067 31.502 82.6022 31.1536 82.5346 30.812C82.5306 30.4345 82.5954 30.0542 82.6594 29.6784C82.6829 29.5402 82.7064 29.4027 82.7262 29.2662C82.9036 28.2072 82.8934 27.1086 82.8833 26.0134V26.0134V26.0133C82.8738 24.9958 82.8644 23.9811 83.0055 23.0038C83.0438 22.6296 83.074 22.2527 83.0986 21.8786C82.5099 22.5231 82.0034 23.2086 81.5324 23.9406C81.7566 23.3693 81.9232 22.8053 82.0871 22.2505L82.0871 22.2505C82.3597 21.328 82.6247 20.431 83.1342 19.5681C83.4095 19.0549 83.7285 18.5697 84.0472 18.0848L84.0473 18.0848C84.3816 17.5762 84.7157 17.068 84.9988 16.5284C85.304 15.9541 85.4946 15.3662 85.6909 14.7606C85.7429 14.6001 85.7953 14.4383 85.8504 14.2752L86.68 14.7013C86.6792 14.9203 86.6768 15.1384 86.6743 15.3557C86.6614 16.5207 86.6487 17.6656 86.8772 18.828C87.0122 19.801 87.2845 20.7109 87.5593 21.6291L87.5593 21.6291L87.5594 21.6292L87.5594 21.6292L87.5594 21.6292C87.708 22.1258 87.8573 22.6248 87.9861 23.1376C88.4379 24.7981 88.9855 26.4231 89.7248 27.9826C90.112 28.8304 89.9507 29.9147 89.7989 30.9344C89.7307 31.3928 89.6645 31.8382 89.6509 32.2431C89.5834 33.5286 89.3059 34.7568 89.0279 35.9866L89.0279 35.9866C88.8093 36.9541 88.5904 37.9225 88.4735 38.9206C88.3786 39.596 88.2431 40.262 88.1074 40.9286L88.1074 40.9287L88.1074 40.9288L88.1074 40.9289L88.1073 40.929C88.0121 41.397 87.9168 41.8652 87.8355 42.3372C87.6393 43.2139 87.9782 44.1608 88.3035 45.0698C88.4413 45.4548 88.5766 45.833 88.6679 46.1962C88.7941 46.1694 88.9345 46.152 89.0791 46.1341C89.493 46.0829 89.9421 46.0274 90.1957 45.7319C90.9296 44.9782 91.4169 43.9076 91.8112 42.9462C91.9734 42.5384 92.1617 42.153 92.3486 41.7705C92.6824 41.0875 93.0118 40.4134 93.1803 39.6361C93.4029 38.5812 93.7495 37.6035 94.0933 36.634C94.6501 35.0634 95.1993 33.5145 95.201 31.6941C95.2664 30.1426 95.0322 28.6031 94.7988 27.0692C94.6025 25.7788 94.4068 24.4923 94.3905 23.2059C94.5274 21.5126 94.7684 19.7374 96.288 18.7105C96.155 19.2741 95.9497 19.8162 95.7448 20.3575L95.7448 20.3575C95.5237 20.9415 95.3029 21.5245 95.1736 22.1326C95.0011 24.0334 95.1407 25.9233 95.5241 27.7914C95.6617 28.4 95.6743 29.0137 95.687 29.6264C95.6987 30.1961 95.7104 30.765 95.8225 31.3282C96.165 32.483 95.748 33.8052 95.3635 35.0242C95.247 35.3937 95.1334 35.7537 95.0449 36.0966C94.8271 36.9942 94.5301 37.8659 94.2332 38.7372L94.2332 38.7373L94.2332 38.7373C93.9032 39.706 93.5733 40.6741 93.3528 41.6763C93.9763 41.5266 94.607 41.3975 95.2381 41.2684C96.3111 41.0488 97.3851 40.829 98.4265 40.5074C99.3163 40.2397 99.9406 39.4177 100.357 38.6311C100.978 37.3885 101.37 36.0174 101.652 34.6601C101.796 33.5758 101.697 32.5191 101.597 31.4565C101.511 30.5412 101.425 29.6216 101.493 28.6763C101.403 26.4805 102.019 24.4595 102.821 22.4439L103.856 22.5259C103.078 24.2219 102.432 25.8906 102.295 27.7723C102.263 28.5494 102.255 29.3265 102.246 30.1036L102.246 30.1037C102.242 30.449 102.238 30.7944 102.232 31.1397C102.235 31.6989 102.164 32.2365 102.093 32.7713C101.994 33.5243 101.895 34.2718 102.002 35.067C102.183 36.3256 101.776 37.3671 101.342 38.4777L101.342 38.4778L101.342 38.4778L101.342 38.4778L101.342 38.4778C101.256 38.6975 101.169 38.9199 101.085 39.1473C101.566 39.3959 102.034 39.669 102.503 39.9425L102.503 39.9425L102.657 40.0322C102.781 39.9208 102.91 39.8095 103.04 39.6969C103.799 39.0413 104.608 38.3415 104.828 37.3393C105.005 36.5553 105.135 35.7622 105.265 34.9688L105.265 34.9688C105.391 34.2006 105.517 33.4323 105.685 32.6719C106.06 30.6645 106.734 28.791 107.484 26.9011C107.603 26.9052 107.722 26.9086 107.841 26.912C107.96 26.9154 108.08 26.9188 108.199 26.9229C108.054 27.6675 107.793 28.3667 107.531 29.0658L107.531 29.0658C107.267 29.7719 107.003 30.4778 106.86 31.2298C106.721 31.879 106.573 32.5271 106.424 33.1755L106.424 33.1755C106.089 34.6414 105.753 36.1088 105.529 37.5933C105.682 37.5549 105.839 37.5198 105.998 37.4843C106.507 37.3707 107.035 37.253 107.481 37.0116C108.033 36.218 108.463 35.3083 108.883 34.4195L108.883 34.4195L108.883 34.4194L108.883 34.4194L108.883 34.4193C108.986 34.2008 109.089 33.9837 109.193 33.7698C109.303 33.5127 109.422 33.2667 109.537 33.0258C109.993 32.0762 110.411 31.2045 110.206 30.0391C110.159 29.7929 110.119 29.5291 110.078 29.2565C109.874 27.9082 109.638 26.3482 108.415 25.6803C108.574 25.2648 108.752 24.8825 108.924 24.5141C109.467 23.3495 109.947 22.3224 109.535 20.8162C109.177 20.094 108.552 19.4853 107.945 18.8941L107.945 18.8941C107.689 18.6446 107.436 18.3983 107.208 18.1479C106.658 17.6247 106.201 17.0333 105.745 16.443L105.745 16.443L105.745 16.443L105.745 16.443C105.257 15.8102 104.769 15.1784 104.168 14.633C103.334 13.8045 102.467 13.0105 101.6 12.2165L101.6 12.2165C100.61 11.3093 99.6202 10.4023 98.6784 9.44392C98.1697 8.94473 97.5995 8.55955 97.0215 8.16906L97.0215 8.16906L97.0215 8.16905C96.6318 7.9058 96.2385 7.64014 95.8581 7.33551C95.1119 6.70001 94.277 6.35934 93.4151 6.00761C92.9139 5.80309 92.4035 5.59483 91.8961 5.3227C89.9986 4.64812 87.7205 4.1811 85.7053 4.22207C84.6599 4.24573 83.6279 4.16242 82.5957 4.0791C81.484 3.98935 80.3722 3.89959 79.2434 3.9435C79.3577 3.83732 79.4752 3.71651 79.5966 3.59169C79.9811 3.19637 80.4047 2.76072 80.8917 2.62165C81.2942 2.58185 81.6967 2.57366 82.0992 2.56546ZM85.877 16.9922L85.9873 16.8807C86.0914 19.0574 86.5897 21.0893 87.3263 23.1322C86.1982 22.4876 85.1111 21.8922 83.8516 21.5372C83.8594 21.4085 83.8654 21.2812 83.8713 21.1548V21.1548V21.1548V21.1547C83.8987 20.5704 83.9251 20.0078 84.1254 19.4397C84.4406 18.4422 85.1595 17.7164 85.877 16.9922ZM83.6498 25.6441V25.6441C83.6687 26.679 83.6876 27.7142 83.6188 28.75C83.5528 29.5717 84.0446 30.1997 84.528 30.8169C84.7066 31.0449 84.8839 31.2714 85.0317 31.5057C85.1964 31.7337 85.3427 31.9968 85.4909 32.2633C85.7687 32.7631 86.0534 33.2752 86.4801 33.5922C86.9446 33.7958 87.4421 33.9291 87.9366 34.0617C88.1388 34.1159 88.3405 34.1699 88.5391 34.2286C88.8349 32.5763 89.1224 30.883 89.1224 29.2006C89.1456 28.2446 88.8245 27.4161 88.491 26.5555L88.491 26.5554C88.4311 26.4007 88.3707 26.2449 88.3119 26.0872C88.2405 25.9146 88.1743 25.7378 88.1079 25.5604C87.9526 25.1457 87.7962 24.7279 87.5699 24.3529C86.5431 23.2277 85.2753 22.4029 83.6872 22.4466C83.6108 23.5123 83.6303 24.578 83.6498 25.644V25.6441V25.6441ZM84.202 33.513C83.8926 32.6637 83.6407 31.8416 83.6243 30.9294C84.1135 31.3838 84.5615 31.8748 85.0097 32.3662C85.2538 32.6338 85.498 32.9015 85.7491 33.1635C85.2343 33.2836 84.7168 33.4011 84.202 33.513ZM11.3989 66.9088C10.6333 66.4484 9.87533 67.0515 9.23964 67.5573C9.1137 67.6575 8.99256 67.7539 8.87711 67.8374C8.42574 68.2564 7.93742 68.6303 7.4537 69.0006C6.58173 69.6681 5.72469 70.3242 5.12591 71.213C4.05258 72.6714 3.3927 74.4576 2.91627 76.1864C2.70544 78.8027 2.73008 81.8971 3.93484 84.2922C4.39712 85.165 5.09084 85.528 5.82626 85.9129C6.22774 86.123 6.64164 86.3396 7.03711 86.6492C7.19243 86.7678 7.34661 86.8863 7.50011 87.0043L7.50024 87.0044C9.08123 88.2197 10.5896 89.3792 12.5188 90.0712C11.7962 88.9481 10.8795 88.1547 9.93426 87.3366C9.5004 86.9611 9.06052 86.5805 8.63067 86.1603C8.4397 85.9676 8.24493 85.7911 8.05567 85.6196C7.31964 84.9525 6.66678 84.3609 6.64282 83.1834C7.54322 83.9914 8.39319 84.855 9.24337 85.7188L9.24344 85.7189C10.1203 86.6098 10.9973 87.5009 11.9301 88.3315C13.4619 89.7868 14.9314 91.313 16.3976 92.8357L16.4016 92.8399C16.5877 93.0332 16.7738 93.2265 16.96 93.4195C17.6877 94.3537 18.5077 95.1941 19.3281 96.0349L19.3282 96.035C19.9492 96.6715 20.5704 97.3082 21.152 97.9859C21.7341 98.6642 22.3243 99.3348 22.9144 100.005C24.073 101.321 25.2313 102.637 26.327 104.011C26.863 104.589 27.394 105.194 27.9296 105.804L27.9297 105.804C29.4516 107.538 31.0106 109.315 32.8272 110.634C34.4126 111.854 36.6523 112.327 38.5937 112.627C39.7563 112.708 40.9284 112.717 42.0986 112.726H42.1C42.5857 112.73 43.071 112.733 43.5551 112.742C44.5295 112.793 45.3056 112.455 46.1337 112.094C46.3714 111.99 46.6133 111.885 46.8654 111.786C46.2468 111.617 45.625 111.461 45.0036 111.305L45.0032 111.305C44.2 111.103 43.3972 110.901 42.6022 110.672C41.3675 110.232 40.3357 109.447 39.3042 108.663C38.7596 108.249 38.2151 107.834 37.6408 107.471C36.9754 107.042 36.3977 106.553 35.8501 105.985C34.8042 104.891 33.5127 104.012 32.2284 103.138C31.2431 102.467 30.2621 101.799 29.3991 101.039L29.5579 100.572C30.3206 100.535 30.8798 100.973 31.4422 101.414C31.5885 101.528 31.735 101.643 31.8853 101.749C32.5425 102.277 33.2048 102.749 33.8581 103.215C34.9905 104.023 36.0961 104.812 37.1014 105.835C37.7171 106.446 38.4206 106.884 39.1363 107.329L39.1364 107.329C39.6334 107.638 40.1363 107.951 40.6198 108.329C41.6056 109.088 42.6707 109.659 43.8837 109.973C44.3128 110.085 44.7493 110.225 45.1898 110.366C46.1769 110.683 47.1841 111.007 48.1743 111.035C50.1019 111.114 52.024 111.136 53.9516 111.008C53.9874 110.83 54.0264 110.651 54.0655 110.472C54.1733 109.979 54.2818 109.482 54.324 108.981C54.3448 108.521 54.2673 108.054 54.1902 107.589C54.1451 107.317 54.1001 107.046 54.0749 106.777C54.1394 106.827 54.2056 106.876 54.2722 106.926C54.5449 107.129 54.8263 107.338 55.0441 107.588C55.1598 107.953 55.2316 108.333 55.3035 108.714C55.3882 109.162 55.4731 109.611 55.6301 110.038C55.8766 110.737 56.2252 111.35 56.5809 111.977C56.723 112.227 56.8663 112.479 57.0046 112.739C57.1551 113.02 57.2968 113.299 57.4374 113.577L57.4376 113.577C57.842 114.375 58.2375 115.156 58.8063 115.886C59.7454 117.115 60.7448 118.303 61.7525 119.477C62.6597 120.331 63.7409 121.035 64.803 121.726C65.1128 121.927 65.421 122.128 65.7227 122.331C67.2842 123.438 69.3519 123.971 71.2587 124.462L71.2588 124.462L71.2604 124.462C71.6099 124.552 71.9541 124.641 72.2887 124.732C73.466 125.097 74.6379 125.158 75.8619 125.196C76.5731 125.236 77.2495 125.112 77.9341 124.988L77.9343 124.988C78.4172 124.9 78.9042 124.811 79.4104 124.778C80.6554 124.795 81.7654 124.196 82.8843 123.593L82.8844 123.593C83.4142 123.307 83.946 123.021 84.4951 122.798C85.9533 122.226 86.9126 121.194 87.9104 120.12C88.2034 119.805 88.4998 119.486 88.8131 119.174C89.755 118.278 90.601 117.292 91.2938 116.189C91.5424 115.779 91.8236 115.405 92.1029 115.034L92.1029 115.033C92.5708 114.411 93.0333 113.795 93.3282 113.034C94.1168 111.45 94.574 109.792 94.9902 108.083C95.4422 106.803 95.6719 105.489 95.903 104.166C95.9953 103.638 96.0879 103.109 96.195 102.58C96.3894 100.733 96.3018 98.8053 96.1484 96.959C95.6638 95.4378 94.9793 93.8238 93.8183 92.6903C93.5673 92.4164 93.3334 92.1253 93.0995 91.8343C92.7644 91.4174 92.4294 91.0005 92.044 90.6338C91.5932 90.2633 91.155 89.8868 90.7195 89.5125C89.2769 88.2729 87.8631 87.0579 86.1133 86.1685C85.27 85.6719 84.3911 85.2531 83.5108 84.8336L83.5107 84.8335L83.5105 84.8335C83.0305 84.6047 82.55 84.3757 82.0746 84.1338C81.4668 84.9368 81.0998 85.8025 80.7795 86.7502L81.0314 86.6574L81.1405 86.6119C81.3856 86.5097 81.6295 86.408 81.8775 86.3105C82.7401 86.5865 83.5774 86.9833 84.4081 87.3769L84.4082 87.3769L84.409 87.3773C84.7697 87.5482 85.1292 87.7186 85.489 87.8782C87.1346 88.6347 88.9582 89.4786 90.2451 90.7786C90.4333 90.965 90.6318 91.1473 90.8311 91.3305L90.8314 91.3308C91.4585 91.9068 92.0947 92.4913 92.452 93.2393C92.6704 93.6768 92.9225 94.0692 93.1681 94.4514C93.6216 95.1569 94.0526 95.8275 94.2071 96.6832C94.2533 96.9616 94.3123 97.2368 94.3709 97.5102C94.5623 98.4035 94.7494 99.2771 94.4727 100.176C94.3178 100.709 94.1458 101.238 93.9738 101.766C93.8083 102.274 93.6428 102.782 93.4925 103.295C93.2999 104.018 92.8841 104.503 92.4415 105.018L92.4413 105.018C92.2736 105.214 92.102 105.414 91.9372 105.633C89.8371 108.342 86.1571 109.719 82.8851 110.322C81.119 110.787 79.3119 110.975 77.4883 110.986C77.1178 110.992 76.7369 111.008 76.3509 111.024L76.3503 111.024C74.9335 111.083 73.4462 111.145 72.1381 110.757C71.7837 110.67 71.4322 110.591 71.0831 110.513L71.0828 110.513C69.9914 110.267 68.9225 110.026 67.8584 109.596C65.4927 108.632 63.0585 107.588 61.057 105.969C60.8378 105.769 60.6172 105.582 60.4004 105.398L60.4001 105.398C59.6312 104.746 58.9086 104.132 58.4558 103.15C57.5385 101.187 56.6623 99.2805 56.3119 97.1256C56.1421 95.7164 56.3748 94.3099 57.3195 93.1983C57.429 93.9017 57.3964 94.5779 57.3641 95.25C57.3268 96.0237 57.2899 96.7919 57.4701 97.5899C57.6837 98.4939 57.941 99.3924 58.2696 100.261L58.262 100.199C57.96 97.7609 57.6326 95.1177 59.3703 93.1082C59.4933 92.937 59.6125 92.7652 59.7311 92.5944C60.2459 91.8527 60.7474 91.1301 61.4841 90.5574C61.8377 90.2851 62.1793 89.9951 62.5201 89.7058L62.5201 89.7057C63.2321 89.1012 63.9406 88.4997 64.7479 88.0693C66.4866 87.0725 68.3403 86.0674 70.3364 85.7069C70.4882 85.6781 70.6383 85.6481 70.7872 85.6184C72.0448 85.3677 73.2067 85.1361 74.4627 85.7124C74.794 85.7506 75.1253 85.7916 75.4539 85.8435C75.5004 85.4803 75.5552 85.1185 75.6099 84.7567L75.61 84.7565C75.6647 84.3946 75.7195 84.0328 75.766 83.6695C75.4439 83.7051 75.1241 83.745 74.8054 83.7848L74.8052 83.7848L74.805 83.7848C73.6069 83.9344 72.4251 84.0818 71.1989 83.9891C68.3787 83.6914 65.5256 84.7483 63.127 86.1494L62.8355 86.3517C61.6409 87.1803 60.4381 88.0147 59.3265 88.9542C58.8469 89.3607 58.5173 89.8655 58.1843 90.3755C57.8842 90.8351 57.5813 91.2989 57.1634 91.699C56.3584 92.4527 55.7971 93.354 55.3316 94.3454C53.9188 93.7582 52.4375 93.4796 50.9315 93.2611C49.3516 93.0918 48.0182 93.7282 46.8709 94.7523C47.0091 94.86 47.1483 94.97 47.2886 95.0809C48.1157 95.7345 48.9824 96.4194 49.9212 96.8607C51.1845 97.4404 52.4221 98.0758 53.6556 98.7091L53.9653 98.8681C54.1077 97.7784 54.4007 96.8361 55.0797 95.9513C55.4375 96.9627 55.1375 97.789 54.8162 98.6739C54.6925 99.0148 54.5655 99.3644 54.4719 99.7366C54.1022 100.857 54.0646 101.964 54.0262 103.097C54.0131 103.483 54 103.871 53.9735 104.265C53.3848 102.997 53.4588 101.73 53.5738 100.37C52.0377 99.9359 50.5537 99.4198 49.1654 98.625C49.083 98.9204 49.0096 99.2162 48.9366 99.5103L48.9366 99.5104C48.7066 100.437 48.4806 101.348 47.9881 102.181C47.5719 102.913 46.9832 103.489 46.3288 104.008C46.5269 103.242 46.8257 102.567 47.1187 101.905C47.6112 100.792 48.0875 99.7164 48.0428 98.3055C48.0749 97.5362 47.5985 97.1078 47.1002 96.6596C46.9598 96.5333 46.8177 96.4055 46.6847 96.2681C46.5718 96.1571 46.459 96.0464 46.3462 95.9359C45.1162 94.7298 43.9023 93.5397 42.8815 92.1387C42.6503 91.8151 42.3864 91.5285 42.128 91.2478C41.5814 90.6542 41.0595 90.0872 40.9238 89.2546C40.6938 88.0202 40.305 86.8622 39.7026 85.7588C39.3999 85.221 39.1156 84.663 38.8303 84.1027C38.2303 82.9249 37.6254 81.7372 36.8331 80.7063C36.5686 80.3282 36.252 79.9634 35.9331 79.5959L35.9331 79.5958C35.2847 78.8486 34.6266 78.0903 34.377 77.1859L34.4058 77.1981L34.4059 77.1981C35.0739 77.4801 35.6919 77.7411 36.1184 78.3603C36.3438 78.6757 36.5705 78.9843 36.7955 79.2906C37.5875 80.3688 38.3586 81.4185 38.977 82.6372C39.2831 83.2685 39.6173 83.8762 39.95 84.481C40.6291 85.7156 41.3016 86.9384 41.7151 88.3261C43.2424 88.3143 44.4294 89.0191 45.6507 89.7442C46.1372 90.0331 46.6292 90.3252 47.1502 90.5765C48.4864 91.3958 49.9184 91.9448 51.5038 91.983C52.3821 91.9955 53.1423 91.7435 53.9367 91.4802C54.1824 91.3988 54.4314 91.3163 54.6882 91.2401C54.6715 91.1165 54.6593 90.9956 54.6474 90.8776C54.5928 90.3359 54.5441 89.8532 54.0968 89.4294C53.1631 88.5282 51.8981 87.8863 50.7426 87.3265C49.2722 86.4935 47.936 85.3737 46.8627 84.0683C46.4349 83.5571 46.0709 83.0078 45.7064 82.4578L45.7064 82.4577C45.3874 81.9763 45.068 81.4944 44.7051 81.0368C44.2761 80.4895 43.835 79.952 43.3939 79.4145L43.3938 79.4144C42.7651 78.6483 42.1364 77.8821 41.5426 77.0876C40.3926 75.5582 38.9441 74.392 37.367 73.3242C36.3365 72.687 34.9932 72.4492 33.779 72.2342C33.6349 72.2087 33.4927 72.1835 33.3529 72.158C32.3531 71.9555 31.3717 71.9838 30.3926 72.012C29.6019 72.0347 28.8127 72.0574 28.0164 71.9586C27.593 71.8753 27.173 71.7853 26.754 71.6954C25.5934 71.4466 24.4402 71.1994 23.2412 71.1011C21.3873 70.8941 19.7938 70.3026 18.1416 69.6894L18.1414 69.6894C17.5266 69.4612 16.9037 69.23 16.2563 69.0145C15.8149 68.8277 15.3717 68.6456 14.9286 68.4635L14.9285 68.4634C13.7389 67.9745 12.55 67.4859 11.3989 66.9088ZM43.4592 91.3139C42.9444 90.6885 42.7199 89.9565 42.5118 89.1891C43.4565 89.4513 44.1437 89.7927 44.9077 90.3962C45.9919 91.2592 47.2049 91.8601 48.4644 92.4254C47.6813 92.9716 46.9202 93.5397 46.2137 94.1815C45.1979 93.3294 44.2998 92.3353 43.4592 91.3139Z" fill="#202530"/>
<path d="M92.1533 12.653C93.3553 13.2156 94.6285 13.6908 95.8716 14.1442C98.1798 15.0181 100.34 15.9139 102.843 16.0477C102.854 15.8429 102.865 15.6353 102.878 15.4278C101.268 15.2011 99.2477 15.2721 97.8622 14.3818C96.7697 13.7591 95.5349 13.4532 94.3739 12.9507C93.6538 12.6311 92.9227 12.6503 92.1533 12.653Z" fill="#202530"/>
<path d="M88.0981 35.4141C87.0193 35.2857 85.8912 35.3349 84.8069 35.3649C84.3524 38.8033 83.2572 41.9659 82.4275 45.3115C82.1291 46.5078 81.691 47.6548 81.3241 48.8319C80.875 50.1128 81.7184 51.6176 82.7397 52.3769C84.0156 53.2372 85.5462 53.7916 86.9947 54.2968C86.9098 52.8603 86.8003 51.4483 86.9426 50.0117C87.0631 48.6353 87.43 47.3298 87.6983 45.9861C87.8572 45.2214 87.5039 44.5031 87.3287 43.7657C86.8632 42.2391 87.3725 40.5949 87.6053 39.0573C87.7805 37.8584 88.12 36.6267 88.0981 35.4141Z" fill="#FF7D54"/>
<path d="M102.334 41.0698C101.417 41.1135 100.516 41.5314 99.6096 41.698C97.8818 42.0339 96.1568 42.4163 94.4537 42.8641C94.1087 42.9789 93.6104 43.0908 93.4078 43.4186C92.6959 44.5274 92.4577 45.74 91.4637 46.7123C90.7245 47.4961 89.5909 47.5999 88.5887 47.7856C88.5093 49.4816 88.4299 51.2541 88.6955 52.9364C88.827 53.7612 88.9365 54.5887 89.0323 55.419C87.7317 55.3835 86.579 55.2141 85.3797 54.6925C83.7204 54.1572 82.1761 53.5291 80.8728 52.3356C80.2951 51.7347 80.0185 50.8226 80.1664 50.0032C80.3854 48.523 80.6565 47.0618 80.6565 45.557C79.8871 46.42 79.1971 47.3431 78.5126 48.2772C76.3111 51.2377 73.5566 54.1326 71.8234 57.3854C74.9202 55.0831 79.0273 54.474 82.6772 55.7112C84.9745 56.4978 87.0937 57.7104 88.7749 59.4747C89.9414 60.72 91.3022 62.0774 91.9457 63.6723C93.4133 67.2583 94.1936 71.049 93.6789 74.9244L93.6241 75.1566C96.2828 72.9854 98.7361 70.5547 101.288 68.2578C103.421 65.7889 105.724 63.6068 107.484 60.7665C109.116 58.3221 109.877 55.3562 109.864 52.4312C109.957 49.8612 108.714 47.2366 107.115 45.2757C106.247 44.1642 105.173 43.4568 104.158 42.4982C103.602 42.0066 103.021 41.3675 102.334 41.0698Z" fill="#FF7D54"/>
<path d="M112.07 51.3032C112.276 53.0184 112.232 54.7799 112.098 56.5005C111.92 58.1747 110.775 59.1196 110.258 60.7801C109.639 62.7383 108.404 64.0656 107.325 65.7862C108.387 64.3551 109.499 63.0387 110.337 61.4492C111.054 60.0755 111.933 58.6362 112.155 57.0959C112.451 55.2114 112.552 53.1631 112.07 51.3032Z" fill="#FF7D54"/>
<path d="M78.3778 56.0693C76.8034 56.2059 74.9606 56.4298 73.6025 57.2928C71.9542 58.3443 70.6344 60.0649 69.3722 61.5397C68.4604 62.5529 68.2578 63.7519 68.0305 65.0464C67.6636 66.9691 68.0113 69.0911 68.2879 71.022C68.4878 72.5951 69.1038 73.9962 69.8513 75.3809C70.2757 76.1538 70.8234 76.8119 71.5709 77.2899C71.8419 76.883 72.1185 76.4788 72.395 76.0718C72.8742 74.2311 74.2049 73.297 75.4918 72.0216C76.6446 70.9128 77.874 69.9432 79.3991 69.3943C81.3157 68.7334 82.8737 67.5535 84.8999 67.1903C87.0794 66.5485 89.2425 66.4174 91.5015 66.4802C91.3618 65.4342 91.2715 64.451 90.7813 63.4951C90.0311 62.0149 88.7332 60.7449 87.4984 59.6552C84.9328 57.4348 81.825 55.9928 78.3778 56.0693Z" fill="#FF7D54"/>
<path d="M84.8675 68.9927C81.4531 69.1757 78.1647 70.35 75.7086 72.7834C74.638 73.9168 73.5099 74.9847 72.3955 76.0717C72.119 76.4786 71.8424 76.8828 71.5713 77.2897C73.2032 78.2811 74.5121 79.7341 75.3444 81.4437C75.6319 82.3586 76.0125 83.2599 76.2507 84.183C76.374 85.4967 76.2398 86.6383 77.1926 87.6952C77.6143 88.3179 78.2906 88.2059 78.9368 88.0939C79.6816 87.0042 79.9335 85.778 80.4729 84.6337C81.0725 83.6832 81.9076 82.7055 82.9426 82.2221C83.9174 81.8643 84.9716 81.7496 85.9518 81.3946C87.6878 80.7746 89.5086 79.9061 90.7626 78.5187C91.8305 77.4864 92.5643 76.1809 93.6239 75.1568L93.6787 74.9246C93.4213 74.8454 93.1612 74.7662 92.9011 74.687C92.9559 73.2068 92.9695 71.7675 92.6711 70.3063C92.348 69.8366 91.7073 69.5553 91.1788 69.3887C89.1225 68.8015 86.9868 68.9299 84.8675 68.9927Z" fill="white"/>
<path d="M70.3361 85.7068C68.34 86.0673 66.4863 87.0723 64.7476 88.0692C63.5538 88.7055 62.5763 89.716 61.4838 90.5572C60.5775 91.2618 60.0272 92.1931 59.37 93.1081C59.4823 93.3648 59.5918 93.6242 59.6986 93.881C61.0184 92.0402 62.7297 90.8112 64.5368 89.4921C66.1441 88.3286 67.776 87.2581 69.7392 86.7992C71.3465 86.3814 72.9263 86.3923 74.4624 85.7123C73.0578 85.0677 71.7709 85.4337 70.3361 85.7068Z" fill="#202530"/>
<path d="M75.4535 85.8435C75.1249 85.7916 74.7936 85.7506 74.4623 85.7124C72.9262 86.3924 71.3463 86.3815 69.739 86.7994C67.7758 87.2582 66.1439 88.3288 64.5367 89.4922C62.7295 90.8113 61.0182 92.0403 59.6985 93.8811C59.5917 93.6244 59.4821 93.3649 59.3699 93.1082C57.6175 95.1347 57.9652 97.8057 58.2692 100.261C58.7319 101.424 59.2138 102.741 60.0626 103.678C62.0258 105.584 64.3204 106.772 66.771 107.922C68.7369 108.864 70.8124 109.309 72.9399 109.719C75.0729 110.194 77.5015 109.863 79.6729 109.719C82.1919 109.579 84.6042 108.921 86.948 108.017C89.3794 107.023 91.5233 105.218 92.6952 102.853C93.1881 101.646 93.7001 100.392 93.9712 99.1166C93.8589 97.6227 92.9362 96.1288 92.1613 94.8752C90.9401 93.2611 89.6012 91.5214 87.9008 90.3908C85.6802 89.0307 83.2242 88.0611 81.031 86.6574L80.779 86.7502C80.4204 87.5641 80.1055 88.8395 79.3416 89.3502C78.3586 89.484 77.2606 89.3721 76.5843 88.5637C75.8587 87.7826 75.6616 86.854 75.4535 85.8435Z" fill="#FF7D54"/>
<path d="M81.8776 86.3105C81.5928 86.4225 81.3135 86.54 81.0315 86.6574C83.2247 88.0612 85.6808 89.0307 87.9014 90.3908C89.6018 91.5215 90.9407 93.2612 92.1619 94.8753C92.9368 96.1288 93.8595 97.6227 93.9718 99.1166C93.7007 100.392 93.1887 101.646 92.6958 102.853C91.5239 105.218 89.38 107.023 86.9485 108.017C84.6047 108.921 82.1925 109.579 79.6734 109.719C77.5021 109.863 75.0734 110.194 72.9404 109.719C70.8129 109.309 68.7375 108.864 66.7715 107.922C64.3209 106.772 62.0264 105.584 60.0632 103.678C59.2144 102.741 58.7325 101.424 58.2697 100.261C57.9412 99.3925 57.6838 98.4939 57.4702 97.59C57.1334 96.0988 57.5551 94.7114 57.3196 93.1984C56.375 94.3099 56.1422 95.7164 56.312 97.1257C56.6625 99.2805 57.5387 101.187 58.4559 103.15C59.0364 104.41 60.0604 105.062 61.0571 105.969C63.0587 107.588 65.4928 108.632 67.8585 109.596C69.2632 110.164 70.676 110.402 72.1382 110.757C73.8029 111.251 75.7579 111.016 77.4884 110.986C79.312 110.975 81.1191 110.787 82.8852 110.322C86.1572 109.719 89.8372 108.342 91.9373 105.633C92.537 104.836 93.227 104.292 93.4926 103.295C93.7993 102.249 94.1689 101.222 94.4728 100.176C94.8343 99.0019 94.4044 97.8713 94.2072 96.6832C93.969 95.3641 93.0737 94.4847 92.4521 93.2393C91.9812 92.2534 91.0256 91.5515 90.2452 90.7786C88.9583 89.4786 87.1347 88.6347 85.4891 87.8782C84.3008 87.3511 83.1152 86.7066 81.8776 86.3105Z" fill="#202530"/>
<path d="M73.0828 87.8755C72.3791 87.7526 71.4564 87.6188 70.9225 88.2115C69.7506 89.3749 69.7916 90.8961 69.6657 92.4283C69.1947 91.4423 68.732 90.0222 67.7435 89.4459C66.8564 89.2247 65.7365 89.3176 65.1259 90.085C64.2552 91.0873 64.2114 92.3136 64.1922 93.5726C63.5543 93.3104 62.7712 92.8079 62.0729 93.0428C61.2816 93.2886 60.4848 93.6272 60.2412 94.4957C59.3403 96.7325 59.5156 99.114 60.2275 101.373C60.9175 102.872 62.3029 104.257 63.9348 104.685C62.8779 103.683 61.5226 102.509 61.0818 101.083C60.4575 99.0457 60.3014 96.8909 61.2789 94.9299C61.4459 94.4793 62.0675 94.3346 62.459 94.1161C63.2394 96.1507 64.1128 98.1936 65.4983 99.8978C67.1165 101.572 68.376 103.219 70.9006 103.402C71.1853 103.055 71.3989 102.675 71.6234 102.288C70.2188 101.536 68.9483 100.589 67.697 99.611C66.2759 98.2373 65.1971 96.2436 65.2546 94.2308C65.2519 93.2394 65.1916 92.3409 65.7119 91.4533C65.9912 90.8415 66.6948 90.6886 67.2507 90.4127C67.8366 91.2812 68.2391 92.2371 68.7484 93.1465C69.5096 94.4384 71.1853 95.102 72.4914 95.711C73.3813 96.1508 74.2794 96.0934 75.2404 96.0442C75.1282 95.427 75.1638 94.8016 74.6435 94.3592C73.8358 93.701 72.5133 93.6491 71.711 92.8898C71.2456 92.431 70.6979 91.9667 70.7856 91.2484C70.8567 90.4892 71.2291 89.5306 71.8726 89.0854C72.3353 88.6867 72.8665 89.1264 73.2471 89.4295C74.0083 90.2816 74.5258 91.4232 75.3719 92.2234C75.9989 92.6823 76.7081 92.7369 77.461 92.6877C78.6247 92.3409 79.5365 91.2921 80.4319 90.5547C81.2533 90.298 82.2965 90.7978 82.6114 91.6007C82.7319 92.4365 82.5703 93.6655 81.7982 94.1707C80.7604 95.061 79.4872 94.7306 78.8082 96.0934C78.4741 96.5986 78.726 97.2295 79.3859 97.1203C80.8973 96.8799 82.3978 96.3911 83.8764 95.9978C84.9032 95.7902 85.6616 95.0173 86.5953 95.894C86.6446 96.6096 86.6419 97.4562 86.3188 98.1144C85.9628 98.6497 85.4946 99.1167 85.0675 99.5974C84.5746 100.245 83.7614 100.234 83.0166 100.561C81.3108 101.162 79.8733 102.241 78.1401 102.779C78.1209 103.148 78.1045 103.517 78.0908 103.885C79.0464 103.877 79.9363 103.926 80.8645 103.642C83.3342 102.765 85.5056 101.536 88.115 101.083C88.2683 102.768 87.2525 103.956 85.8423 104.707C83.8682 105.598 81.7489 106.914 79.657 107.613C76.3494 107.957 72.9377 107.52 69.7779 106.515C68.4171 106.081 67.2671 105.505 65.8762 105.264C66.9769 106.059 67.8887 106.909 69.1673 107.438C70.7773 108.08 72.5325 108.441 74.2547 108.624C76.3275 108.856 78.7123 108.973 80.629 108.02C82.5977 107.261 84.7142 106.731 86.6008 105.772C88.0766 105.046 89.306 103.582 89.3252 101.883C89.2786 101.209 89.1089 100.49 88.7529 99.9087C88.1889 99.6356 87.5701 99.5728 86.9567 99.4772C87.4551 98.6907 87.8576 97.9178 87.8247 96.9537C87.8302 95.9705 87.6604 95.0064 86.6364 94.6159C85.2591 94.0587 84.2104 94.7333 82.8797 95.0447C83.2822 94.056 83.7477 93.1438 83.8189 92.0541C83.7066 90.8552 82.8578 89.8419 81.7106 89.4842C80.5031 89.2138 79.2025 89.4159 78.3482 90.3772C77.8416 90.8688 77.4829 91.6089 76.6725 91.5543C75.7004 91.5543 75.3363 90.6776 74.9119 89.9648C74.4765 89.2274 74.0028 88.0858 73.0828 87.8755Z" fill="#202530"/>
<path d="M71.8727 89.0855C71.2292 89.5306 70.8569 90.4892 70.7857 91.2485C70.698 91.9667 71.2457 92.431 71.7111 92.8899C72.5134 93.6491 73.8359 93.701 74.6436 94.3592C75.1639 94.8016 75.1283 95.427 75.2405 96.0443C74.2795 96.0934 73.3814 96.1508 72.4915 95.7111C71.1854 95.102 69.5097 94.4384 68.7485 93.1466C68.2392 92.2371 67.8367 91.2812 67.2508 90.4128C66.6949 90.6886 65.9913 90.8415 65.712 91.4533C65.1917 92.3409 65.252 93.2394 65.2547 94.2308C65.1972 96.2436 66.276 98.2373 67.6971 99.6111C68.9484 100.589 70.2189 101.536 71.6235 102.288C71.399 102.675 71.1854 103.055 70.9007 103.402C68.3761 103.219 67.1166 101.572 65.4984 99.8978C64.1129 98.1936 63.2395 96.1508 62.4591 94.1161C62.0676 94.3346 61.446 94.4794 61.279 94.93C60.3015 96.8909 60.4576 99.0457 61.0818 101.083C61.5227 102.509 62.878 103.683 63.9349 104.685C64.5729 104.907 65.2191 105.103 65.8763 105.264C67.2672 105.505 68.4172 106.081 69.778 106.515C72.9378 107.52 76.3495 107.957 79.6571 107.613C81.749 106.914 83.8683 105.598 85.8424 104.707C87.2526 103.956 88.2684 102.768 88.1151 101.083C85.5057 101.536 83.3344 102.765 80.8646 103.642C79.9364 103.926 79.0465 103.877 78.0909 103.885C78.1046 103.517 78.121 103.148 78.1402 102.779C79.8734 102.241 81.3109 101.162 83.0167 100.561C83.7615 100.234 84.5747 100.245 85.0676 99.5974C85.4947 99.1167 85.9629 98.6497 86.3189 98.1144C86.642 97.4562 86.6447 96.6096 86.5954 95.8941C85.6617 95.0174 84.9033 95.7903 83.8765 95.9978C82.3979 96.3911 80.8974 96.88 79.386 97.1203C78.7261 97.2296 78.4742 96.5987 78.8083 96.0934C79.4873 94.7306 80.7605 95.0611 81.7983 94.1707C82.5704 93.6655 82.732 92.4365 82.6115 91.6008C82.2966 90.7978 81.2534 90.2981 80.432 90.5548C79.5366 91.2922 78.6248 92.3409 77.4611 92.6878C76.7082 92.7369 75.999 92.6823 75.372 92.2235C74.5259 91.4233 74.0084 90.2817 73.2472 89.4296C72.8666 89.1264 72.3354 88.6867 71.8727 89.0855Z" fill="white"/>
<path d="M33.3913 93.1162C33.2763 93.3948 33.164 93.6734 33.049 93.9519C34.722 95.2192 36.2444 96.6584 37.9502 97.8847C39.4836 98.9362 40.3187 100.561 41.7918 101.689C42.8952 102.519 43.8837 103.396 44.8721 104.36C46.0796 105.357 47.3145 106.583 48.8478 106.974C50.2059 107.471 51.564 106.93 52.8071 106.378C51.5668 106.302 50.017 106.676 48.8917 106.116C46.7039 105.182 45.198 103.107 43.1909 101.67C41.5043 100.507 40.4501 98.7805 38.8155 97.5761C36.9426 96.1887 35.1437 94.6511 33.3913 93.1162Z" fill="#202530"/>
<path d="M73.6822 97.6747C73.1976 97.8195 72.8663 98.2701 72.6527 98.7043C72.6171 99.2833 72.9484 99.8733 73.5262 100.048C74.5639 100.403 75.5469 100.736 76.6613 100.616C77.5566 100.507 78.4465 100.114 79.2871 99.8022C79.2762 99.2287 79.2625 98.6579 79.2378 98.0844C78.6437 98.18 78.0522 98.3329 77.4526 98.3957C76.0945 98.4613 74.9828 97.6283 73.6822 97.6747Z" fill="#202530"/>
</svg>
