<svg width="163" height="152" viewBox="0 0 163 152" fill="none" xmlns="http://www.w3.org/2000/svg">
<path d="M16.0862 2.13515C16.8929 2.10409 17.6768 2.61144 18.3342 3.02768C19.3628 3.74627 20.4391 4.38616 21.5382 4.98877C22.5398 5.57482 23.4585 6.28305 24.4975 6.81112C25.4493 7.28327 26.2415 7.95008 27.1208 8.53406C27.8632 9.04556 28.7508 9.14289 29.4808 9.68959C30.8495 10.7229 32.5293 11.0771 33.9228 12.0876C35.698 13.3239 37.7594 13.8209 39.5843 14.9392C40.8555 15.6971 42.1828 16.2355 43.3627 17.1446C43.9123 17.5733 44.6651 17.973 45.0259 18.5756C45.8948 20.0086 46.3283 21.51 46.8861 23.0673C47.1619 23.8956 47.8463 24.318 48.4124 24.96C49.7749 26.3288 50.4759 28.4535 51.3074 30.162C51.8134 31.2264 52.5496 32.2162 52.7612 33.3593C52.9291 33.9889 52.9478 34.7551 53.5907 35.1009C55.1046 35.8257 56.5997 35.8651 58.18 36.331C59.6296 36.6582 61.0543 36.8694 62.4354 37.4658C62.9912 37.7143 63.3292 38.2051 63.8228 38.5054C66.4565 39.0107 69.0549 39.545 71.726 39.8659C72.1698 39.897 72.4933 40.1476 72.8852 40.3443C72.8894 41.2762 72.9495 42.1542 72.7898 43.0758C72.4829 45.5069 72.035 47.9277 71.6555 50.3486C71.6389 51.6035 71.5248 52.8978 71.641 54.1465C72.0184 55.3227 72.6654 56.441 73.2233 57.5427C73.7562 58.7914 74.3597 59.9055 75.2182 60.9637C76.1349 62.1234 76.8835 63.8298 78.1755 64.5918C78.9822 65.0868 79.8532 65.3746 80.7739 65.5776C83.445 66.3396 86.1347 66.8801 88.8451 67.4475C89.8737 67.7375 90.8795 68.0419 91.9372 68.2179C93.1856 68.543 94.4091 68.6383 95.5829 69.127C96.4808 69.5039 97.4057 69.595 98.2643 70.034C99.3883 70.6221 100.595 70.7588 101.742 71.3014C102.615 71.7321 103.507 72.1173 104.347 72.6122C105.156 73.0782 106.074 73.3619 106.856 73.8609C107.37 74.1902 107.748 74.6189 108.177 75.0434C108.751 75.6129 109.419 76.0084 110.025 76.5158C110.539 76.9444 110.9 77.6133 111.259 78.1766C111.792 78.9821 112.03 80.1418 111.638 81.0509C111.418 81.637 110.898 82.1236 110.545 82.6434C109.533 84.153 108.206 85.437 107.2 86.9611C106.694 87.7894 106.309 88.682 105.811 89.5145C105.141 90.6327 104.884 91.8524 104.336 93.0266C103.826 94.0537 103.727 95.1223 103.38 96.2074C102.829 98.4149 102.14 100.631 101.136 102.679C100.574 103.99 100.168 105.354 99.5127 106.63C98.9611 107.657 98.6998 108.792 98.1565 109.825C97.7023 110.693 97.3083 111.583 96.9101 112.478C99.3696 114.735 100.334 117.477 102.045 120.25C102.779 121.76 103.548 123.307 104.038 124.916C104.417 126.123 104.861 127.299 105.158 128.521C105.601 130.42 106.3 132.211 106.46 134.174C105.149 135.369 104.338 137.053 103.156 138.409C102.053 139.629 101.371 141.12 100.301 142.369C99.297 143.682 97.9802 144.607 96.8831 145.825C96.1407 146.645 95.2552 147.258 94.3075 147.815C93.3577 148.473 92.4473 149.068 91.3026 149.343C88.9903 149.886 86.6075 150.23 84.231 150.254C82.433 150.391 80.5126 150.112 78.725 149.993C75.9358 149.675 73.1922 149.099 70.405 148.765C70.3759 148.55 70.3469 148.337 70.3158 148.121C71.1474 148.163 71.9582 148.351 72.7878 148.362C76.1121 148.393 79.4301 148.43 82.7544 148.358C84.6333 148.121 86.481 147.755 88.3433 147.424C90.753 147.179 92.833 146.233 94.9213 145.069C95.979 144.605 96.5596 143.771 97.3518 142.984C98.2684 141.967 99.2245 140.981 100.104 139.933C100.933 138.823 101.672 137.657 102.58 136.603C103.488 135.601 104.042 134.514 105.319 133.905C104.948 132.176 104.56 130.463 103.946 128.803C102.959 125.843 101.493 122.938 100.1 120.159C99.8673 119.718 99.5708 119.326 99.2556 118.941C98.6832 118.235 98.3887 117.369 97.8247 116.649C97.0719 115.702 96.4974 114.768 95.3402 114.267C94.8757 115.23 94.4589 116.208 94.069 117.202C93.648 118.301 92.9098 119.088 92.2856 120.128C91.3544 121.898 89.9048 123.414 88.503 124.827C88.0198 125.392 87.381 124.969 86.8833 125.468C86.3981 125.847 85.9688 126.245 85.4151 126.529C84.6457 126.941 83.7001 127.061 82.854 127.276C82.3334 127.413 81.8399 127.483 81.3007 127.502C80.2285 127.533 79.3223 127.738 78.2875 127.614C76.4376 127.386 74.4115 126.988 72.7421 126.131C71.4025 125.145 70.1188 124.089 68.9533 122.899C68.2793 122.149 67.4084 121.76 67.4125 120.633C68.1881 121.184 68.8642 121.842 69.5215 122.526C70.1976 123.224 70.9939 123.665 71.7281 124.286C72.205 124.675 72.5866 125.087 73.1507 125.353C75.4692 126.334 77.7794 126.489 80.2596 126.63C80.9689 126.665 81.6283 126.489 82.3085 126.326C83.3392 126.077 84.4549 125.974 85.4628 125.659C86.0932 125.46 86.6158 125.098 87.2338 124.866C87.6486 124.692 88.0426 124.619 88.3288 124.238C88.9281 123.451 89.5668 122.694 90.106 121.865C91.6074 119.937 92.7314 117.601 93.7932 115.41C94.1271 114.721 94.2515 113.961 94.5833 113.267C94.9338 112.522 95.276 111.77 95.6119 111.016C95.7633 111.08 95.9147 111.142 96.0661 111.209C95.9582 111.039 95.5642 110.836 95.7488 110.629C96.8209 108.434 97.4845 106.114 98.4447 103.878C99.859 99.9619 101.045 96.0397 102.731 92.2128C103.198 91.1235 103.416 89.9804 103.976 88.9222C104.594 87.7977 105.199 86.667 105.788 85.5281C106.35 84.679 107.005 83.859 107.729 83.1425C108.438 82.3576 109.075 81.3429 109.233 80.2826C109.264 79.6365 109.216 78.8393 108.87 78.2801C107.725 76.8968 106.19 75.7495 104.66 74.8259C102.352 73.2169 99.8196 72.0448 97.188 71.0694C95.8649 70.7733 94.5937 70.3219 93.2768 70.0092C91.5888 69.6385 89.9173 69.1788 88.2831 68.6155C87.2317 68.2614 86.1513 68.164 85.0874 67.8534C84.1148 67.5718 83.1215 67.4144 82.1198 67.2798C81.2737 67.1763 80.5168 66.7994 79.679 66.6337C79.9133 66.994 80.1539 67.3523 80.4255 67.6877C80.9004 68.2821 81.3069 68.9303 81.7818 69.5204C82.2567 69.9512 82.9431 70.1562 83.4865 70.5C83.9696 70.7692 84.3035 71.1688 84.6478 71.5892C84.4943 71.6741 84.3409 71.759 84.1895 71.8439C83.4263 71.3324 82.7192 70.8272 81.8648 70.4751C81.3774 70.2473 80.9129 70.1293 80.6412 69.6198C80.1559 68.717 79.7453 67.8472 78.9366 67.1742C77.8644 66.3086 76.9374 65.3063 75.9793 64.3247C75.1788 63.5129 74.6334 62.5168 73.8889 61.6471C73.2025 60.8415 72.6799 59.9594 72.1283 59.0606C71.4377 57.9258 71.1744 56.6357 70.5273 55.476C69.9923 54.5897 70.2349 53.3658 70.3822 52.3946C70.6974 50.7876 70.5149 49.1682 70.8923 47.5716C71.1723 46.3456 71.0375 45.159 71.1847 43.9165C71.2905 43.0468 71.3154 42.2164 71.2428 41.3445C69.4987 40.9635 67.736 40.715 65.9567 40.5659C65.4818 40.5328 64.9571 40.5576 64.5113 40.7378C63.9078 41.1664 63.5096 41.8933 62.9124 42.3282C62.4271 42.5146 61.722 42.3468 61.5748 41.7898C61.413 41.0815 61.861 40.2615 62.1409 39.6237C61.5209 39.3068 60.8801 38.9258 60.2144 38.7208C57.7963 38.054 55.3493 37.6025 52.898 37.0662C48.9101 36.008 44.8165 35.5544 40.8306 34.4072C38.3504 33.73 35.8847 33.1212 33.338 32.794C33.2634 34.4569 32.8714 35.9127 33.2053 37.588C33.3878 38.5282 33.8731 39.2219 34.265 40.0751C34.6507 40.8931 34.8934 41.7152 35.5155 42.4027C36.1169 43.084 36.905 43.434 37.467 44.1464C37.9419 44.7407 38.367 45.3661 38.8999 45.9149C40.2915 45.1797 41.7721 44.6682 43.3565 44.602C46.3511 44.4218 49.3726 45.6622 51.3697 47.8988C53.8935 50.6385 54.6504 54.7325 53.3066 58.2033C52.2676 60.9554 49.9823 63.163 47.191 64.1052C43.7547 65.3291 39.717 64.4759 37.0729 61.9681C34.8146 59.8889 33.591 56.7537 33.9208 53.6971C33.983 53.08 34.1447 52.4525 34.1406 51.8334C33.8088 51.4896 33.2489 51.3322 32.9502 50.9864C32.7221 50.3009 32.5147 49.9385 31.9673 49.4415C31.0797 51.589 30.6359 53.8752 30.9698 56.1946C31.0983 57.3066 31.4571 58.3503 31.6852 59.4396C30.7437 57.1865 30.4887 54.6145 30.9718 52.2206C31.1129 51.4399 31.3825 50.7068 31.6043 49.951C31.6832 49.6217 31.7931 49.338 31.6126 49.017C31.1315 48.0396 30.331 47.2216 29.7442 46.2959C28.6927 44.6827 27.4298 43.2497 26.0715 41.8892C25.2129 40.9366 24.1532 40.2221 23.2926 39.2758C21.7124 37.557 19.9704 35.9562 18.3072 34.3161C17.6664 33.6886 17.1956 32.9473 16.6254 32.2639C15.8767 33.8646 15.5428 35.5627 14.9124 37.2215C14.1721 39.7065 13.4483 42.2226 12.9216 44.7594C12.4881 46.7246 12.1812 48.754 11.5632 50.6675C11.051 52.204 10.7441 53.7924 10.2464 55.3331C9.74866 56.8862 9.57239 58.4994 9.16178 60.0691C8.48572 62.2145 7.91543 64.4697 7.77441 66.7165C9.82539 67.0831 11.9075 67.3109 13.9502 67.7209C16.3703 68.4229 18.7199 69.2657 21.225 69.6488C23.4875 70.1893 25.7915 70.5745 28.0208 71.231C29.9474 71.8046 31.9382 72.0096 33.8586 72.6101C35.9282 73.2418 38.0352 73.5855 40.1276 74.0867C42.4192 74.7576 44.7584 75.06 47.0375 75.8075C48.0122 76.1285 48.9806 76.3874 49.9885 76.5924C51.492 76.8802 52.5849 77.6444 54.1776 77.3648C54.7935 77.3172 55.2912 76.377 55.8801 76.5137C56.4256 76.9838 56.7014 77.7976 57.2758 78.2056C58.6673 78.7109 60.4798 78.3422 61.5934 79.4978C61.7303 79.68 61.8589 79.8664 61.9895 80.0507C61.1725 80.235 60.3533 80.3427 59.5155 80.2412C58.3853 80.0735 57.282 79.7359 56.1601 79.5371C55.2331 79.3632 54.3684 79.5993 53.4642 79.386C52.251 79.123 51.1125 78.7129 49.9118 78.5224C49.1714 78.394 48.4539 78.3153 47.7509 78.0295C46.5419 77.5325 45.2686 77.1991 43.9807 76.9921C43.3399 76.9196 42.3984 76.9113 42.0728 77.5947C41.2413 79.2182 40.6959 80.9225 40.7933 82.7676C40.8991 83.7182 41.3553 84.5361 41.3678 85.5239C41.3968 86.4972 41.3263 87.4457 41.5461 88.4045C41.8613 89.9121 41.9878 91.4113 42.4959 92.8319C42.7696 93.6272 43.0247 94.4244 43.2114 95.2445C43.4872 96.4166 43.9849 97.5328 44.3644 98.6779C45.1773 100.695 46.8467 102.418 48.1428 104.137C48.9869 105.172 49.7811 106.415 50.8284 107.231C51.7616 107.964 52.6741 108.715 53.6529 109.386C54.6442 110.076 55.5131 110.886 56.5521 111.43C57.8897 112.138 59.3268 112.455 60.7245 112.925C63.2276 114.385 65.4611 116.589 66.7655 119.192C66.0438 118.631 65.4258 117.968 64.8763 117.241C64.2728 116.448 63.5138 115.833 62.6967 115.274C62.114 115.887 61.4669 116.39 61.0086 117.063C60.1853 118.27 59.7789 119.583 59.1609 120.85C58.3044 122.424 57.7466 124.18 57.226 125.891C56.3281 128.757 55.3679 131.764 55.0672 134.758C55.0506 134.957 55.0548 135.154 55.0797 135.348C55.4861 135.949 56.2493 136.338 56.9253 136.554C57.4376 136.732 58.0037 136.792 58.404 137.175C59.1899 137.879 59.7851 138.89 60.4031 139.745C61.3591 141.103 62.5702 142.151 63.7606 143.41C64.7415 144.303 65.544 145.353 66.5539 146.214C67.3441 146.933 68.269 147.411 68.9886 148.219C68.2918 148.003 67.5971 147.763 66.9127 147.506C65.7949 147.096 64.8286 146.285 63.9617 145.491C62.313 144.183 60.9381 142.36 59.5425 140.791C58.7337 139.846 58.1053 138.749 57.0394 138.121C56.2161 137.581 55.1709 137.409 54.4078 136.821C54.2045 136.651 53.9909 136.525 53.9971 136.227C53.9743 135.224 53.9536 134.214 54.0241 133.211C54.0822 132.4 54.3373 131.687 54.5177 130.904C54.8204 129.36 55.4654 127.914 55.847 126.386C57.0041 123.12 57.7735 120.033 59.5259 117.007C59.8701 116.444 60.2849 115.928 60.6312 115.365C59.8203 114.81 58.9328 114.4 58.0991 113.884C57.365 113.435 56.5624 113.248 55.7951 112.859C55.0009 112.495 54.302 111.998 53.5596 111.546C53.0349 111.227 52.6119 110.687 52.1764 110.252C51.6289 109.666 50.9964 109.243 50.3867 108.726C49.0553 107.661 47.8007 106.369 46.9753 104.866C46.461 104.133 46.0048 103.364 45.4987 102.625C44.551 101.496 43.9579 100.063 43.3939 98.7152C42.4503 96.6754 41.8572 94.4824 41.0277 92.3929C40.6668 91.3409 40.4449 90.2475 40.0799 89.1935C39.6175 86.928 38.9145 84.9627 39.1094 82.6206C39.3956 80.3261 39.9368 78.0399 40.9509 75.9504C39.408 75.5155 37.8423 75.1573 36.2911 74.7514C34.8913 74.4532 33.6242 73.8278 32.1871 73.6849C30.3476 73.2252 28.4812 72.9083 26.6501 72.4196C23.3652 71.7901 20.0803 71.0736 16.8804 70.0982C15.3043 69.6716 13.7158 69.4148 12.1273 69.0649C10.574 68.6859 8.92329 68.5761 7.35136 68.2779C6.55502 68.2469 6.23151 67.2674 6.07183 66.6275C6.12782 65.327 6.86816 63.954 7.13983 62.6804C7.41565 61.2495 7.76612 59.8289 8.18917 58.4331C8.5749 56.8986 9.17007 55.3952 9.31731 53.8379C9.43552 52.7797 9.88553 51.8168 9.99129 50.7524C10.1012 49.6403 10.5865 48.665 10.7918 47.5736C11.08 46.4015 11.2542 45.2004 11.5923 44.0428C12.4052 41.6759 12.9921 39.195 13.4815 36.7452C13.8485 35.5503 14.0891 34.3264 14.4873 33.1419C14.6801 32.5807 14.7237 31.9574 14.6117 31.3776C14.3691 30.9075 13.9419 30.5119 13.5914 30.1205C13.0087 29.5076 12.5607 28.8118 12.0319 28.1574C11.3455 27.3456 11.0386 26.3102 10.3646 25.4777C9.3899 24.2331 8.80094 22.7856 7.92165 21.4851C7.33892 20.6361 7.04858 19.64 6.52806 18.7475C5.80224 17.5215 5.48702 16.2376 4.6264 15.1028C3.98974 14.144 3.09179 13.5517 3.13741 12.2823C3.40286 11.9302 3.83836 11.69 4.1909 11.4312C4.85866 10.9922 5.38126 10.4247 5.98473 9.9091C6.64834 9.33133 7.39283 8.83226 8.08341 8.28349C9.06431 7.45929 10.2339 6.85875 11.2646 6.08632C11.698 5.75499 12.1418 5.45678 12.6084 5.17722C12.8054 5.36567 13.0004 5.55204 13.1995 5.73842C12.4881 6.26441 11.7229 6.72207 11.0406 7.2812C10.3832 7.81548 9.96848 8.53406 9.33183 9.0994C8.57904 9.77657 7.82833 10.4413 7.00711 11.0356C6.18589 11.6196 5.66537 12.4583 5.03493 13.2514C5.92044 14.5229 7.00296 15.7344 7.73708 17.0867C8.34885 18.2132 8.94196 19.3459 9.51017 20.4953C10.3625 22.1706 11.5093 23.6471 12.4197 25.2851C13.27 26.7575 14.3898 28.0062 15.323 29.4206C16.0882 30.4457 17.036 31.3113 17.7514 32.3819C18.7344 33.8129 20.0284 34.7282 21.2292 35.952C22.6705 37.4058 24.147 38.8512 25.6339 40.2553C26.9404 41.2431 27.9731 42.4649 29.0246 43.7053C30.4389 45.1155 31.1149 46.8985 32.4069 48.3958C32.9482 49.0315 33.4562 49.6983 34.0224 50.3113C35.2667 51.5538 36.2082 52.817 37.9315 53.4403C38.5661 53.6992 39.1447 54.0077 39.7046 54.4012C39.097 54.5027 38.3234 54.7139 37.7241 54.4923C37.1227 54.277 36.5649 54.0947 36.119 53.6143C35.6026 53.0717 35.0655 52.5768 34.4496 52.1461C34.0576 53.7841 34.0037 55.4635 34.46 57.0954C35.2418 60.1188 37.5312 62.6742 40.4677 63.7573C43.2362 64.8155 46.434 64.5256 48.9641 62.9828C51.295 61.5767 52.9997 59.1994 53.5077 56.5197C54.1796 53.2374 53.0308 49.7211 50.5609 47.4597C48.5306 45.5649 45.6812 44.6206 42.919 44.9022C41.6083 45.0182 40.418 45.4759 39.2276 46.006C39.8497 46.621 40.3931 47.2609 40.9032 47.9692C41.179 48.3129 41.4341 48.7602 41.8717 48.901C42.7468 49.2262 43.6531 49.4374 44.578 49.5679C44.5075 49.924 44.437 50.2802 44.3685 50.6364C43.6303 50.1083 43.0206 49.8868 42.1164 49.7563C42.1786 50.4045 42.2553 51.0527 42.357 51.6967C42.8941 51.7671 43.4333 51.8251 43.9745 51.8748C43.819 52.5167 43.6552 53.1587 43.4851 53.7965C43.174 53.8152 42.8609 53.8338 42.5498 53.8524C42.9293 53.5107 43.3005 53.1628 43.6531 52.7922C43.3648 52.672 43.0703 52.5354 42.7676 52.4546C42.5457 52.6286 42.3507 52.8398 42.1517 53.0365C42.1205 52.788 42.0915 52.5374 42.0604 52.2869C41.7327 52.8274 41.4569 53.3948 41.1915 53.9684C41.9111 54.2231 42.5747 54.3619 43.342 54.4053C43.2508 54.6621 43.1595 54.9189 43.0683 55.1757C42.2761 55.4035 41.6353 55.5402 41.1894 56.3002C41.6954 56.3706 42.1993 56.4182 42.7095 56.4348C42.7074 56.5922 42.7054 56.7475 42.7033 56.9049C41.7701 56.6129 40.8431 56.3478 39.9451 55.9937C40.7788 55.5133 41.6436 55.1012 42.4586 54.5917C41.6436 54.3329 40.7975 54.2542 39.97 54.0595C39.9431 53.8814 39.9182 53.7033 39.8912 53.5232C40.6647 53.1111 41.2309 52.496 41.6933 51.7609C41.8675 51.4855 41.8572 51.1686 41.7618 50.8683C41.2496 49.193 40.1235 47.6896 38.7237 46.6459C37.5706 45.6705 36.5462 44.5357 35.4844 43.4671C34.2132 42.1584 33.3235 40.6011 32.579 38.9486C32.3945 38.4702 32.2203 38.0167 32.2389 37.4928C32.2783 36.5899 32.1912 35.687 32.2928 34.7903C32.577 33.2185 32.3468 31.6219 32.5147 30.0274C32.7366 28.5301 32.5687 27.0661 32.6329 25.5585C33 26.5131 33.1887 27.5071 33.4355 28.4949C33.647 28.5074 33.8586 28.5198 34.068 28.5322C34.1033 28.8242 34.0618 29.1866 34.2007 29.4475C34.4185 29.7623 34.7088 29.6546 35.0406 29.6753C35.5549 29.6588 36.0464 29.5759 36.5524 29.5076C37.8983 29.3378 39.2795 29.5697 40.6461 29.5014C42.1454 29.4455 43.5743 29.3523 45.0031 29.9031C44.5904 29.9859 44.1881 30.0791 43.7692 30.1081C43.3462 30.1661 42.9749 30.0729 42.6348 30.3815C43.1056 31.127 43.6344 31.8228 44.0347 32.6118C44.4287 33.3697 44.9762 33.8936 45.7663 34.225C47.0811 34.7592 48.6841 34.8876 50.0652 35.1382C50.8699 35.3204 51.6766 35.4695 52.4957 35.5834C52.0644 34.4362 51.5273 33.3386 51.1125 32.1852C50.2146 30.427 49.5758 28.6275 48.4933 26.977C47.7675 25.6744 46.5854 24.8337 45.3142 24.1151C44.437 23.4897 43.5722 22.9264 42.5623 22.533C41.289 22.0401 40.4511 21.0689 39.3043 20.3896C38.6656 19.9527 38.0414 19.7001 37.9439 18.8386C39.0845 19.1534 39.9306 20.1722 40.9385 20.839C41.9857 21.6632 43.2549 21.8807 44.3436 22.6117C44.8579 22.9554 45.3577 23.1998 45.955 23.3779C45.2333 21.831 44.3229 20.2923 43.1035 19.0809C41.7639 17.8177 40.1795 17.3828 38.6718 16.4613C37.4089 15.5459 35.9697 14.8563 34.462 14.4525C32.5127 13.8665 30.6442 13.0878 28.7861 12.2574C27.5874 11.7025 26.5899 10.8306 25.3954 10.257C24.0516 9.37896 22.8447 8.35597 21.3681 7.66845C19.5805 6.85046 18.2802 5.54376 16.6378 4.51248C16.1608 4.19357 15.6403 3.85188 15.2712 3.40872C15.1903 2.96763 15.8104 2.43749 16.0862 2.13515Z" fill="#202530"/>
<path d="M140.205 12.5058C141.625 12.3712 143.039 12.7067 144.07 13.7276C144.64 14.2909 144.657 14.9826 144.705 15.7364C144.736 17.5898 144.667 19.4411 144.636 21.2966C144.564 22.3154 144.28 23.297 144.278 24.3262C144.294 26.571 144.253 28.822 144.172 31.0648C144.006 32.3135 144.251 33.5311 144.205 34.7861C145.565 34.7177 146.938 34.608 148.301 34.6597C148.722 34.6597 149.06 34.8378 149.418 35.0346C147.654 35.2085 145.912 35.2561 144.174 35.6558C144.066 36.5194 144.058 37.3436 144.143 38.2092C144.881 38.174 145.621 38.2692 146.36 38.2216C146.994 38.1077 147.666 37.8116 148.149 37.3767C148.199 37.0474 148.166 36.7016 148.17 36.3703C148.566 36.5339 149.369 36.5235 149.385 37.0661C148.805 37.9275 147.697 38.6523 146.656 38.7787C145.82 38.9547 144.987 39.1286 144.139 39.2342C144.066 40.0232 143.977 40.7894 144.014 41.5846C144.097 42.8334 143.842 44.0634 143.848 45.3184C143.875 47.8448 143.346 50.2304 143.705 52.7527C144.543 52.6575 145.686 52.3862 146.465 52.7569C147.415 54.4757 147.701 56.5941 148.473 58.3999C148.699 58.8948 148.564 59.5637 147.898 59.5306C146.864 58.4455 145.86 57.1843 144.356 56.7349C143.562 56.4595 142.847 56.6273 142.046 56.7453C141.026 56.9151 140.07 56.9814 139.081 57.2858C138.77 57.3914 138.477 57.4556 138.255 57.7165C137.67 58.3833 137.27 59.2303 136.677 59.8888C136.447 60.1788 135.953 60.1974 135.617 60.2968C135.507 58.7706 135.736 57.3997 135.416 55.8859C135.252 55.157 135.066 54.4405 134.997 53.6949C136.086 53.4568 137.196 53.3077 138.299 53.1462C138.152 50.7461 137.768 48.3791 137.699 45.9748C137.565 43.7197 137.222 41.4894 137.115 39.2322C136.132 39.1804 135.151 39.1763 134.166 39.1763C132.372 39.2197 130.537 38.3893 129.091 37.3808C129.006 37.1054 128.94 36.8279 128.89 36.5421C129.315 36.596 129.699 36.567 130.062 36.8279C130.775 37.3291 131.447 37.8343 132.295 38.0973C133.081 38.3976 133.765 38.1822 134.587 38.2941C135.412 38.4038 136.242 38.4225 137.071 38.4225C136.918 37.3249 136.721 36.2481 136.696 35.136C135.402 35.2044 134.126 35.368 132.843 35.5316C130.995 35.4674 129.095 35.6745 127.318 36.1963C127.853 36.7513 128.467 37.1841 128.861 37.8178C129.162 38.3024 129.442 38.8056 129.674 39.3274C130.24 40.6942 130.306 42.0257 130.543 43.4691C130.696 44.7551 130.962 46.0204 131.24 47.2836C131.482 48.6193 131.634 49.9695 131.878 51.3052C132.092 52.6512 132.231 54.0698 132.637 55.3723C132.803 55.9004 132.868 56.4015 132.865 56.9545C132.859 58.0334 133.118 59.0439 133.216 60.1187C133.394 61.9203 133.921 63.6184 134.269 65.3849C134.495 66.267 135.012 67.0995 135.443 67.8968C135.926 68.9053 137.036 69.5224 137.809 70.3652C137.092 70.1996 136.416 70.0443 135.804 69.6094C134.819 68.9757 134.247 67.9734 133.709 66.9566C133.065 65.155 132.561 63.2705 132.393 61.3591C132.285 60.4169 132.084 59.5202 132.038 58.5697C131.936 56.1489 131.248 53.9538 130.897 51.5206C130.698 50.013 130.36 48.5323 130.165 47.0268C130.008 45.7553 129.585 44.546 129.475 43.2641C129.22 41.4211 128.983 39.4103 127.658 37.9855C127.169 37.4388 126.095 37.1427 126.233 36.2729C126.565 35.6289 127.301 35.2002 128 35.0843C129.57 34.8606 131.144 34.7674 132.731 34.7343C134.031 34.6245 135.325 34.6949 136.625 34.7716C136.654 33.2433 136.401 31.7585 136.246 30.2447C135.875 27.2917 135.559 24.3324 135.153 21.3815C134.825 19.8366 134.865 18.2587 134.551 16.7097C134.481 15.6204 134.367 14.7444 133.784 13.7939C135.895 13.123 137.965 12.5203 140.205 12.5058Z" fill="#202530"/>
<path d="M141.654 13.3715C142.345 13.4067 143.046 13.8209 143.66 14.117C144.018 16.395 143.699 18.6294 143.794 20.9115C143.83 21.7295 143.641 22.4853 143.492 23.2785C142.915 22.9637 142.363 22.5226 141.743 22.3093C140.536 22.1167 139.334 22.0732 138.152 21.7191C137.747 22.4211 136.893 22.4998 136.19 22.7918C136.15 21.307 135.848 19.8616 135.729 18.3871C135.613 17.0307 135.277 15.7157 135.228 14.3511C137.281 13.6718 139.491 13.2908 141.654 13.3715Z" fill="white"/>
<path d="M138.852 16.0637C139.387 15.84 139.748 16.3267 140.177 16.5628C140.893 16.9997 141.642 17.3683 141.897 18.2401C142.009 18.967 141.807 20.0335 141.077 20.3897C140.638 20.6527 140.094 21.0213 139.57 21.0172C138.674 20.8805 137.857 20.4994 137.55 19.5841C136.932 18.2836 137.473 16.5917 138.852 16.0637Z" fill="#202530"/>
<path d="M139.014 17.2481C139.873 17.1238 141.051 18.0971 140.844 19.0249C140.711 19.6917 139.97 19.9671 139.367 19.9982C138.519 19.7952 138.28 18.8116 138.367 18.0516C138.355 17.6788 138.664 17.333 139.014 17.2481Z" fill="white"/>
<path d="M138.82 23.2642C139.541 23.1441 140.398 23.5355 141.099 23.7136C141.858 23.9 142.548 24.1795 143.247 24.5253C143.446 25.8755 143.392 27.2237 143.253 28.5759C143.137 29.4871 143.311 30.3631 143.276 31.2742C143.098 33.6371 143.311 36.0082 143.09 38.3814C141.406 38.3151 139.736 38.5242 138.052 38.4704C137.895 37.6793 137.762 36.8841 137.664 36.0827C137.393 32.6679 137.136 29.2199 136.592 25.8362C136.551 25.4779 136.499 25.0886 136.553 24.7324C137.088 24.047 138.05 23.639 138.82 23.2642Z" fill="white"/>
<path d="M32.6888 24.6143C32.8589 24.7509 33.0268 24.8918 33.1907 25.0346C33.3462 26.0017 33.0579 27.6108 33.7962 28.3293C34.464 27.88 34.719 26.8901 35.2147 26.2544C35.0073 27.0765 34.6299 27.8282 34.352 28.6234C34.2524 28.8843 34.2524 29.1618 34.3478 29.4559C35.0488 29.634 35.8347 29.5698 36.5523 29.5077C36.0463 29.576 35.5548 29.6588 35.0405 29.6754C34.7087 29.6547 34.4183 29.7624 34.2006 29.4476C34.0617 29.1867 34.1031 28.8243 34.0679 28.5323C33.8584 28.5199 33.6469 28.5074 33.4354 28.495C33.1886 27.5072 32.9999 26.5132 32.6328 25.5586C32.6349 25.2438 32.6556 24.929 32.6888 24.6143Z" fill="#202530"/>
<path d="M41.5501 30.3585C42.6658 31.1516 43.2859 32.2947 43.7193 33.5641C42.7861 33.4337 41.8902 33.1769 40.9923 32.9077C40.3059 32.7027 39.6215 32.7213 38.9268 32.5722C37.1371 32.1249 35.3059 31.8329 33.4831 31.5595C33.3835 31.2282 33.2881 30.8969 33.1948 30.5635C34.2939 30.4889 35.4345 30.6442 36.4963 30.4392C37.6327 30.2094 38.821 30.3792 40.0093 30.3129C40.507 30.315 41.0669 30.2239 41.5501 30.3585Z" fill="white"/>
<path d="M16.6254 32.2637C17.1956 32.9471 17.6664 33.6884 18.3072 34.3159C19.9704 35.956 21.7124 37.5567 23.2926 39.2756C24.1532 40.2219 25.2129 40.9364 26.0715 41.889C27.4298 43.2495 28.6927 44.6825 29.7442 46.2957C30.331 47.2214 31.1315 48.0394 31.6126 49.0168C31.7931 49.3378 31.6832 49.6215 31.6043 49.9508C31.3825 50.7066 31.1129 51.4397 30.9718 52.2204C30.4887 54.6143 30.7437 57.1863 31.6852 59.4394C31.4571 58.3501 31.0983 57.3064 30.9698 56.1943C30.6359 53.875 31.0797 51.5888 31.9673 49.4413C32.5147 49.9383 32.7221 50.3007 32.9502 50.9862C33.2489 51.332 33.8088 51.4894 34.1406 51.8331C34.1447 52.4523 33.983 53.0798 33.9208 53.6969C33.591 56.7535 34.8146 59.8887 37.0729 61.9679C39.717 64.4757 43.7547 65.3288 47.191 64.105C49.9823 63.1627 52.2676 60.9552 53.3066 58.2031C54.6504 54.7323 53.8935 50.6383 51.3697 47.8985C49.3726 45.662 46.3511 44.4216 43.3565 44.6018C41.7722 44.668 40.2915 45.1795 38.8999 45.9147C38.367 45.3659 37.9419 44.7405 37.467 44.1462C36.905 43.4338 36.1169 43.0838 35.5155 42.4025C34.8934 41.715 34.6507 40.8929 34.265 40.0749C33.8731 39.2217 33.3878 38.528 33.2053 37.5878C32.8714 35.9125 33.2634 34.4567 33.338 32.7938C35.8847 33.121 38.3504 33.7298 40.8306 34.407C44.8165 35.5542 48.9101 36.0078 52.898 37.066C55.3493 37.6023 57.7963 38.0538 60.2144 38.7206C60.8801 38.9256 61.5209 39.3066 62.1409 39.6235C61.861 40.2613 61.413 41.0813 61.5748 41.7896C61.722 42.3466 62.4271 42.5143 62.9124 42.328C63.5096 41.8931 63.9078 41.1662 64.5113 40.7376C64.9571 40.5574 65.4818 40.5326 65.9567 40.5657C67.736 40.7148 69.4987 40.9633 71.2428 41.3443C71.3154 42.2161 71.2905 43.0466 71.1847 43.9163C71.0375 45.1588 71.1723 46.3454 70.8923 47.5714C70.5149 49.168 70.6974 50.7874 70.3822 52.3943C70.2349 53.3656 69.9923 54.5894 70.5273 55.4758C71.1744 56.6354 71.4377 57.9256 72.1283 59.0604C72.6799 59.9591 73.2025 60.8413 73.889 61.6469C74.6335 62.5166 75.1789 63.5127 75.9793 64.3245C76.9374 65.3061 77.8644 66.3084 78.9366 67.174C79.7454 67.847 80.156 68.7167 80.6412 69.6196C80.9129 70.1291 81.3774 70.2471 81.8648 70.4749C82.7192 70.8269 83.4263 71.3322 84.1895 71.8437C84.3409 71.7588 84.4943 71.6739 84.6478 71.589C84.3035 71.1686 83.9697 70.7689 83.4865 70.4997C82.9431 70.156 82.2567 69.951 81.7818 69.5202C81.3069 68.93 80.9005 68.2819 80.4256 67.6875C81.6698 68.4517 82.7295 69.4167 83.8867 70.3009C84.4135 70.6923 84.7971 71.1707 85.1351 71.7277C84.8718 72.0342 84.6063 72.3407 84.3554 72.6576L84.4383 72.3034C83.3061 73.1836 82.2609 74.1279 81.4044 75.2834C81.0581 75.7224 80.6827 76.296 80.1788 76.5611C79.961 76.6936 79.6292 76.5197 79.4281 76.4161C78.9241 76.12 78.4741 75.7265 78.0158 75.3662C77.2941 74.4054 76.4045 73.5998 75.6538 72.6679C75.5418 72.3283 75.4526 71.9535 75.2701 71.647C74.7662 71.0278 73.4555 71.1666 73.1777 70.3858C72.9765 70.0027 72.8293 69.5534 72.5576 69.2179C72.1573 68.8451 71.6327 68.6173 71.247 68.2094C70.3511 67.2568 69.8554 66.1489 69.0384 65.0493C68.2379 63.9621 67.8833 62.7796 67.4187 61.5351C66.9355 60.2573 66.8526 58.9424 66.2408 57.7061C65.9463 57.1283 65.8198 56.5567 65.7535 55.9148C65.3346 57.1573 64.8721 58.3232 64.7933 59.6568C64.756 60.4375 64.4885 61.1333 64.2313 61.8581C63.7647 63.1441 63.8725 64.4612 63.3147 65.7285C62.9435 66.5651 62.6615 67.3935 62.7174 68.3233C62.788 69.2572 62.7568 70.1891 62.8025 71.1231C62.676 71.3364 62.5868 71.5579 62.5329 71.7837C62.2612 72.4629 62.1264 73.1608 61.9688 73.869C61.8527 74.5213 61.1268 74.8879 60.793 75.4387C60.7784 76.5114 60.9506 77.7477 61.608 78.6299C61.6038 78.9198 61.5997 79.2097 61.5935 79.4976C60.4798 78.342 58.6673 78.7106 57.2758 78.2053C56.7014 77.7974 56.4256 76.9836 55.8802 76.5135C55.2912 76.3768 54.7935 77.317 54.1776 77.3646C52.5849 77.6441 51.492 76.88 49.9885 76.5922C48.9807 76.3871 48.0122 76.1283 47.0375 75.8073C44.7584 75.0597 42.4192 74.7574 40.1276 74.0864C38.0352 73.5853 35.9282 73.2415 33.8586 72.6099C31.9382 72.0094 29.9474 71.8044 28.0208 71.2307C25.7915 70.5743 23.4875 70.1891 21.225 69.6486C18.7199 69.2655 16.3703 68.4227 13.9502 67.7207C11.9075 67.3106 9.82539 67.0828 7.77441 66.7163C7.91543 64.4694 8.48572 62.2143 9.16178 60.0689C9.57239 58.4992 9.74866 56.886 10.2464 55.3329C10.7441 53.7922 11.051 52.2038 11.5632 50.6673C12.1812 48.7538 12.4881 46.7244 12.9216 44.7591C13.4483 42.2224 14.1721 39.7063 14.9124 37.2213C15.5428 35.5625 15.8767 33.8644 16.6254 32.2637Z" fill="#FF7D54"/>
<path d="M156.488 34.455C157.515 35.0928 158.091 36.1116 158.477 37.2258C158.885 38.5387 159.377 39.7688 159.574 41.1397C159.717 42.2496 160.067 43.3099 160.242 44.4157C160.416 45.3435 160.374 46.2339 160.42 47.2031C160.441 48.1992 160.629 49.1083 160.513 50.1064C160.399 51.088 160.538 52.053 160.339 52.9994C160.229 53.4922 160.179 53.9665 160.165 54.4697C160.196 55.211 159.649 55.9296 159.196 56.4763C158.07 57.3917 156.772 58.133 155.414 58.6424C154.632 58.8102 153.85 58.9696 153.073 59.1539C153.377 58.4354 153.782 58.1993 154.518 58.0315C155.849 57.7872 156.685 56.9112 157.896 56.4121C158.408 56.1657 158.889 55.9069 159.12 55.3539C159.752 53.5482 159.744 51.7879 159.709 49.9076C159.642 47.669 159.717 45.5423 159.174 43.3472C158.74 41.7195 158.527 39.9468 157.965 38.3627C157.483 37.2796 157.253 36.2607 156.237 35.5318C155.491 35.1197 154.476 35.4407 153.668 35.4531C152.484 35.4718 151.357 35.6975 150.173 35.6333C150.252 35.3682 150.177 34.8008 150.437 34.6517C151.581 34.4363 152.747 34.484 153.881 34.4073C154.684 34.3473 155.766 34.0035 156.488 34.455Z" fill="#202530"/>
<path d="M138.046 39.2591C138.817 39.1763 139.614 39.3005 140.395 39.2694C141.329 39.2301 142.26 39.1845 143.193 39.168C143.151 39.8016 143.143 40.4747 142.973 41.0876C141.505 41.7917 139.632 41.5515 138.324 40.5927C137.965 40.3401 138.058 39.6484 138.046 39.2591Z" fill="white"/>
<path fill-rule="evenodd" clip-rule="evenodd" d="M154.688 38.2972C154.314 38.2029 153.877 38.0928 153.523 38.1804C152.486 38.7499 151.891 39.8185 151.764 40.974C151.596 42.494 151.546 44.0389 151.523 45.5672C151.44 46.2501 151.467 46.9251 151.494 47.6032C151.509 47.9572 151.523 48.312 151.521 48.6693C151.521 48.9734 151.491 49.274 151.461 49.5748C151.43 49.8906 151.398 50.2065 151.401 50.5268C151.417 51.2685 151.497 52.0131 151.576 52.7573C151.662 53.5569 151.747 54.3562 151.754 55.151C151.374 54.5878 151.117 53.9147 150.941 53.2603C150.356 51.6658 149.11 49.9967 147.77 48.953C147.498 48.7046 147.263 48.7447 146.971 48.7947C146.901 48.8068 146.826 48.8194 146.748 48.8287C147.197 49.5449 147.769 50.1207 148.35 50.7054C148.548 50.9052 148.748 51.106 148.944 51.3137C149.883 52.2995 150.418 53.5275 150.943 54.7658C151.181 55.3001 151.391 55.8406 151.586 56.3894C151.614 56.2512 151.635 56.1092 151.655 55.9667C151.692 55.7075 151.73 55.4467 151.818 55.2049C152.37 55.9533 152.384 56.6848 152.399 57.5164C152.402 57.6903 152.405 57.8686 152.413 58.0523C152.602 57.8833 152.778 57.7116 152.95 57.5433C153.502 57.0043 154.018 56.5003 154.819 56.232C154.959 56.1843 155.098 56.1384 155.237 56.0927C156.12 55.8017 156.962 55.5241 157.699 54.8922C157.514 54.0531 157.48 53.2109 157.447 52.3695C157.413 51.5164 157.379 50.6641 157.187 49.8165C157.129 49.3777 157.133 48.9342 157.136 48.4898C157.14 47.9947 157.143 47.4985 157.063 47.0064C156.918 46.1383 156.871 45.2478 156.824 44.3549C156.744 42.8198 156.663 41.2777 156.082 39.8309C156.026 39.7274 155.973 39.6157 155.918 39.5015C155.682 39.0056 155.423 38.4628 154.86 38.3399C154.805 38.3266 154.747 38.3121 154.688 38.2972ZM155.255 40.1805C155.017 39.6517 154.773 39.109 154.085 39.162C153.645 39.0836 153.469 39.371 153.274 39.6901L153.241 39.7439C152.771 40.5757 152.692 41.5588 152.616 42.5132C152.6 42.7136 152.584 42.9128 152.564 43.1091C152.536 43.841 152.519 44.5742 152.502 45.3076C152.475 46.4729 152.449 47.6389 152.374 48.8018C152.27 49.7758 152.342 50.7682 152.414 51.7546C152.445 52.1754 152.475 52.5951 152.492 53.0118C152.556 53.5387 152.557 54.0646 152.558 54.5895C152.558 55.1952 152.559 55.7994 152.658 56.4018C153.501 55.8084 154.428 55.443 155.362 55.0749C155.703 54.9408 156.044 54.8063 156.382 54.6602C156.789 53.6792 156.658 52.4857 156.539 51.3997C156.515 51.1859 156.492 50.9763 156.474 50.7733C156.364 50.0433 156.345 49.3118 156.325 48.5803C156.305 47.8405 156.285 47.1006 156.173 46.3624C156.088 45.727 156.045 45.0634 156.001 44.3937C155.915 43.066 155.827 41.7139 155.41 40.5081C155.356 40.4033 155.306 40.2922 155.255 40.1805Z" fill="#202530"/>
<path d="M138.22 41.8789C139.095 42.1295 140.092 42.6513 141.017 42.5416C141.7 42.4546 142.369 42.2724 143.041 42.1233C143.066 43.2001 142.958 44.2645 142.915 45.3393C141.492 45.3993 140.092 45.5422 138.684 45.7472C138.61 44.921 138.529 44.0968 138.384 43.2788C138.301 42.8149 138.23 42.3511 138.22 41.8789Z" fill="white"/>
<path d="M43.0184 42.856C43.2693 42.7959 43.5182 42.7815 43.7732 42.7607C43.7566 43.0382 43.7421 43.3157 43.7276 43.5932C43.4601 43.558 43.1946 43.5228 42.9292 43.4711C42.952 43.266 42.9748 43.0569 43.0184 42.856Z" fill="#202530"/>
<path d="M44.1816 42.7111C44.3517 42.6573 44.5217 42.6076 44.6959 42.562C44.6151 42.941 44.5321 43.3179 44.4471 43.6948C44.3475 43.3717 44.2397 43.0445 44.1816 42.7111Z" fill="#202530"/>
<path d="M46.0008 43.1128C46.0754 43.5187 45.6399 43.6968 45.4077 43.9557C45.3289 43.6885 45.0676 43.3034 45.1775 43.0217C45.1961 42.5475 46.0505 42.6759 46.0008 43.1128Z" fill="#202530"/>
<path d="M41.3095 43.0884C41.3717 43.3203 41.4215 43.5564 41.4734 43.7904C41.2058 43.8691 40.9362 43.9478 40.6687 44.0285C40.6169 43.7676 40.565 43.5067 40.5132 43.2458C40.7786 43.1961 41.042 43.1319 41.3095 43.0884Z" fill="#202530"/>
<path d="M45.4221 42.9845C45.729 42.8022 45.9799 43.1812 45.7456 43.4214C45.4366 43.6037 45.1732 43.2309 45.4221 42.9845Z" fill="#FF7D54"/>
<path d="M46.5211 42.9248C46.7493 43.0014 46.967 43.0967 47.1868 43.1919C46.8612 43.428 46.5294 43.6579 46.1997 43.8898C46.2992 43.5668 46.3967 43.2375 46.5211 42.9248Z" fill="#202530"/>
<path d="M48.1245 43.2041C48.1764 43.4795 48.2282 43.7446 48.2344 44.0242C48.0167 44.2167 47.8466 44.3099 47.5501 44.2934C47.3468 44.0718 47.3219 43.8585 47.3261 43.5686C47.5687 43.3843 47.8404 43.3076 48.1245 43.2041Z" fill="#202530"/>
<path d="M138.384 43.2788C138.529 44.0968 138.61 44.921 138.685 45.7473C140.093 45.5422 141.492 45.3994 142.915 45.3393C142.898 47.1803 142.598 48.9467 142.766 50.7732C142.855 51.7444 142.822 52.6804 142.704 53.6475C143.857 53.9561 144.912 53.6662 146.071 53.6454C146.295 54.9521 146.928 56.0828 147.285 57.346C146.42 56.8925 145.796 56.4349 145.339 55.5465C144.286 55.65 143.28 55.4491 142.241 55.6666C141.441 55.8198 140.642 55.9047 139.827 55.9441C139.346 55.9876 138.877 55.9461 138.471 56.2547C137.741 56.7745 137.131 57.5428 136.544 58.2179C136.596 56.9298 136.511 55.7349 136.293 54.4655C137.22 54.246 138.154 54.0948 139.099 53.9809C139.076 51.8728 138.921 49.8061 138.662 47.7146C138.568 46.236 138.568 44.7532 138.384 43.2788Z" fill="#FF7D54"/>
<path d="M47.7325 43.5291C48.0954 43.4545 48.1721 43.9184 47.8652 44.0488C47.5126 44.1234 47.4214 43.6533 47.7325 43.5291Z" fill="#FF7D54"/>
<path d="M48.8145 43.4795C48.8083 43.9102 48.7979 44.3389 48.8 44.7696C48.659 44.6702 48.518 44.5729 48.377 44.4735C48.5221 44.1422 48.6652 43.8088 48.8145 43.4795Z" fill="#202530"/>
<path d="M49.5989 44.1689C49.9868 44.1959 49.5554 45.0366 49.2671 44.8751C49.122 44.6515 49.3584 44.2352 49.5989 44.1689Z" fill="#202530"/>
<path d="M50.2082 44.2915C50.7723 44.7885 50.2538 45.1902 49.9365 45.6396C49.8888 45.1033 49.9427 44.7657 50.2082 44.2915Z" fill="#202530"/>
<path d="M42.9192 44.9025C45.6815 44.6208 48.5308 45.5651 50.5611 47.46C53.031 49.7213 54.1798 53.2376 53.5079 56.5199C52.9999 59.1996 51.2952 61.5769 48.9643 62.983C46.4342 64.5258 43.2365 64.8157 40.4679 63.7575C37.5315 62.6745 35.242 60.119 34.4602 57.0956C34.0039 55.4638 34.0579 53.7843 34.4498 52.1463C35.0657 52.577 35.6028 53.072 36.1192 53.6145C36.5651 54.0949 37.1229 54.2772 37.7243 54.4926C38.3237 54.7141 39.0972 54.5029 39.7048 54.4014C39.1449 54.008 38.5663 53.6994 37.9317 53.4406C38.6036 53.6663 39.2859 53.8754 39.9702 54.0597C40.7977 54.2544 41.6438 54.3331 42.4588 54.592C41.6438 55.1014 40.779 55.5135 39.9454 55.9939C40.8433 56.348 41.7703 56.6131 42.7035 56.9051C42.7056 56.7477 42.7076 56.5924 42.7097 56.435C42.1996 56.4184 41.6956 56.3708 41.1896 56.3004C41.6355 55.5404 42.2763 55.4037 43.0685 55.1759C43.1597 54.9191 43.251 54.6624 43.3422 54.4056C42.5749 54.3621 41.9113 54.2233 41.1917 53.9686C41.4571 53.395 41.733 52.8276 42.0606 52.2871C42.0917 52.5377 42.1208 52.7882 42.1519 53.0367C42.3509 52.84 42.5459 52.6288 42.7678 52.4548C43.0706 52.5356 43.365 52.6723 43.6533 52.7924C43.3007 53.1631 42.9295 53.511 42.55 53.8527C42.8611 53.834 43.1742 53.8154 43.4853 53.7967C43.6554 53.1589 43.8192 52.517 43.9747 51.875C43.4335 51.8253 42.8943 51.7673 42.3572 51.6969C42.2556 51.0529 42.1788 50.4047 42.1166 49.7565C43.0208 49.887 43.6305 50.1086 44.3687 50.6366C44.4372 50.2805 44.5077 49.9243 44.5782 49.5681C43.6533 49.4376 42.747 49.2264 41.8719 48.9013C41.4343 48.7605 41.1793 48.3131 40.9034 47.9694C40.3933 47.2612 39.85 46.6213 39.2278 46.0062C40.4182 45.4761 41.6085 45.0184 42.9192 44.9025Z" fill="#FF7D54"/>
<path d="M143.848 45.3184C144.829 45.3618 145.82 45.3598 146.799 45.455C147.741 45.5358 148.558 46.0597 149.294 46.6126C150.057 47.2173 150.737 47.9359 150.897 48.9341C151.102 50.3381 150.914 51.8395 150.941 53.2601C150.356 51.6655 149.109 49.9964 147.77 48.9527C147.432 48.6441 147.152 48.7808 146.747 48.8284C147.351 49.7893 148.174 50.4975 148.943 51.3135C149.883 52.2992 150.418 53.5272 150.943 54.7656C150.534 58.7768 150.528 62.8853 149.949 66.8821C149.875 67.7995 148.84 67.9796 148.131 68.2053C145.424 68.8328 142.546 68.9426 139.798 68.5367C138.763 68.371 137.457 68.0438 136.745 67.2196C136.098 66.4016 135.854 65.2005 135.609 64.2065C136.88 64.6808 138.197 64.9458 139.547 65.0722C141.219 65.2337 142.755 65.5257 144.433 65.1426C142.54 64.9272 140.648 64.7657 138.776 64.3784C137.577 64.1651 136.474 63.5832 135.377 63.0738C135.236 62.4132 135.132 61.7443 135.008 61.0796C136.702 62.3304 138.755 63.3326 140.856 63.6246C139.817 62.9226 138.751 62.3179 137.614 61.7878C136.455 61.2287 135.505 60.479 134.786 59.4022C134.292 56.4699 134.099 53.4754 133.836 50.5162C133.799 49.6444 133.602 48.785 134.161 48.0332C134.987 46.8694 136.407 46.4138 137.699 45.9748C137.768 48.3791 138.151 50.746 138.299 53.1462C137.195 53.3077 136.086 53.4568 134.997 53.6949C135.066 54.4404 135.252 55.1569 135.416 55.8859C135.736 57.3997 135.507 58.7706 135.617 60.2968C135.953 60.1974 136.447 60.1787 136.677 59.8888C137.27 59.2303 137.67 58.3833 138.255 57.7165C138.477 57.4556 138.769 57.3914 139.081 57.2858C140.07 56.9814 141.026 56.9151 142.046 56.7453C142.847 56.6272 143.562 56.4595 144.356 56.7349C145.86 57.1843 146.863 58.4454 147.898 59.5306C148.564 59.5637 148.699 58.8948 148.473 58.3999C147.701 56.5941 147.415 54.4756 146.465 52.7568C145.686 52.3862 144.543 52.6574 143.705 52.7527C143.346 50.2304 143.875 47.8448 143.848 45.3184Z" fill="#FF7D54"/>
<path d="M42.7427 45.8506C43.6261 46.1881 44.4514 46.4884 45.4116 46.5278C45.2167 47.2836 45.0902 48.2859 44.524 48.8575C44.1653 48.8243 43.8977 48.6462 43.5888 48.4806C43.2673 48.5779 42.948 48.6814 42.6265 48.7808C42.4503 48.4474 42.1641 48.1327 42.2367 47.7309C42.3175 47.1014 42.5 46.4366 42.7427 45.8506Z" fill="#202530"/>
<path d="M51.687 46.0288C51.8239 46.1655 51.8239 46.1655 51.687 46.0288V46.0288Z" fill="#202530"/>
<path d="M42.7345 46.8096C43.1015 46.8013 43.4727 46.8303 43.8398 46.8489C43.7029 47.1637 43.6407 47.7083 43.3379 47.8968C43.0621 47.8905 42.7842 47.8719 42.5063 47.8388C42.5665 47.5157 42.5395 47.085 42.7345 46.8096Z" fill="#FF7D54"/>
<path d="M46.4735 46.8511C47.4088 47.2155 48.2632 47.5303 49.2918 47.5262C48.9786 48.5512 49.0201 49.5059 48.035 50.152C47.8339 49.9346 47.6327 49.7171 47.4316 49.4997C46.9567 49.6302 46.2931 50.1893 46.0421 49.4831C45.7414 48.7066 46.1977 47.5966 46.4735 46.8511Z" fill="#202530"/>
<path d="M52.9208 46.8902C53.1717 46.8508 53.4226 47.1573 53.1696 47.3354C53.0037 47.4058 52.7009 47.4907 52.5558 47.3416C52.4666 47.1304 52.7341 46.9212 52.9208 46.8902Z" fill="#202530"/>
<path d="M43.927 46.9688C44.3252 47.1179 44.7213 47.2711 45.1174 47.4305C44.7275 47.971 44.6217 48.0767 43.9353 48.1553C43.927 47.7598 43.9249 47.3643 43.927 46.9688Z" fill="#FF7D54"/>
<path d="M55.003 47.7164C55.2539 47.5943 55.5215 47.9484 55.3203 48.1513C55.0673 48.2756 54.8018 47.9194 55.003 47.7164Z" fill="#202530"/>
<path d="M47.5914 47.8719C47.4338 48.3482 47.4919 48.9736 46.8594 49.0585C46.2414 48.986 46.1605 48.458 46.3306 47.9527C46.6645 47.7518 47.2119 47.8947 47.5914 47.8719Z" fill="#FF7D54"/>
<path d="M53.1451 47.8593C53.6926 47.7309 53.394 48.3936 53.0373 48.3646C52.7262 48.2776 52.9377 47.9339 53.1451 47.8593Z" fill="#202530"/>
<path d="M47.7094 48.0415C48.1532 48.1409 48.5348 48.3542 48.9205 48.5861C48.7256 48.8305 48.5286 49.0728 48.3316 49.3151C48.1076 49.2198 47.8836 49.1266 47.6597 49.0314C47.67 48.7021 47.6783 48.3708 47.7094 48.0415Z" fill="#FF7D54"/>
<path d="M53.9475 48.2427C54.0387 48.4435 54.132 48.6423 54.2274 48.8432C53.9889 48.9675 53.7525 49.0917 53.514 49.218C53.4622 48.9654 53.4104 48.7127 53.3564 48.4622C53.5535 48.3876 53.7505 48.3152 53.9475 48.2427Z" fill="#202530"/>
<path d="M39.3871 48.52C40.1585 48.9797 40.6707 49.4271 40.9154 50.3258C40.3763 50.0545 39.8972 49.6921 39.3725 49.4001C38.3688 49.777 37.5165 50.6841 36.5999 51.2535C37.7011 52.1295 38.9205 52.1751 40.2663 52.1316C39.1361 52.8709 37.8379 52.5416 36.7347 51.9431C36.349 51.6201 36.0566 51.1707 35.7476 50.7772C37.108 50.2223 38.1801 49.3173 39.3871 48.52Z" fill="#202530"/>
<path d="M55.5898 48.7334H55.7619L55.849 48.8804L55.7661 49.0275H55.5939L55.5068 48.8804L55.5898 48.7334Z" fill="#202530"/>
<path d="M54.4535 49.1953C54.5697 49.2761 54.6816 49.3568 54.7957 49.4397C54.4556 49.6405 54.1196 49.8414 53.7837 50.0464C53.7878 49.8725 53.7941 49.6985 53.8044 49.5246C54.016 49.4045 54.2316 49.2947 54.4535 49.1953Z" fill="#202530"/>
<path d="M56.0127 49.6033C56.3715 49.5246 56.3881 50.0837 56.021 50.005C55.8613 49.8704 55.8593 49.7379 56.0127 49.6033Z" fill="#202530"/>
<path d="M144.927 49.6714C145.505 49.6983 146.026 49.6548 146.528 49.9965C147.855 50.8497 149.052 52.0694 149.802 53.461C148.896 52.817 148.141 52.0052 147.272 51.3218C146.607 50.8041 145.874 50.5763 145.149 50.1829C145.072 50.0131 144.999 49.8433 144.927 49.6714Z" fill="#202530"/>
<path d="M45.6318 49.978C46.5443 50.3653 47.3801 50.6511 48.3879 50.6821C48.2614 51.2889 48.1702 52.0075 47.8384 52.5376C47.6351 52.8607 47.3137 52.987 46.9425 52.9787C46.6439 52.7012 46.4116 52.3243 46.1814 51.9888C45.7459 52.2808 45.3063 52.5687 44.8749 52.8669C45.7355 53.4653 46.6418 53.6103 47.6642 53.6848C47.5563 54.0079 47.4485 54.331 47.3406 54.6519C46.4157 54.1674 45.6111 53.9727 44.5659 53.9106C44.7173 53.2479 44.8189 52.5169 45.1258 51.9081C45.5282 51.5664 46.0653 51.3676 46.5298 51.117C46.1358 51.0259 45.7438 50.9389 45.3498 50.8499C45.4369 50.5599 45.5219 50.2617 45.6318 49.978Z" fill="#202530"/>
<path d="M55.179 50.5454C55.2101 50.827 55.2454 51.1066 55.2786 51.3882C55.0567 51.44 54.8348 51.4897 54.6108 51.5394C54.5424 51.2826 54.4719 51.0258 54.4014 50.767C54.6606 50.6945 54.9198 50.62 55.179 50.5454Z" fill="#202530"/>
<path d="M46.6416 51.1396C47.1849 51.2328 47.6536 51.471 48.1202 51.7506C47.8693 51.8935 47.5686 52.173 47.2679 52.171C46.7328 52.2786 46.737 51.4896 46.6416 51.1396Z" fill="#FF7D54"/>
<path d="M32.5146 51.6655C32.78 51.8188 33.0309 52.0072 33.2819 52.1832C32.9293 52.2702 32.5768 52.3489 32.2222 52.4255C32.3155 52.1708 32.4047 51.914 32.5146 51.6655Z" fill="#202530"/>
<path d="M54.8308 51.788C54.976 51.7031 55.4633 51.6244 55.4446 51.8998C55.3326 52.1007 54.8349 52.2208 54.6504 52.0779C54.611 51.9682 54.6711 51.8729 54.8308 51.788Z" fill="#202530"/>
<path d="M55.7845 52.2061C55.4133 52.4628 55.0338 52.7072 54.6543 52.9495C54.729 52.7983 54.8057 52.6492 54.8824 52.5001C55.179 52.3904 55.4817 52.2972 55.7845 52.2061Z" fill="#202530"/>
<path d="M32.2784 53.4258C32.521 53.3823 32.7719 53.374 33.0166 53.3574C32.9565 53.637 32.8964 53.9145 32.8404 54.1961C32.5583 54.2003 32.2763 54.2065 31.9922 54.2106C32.0814 53.9476 32.1622 53.6784 32.2784 53.4258Z" fill="#202530"/>
<path d="M48.9701 53.8691C49.6897 54.0617 50.3575 54.4076 51.0916 54.5836C51.7324 54.7368 52.4022 54.8134 53.0555 54.9066C52.7548 56.1305 52.4354 57.3502 52.0746 58.5596C50.6789 58.3297 49.2729 58.1848 47.8813 57.9259C48.1426 56.5757 48.4039 55.1261 48.9701 53.8691Z" fill="#202530"/>
<path d="M49.2524 54.0098C49.3893 55.2005 48.7816 56.269 48.7215 57.4846C49.8724 57.6917 51.1188 57.7062 52.1619 58.1846C50.8285 58.3171 49.4038 57.9651 48.0786 57.7745C48.3026 56.7184 48.5452 55.654 48.8957 54.631C49.0097 54.4219 49.13 54.2148 49.2524 54.0098Z" fill="#FF7D54"/>
<path d="M55.8863 54.2314C55.9403 54.3971 55.9942 54.5628 56.0502 54.7284C55.6271 54.7057 55.2082 54.7036 54.7852 54.6642C55.1087 54.3702 55.4716 54.306 55.8863 54.2314Z" fill="#202530"/>
<path d="M45.231 54.4446C46.1351 54.25 46.9958 55.0141 47.0103 55.9129C47.0227 56.5217 46.6702 56.9172 46.3487 57.3894C46.1683 57.2113 45.9858 57.0311 45.8054 56.853C46.1206 56.795 46.4379 56.735 46.7531 56.6749C46.6951 56.3643 46.7324 55.9066 46.5167 55.6602C46.0232 55.1963 45.1128 55.0638 44.5943 55.5691C44.4181 56.0102 44.5591 56.588 44.5902 57.0539C44.3911 56.7391 44.1568 56.4202 44.024 56.0723C43.9349 55.304 44.4284 54.5378 45.231 54.4446Z" fill="#202530"/>
<path d="M49.8332 54.2212C50.0136 55.209 49.6362 56.0125 49.4102 56.9609C50.3931 57.1701 51.3409 57.2405 52.2886 57.6008C51.2206 57.8514 49.9784 57.4786 48.8979 57.3337C49.0846 56.2444 49.2899 55.2007 49.8332 54.2212Z" fill="#FF7D54"/>
<path d="M32.0195 54.6416C32.3783 54.7203 32.7288 54.8218 33.0813 54.9274C32.7993 55.062 32.5152 55.1966 32.2248 55.3146C32.1502 55.091 32.0817 54.8673 32.0195 54.6416Z" fill="#202530"/>
<path d="M50.3244 54.5708C51.1332 54.8545 51.9026 55.19 52.6906 55.5275C52.5496 56.0949 52.4023 56.6624 52.2551 57.2277C51.3986 57.1407 50.5442 57.0227 49.6919 56.8943C49.8163 56.0949 49.9843 55.3101 50.3244 54.5708Z" fill="#FF7D54"/>
<path d="M37.6184 55.0474C37.917 55.0474 38.2198 55.1095 38.5143 55.1488C38.4728 55.3704 38.4293 55.5899 38.3837 55.8115C38.0166 55.6914 37.6475 55.5796 37.2783 55.4698C37.3882 55.3269 37.4961 55.1799 37.6184 55.0474Z" fill="#202530"/>
<path d="M55.0114 55.3516C55.3681 55.3185 55.7165 55.3247 56.0732 55.3247C55.9405 55.5545 55.8409 55.8175 55.6771 56.0267C55.4262 56.0246 55.1877 55.977 54.9409 55.9335C54.9596 55.7388 54.9824 55.5442 55.0114 55.3516Z" fill="#202530"/>
<path d="M55.2477 55.534C55.4489 55.3373 55.8367 55.5071 55.6687 55.7949C55.4675 56.002 55.088 55.8219 55.2477 55.534Z" fill="#FF7D54"/>
<path d="M33.1412 55.7266C33.0748 55.9916 33.0085 56.2546 32.94 56.5176C32.7098 56.5052 32.4776 56.4928 32.2453 56.4783C32.1561 56.2733 32.0649 56.0683 31.9736 55.8612C32.3614 55.8135 32.7513 55.7701 33.1412 55.7266Z" fill="#202530"/>
<path d="M32.4214 55.9626C32.7988 55.7203 33.056 56.2691 32.5997 56.3623C32.3571 56.3043 32.297 56.1717 32.4214 55.9626Z" fill="#FF7D54"/>
<path d="M65.7533 55.915C65.8197 56.557 65.9462 57.1286 66.2407 57.7063C66.8524 58.9426 66.9354 60.2576 67.4186 61.5353C67.8831 62.7799 68.2377 63.9623 69.0382 65.0495C69.8553 66.1491 70.3509 67.2571 71.2468 68.2096C71.6325 68.6176 72.1572 68.8454 72.5574 69.2181C72.8291 69.5536 72.9764 70.003 73.1775 70.3861C73.4554 71.1668 74.766 71.0281 75.27 71.6472C75.4525 71.9537 75.5416 72.3285 75.6536 72.6682C75.8175 73.1548 75.946 73.7657 76.2986 74.1488C76.8543 74.5754 77.4516 74.9523 78.0157 75.3665C78.474 75.7268 78.924 76.1203 79.4279 76.4164C79.6291 76.5199 79.9609 76.6939 80.1786 76.5614C80.6826 76.2963 81.0579 75.7227 81.4042 75.2836C82.2607 74.1281 83.3059 73.1838 84.4382 72.3037L84.3553 72.6578C83.6564 73.9335 82.5884 74.8695 81.7838 76.0664C81.2902 76.8016 80.5975 77.2572 79.8655 77.7231C79.3408 77.077 78.8327 76.4785 78.0385 76.1534C77.4329 75.8366 76.6615 75.7682 76.2633 75.2195C75.9004 74.7908 75.579 74.3518 75.4193 73.8051C75.2306 73.2687 75.1621 72.5998 74.7163 72.2126C74.2331 71.8253 73.4989 71.7984 73.0095 71.4402C72.7524 71.0591 72.6051 70.5953 72.3646 70.2039C72.1302 69.8995 71.7611 69.6903 71.4646 69.4459C70.8403 68.9676 70.3986 68.2987 69.7744 67.8452C68.5156 67.7064 67.2506 67.9404 66.0457 68.2925C65.1976 68.63 64.4323 69.0463 63.497 69.1125C63.6215 69.9015 63.6795 70.6781 63.4742 71.4609C63.1735 72.6827 62.9019 73.9293 62.512 75.1263C62.3129 75.7392 61.5352 75.8511 61.6763 76.5448C61.6991 77.2427 61.7032 77.9385 61.6078 78.6301C60.9504 77.748 60.7783 76.5117 60.7928 75.439C61.1267 74.8881 61.8525 74.5216 61.9687 73.8693C62.1263 73.161 62.2611 72.4632 62.5327 71.7839C63.0512 71.9061 63.2005 71.4215 62.8023 71.1233C62.7567 70.1894 62.7878 69.2575 62.7173 68.3235C62.6613 67.3937 62.9433 66.5654 63.3146 65.7288C63.8724 64.4614 63.7646 63.1444 64.2312 61.8584C64.4883 61.1336 64.7558 60.4378 64.7932 59.657C64.872 58.3234 65.3344 57.1575 65.7533 55.915Z" fill="#202530"/>
<path d="M39.8518 56.5859C40.7456 56.8924 41.5876 57.1865 42.5436 57.2507C42.3797 57.8864 42.2595 58.6609 41.8675 59.1993C41.1894 60.009 39.7585 59.8061 39.4598 58.7479C39.3479 58.0376 39.5946 57.2445 39.8518 56.5859Z" fill="#202530"/>
<path d="M33.1185 56.8262C33.2119 56.9463 33.3073 57.0685 33.4027 57.1886C33.0397 57.2673 32.6831 57.3522 32.3243 57.4474C32.2994 57.2942 32.2724 57.1409 32.2476 56.9877C32.5379 56.9339 32.8282 56.88 33.1185 56.8262Z" fill="#202530"/>
<path d="M55.3037 56.8428C55.5588 57.0188 55.7143 57.1886 55.7371 57.5096C55.4489 57.6608 55.1482 57.7353 54.8351 57.8244C54.7562 57.5862 54.6795 57.346 54.6069 57.1058C54.8351 57.0022 55.059 56.9028 55.3037 56.8428Z" fill="#202530"/>
<path d="M46.237 58.8081C46.2328 59.3258 45.8782 59.8125 45.6252 60.2453C45.4323 60.0838 45.2395 59.9222 45.0466 59.7628C45.3743 59.6675 45.6999 59.5723 46.0254 59.4729C45.9404 59.1291 45.9695 58.6011 45.619 58.4126C45.0819 58.0502 44.2524 57.9177 43.8086 58.4913C43.6676 58.9262 43.8044 59.4604 43.8189 59.9098C43.5805 59.5039 43.1408 59.0131 43.2549 58.5161C43.3627 57.8908 43.7298 57.4787 44.3498 57.3233C45.2685 57.0334 46.2971 57.8535 46.237 58.8081Z" fill="#202530"/>
<path d="M54.9967 57.1678C55.3575 56.9131 55.6334 57.4742 55.1854 57.5716C54.9448 57.5157 54.8826 57.3811 54.9967 57.1678Z" fill="#FF7D54"/>
<path d="M39.6733 57.4702C40.6646 57.5137 41.378 57.6918 42.2386 58.1764C42.023 58.427 41.8135 58.7107 41.5522 58.9136C41.0566 59.0855 40.4178 58.9385 40.0031 58.6299C39.6692 58.3917 39.7335 57.8326 39.6733 57.4702Z" fill="#FF7D54"/>
<path d="M73.2231 57.5425C74.0775 58.7643 74.8822 60.0192 75.7656 61.2224C76.5785 62.3344 77.2898 63.5376 78.1754 64.5916C76.8834 63.8296 76.1347 62.1232 75.2181 60.9635C74.3596 59.9053 73.7561 58.7912 73.2231 57.5425Z" fill="#FF7D54"/>
<path d="M54.7207 58.0459C54.9219 58.0749 55.1106 58.1349 55.3034 58.195C55.3242 58.3938 55.3428 58.5926 55.3594 58.7914C55.0214 58.7334 54.6875 58.6734 54.3516 58.6112C54.4698 58.4207 54.5859 58.224 54.7207 58.0459Z" fill="#202530"/>
<path d="M134.043 58.812C134.311 58.988 134.556 59.1806 134.786 59.4022C135.505 60.479 136.455 61.2287 137.614 61.7878C138.751 62.318 139.817 62.9226 140.856 63.6247C138.755 63.3327 136.702 62.3304 135.008 61.0796C134.529 60.4645 134.056 59.8454 133.602 59.2096C133.747 59.0771 133.894 58.9425 134.043 58.812Z" fill="#202530"/>
<path d="M54.671 59.1391C54.9448 59.3462 54.8182 59.7728 54.8369 60.0772C54.7166 59.7728 54.6026 59.4642 54.4864 59.1598C54.3413 59.3959 54.1961 59.6361 54.0551 59.8763C54.0095 59.6402 53.9659 59.4042 53.9224 59.1681C54.1733 59.1515 54.418 59.1308 54.671 59.1391Z" fill="#202530"/>
<path d="M39.2918 59.7647C39.5241 59.744 39.7688 59.7647 40.0032 59.7751C39.6796 59.9614 39.3312 60.1313 39.0368 60.3611C38.9891 60.6759 39.0036 61.0114 39.0036 61.3303C39.7087 61.0031 40.2582 60.3487 40.9882 60.1126C41.6394 60.4854 41.5585 61.3655 41.2827 61.9495C41.1458 62.287 40.7663 62.2352 40.4635 62.3264C40.8576 61.848 41.5212 61.645 41.0898 60.9265C40.5776 61.2371 40.1691 61.6699 39.6796 62.0095C39.381 62.2539 38.819 62.1793 38.7112 61.7693C38.4478 61.1025 38.6987 60.181 39.2918 59.7647Z" fill="#202530"/>
<path d="M152.152 59.5371C152.432 59.564 152.712 59.5972 152.992 59.6365C153.07 60.8956 152.888 62.1112 152.915 63.3744C152.95 64.8385 152.457 66.0727 152.21 67.4933C152.098 68.0835 151.733 68.4811 151.347 68.916C150.779 69.4896 150.327 70.0653 149.501 70.2682C150.034 69.0671 151.131 68.1249 151.337 66.87C151.625 65.5571 151.926 64.2876 151.94 62.9581C152.027 61.8171 152.154 60.6844 152.152 59.5371Z" fill="#202530"/>
<path d="M43.8337 60.152C44.6923 60.0236 45.5653 60.8437 45.4761 61.7093C45.4222 62.4465 45.1132 63.1609 44.3376 63.3618C43.5061 63.6414 42.6185 63.0719 42.4194 62.2498C42.2929 61.2993 42.7844 60.2493 43.8337 60.152Z" fill="#202530"/>
<path d="M53.8976 60.0898C54.0676 60.3197 54.2294 60.5558 54.3911 60.7919C54.0386 60.7463 53.686 60.6966 53.3335 60.6469C53.5201 60.4605 53.7068 60.2721 53.8976 60.0898Z" fill="#202530"/>
<path d="M70.1542 60.7192C70.851 60.6364 71.4732 60.7917 71.9564 61.3197C72.4645 61.8768 73.041 62.5229 73.2691 63.2518C73.3479 63.6929 73.267 64.4094 72.8274 64.6434C71.8796 65.0183 70.9298 64.4074 70.5213 63.5521C70.1252 62.7072 69.8432 61.6304 70.1542 60.7192Z" fill="#202530"/>
<path d="M43.2032 60.9119C43.7818 60.8105 44.4744 61.0072 44.9452 61.351C45.4512 61.6947 45.2521 62.5106 44.6777 62.6494C44.1115 62.7633 43.4624 62.5914 42.9834 62.2787C42.467 61.9577 42.5811 61.0383 43.2032 60.9119Z" fill="#FF7D54"/>
<path d="M34.8685 61.1875C35.08 61.3118 35.2729 61.4546 35.4678 61.5975C35.0966 61.8108 34.7296 62.0179 34.3086 62.1194C34.4558 61.7839 34.6238 61.4629 34.8685 61.1875Z" fill="#202530"/>
<path d="M53.9698 61.2658C53.7666 61.5019 53.5634 61.7359 53.3581 61.9699C53.132 61.7401 52.906 61.5102 52.6841 61.2762C53.1134 61.2596 53.5406 61.2534 53.9698 61.2658Z" fill="#202530"/>
<path d="M70.9712 61.5C71.5228 61.8935 72.0122 62.376 72.4415 62.8957C72.7007 63.1774 72.6323 63.4963 72.6696 63.8525C72.2549 63.7137 71.7095 63.6164 71.3797 63.312C70.9525 62.8668 70.9857 62.0757 70.9712 61.5Z" fill="#FF7D54"/>
<path d="M52.6263 61.7339C52.8068 61.796 52.8918 61.9286 52.8814 62.1336C52.6077 62.2392 52.222 61.825 52.6263 61.7339Z" fill="#202530"/>
<path d="M35.5009 62.0508C35.7104 62.1937 35.9115 62.3552 36.1148 62.5105C35.7684 62.6637 35.4221 62.8128 35.0737 62.9578C35.2085 62.6534 35.3412 62.3428 35.5009 62.0508Z" fill="#202530"/>
<path d="M52.2487 62.2827C52.4747 62.4339 52.6738 62.6389 52.8729 62.8253C52.7215 62.9599 52.5701 63.0945 52.4188 63.2291C52.4188 63.0116 52.4208 62.7942 52.4229 62.5768C52.145 62.5747 51.8692 62.5706 51.5913 62.5623C51.8049 62.4629 52.0247 62.3552 52.2487 62.2827Z" fill="#202530"/>
<path d="M52.8814 62.1337C53.1614 62.0115 53.5388 62.3926 53.1406 62.5147C52.9602 62.4671 52.8731 62.3408 52.8814 62.1337Z" fill="#FF7D54"/>
<path d="M36.926 62.9829C36.6688 63.2853 36.4055 63.5814 36.1421 63.8775C36.0197 63.7139 35.8953 63.5524 35.7729 63.3888C36.1525 63.161 36.478 63.0036 36.926 62.9829Z" fill="#202530"/>
<path d="M65.8716 63.2437C66.3568 64.2853 66.7716 65.3559 67.2589 66.3955C66.4999 66.5508 65.7326 66.6461 64.9653 66.7537C64.9881 66.1097 64.9757 65.4512 65.0711 64.8113C65.2059 64.2522 65.5647 63.7303 65.8716 63.2437Z" fill="white"/>
<path d="M135.377 63.0737C136.474 63.5832 137.577 64.1651 138.776 64.3784C140.648 64.7656 142.54 64.9271 144.433 65.1425C142.755 65.5256 141.219 65.2336 139.547 65.0721C138.197 64.9458 136.88 64.6807 135.609 64.2065C135.294 63.9497 135.006 63.6681 134.717 63.3802C134.937 63.2767 135.157 63.1752 135.377 63.0737Z" fill="#202530"/>
<path d="M37.6953 63.4756C37.5065 63.8483 37.3054 64.2128 37.0959 64.5731C36.9093 64.4158 36.7227 64.2563 36.5381 64.0968C36.9093 63.8608 37.2867 63.6433 37.6953 63.4756Z" fill="#202530"/>
<path d="M50.6415 63.4301C50.8883 63.4177 51.1372 63.4156 51.386 63.4239C51.4192 63.7552 51.4317 64.0887 51.4441 64.4221C51.1683 64.3206 50.907 64.2626 50.6498 64.1239C50.6312 63.8961 50.627 63.6641 50.6415 63.4301Z" fill="#202530"/>
<path d="M50.8612 63.6456C51.1598 63.4695 51.4336 63.8506 51.1992 64.0908C50.8985 64.2689 50.631 63.8879 50.8612 63.6456Z" fill="#FF7D54"/>
<path d="M38.3298 64.043C38.2179 64.4074 38.1038 64.7698 37.998 65.1364C37.8155 65.0225 37.6351 64.9065 37.4526 64.7926C37.7492 64.5462 38.0395 64.2935 38.3298 64.043Z" fill="#202530"/>
<path d="M50.1773 64.0576C50.2458 64.3848 50.3038 64.712 50.3598 65.0392C50.0322 64.8031 49.7086 64.5608 49.3872 64.3144C49.6506 64.2295 49.9119 64.1405 50.1773 64.0576Z" fill="#202530"/>
<path d="M35.773 64.8609C35.9866 64.6579 36.3204 64.9375 36.1877 65.186C35.9741 65.391 35.6402 65.1114 35.773 64.8609Z" fill="#202530"/>
<path d="M39.6796 65.0435C39.9222 65.0538 40.1669 65.0994 40.4054 65.1346C40.2789 65.4183 40.1524 65.702 40.0238 65.9857C39.804 65.8822 39.5842 65.7765 39.3623 65.673C39.4639 65.4618 39.5572 65.2443 39.6796 65.0435Z" fill="#202530"/>
<path d="M48.9602 64.9791C49.2837 64.772 49.7441 65.4679 49.2692 65.6025C48.9291 65.6646 48.7881 65.2152 48.9602 64.9791Z" fill="#202530"/>
<path d="M47.9292 64.8755C48.1179 65.1695 48.3025 65.4657 48.4788 65.768C48.3689 65.8902 48.2569 66.0145 48.1449 66.1366C47.979 65.7121 47.8172 65.3414 47.9292 64.8755Z" fill="#202530"/>
<path d="M40.7061 65.325C41.0669 65.2629 40.7455 66.2797 40.4779 66.1409C40.312 65.9193 40.4862 65.4575 40.7061 65.325Z" fill="#202530"/>
<path d="M41.5506 65.4224C41.5547 65.7703 41.5547 66.1182 41.561 66.4661C41.4075 66.4578 41.254 66.4516 41.1006 66.4433C41.2499 66.1037 41.3971 65.762 41.5506 65.4224Z" fill="#202530"/>
<path d="M37.0064 65.6955C37.2096 65.4967 37.5643 65.7659 37.4398 66.0165C37.2345 66.2153 36.882 65.946 37.0064 65.6955Z" fill="#202530"/>
<path d="M42.7135 65.4966C42.6845 65.8735 42.6554 66.2483 42.6285 66.6252C42.4709 66.6273 42.3153 66.6293 42.1577 66.6314C42.2262 66.0702 42.137 65.7844 42.7135 65.4966Z" fill="#202530"/>
<path d="M43.2443 65.6792C43.4268 65.7061 43.601 65.7538 43.7669 65.8159C43.8436 66.0996 43.8872 66.3936 43.937 66.6836C43.771 66.4164 43.6114 66.1451 43.4517 65.8739C43.3418 66.1638 43.2319 66.4537 43.1157 66.7395C43.1448 66.3833 43.1779 66.0292 43.2443 65.6792Z" fill="#202530"/>
<path d="M44.2046 65.8156C44.4783 65.7825 44.7562 65.7659 45.032 65.7432C44.9325 66.0786 44.8329 66.4141 44.7293 66.7475C44.5468 66.4431 44.3601 66.1346 44.2046 65.8156Z" fill="#202530"/>
<path d="M147.467 65.9315C145.779 66.0786 144.089 66.2132 142.407 66.4099C140.696 66.5714 139.29 67.4081 137.552 67.4702C137.643 67.23 137.737 66.9877 137.83 66.7475C139.236 66.4141 140.657 66.1283 142.086 65.9129C143.94 65.77 145.628 65.4511 147.467 65.9315Z" fill="#202530"/>
<path d="M70.857 68.9096C69.8741 69.3072 68.8123 69.4024 67.8169 69.7752C67.0226 70.0278 66.2118 70.4648 65.3822 70.558C65.206 70.4606 65.0421 70.3426 64.8887 70.2059C65.8862 69.8104 66.9334 69.6323 67.9496 69.301C68.8994 68.9986 69.8513 68.7853 70.857 68.9096Z" fill="#202530"/>
<path d="M86.29 69.7376C87.1112 69.5906 87.8972 69.6941 88.7039 69.8557C89.9751 70.1062 91.1904 70.2284 92.4077 70.7006C93.6748 71.2204 94.9522 71.6325 96.1156 72.378C97.6482 73.0634 98.8302 74.1651 99.9978 75.3413C100.39 75.7141 100.514 76.1614 100.63 76.6708C98.8883 75.8466 97.8348 74.221 96.1011 73.432C95.1036 72.9412 94.272 72.3117 93.1916 71.9949C92.0697 71.6594 90.9768 71.1872 89.83 70.9781C88.5235 70.6509 87.1983 70.7337 85.8794 70.5183C85.9022 70.1311 85.8587 69.8888 86.29 69.7376Z" fill="#202530"/>
<path d="M147.384 69.8518C147.457 70.1811 147.363 70.471 147.295 70.7899C146.727 70.6967 146.171 70.6077 145.592 70.6698C144.414 70.7816 143.238 70.7091 142.063 70.8603C141.181 70.9411 140.219 71.2641 139.344 71.1564C138.817 71.1896 138.736 70.4731 138.494 70.1169C139.941 69.8808 141.428 69.8332 142.886 69.9781C143.761 70.0527 144.665 69.9243 145.54 69.8684C146.144 69.827 146.81 69.6385 147.384 69.8518Z" fill="#202530"/>
<path d="M62.8023 71.123C63.2005 71.4213 63.0512 71.9058 62.5327 71.7837C62.5866 71.5579 62.6758 71.3363 62.8023 71.123Z" fill="white"/>
<path d="M75.6538 72.668C76.4045 73.5998 77.2942 74.4054 78.0159 75.3663C77.4518 74.9521 76.8545 74.5752 76.2988 74.1486C75.9462 73.7655 75.8176 73.1546 75.6538 72.668Z" fill="white"/>
<path d="M61.6763 76.5449C61.9169 77.131 62.089 77.7005 62.1927 78.3258C61.9978 78.4273 61.8028 78.5288 61.6079 78.6303C61.7033 77.9386 61.6992 77.2428 61.6763 76.5449Z" fill="#FF7D54"/>
<path d="M43.9809 76.992C43.6325 77.0355 43.2343 77.0645 42.9191 77.2281C42.5749 77.518 42.3758 78.0129 42.2036 78.4188C41.7951 79.4625 41.5131 80.5601 41.3036 81.6597C41.061 82.7324 41.4695 83.8071 41.5504 84.9213C41.6728 86.6256 41.8262 88.3133 42.1746 89.9907C42.3115 91.7219 43.112 93.1798 43.4873 94.8592C44.321 98.3735 46.1604 101.463 48.5453 104.147C49.5241 105.207 50.2188 106.551 51.3719 107.338C52.6244 108.229 53.9662 109.011 55.1897 109.941C56.2204 110.712 57.2365 111.43 58.4476 111.89C59.2336 112.186 60.0071 112.484 60.7247 112.925C59.3269 112.455 57.8898 112.138 56.5522 111.43C55.5132 110.886 54.6443 110.076 53.653 109.386C52.6742 108.715 51.7617 107.964 50.8285 107.23C49.7813 106.415 48.987 105.172 48.143 104.137C46.8469 102.418 45.1775 100.695 44.3645 98.6779C43.985 97.5327 43.4873 96.4165 43.2115 95.2444C43.0249 94.4244 42.7698 93.6271 42.4961 92.8319C41.988 91.4113 41.8615 89.912 41.5463 88.4044C41.3264 87.4456 41.3969 86.4972 41.3679 85.5239C41.3555 84.5361 40.8992 83.7181 40.7935 82.7676C40.696 80.9225 41.2414 79.2182 42.073 77.5946C42.3986 76.9112 43.3401 76.9195 43.9809 76.992Z" fill="#FF7D54"/>
<path d="M45.9609 79.6797C47.0745 79.1807 48.4432 79.4292 49.4324 80.0856C50.3988 80.885 51.4233 81.7361 51.9708 82.8854C52.736 84.6311 53.468 86.3851 54.2188 88.135C54.6646 89.2181 55.3739 90.0961 56.0914 91.0052C57.1262 92.5397 58.8039 93.6994 60.3489 94.6789C61.6305 95.4927 63.0614 95.909 64.3907 96.6193C64.9942 96.9382 65.579 97.3068 66.1555 97.6713C64.229 97.0438 62.3356 96.4391 60.5563 95.4472C59.8242 95.0144 59.0942 94.5733 58.3912 94.097C57.3854 93.4343 56.6264 92.3802 55.8695 91.4504C55.0151 90.4316 54.3473 89.2636 53.6319 88.1454C53.0554 86.8532 52.4498 85.561 51.9148 84.2522C51.5664 83.0532 50.8592 82.0239 50.038 81.0962C49.4262 80.5785 48.4702 80.4045 47.6967 80.2927C46.525 80.1581 45.6664 80.7131 44.7498 81.3426C43.2691 82.3284 42.7756 83.7987 42.2633 85.4098C42.2115 84.9832 42.1617 84.5566 42.1431 84.1259C42.3961 83.0863 43.0058 82.1254 43.6632 81.2929C44.2729 80.5329 45.0858 80.0773 45.9609 79.6797Z" fill="#202530"/>
<path d="M54.0014 80.2124C54.0076 81.399 53.8997 82.4779 54.2834 83.6252C54.8952 85.4951 55.7205 87.5121 57.2199 88.854C58.1261 89.6803 59.051 90.5542 60.0506 91.2728C61.5562 92.36 63.1966 93.0123 64.8079 93.909C66.0584 94.5924 67.3669 94.6379 68.7149 95.1701C71.0583 95.9985 73.4701 95.5677 75.7534 96.1476C74.2747 96.6591 72.4809 96.4126 70.9214 96.394C69.8202 96.4002 68.8227 96.073 67.7941 95.7251C65.1065 95.0479 62.5516 93.764 60.2082 92.3041C59.2999 91.7719 58.5513 91.0657 57.7508 90.3948C56.6973 89.5519 55.8491 88.3674 55.1067 87.2491C54.665 86.4829 54.4244 85.607 54.0408 84.8076C53.4933 83.3228 53.0827 81.8215 53.2299 80.2228C53.4871 80.2186 53.7442 80.2145 54.0014 80.2124Z" fill="#202530"/>
<path d="M100.566 80.0693C100.836 80.732 101.018 81.3905 100.857 82.1091C100.622 83.0721 100.185 83.9936 99.7076 84.8592C99.2348 85.6689 98.9279 86.4537 98.2124 87.0916C97.0242 88.1435 96.0536 89.2908 94.7471 90.233C93.675 90.9827 92.4701 91.3885 91.344 92.0409C88.982 93.3621 86.5494 94.5321 84.0111 95.4722C82.7461 95.9154 81.4541 96.1701 80.1352 96.3834C79.0174 96.547 77.9308 96.6878 76.8047 96.4994C77.1946 95.963 77.5492 95.9092 78.1755 95.845C79.9693 95.7187 81.7299 95.4515 83.4553 94.9318C84.7328 94.5342 85.7925 93.799 87.0223 93.3103C88.5278 92.6973 89.9048 91.7965 91.2881 90.9537C92.3602 90.3076 93.5609 89.7981 94.5771 89.0692C95.1992 88.5805 95.8234 88.1104 96.3357 87.4995C97.1797 86.5531 98.2435 85.7269 98.8781 84.6583C99.3012 83.9625 99.6517 83.2274 100.056 82.5212C100.496 81.726 100.45 80.937 100.566 80.0693Z" fill="#202530"/>
<path d="M73.6963 80.6162C76.1434 80.2621 78.5988 80.3718 81.0334 80.7756C81.4834 80.9951 81.9189 81.2374 82.3544 81.4901C81.3424 81.3865 80.3387 81.2105 79.3287 81.0925C76.5416 80.8543 74.0779 81.4321 71.3467 81.8028C70.0133 82.0492 68.5741 82.0823 67.336 82.5649C66.0171 83.0577 64.7438 83.6665 63.5347 84.3872C62.6679 84.9008 61.9918 85.783 61.4692 86.6299C60.8533 87.5887 61.2556 88.6801 60.7994 89.7714C60.5402 89.3303 60.3266 88.883 60.2188 88.3798C60.2664 87.8248 60.3204 87.2947 60.5609 86.7832C61.5522 84.8676 63.1677 83.2462 65.2353 82.5317C66.6413 82.0513 67.9664 81.4859 69.4492 81.2706C70.8594 80.9641 72.253 80.7156 73.6963 80.6162Z" fill="#202530"/>
<path d="M81.0329 80.7754C83.2083 80.8976 85.3381 81.1771 87.4015 81.904C89.2659 82.5315 91.0161 83.5959 92.3911 85.0041C93.5068 86.1658 94.0771 87.5657 94.5768 89.0691C93.5607 89.7981 92.36 90.3075 91.2878 90.9536C89.9046 91.7964 88.5276 92.6972 87.022 93.3102C85.7923 93.7989 84.7326 94.5341 83.4551 94.9317C81.7297 95.4515 79.9691 95.7186 78.1752 95.8449C77.5489 95.9091 77.1943 95.963 76.8044 96.4993C77.9305 96.6878 79.0172 96.5469 80.135 96.3833C81.4539 96.17 82.7459 95.9153 84.0109 95.4722C86.5492 94.532 88.9818 93.362 91.3438 92.0408C92.4699 91.3885 93.6747 90.9826 94.7469 90.2329C94.8775 90.8418 95.0165 91.4444 95.2695 92.018C93.5358 92.9064 91.7959 93.7969 90.0207 94.5962C88.9589 94.9669 87.9677 95.4618 86.9453 95.9236C85.8213 96.4268 84.5314 96.5532 83.6231 97.3318C84.7305 97.6652 85.5745 97.1972 86.5844 96.8161C87.978 96.2384 89.4276 95.8304 90.8129 95.2361C92.2832 94.6045 93.7245 93.9108 95.1409 93.1694C95.1907 97.1185 94.3653 100.904 93.1895 104.652C92.192 108.015 91.0949 111.333 89.5852 114.507C89.1788 115.516 88.5815 116.379 87.922 117.235C88.1377 116.35 88.3534 115.909 89.0357 115.292C88.8553 114.327 88.7951 113.399 88.9631 112.426C89.1974 111.076 88.9424 109.606 89.7304 108.425C87.8847 107.251 85.8607 106.754 83.7496 106.292C81.6986 105.94 79.631 105.874 77.5614 106.069C74.9007 106.002 72.2525 106.512 69.8365 107.634C69.4653 107.802 69.1646 108.044 68.8888 108.345C69.6063 108.618 70.1289 108.212 70.7739 107.955C72.6195 107.048 74.6767 106.678 76.7256 106.707C78.393 106.744 80.0396 106.58 81.7069 106.779C83.0092 106.955 84.3282 106.963 85.5351 107.38C86.6861 107.771 87.8536 107.957 88.9548 108.489C88.1128 109.467 87.4637 110.579 86.6197 111.554C86.093 112.176 85.6471 112.851 85.2158 113.54C84.098 113.424 82.9947 113.215 81.8769 113.107C81.8168 114.06 82.1424 114.845 82.327 115.771C82.6173 115.263 82.889 114.748 83.1544 114.228C83.9798 114.367 84.9586 114.696 85.784 114.501C86.178 113.961 86.404 113.325 86.8188 112.795C87.3393 112.134 87.8598 111.482 88.3347 110.79C88.2165 112.925 87.9117 115.135 87.1319 117.137C85.6741 116.953 84.4671 116.545 83.1793 115.851C83.0549 115.899 82.9304 115.945 82.806 115.99C82.8371 116.201 82.8682 116.413 82.8993 116.624C83.648 116.918 84.4402 117.28 85.2344 117.411C86.093 117.56 86.908 117.508 87.7707 117.487C87.2895 118.295 86.6467 118.982 86.178 119.798C85.3609 120.521 84.6952 121.296 83.5754 121.528C82.3871 121.768 81.2258 122.161 80.0479 122.122C78.8865 122.107 77.7231 121.873 76.6282 121.496C75.6639 121.167 74.8613 120.505 74.0961 119.854C73.2956 119.175 72.7502 118.276 71.929 117.612C71.8979 117.984 71.7237 118.504 72.0057 118.813C72.6714 119.668 73.5092 120.386 74.2184 121.211C72.1364 120.175 70.4524 118.413 69.0381 116.605C66.3982 113.176 64.5877 109.202 63.049 105.182C62.7276 104.352 62.3252 103.548 62.0328 102.71C61.7715 101.271 61.4667 99.8624 61.0996 98.4459C60.8798 97.456 60.7077 96.4517 60.5563 95.4473C62.3356 96.4393 64.229 97.0439 66.1555 97.6714C65.579 97.3069 64.9942 96.9383 64.3907 96.6194C63.0614 95.9091 61.6305 95.4929 60.3489 94.679C60.324 93.8859 60.2743 93.0948 60.2079 92.3038C62.5513 93.7637 65.1062 95.0476 67.7938 95.7248C68.8224 96.0727 69.8199 96.3999 70.9211 96.3937C72.4806 96.4123 74.2744 96.6588 75.753 96.1473C73.4698 95.5674 71.058 95.9982 68.7146 95.1698C67.3666 94.6376 66.0581 94.5921 64.8076 93.9087C63.1962 93.012 61.5559 92.3597 60.0503 91.2725C60.1229 90.3075 60.127 89.3425 60.2183 88.3795C60.3261 88.8827 60.5397 89.33 60.7989 89.7711C61.2552 88.6798 60.8528 87.5885 61.4688 86.6297C61.9914 85.7827 62.6674 84.9005 63.5343 84.3869C64.7433 83.6663 66.0166 83.0575 67.3355 82.5646C68.5736 82.0821 70.0128 82.049 71.3462 81.8025C74.0774 81.4318 76.5411 80.8541 79.3283 81.0922C80.3382 81.2103 81.3419 81.3863 82.3539 81.4898C81.9184 81.2372 81.4829 80.9949 81.0329 80.7754Z" fill="#FF7D54"/>
<path d="M44.7502 81.3428C44.0098 82.2291 43.3421 83.2355 42.8775 84.2917C42.4939 85.1573 42.5851 85.9918 42.5602 86.9134C42.4669 86.8823 42.3757 86.8512 42.2823 86.8202C42.216 85.8158 41.8551 85.0392 42.1434 84.126C42.1621 84.5567 42.2118 84.9833 42.2637 85.4099C42.7759 83.7988 43.2695 82.3285 44.7502 81.3428Z" fill="#202530"/>
<path d="M106.914 83.0659C106.25 83.8508 105.371 84.4989 104.62 85.2155C103.917 85.8926 103.185 86.5408 102.488 87.2262C101.617 88.0815 100.614 88.8084 99.7779 89.6947C98.5025 91.1401 96.8331 92.2646 95.1409 93.1696C93.7245 93.9109 92.2832 94.6047 90.8129 95.2363C89.4276 95.8306 87.978 96.2386 86.5844 96.8163C85.5745 97.1974 84.7305 97.6654 83.623 97.332C84.5314 96.5533 85.8213 96.427 86.9453 95.9238C87.9676 95.462 88.9589 94.9671 90.0207 94.5964C91.7959 93.797 93.5358 92.9066 95.2694 92.0182C96.5842 91.2603 97.814 90.2952 98.8633 89.1956C100.188 88.0422 101.551 86.9094 102.777 85.6462C103.339 85.0974 104.027 84.6977 104.628 84.1883C105.315 83.6292 106.016 83.184 106.914 83.0659Z" fill="#202530"/>
<path fill-rule="evenodd" clip-rule="evenodd" d="M50.677 83.4518C50.681 83.3284 50.6849 83.2074 50.6857 83.0908C49.5555 82.631 48.3299 82.5213 47.1644 82.9168C46.308 83.1259 45.69 84.0247 45.3561 84.7868C45.268 85.059 45.1632 85.3348 45.0576 85.613C44.7606 86.3953 44.4562 87.1972 44.4913 87.9945C44.493 88.228 44.4841 88.4544 44.4754 88.6769C44.4508 89.3048 44.4274 89.9014 44.6448 90.5375C44.7875 91.0159 44.8917 91.4959 44.9953 91.973C45.1823 92.8343 45.3673 93.6863 45.7729 94.5032L45.8688 94.7634C47.0486 97.9676 48.2943 101.351 50.806 103.772C50.8954 103.881 50.9831 103.989 51.0705 104.097C51.5344 104.67 51.9865 105.229 52.6061 105.665C52.9791 105.929 53.3085 106.22 53.6334 106.507C54.1159 106.934 54.5885 107.351 55.1796 107.659C55.7603 107.974 56.3161 108.307 56.8656 108.674C57.1998 108.897 57.5549 109.069 57.9094 109.241C58.3291 109.444 58.7479 109.647 59.1302 109.933C60.0199 110.598 60.9468 111.116 61.992 111.492C61.8431 111.158 61.6853 110.831 61.5276 110.503C61.2835 109.996 61.0399 109.49 60.8307 108.964C60.6517 108.498 60.4154 108.065 60.1787 107.632C59.9766 107.262 59.7743 106.892 59.6072 106.5C59.2915 105.763 58.9514 105.039 58.6114 104.315C58.2655 103.578 57.9197 102.841 57.5997 102.093C57.4803 101.848 57.3596 101.602 57.2385 101.357C56.4305 99.7148 55.6099 98.0474 55.0905 96.2986C54.8599 95.6748 54.5844 95.0674 54.3087 94.4594C54.0041 93.7878 53.6992 93.1156 53.4542 92.4199C53.3112 92.0067 53.2239 91.5814 53.1367 91.1564C53.0583 90.7743 52.9799 90.3924 52.8611 90.0198C52.7411 89.6284 52.5671 89.2641 52.3934 88.9002C52.192 88.4785 51.9909 88.0573 51.874 87.5948C51.6872 86.8981 51.4021 86.2492 51.1151 85.5963C51.0294 85.4011 50.9434 85.2056 50.8599 85.0084C50.6415 84.5486 50.66 83.9787 50.677 83.4518ZM50.1501 85.1307C49.9538 84.5926 49.7545 84.0461 49.5159 83.4945C48.647 83.3392 47.4898 83.4262 46.7702 83.9832C45.499 85.3024 45.2999 87.1931 45.1215 88.9284C45.2211 90.5396 45.6462 91.9974 46.1004 93.5112C46.2974 94.3748 46.6043 95.17 46.9714 95.9714C47.0187 96.0958 47.0664 96.2213 47.1144 96.3478C47.936 98.5134 48.8652 100.962 50.5072 102.598C50.6863 102.804 50.8516 103.017 51.0164 103.229C51.3305 103.634 51.6426 104.036 52.0438 104.381C53.7153 105.793 55.4594 107.071 57.3175 108.233C57.7565 108.439 58.2094 108.606 58.6626 108.773C59.2498 108.989 59.8376 109.205 60.3971 109.509C60.1544 108.889 59.8475 108.305 59.5033 107.736C59.1161 107.122 58.8489 106.463 58.5807 105.801C58.3402 105.208 58.0989 104.612 57.7696 104.046C57.5252 103.628 57.3579 103.181 57.1905 102.733C57.0282 102.299 56.8658 101.865 56.6331 101.457C55.7188 99.714 55.0753 97.8829 54.4269 96.0378C54.3311 95.7653 54.2352 95.4926 54.1384 95.2197C53.6096 93.9834 53.0828 92.7409 52.5727 91.4963C52.4776 91.1681 52.397 90.8415 52.3169 90.5174C52.1035 89.6533 51.8945 88.8074 51.43 87.9986C50.8628 87.0846 50.5116 86.1219 50.1501 85.1307Z" fill="#202530"/>
<path d="M89.3843 84.0825C90.4274 84.6147 91.4477 85.3209 92.242 86.1823C92.9118 86.9341 93.0508 87.8328 93.0902 88.8019C92.8475 88.7937 92.607 88.7854 92.3643 88.775C92.1487 88.0627 91.9475 87.313 91.539 86.6814C90.9272 85.7309 90.0458 84.9336 89.3843 84.0825Z" fill="#202530"/>
<path d="M98.6793 93.6705C98.0903 94.2462 97.3728 94.6769 96.9311 95.3355C96.5515 95.8987 96.2343 96.4889 95.7842 97.0025C95.61 95.7496 96.2861 94.7308 97.2525 94.0143C97.7295 93.7202 98.0986 93.3557 98.6793 93.6705Z" fill="#202530"/>
<path d="M96.8064 96.9175C96.6902 97.8224 96.4663 98.7005 96.2381 99.5827C95.9478 100.821 95.7404 102.035 95.2842 103.227C94.9586 104.089 94.7512 104.99 94.4111 105.845C94.5252 104.975 94.7243 104.116 94.9337 103.265C95.3485 101.749 95.5911 100.152 95.8566 98.6052C95.952 98.0689 96.0785 97.5408 96.2817 97.0334C96.4559 96.9941 96.6301 96.9548 96.8064 96.9175Z" fill="#202530"/>
<path d="M76.6887 98.0627C76.9604 98.1352 77.2093 98.3215 77.4498 98.4624C76.9023 98.5038 76.3735 98.5059 75.8281 98.4644C76.0749 98.3174 76.3818 98.0026 76.6887 98.0627Z" fill="#202530"/>
<path d="M60.54 98.6674C60.7267 98.5908 60.9133 98.5183 61.1 98.4458C61.467 99.8623 61.7719 101.27 62.0332 102.71C61.7947 102.062 61.5977 101.403 61.3136 100.771C61.017 100.063 60.65 99.4419 60.54 98.6674Z" fill="#202530"/>
<path d="M77.5618 106.069C79.6314 105.874 81.699 105.94 83.75 106.292C85.8611 106.754 87.8851 107.251 89.7308 108.425C88.9427 109.606 89.1978 111.076 88.9635 112.426C88.7955 113.399 88.8556 114.327 89.036 115.292C88.3538 115.909 88.1381 116.35 87.9224 117.235L87.771 117.487C86.9083 117.508 86.0933 117.56 85.2348 117.411C84.4405 117.28 83.6483 116.918 82.8997 116.624C82.8686 116.412 82.8375 116.201 82.8064 115.99C82.9308 115.944 83.0552 115.899 83.1797 115.851C84.4675 116.545 85.6744 116.953 87.1323 117.137C87.9121 115.135 88.2169 112.925 88.3351 110.79C87.8602 111.482 87.3397 112.134 86.8192 112.795C86.4044 113.325 86.1784 113.961 85.7843 114.501C84.959 114.696 83.9801 114.366 83.1548 114.228C82.8893 114.748 82.6177 115.263 82.3273 115.771C82.1428 114.845 81.8172 114.06 81.8773 113.107C82.9951 113.215 84.0984 113.424 85.2161 113.54C85.6475 112.851 86.0933 112.176 86.6201 111.554C87.4641 110.579 88.1132 109.467 88.9552 108.489C87.854 107.957 86.6864 107.771 85.5355 107.379C84.3285 106.963 83.0096 106.955 81.7073 106.779C80.0399 106.58 78.3933 106.744 76.726 106.706C74.6771 106.677 72.6199 107.048 70.7742 107.955C70.1293 108.212 69.6067 108.618 68.8892 108.344C69.165 108.044 69.4657 107.802 69.8369 107.634C72.2529 106.512 74.9011 106.002 77.5618 106.069Z" fill="#202530"/>
<path d="M78.8598 109.188C80.4255 108.856 82.0244 109.436 83.4325 110.08C84.1998 110.432 84.8364 110.888 85.3072 111.598C84.7369 111.337 84.206 111.01 83.6585 110.703C82.4702 110.028 80.973 109.842 79.6271 109.846C77.968 109.879 76.591 110.542 75.1352 111.244C74.762 111.443 74.5608 111.236 74.229 111.074C75.5106 109.711 77.1178 109.529 78.8598 109.188Z" fill="#202530"/>
<path d="M72.2111 110.171C73.2687 110.318 73.7809 111.213 74.2579 112.058C74.569 112.574 74.9692 113.385 75.581 113.576C76.9538 113.673 78.476 112.538 79.8343 113.085C79.403 113.468 78.8431 113.81 78.5154 114.29C78.391 114.688 78.3972 115.143 78.5071 115.543C78.8369 116.038 79.3885 116.398 79.824 116.802C79.0546 116.726 78.3557 116.353 77.6071 116.26C76.2094 116.692 75.0854 117.62 73.5819 117.825C73.3807 116.289 73.0219 114.8 72.4247 113.367C72.1157 113.88 71.8212 114.404 71.5267 114.928C71.4065 114.854 71.2882 114.781 71.168 114.707C71.4251 113.969 71.7694 113.271 72.0721 112.553C72.3957 111.843 71.7673 110.795 72.2111 110.171Z" fill="#202530"/>
<path d="M73.3726 111.946C73.9388 112.735 74.3991 113.832 75.181 114.418C75.9213 114.708 76.9769 114.311 77.7462 114.18C77.711 114.65 77.6799 115.12 77.6467 115.591C76.9126 115.822 76.1971 116.098 75.4879 116.396C75.0317 116.574 74.6293 116.767 74.1254 116.725C73.8289 116.336 73.7749 115.847 73.7003 115.379C73.551 114.22 73.2523 113.132 73.3726 111.946Z" fill="#FF7D54"/>
<path d="M97.0739 116.601C97.3 116.833 97.6338 117.079 97.6131 117.438C97.6172 118.262 97.5592 119.086 97.5758 119.912C97.582 120.995 97.1382 121.905 96.9951 123.017C96.9184 123.688 96.7981 124.338 96.5078 124.953C95.9914 126.075 95.4584 127.208 94.7969 128.252C94.8363 127.003 95.3879 126.028 95.84 124.901C96.2299 123.94 96.2548 122.994 96.4621 121.996C96.6405 121.072 96.9163 120.244 96.9101 119.289C96.9246 118.622 96.8313 117.968 96.7877 117.303C96.7442 117.005 96.9246 116.833 97.0739 116.601Z" fill="#202530"/>
<path d="M71.9293 117.612C72.7506 118.277 73.296 119.175 74.0964 119.855C74.8617 120.505 75.6642 121.167 76.6285 121.497C77.7235 121.874 78.8869 122.108 80.0482 122.122C81.2261 122.161 82.3875 121.768 83.5757 121.528C84.6956 121.296 85.3613 120.521 86.1783 119.799C86.9622 119.293 87.7337 118.834 88.6296 118.548C88.109 119.206 87.4952 119.749 86.8668 120.296C86.1182 120.954 85.5707 121.89 84.6334 122.234C83.3518 122.716 82.0785 122.901 80.7595 123.255C79.5401 123.468 78.4991 123.122 77.373 122.727C76.2221 122.431 75.1935 121.878 74.2188 121.211C73.5096 120.387 72.6717 119.668 72.0061 118.813C71.724 118.504 71.8982 117.985 71.9293 117.612Z" fill="#202530"/>
<path d="M62.6819 117.935C62.5699 120.003 63.0365 122.002 64.0734 123.795C64.5483 124.576 64.9278 125.383 65.4857 126.114C66.0415 126.891 66.7154 127.543 67.3438 128.256C65.8362 127.342 64.9486 126.015 63.9283 124.632C64.1211 124.775 64.3202 124.909 64.5193 125.046C63.9843 124.017 63.4036 123.06 63.0511 121.946C62.6031 120.637 62.5222 119.316 62.207 117.98C62.3646 117.964 62.5243 117.949 62.6819 117.935Z" fill="#202530"/>
<path d="M62.207 117.98C62.5222 119.316 62.6031 120.637 63.051 121.946C63.4036 123.06 63.9842 124.017 64.5193 125.046C64.3202 124.91 64.1211 124.775 63.9283 124.632C63.1216 123.584 62.5782 122.338 62.2008 121.076C62.0266 120.064 61.6886 118.941 62.207 117.98Z" fill="#202530"/>
<path d="M93.4099 128.89C92.9558 129.722 92.373 130.377 91.39 130.534C89.9094 130.741 88.4121 130.816 86.9272 131.01C87.3213 130.724 87.7132 130.466 88.1902 130.343C89.2748 130.018 90.3635 130.252 91.4336 129.813C92.2154 129.503 92.4912 128.78 93.4099 128.89Z" fill="#202530"/>
<path d="M70.7161 130.416C72.3378 130.671 73.8226 131.141 75.4961 131.186C76.3319 131.209 77.1344 131.393 77.9681 131.486C77.3543 131.586 76.7342 131.741 76.1121 131.766C74.3058 131.691 72.5223 131.497 70.7658 131.056C70.5253 130.994 70.3241 130.845 70.1582 130.611C70.2577 130.424 70.4444 130.358 70.7161 130.416Z" fill="#202530"/>
<path d="M90.7134 134.199C90.7279 134.442 90.7445 134.684 90.759 134.928C90.0747 135.26 89.0668 135.587 88.6728 136.274C88.4945 137.059 88.7412 137.583 89.1311 138.237C89.9565 138.271 90.7715 138.268 91.5844 138.099C91.8104 137.326 91.9909 136.566 92.1132 135.769C92.5031 136.705 92.6192 137.96 91.8851 138.765C91.6487 139.078 91.1904 139.109 90.8316 139.178C89.9648 139.275 89.0212 139.165 88.4198 138.467C87.6483 137.668 87.3435 136.469 88.003 135.504C88.7288 134.839 89.7802 134.468 90.7134 134.199Z" fill="#202530"/>
<path d="M80.865 134.88C81.5079 134.82 81.9475 135.12 82.4432 135.475C81.6572 135.671 80.5954 135.568 80.0873 136.297C79.3843 137.028 79.2827 138.376 79.8012 139.217C80.4959 139.825 81.566 140.093 82.4286 139.687C82.9471 139.529 83.1628 138.802 83.254 138.332C83.2768 137.492 82.8807 136.624 82.7314 135.796C83.3515 136.516 83.8969 137.345 83.8782 138.332C83.9404 139.169 83.5609 140.074 82.7604 140.426C82.269 140.641 81.7567 140.902 81.2134 140.712C80.3673 140.411 79.4196 140.233 78.9613 139.376C78.5756 138.515 78.2292 137.282 78.7435 136.413C79.206 135.661 79.8966 134.855 80.865 134.88Z" fill="#202530"/>
<path fill-rule="evenodd" clip-rule="evenodd" d="M74.2785 137.585C74.1499 136.317 73.3515 134.986 72.016 134.754C70.7924 135.038 69.6042 136.15 69.7971 137.494C70.0044 138.502 70.7033 139.602 71.7609 139.869C72.3623 139.925 73.0176 139.579 73.4801 139.221C74.0172 138.85 74.1645 138.187 74.2785 137.585ZM72.7568 135.166C72.7249 135.117 72.6935 135.068 72.663 135.021C72.4885 135.144 72.3006 135.257 72.1115 135.37C71.5274 135.721 70.9326 136.079 70.6929 136.744C70.4918 137.465 70.4897 138.247 71.1243 138.757C71.6759 139.299 72.5033 138.929 73.084 138.633C73.3805 138.241 73.5734 137.759 73.6958 137.287C73.6612 136.555 73.1631 135.79 72.7568 135.166Z" fill="#202530"/>
</svg>
