<svg width="149" height="159" viewBox="0 0 149 159" fill="none" xmlns="http://www.w3.org/2000/svg">
<path d="M104.629 20.7949C104.974 20.9263 105.324 21.0446 105.68 21.1475L105.664 20.8584C106.102 21.3643 106.544 21.8659 106.957 22.3915L106.57 22.4068C107.157 23.1909 107.796 23.9311 108.348 24.7414C107.77 24.2202 107.157 23.7997 106.733 23.1295C106.159 22.225 105.388 21.533 104.629 20.7949Z" fill="#202530"/>
<path d="M61.8856 31.7588C62.0219 32.245 62.1889 32.7421 62.2439 33.2437C62.1054 33.4758 61.9582 33.7036 61.7999 33.9226C61.5384 33.8197 61.2791 33.7189 61.0176 33.6182C60.8571 33.2371 60.9912 32.2384 60.3956 32.3895C60.3209 32.8779 60.3231 33.3795 60.2792 33.8722C59.9627 33.4298 59.7737 32.9655 59.6221 32.4443C60.3803 32.2275 61.1297 31.9822 61.8856 31.7588Z" fill="white"/>
<path d="M58.2969 32.2031C58.5496 32.1615 58.8045 32.1374 59.0617 32.1265C59.143 32.7046 59.1869 33.2828 59.2067 33.8676C58.9672 33.8566 58.7254 33.8457 58.4859 33.8347C58.398 33.2916 58.3057 32.7572 58.2969 32.2031Z" fill="white"/>
<path d="M120.974 38.4208C121.455 38.4054 122.264 38.2762 122.127 39.0033C121.391 39.7063 120.295 39.8509 119.332 40.0217C119.844 39.4742 120.345 38.8391 120.974 38.4208Z" fill="white"/>
<path d="M66.5995 41.3228C66.9138 41.3907 67.1577 41.7455 67.4016 41.9404C65.738 41.7761 63.9491 41.4192 62.2724 41.5199C61.4307 41.5571 60.4659 41.5703 59.7099 41.9842C59.1825 42.258 58.888 42.9632 58.4748 43.3683C58.1122 43.6246 57.7254 43.7604 57.4551 44.1239C57.0068 44.7393 56.7651 45.508 56.4025 46.176C56.0289 46.8418 55.9388 47.6806 55.7168 48.4208C55.9805 47.1703 55.8728 46.0008 56.4113 44.8313C57.042 43.2435 58.4551 41.5046 60.2088 41.1564C62.3581 40.9702 64.47 40.9395 66.5995 41.3228Z" fill="#202530"/>
<path d="M111.924 4.48341C113.269 4.48341 114.634 4.40019 115.972 4.50531C117.385 4.81192 118.781 4.79221 120.156 5.25213C121.134 5.5894 122.134 5.81498 123.13 6.08436C125.378 6.86841 127.683 7.4882 129.929 8.2832C131.533 8.86577 132.975 9.70238 134.483 10.482C135.544 11.0339 136.487 11.8662 137.469 12.5626C139.379 13.9555 140.988 15.6134 142.596 17.3304C143.675 18.5985 144.697 19.941 145.684 21.2813C146.066 21.7785 146.247 22.3457 145.974 22.9392C145.385 24.0255 144.187 24.7855 143.306 25.6462C142.469 26.4806 141.491 26.8748 140.498 27.4946C139.579 28.0356 138.845 28.7276 137.843 29.1372C136.608 29.6496 135.382 30.1906 134.142 30.6943C132.692 31.1586 131.279 31.7171 129.821 32.1639C128.683 32.6698 127.503 33.1275 126.446 33.7889C125.49 34.3342 124.455 34.6168 123.589 35.3263C122.132 36.2637 120.761 37.2908 119.563 38.548C119.084 39.0867 118.86 39.7306 118.455 40.3C117.677 40.8059 116.484 40.6023 115.587 40.611C114.823 40.6855 114.601 40.0306 114.073 39.597C114.198 38.6531 114.583 37.6697 114.3 36.763C114.091 35.8804 114.282 34.9891 114.023 34.1043C113.627 32.6085 113.344 31.2068 112.689 29.8227C112.21 28.8941 111.904 27.9567 111.168 27.1836C110.513 26.4894 110.15 25.6068 109.456 24.9585C108.583 24.1416 107.753 23.2831 106.957 22.3917C106.544 21.8661 106.102 21.3646 105.665 20.8587C105.294 20.4163 104.872 20.0396 104.535 19.5643C104.054 18.9095 103.755 18.1692 103.32 17.4772C102.832 16.7106 102.564 15.8762 102.208 15.0484C101.876 14.2862 101.388 13.6861 101.127 12.8868C100.808 11.9078 100.485 10.8872 100.329 9.86882C100.316 9.02126 100.432 8.15837 100.558 7.31957C100.727 6.52457 101.287 5.97924 102.085 5.81498C103.903 5.458 105.839 4.87982 107.685 4.94114C109.124 4.99589 110.478 4.47903 111.924 4.48341Z" fill="white"/>
<path fill-rule="evenodd" clip-rule="evenodd" d="M116.68 4.03062C116.468 4.02936 116.252 4.02808 116.031 4.01463C113.642 3.64232 111.148 3.76058 108.768 4.15261C108.152 4.25054 107.57 4.25522 107 4.25979C106.181 4.26637 105.389 4.27273 104.564 4.55558C104.082 4.70388 103.592 4.81665 103.104 4.92913C102.475 5.07413 101.847 5.21865 101.241 5.43819C101.224 5.44484 101.207 5.45143 101.191 5.45799C100.854 5.58955 100.552 5.70793 100.399 6.06674C99.7247 7.65674 99.3532 9.45261 99.8631 11.1434C100.126 12.138 100.524 13.063 100.922 13.9894C101.216 14.6723 101.51 15.356 101.751 16.0688C102.051 16.9164 102.516 17.6899 102.978 18.458L103.004 18.4998C103.065 18.5989 103.126 18.6988 103.187 18.7992C103.615 19.4978 104.055 20.2167 104.63 20.795C104.975 20.9264 105.324 21.0447 105.68 21.1476L105.665 20.8586C105.521 20.6876 105.37 20.5265 105.22 20.3657C104.98 20.1104 104.742 19.8559 104.535 19.5642C104.254 19.1814 104.035 18.7694 103.815 18.3548C103.658 18.0603 103.501 17.7645 103.32 17.4771C102.963 16.9162 102.724 16.3189 102.481 15.7145C102.393 15.4929 102.303 15.2703 102.208 15.0483C102.068 14.7264 101.9 14.4335 101.733 14.1423C101.504 13.7438 101.278 13.3485 101.127 12.8867C100.808 11.9077 100.485 10.8871 100.329 9.86872C100.316 9.02116 100.432 8.15827 100.558 7.31947C100.727 6.52447 101.287 5.97914 102.085 5.81488C102.52 5.72947 102.961 5.63139 103.407 5.53244C104.824 5.21783 106.28 4.89439 107.685 4.94104C108.436 4.96961 109.164 4.84249 109.894 4.71503C110.562 4.59827 111.232 4.48122 111.924 4.48331C112.335 4.48331 112.749 4.47551 113.163 4.46771C114.102 4.45001 115.043 4.43226 115.972 4.50521C116.54 4.62848 117.105 4.699 117.667 4.76915C118.504 4.8735 119.333 4.97701 120.156 5.25203C120.863 5.49592 121.582 5.68141 122.302 5.86728C122.578 5.93845 122.854 6.00968 123.13 6.08426C124.219 6.46414 125.321 6.80547 126.424 7.14684C127.598 7.51004 128.771 7.87329 129.929 8.2831C131.192 8.74179 132.354 9.35798 133.528 9.97985C133.844 10.1478 134.162 10.3162 134.483 10.4819C135.216 10.8632 135.892 11.3783 136.565 11.8899C136.865 12.1189 137.165 12.3472 137.469 12.5625C139.379 13.9554 140.988 15.6133 142.596 17.3303C143.675 18.5984 144.697 19.9409 145.684 21.2812C146.066 21.7784 146.246 22.3456 145.974 22.9391C145.564 23.6945 144.861 24.292 144.173 24.8754C143.872 25.131 143.575 25.3839 143.306 25.6461C142.716 26.2345 142.055 26.604 141.369 26.988C141.082 27.1486 140.79 27.3118 140.497 27.4945C140.154 27.6966 139.837 27.9198 139.522 28.1414C138.993 28.5131 138.47 28.8805 137.843 29.1371C137.313 29.357 136.784 29.5822 136.256 29.8074C135.553 30.107 134.849 30.4067 134.142 30.6942C133.478 30.9067 132.822 31.139 132.166 31.3712C131.389 31.6463 130.611 31.9215 129.821 32.1638C129.588 32.2675 129.353 32.3692 129.117 32.471C128.204 32.8659 127.286 33.263 126.446 33.7888C126.09 33.9918 125.723 34.1583 125.358 34.3241C124.743 34.6036 124.132 34.8808 123.589 35.3262C122.132 36.2636 120.76 37.2907 119.563 38.5479C119.282 38.8634 119.089 39.2151 118.896 39.5667C118.759 39.8154 118.623 40.064 118.455 40.2999C117.852 40.6923 116.999 40.6578 116.228 40.6267C116.005 40.6177 115.788 40.6089 115.587 40.6109C115.05 40.6633 114.78 40.3552 114.484 40.017C114.359 39.8741 114.23 39.7257 114.073 39.5969C114.108 39.3345 114.163 39.069 114.218 38.803C114.361 38.1121 114.504 37.4175 114.299 36.7629C114.201 36.3478 114.191 35.9308 114.182 35.5134C114.171 35.0433 114.16 34.5728 114.022 34.1042C113.947 33.8198 113.876 33.5388 113.806 33.2607C113.506 32.076 113.219 30.9435 112.689 29.8226C112.564 29.5817 112.452 29.3402 112.34 29.1012C112.022 28.4187 111.713 27.7561 111.168 27.1835C110.866 26.8633 110.626 26.503 110.387 26.1441C110.108 25.7249 109.83 25.3076 109.456 24.9584C108.583 24.1415 107.753 23.283 106.957 22.3916L106.57 22.4069C106.793 22.7039 107.022 22.9946 107.252 23.2852C107.629 23.7618 108.005 24.2382 108.348 24.7416C108.763 25.396 109.21 26.0056 109.65 26.607C110.502 27.7687 111.331 28.8999 111.862 30.265C112.673 32.3236 113.218 34.448 113.135 36.6775C112.677 36.6821 112.223 36.7109 111.771 36.7397C110.92 36.7938 110.074 36.8475 109.216 36.7388C109.124 36.7519 109.026 36.7648 108.923 36.7783C107.912 36.9112 106.492 37.0979 106.043 38.0485C105.535 39.2793 105.028 40.6898 105.137 42.0367C105.173 42.9193 105.164 43.7997 105.146 44.6801C105.14 45.3111 105.031 45.9433 104.921 46.5741C104.828 47.1125 104.735 47.6497 104.707 48.1842C104.681 48.9889 104.53 49.81 104.383 50.6172C104.344 50.8294 104.306 51.0406 104.269 51.2503C104.203 51.5868 104.147 51.9215 104.09 52.2543C103.93 53.2038 103.772 54.1377 103.401 55.0523C103.036 55.9711 102.902 56.9021 102.768 57.838C102.67 58.5285 102.57 59.2216 102.377 59.9143C102.107 60.8693 101.996 61.8382 101.884 62.8125C101.849 63.1141 101.815 63.4162 101.775 63.7185C101.644 64.3064 101.541 64.8941 101.438 65.4799C101.266 66.4609 101.095 67.4369 100.793 68.4009C100.524 67.3588 100.392 66.2863 100.26 65.2131C100.134 64.1909 100.009 63.168 99.7642 62.1701C99.6293 61.5843 99.4448 61.0172 99.2597 60.448C99.1403 60.0808 99.0206 59.7128 98.9137 59.3383C98.7283 58.7007 98.5034 58.0832 98.279 57.4672C97.9608 56.5935 97.6436 55.7226 97.4413 54.8005C96.9656 53.0258 96.6854 51.221 96.4039 49.4072L96.3667 49.1676C96.0788 47.4177 96.2282 45.6831 96.9468 44.0537C97.3535 43.3311 97.0619 42.3695 96.8173 41.5629C96.775 41.4235 96.7341 41.2887 96.6985 41.1606C96.0392 40.5189 94.7997 40.3744 93.9163 40.4291C93.427 40.4863 92.9445 40.4685 92.4632 40.4508C91.8743 40.4292 91.2873 40.4076 90.6924 40.5233C90.0704 40.6287 89.4939 40.5554 88.89 40.4786C88.5272 40.4324 88.1546 40.3851 87.7563 40.3744C87.0051 40.3443 86.2538 40.346 85.5026 40.3478C84.3968 40.3504 83.291 40.353 82.1853 40.2539C81.4825 40.2018 80.8426 40.3334 80.1963 40.4663C79.7027 40.5678 79.2054 40.6701 78.6734 40.6919C77.6362 40.7336 76.6604 41.0292 75.8033 41.6118C75.2144 42.2513 75.1089 43.32 75.3792 44.1194C76.1066 46.0883 76.2473 48.3047 76.1308 50.3831C76.0283 51.326 75.7906 52.2596 75.5543 53.1873C75.4663 53.5331 75.3784 53.878 75.2979 54.2223C75.1418 54.9143 74.8232 55.5232 74.443 56.1167C74.3177 55.6677 74.1991 55.2188 74.1661 54.7501C74.124 54.0559 73.9519 53.4002 73.7748 52.7261C73.7206 52.5197 73.666 52.3116 73.6145 52.1001C73.5006 51.6606 73.418 51.23 73.3364 50.805C73.1725 49.9509 73.013 49.1193 72.6124 48.2828C72.253 47.3217 71.9295 46.3421 71.6066 45.3644C71.499 45.0388 71.3915 44.7133 71.2828 44.3888C71.1425 43.7168 70.9569 43.0603 70.7712 42.4034C70.6077 41.8251 70.4442 41.2465 70.3114 40.6569C69.942 39.5493 69.7157 38.3705 69.492 37.2053C69.4069 36.7623 69.3222 36.3213 69.2302 35.8869C69.1485 35.4702 69.105 35.038 69.0614 34.604C69.0053 34.0458 68.9489 33.4847 68.8104 32.95C68.7323 32.7271 68.629 32.5228 68.5265 32.3199C68.358 31.9866 68.1915 31.6574 68.1424 31.2571C68.0959 30.9254 68.0659 30.5935 68.0358 30.262C67.9805 29.6522 67.9254 29.0436 67.7688 28.4406C67.7218 27.9684 67.0399 27.7414 66.5917 27.5921C66.5368 27.5739 66.4855 27.5567 66.4392 27.5405C65.67 27.3816 64.8452 27.4222 64.036 27.462C63.7077 27.4781 63.382 27.4942 63.0636 27.4967C62.2994 27.5351 61.5551 27.5224 60.8158 27.5098C59.4907 27.4872 58.1813 27.4649 56.8003 27.7376C56.6069 27.7902 56.418 27.8756 56.2377 27.9895C56.1235 28.7582 56.0817 29.5729 56.3191 30.3241C56.6566 31.5305 56.6251 32.6597 56.5925 33.8324C56.5794 34.3011 56.5661 34.7768 56.5762 35.2671C56.6291 36.6563 56.1096 37.9441 55.5969 39.2151C55.4702 39.5291 55.3439 39.8421 55.2268 40.1554C55.1368 40.4047 55.0466 40.6528 54.9568 40.9C54.0378 43.4289 53.1513 45.8686 52.7589 48.5719C52.5072 49.6298 52.3607 50.7004 52.2141 51.771C52.074 52.7947 51.9339 53.8184 51.7018 54.8311C51.5517 55.5026 51.4638 56.1806 51.3759 56.8593C51.3107 57.3626 51.2454 57.8664 51.1546 58.3681C51.0503 59.1093 51.055 59.875 51.0598 60.6363C51.0621 61.0133 51.0644 61.3892 51.0535 61.7605C51.0572 62.294 51.006 62.8214 50.9549 63.3487C50.9139 63.7718 50.8728 64.1948 50.8601 64.6208C50.8363 65.2719 50.8352 65.9214 50.8341 66.5703C50.8325 67.5954 50.8308 68.6189 50.7393 69.6448C50.8449 70.5288 50.8537 71.4149 50.8624 72.3013C50.8716 73.2397 50.8808 74.1786 51.0052 75.1157C51.0513 76.3531 51.2579 77.4569 51.6447 78.6307C51.7611 78.9715 51.8568 79.3065 51.9512 79.637C52.1438 80.3114 52.331 80.967 52.6776 81.6136C52.7018 80.9807 52.682 80.35 52.5743 79.7236C52.1655 77.5729 51.7502 75.3478 51.7721 73.1512C51.7686 72.883 51.7733 72.6213 51.7778 72.3631C51.7904 71.6553 51.8025 70.9737 51.6447 70.2581C51.3933 68.9709 51.5149 67.7063 51.6339 66.4681C51.6585 66.2125 51.683 65.9581 51.704 65.7049C51.6029 64.3251 51.6469 62.9563 51.8227 61.5831C51.9558 60.862 51.9703 60.1555 51.9849 59.4418C51.993 59.0478 52.0011 58.6518 52.0293 58.2498C52.0665 57.1642 52.3181 56.0939 52.5669 55.0354C52.7588 54.2191 52.949 53.4098 53.038 52.606C53.1369 51.6831 53.3044 50.7807 53.4723 49.8761C53.5431 49.4949 53.6139 49.1133 53.6797 48.7295C53.8922 47.2474 54.3219 45.7692 54.7458 44.3111C54.8612 43.9142 54.9762 43.5188 55.0862 43.1251C55.2718 42.4602 55.5587 41.8702 55.8466 41.2778C56.0462 40.8673 56.2462 40.4558 56.4136 40.0174C56.4705 39.8662 56.5278 39.7162 56.5848 39.5668C56.8927 38.7599 57.1933 37.9722 57.4047 37.1221C57.5305 36.4008 57.5779 35.6626 57.6249 34.9298C57.6313 34.8304 57.6377 34.7311 57.6442 34.632C58.5035 34.7284 59.3562 34.7897 60.2199 34.6955C60.6791 34.6519 61.1185 34.6769 61.5545 34.7017C62.0595 34.7304 62.5599 34.7589 63.0812 34.6802C63.8372 34.5334 64.5646 34.2575 65.2129 33.8457C64.6762 33.8618 64.1458 33.9314 63.6148 34.0011C63.0564 34.0743 62.4974 34.1477 61.9296 34.1589C62.0316 34.0886 62.1405 34.0216 62.2505 33.9539C62.5105 33.7938 62.7767 33.63 62.9713 33.4099C63.012 32.8978 62.8263 32.3504 62.6525 31.8383C62.6011 31.6869 62.5508 31.5385 62.5076 31.395C61.8791 31.4016 61.2528 31.4169 60.6264 31.4454C60.118 31.4892 59.6495 31.4018 59.1859 31.3152C58.5833 31.2027 57.9888 31.0917 57.3256 31.2724C57.2223 30.5869 57.1696 29.9058 57.1476 29.2137C59.025 29.3191 60.9025 29.2834 62.7807 29.2477C64.2201 29.2203 65.66 29.1929 67.1007 29.2291C67.1633 29.5867 67.2128 29.9583 67.2628 30.3341C67.4024 31.3827 67.5464 32.4644 67.9929 33.3705C67.783 33.4599 67.572 33.5466 67.361 33.6333C67.0399 33.7652 66.7188 33.897 66.4018 34.0385C66.9908 34.2115 67.5578 34.2509 68.1687 34.2531C68.2193 36.4103 68.6918 38.5873 69.3137 40.6481C69.4228 41.0441 69.4921 41.4386 69.5609 41.8303C69.6778 42.4959 69.7933 43.1536 70.1005 43.7975C70.3947 44.3889 70.5285 45.0077 70.6629 45.6291C70.7625 46.0893 70.8624 46.5509 71.0279 47.0038C71.2555 47.6607 71.5242 48.3026 71.793 48.9445C72.0251 49.4988 72.2572 50.0532 72.4629 50.6174C72.6317 51.1656 72.7312 51.7377 72.8301 52.3072C72.8806 52.5978 72.931 52.8876 72.9904 53.1732C73.08 53.6611 73.19 54.1311 73.2988 54.5959C73.4806 55.3726 73.6589 56.1345 73.7332 56.9402C73.751 57.1513 73.7811 57.3546 73.8108 57.5542C73.8871 58.0689 73.9599 58.5593 73.8079 59.0974C73.6598 59.6063 73.5312 60.1194 73.4026 60.6323C73.1991 61.444 72.9957 62.2552 72.7157 63.0483C72.6053 63.4357 72.5035 63.8248 72.4017 64.2137C72.1934 65.0097 71.9853 65.8048 71.7047 66.5831C71.2811 67.7412 71.028 68.9161 70.7725 70.1023C70.6357 70.7375 70.4982 71.3759 70.3334 72.0167C69.7023 74.5594 69.5362 77.0885 69.3666 79.6704C69.3443 80.0105 69.3219 80.3516 69.2983 80.6938L69.2863 80.789C69.1936 81.5233 69.1015 82.2524 69.072 82.9956C68.635 83.0593 68.1986 83.1251 67.7623 83.1908C66.3251 83.4074 64.8898 83.6237 63.4416 83.7665C61.3648 83.8672 59.2375 83.7818 57.2509 83.1204C57.2072 83.107 57.1638 83.0935 57.1205 83.0801C56.2816 82.8205 55.5113 82.5821 54.6357 82.9299C54.6947 82.9929 54.7522 83.0558 54.809 83.1181C55.1353 83.4751 55.4411 83.8098 55.9015 84.0205C56.9607 84.5076 58.0042 84.6157 59.109 84.7301C59.3108 84.751 59.5146 84.7722 59.721 84.7958C61.9802 85.1419 64.4306 85.1988 66.6634 84.6622C67.4743 84.3206 68.2149 84.0928 69.1005 83.9789C69.1037 84.2289 69.1022 84.4763 69.1006 84.7221C69.0957 85.4911 69.0909 86.2455 69.2324 87.0188C69.3249 87.5478 69.3248 88.067 69.3248 88.59C69.3247 89.024 69.3246 89.4606 69.3774 89.9075C69.5697 91.0103 69.5512 92.163 69.5328 93.3126C69.5237 93.8843 69.5145 94.4554 69.5313 95.0191C69.5504 96.1287 69.6892 97.2486 69.8269 98.3597C69.8795 98.7838 69.9319 99.2066 69.9774 99.6271C70.0243 100.121 70.0256 100.612 70.0268 101.103C70.0284 101.714 70.03 102.324 70.1202 102.934C70.1933 103.503 70.1989 104.079 70.2046 104.658C70.2082 105.037 70.2119 105.416 70.2345 105.797C70.4828 108.425 70.8455 111.033 71.5597 113.58C71.8146 114.504 72.1201 115.42 72.4739 116.311L72.5245 115.834C72.4309 115.167 72.3292 114.505 72.2278 113.844C71.8863 111.618 71.5476 109.41 71.5289 107.132C71.3399 105.932 71.1685 104.802 71.2454 103.578C71.4444 103.685 71.6404 103.794 71.8359 103.903C72.3076 104.166 72.7764 104.428 73.2782 104.645C73.6351 104.802 74.0093 104.94 74.3848 105.079C75.0545 105.326 75.7282 105.575 76.3154 105.937C76.5482 106.081 76.7779 106.228 77.0068 106.375C77.7677 106.861 78.5212 107.344 79.3591 107.711C80.0461 108.012 80.7257 108.325 81.4047 108.638C82.6435 109.209 83.8803 109.779 85.1565 110.271C85.688 110.494 86.2349 110.65 86.7815 110.807C87.3469 110.969 87.912 111.131 88.4595 111.366C88.5881 111.421 88.7151 111.477 88.8416 111.533C89.3984 111.778 89.9444 112.019 90.5605 112.119C91.9999 112.332 93.4152 112.873 94.7558 113.425C94.9756 113.372 95.1975 113.317 95.4173 113.263L95.5704 113.224C95.8264 113.16 96.0815 113.097 96.3381 113.035C95.9843 112.846 95.6239 112.673 95.259 112.505C95.9117 111.758 96.4128 110.906 96.7183 109.964C96.8306 109.636 96.91 109.312 96.9879 108.995C97.1629 108.282 97.3301 107.6 97.8457 106.968C97.9029 107.417 97.9116 107.866 97.9202 108.314C97.9265 108.64 97.9328 108.966 97.9577 109.292C98.1358 110.884 98.4786 112.435 98.8456 113.992C98.9604 114.477 99.0433 114.951 99.1251 115.418C99.2937 116.381 99.4573 117.315 99.8851 118.265C100.132 118.734 100.155 119.21 100.179 119.709C100.185 119.828 100.19 119.948 100.199 120.069C100.648 119.283 100.99 118.508 101.256 117.643C101.375 117.254 101.523 116.866 101.67 116.477C101.94 115.77 102.21 115.059 102.309 114.336C102.449 113.42 102.545 112.5 102.641 111.581C102.744 110.597 102.847 109.614 103.004 108.635C103.393 105.871 103.399 103.111 103.404 100.334C103.405 99.887 103.405 99.4397 103.408 98.9919C103.383 98.4974 103.383 98.0054 103.383 97.5144C103.383 96.692 103.383 95.8726 103.267 95.0498C103.217 94.2886 103.215 93.525 103.213 92.7612C103.212 92.0855 103.21 91.4097 103.175 90.7353C103.124 90.0087 103.145 89.2994 103.165 88.5916C103.191 87.6697 103.218 86.7504 103.087 85.7989C102.958 84.9923 102.871 84.1815 102.783 83.3706C102.702 82.6183 102.621 81.8659 102.507 81.1165C102.371 80.2251 102.278 79.3425 102.276 78.4402C102.266 77.7483 102.156 77.0848 102.047 76.4216C101.953 75.8483 101.858 75.2752 101.828 74.6842C101.778 73.4613 101.891 72.2902 102.006 71.1037C102.052 70.62 102.099 70.1338 102.135 69.6405C102.18 69.1198 102.311 68.6218 102.442 68.1234C102.575 67.6177 102.708 67.1115 102.751 66.5809C103.273 63.7021 103.984 60.8472 104.694 57.9951C105.271 55.6788 105.847 53.3643 106.322 51.0401C106.339 50.9757 106.357 50.9113 106.374 50.8469C106.593 50.0337 106.811 49.2221 106.88 48.3616C106.895 48.0477 106.903 47.7323 106.911 47.4165C106.927 46.7981 106.943 46.1781 107.01 45.5649C107.049 45.3267 107.124 45.1187 107.195 44.9193C107.31 44.5998 107.417 44.3026 107.355 43.9398C107.334 43.7809 107.314 43.6221 107.294 43.4636C107.186 42.6039 107.079 41.7504 106.832 40.911C106.647 40.1291 106.498 39.2859 107.124 38.6552C107.78 37.8227 108.933 37.7194 110.022 37.6219C110.497 37.5794 110.959 37.538 111.363 37.4375C111.565 37.4144 111.758 37.3596 111.945 37.3065C112.398 37.1778 112.816 37.0591 113.236 37.4265C113.423 38.5041 113.113 39.6977 112.686 40.6854C111.601 40.6499 110.606 40.3724 109.6 40.0921C109.118 39.9575 108.633 39.8224 108.135 39.713C108.165 39.815 108.175 39.9433 108.186 40.0767C108.211 40.3784 108.237 40.7066 108.493 40.819C109.451 41.3294 110.363 41.4245 111.314 41.5236C111.828 41.5772 112.353 41.632 112.904 41.7541C112.755 42.1407 112.6 42.5242 112.444 42.9076C112.306 43.2497 112.167 43.5916 112.034 43.9355C111.769 44.6648 111.436 45.3825 111.102 46.1021C110.724 46.9166 110.345 47.7334 110.062 48.5719C109.87 49.1552 109.633 49.7184 109.396 50.2813C109.109 50.9653 108.821 51.6488 108.614 52.3673C108.429 53.0029 108.12 53.5629 107.811 54.1222C107.489 54.7056 107.167 55.2882 106.988 55.9546C106.676 57.323 106.673 58.6234 106.669 59.9897C106.668 60.3575 106.667 60.7301 106.66 61.1101C106.63 62.227 107.313 63.206 108.313 63.679C108.509 63.5194 108.717 63.3711 108.926 63.2227C109.264 62.9824 109.603 62.7415 109.889 62.4504C110.073 62.2017 110.197 61.9044 110.319 61.6098C110.387 61.4452 110.455 61.2815 110.533 61.1276C110.829 60.5384 111.169 59.9583 111.51 59.3764C112.049 58.4551 112.592 57.5292 112.968 56.5547C113.371 55.4239 113.938 54.4009 114.509 53.3697C114.731 52.969 114.953 52.567 115.167 52.157C115.551 51.2975 115.981 50.4624 116.412 49.6275C116.807 48.8605 117.202 48.0936 117.561 47.3082C117.785 46.8215 118.049 46.3643 118.312 45.9078C118.667 45.2919 119.021 44.6776 119.277 43.9946C119.613 43.1295 120.04 42.3236 120.642 41.614C121.047 41.2693 121.55 41.0327 122.046 40.7994C122.288 40.6858 122.528 40.5729 122.754 40.4488C122.794 40.9782 122.78 41.4988 122.765 42.0169C122.743 42.815 122.721 43.6073 122.901 44.4173C122.966 45.4462 123.129 46.4604 123.293 47.4749C123.45 48.449 123.607 49.4234 123.677 50.4115C123.763 50.8719 123.791 51.3351 123.818 51.7976C123.85 52.3253 123.881 52.852 124 53.3725C124.123 53.9492 124.206 54.5246 124.289 55.098C124.43 56.0731 124.57 57.0425 124.907 58.0024C125.301 59.025 125.516 60.0638 125.733 61.1132C125.835 61.61 125.938 62.1093 126.061 62.6103C126.255 63.5762 126.524 64.5205 126.793 65.465C127.009 66.223 127.225 66.981 127.402 67.7504C127.854 69.5 128.202 71.2673 128.55 73.035C128.69 73.7479 128.83 74.4608 128.977 75.1726C129.468 76.9553 129.81 78.7381 129.784 80.5952C129.762 82.1852 129.799 83.7555 130.07 85.3258C130.248 86.1082 130.241 86.8746 130.233 87.6444C130.226 88.3528 130.22 89.0642 130.358 89.7936C130.436 90.8512 130.424 91.9162 130.413 92.9813C130.405 93.7447 130.397 94.5081 130.421 95.2688C130.425 95.5621 130.43 95.857 130.435 96.1528C130.462 97.6108 130.489 99.0921 130.272 100.525C130.207 101.296 130.205 102.074 130.203 102.85C130.201 103.39 130.2 103.929 130.177 104.465C130.138 104.904 130.066 105.34 129.995 105.775C129.911 106.286 129.827 106.796 129.795 107.31C129.773 108.388 129.763 109.473 129.753 110.555C129.747 111.302 129.74 112.047 129.729 112.789C129.206 114.068 127.624 114.971 126.402 115.494C125.776 115.7 125.167 115.915 124.565 116.129C122.946 116.704 121.373 117.262 119.622 117.557C118.979 117.654 118.328 117.784 117.673 117.916C116.769 118.097 115.858 118.28 114.95 118.376C113.88 118.449 112.804 118.442 111.729 118.436C111.113 118.432 110.497 118.429 109.882 118.44C108.559 118.471 107.265 118.269 105.975 118.002C105.15 117.819 104.486 117.437 103.787 117.035C103.633 116.947 103.477 116.857 103.318 116.769L103.242 116.797C102.923 116.917 102.605 117.036 102.283 117.148C102.275 117.221 102.268 117.295 102.261 117.369C102.254 117.443 102.246 117.517 102.239 117.59C102.446 117.683 102.65 117.777 102.853 117.87C103.776 118.295 104.67 118.707 105.696 118.915C106.542 119.131 107.394 119.208 108.251 119.286C108.647 119.322 109.045 119.358 109.443 119.408C110.02 119.464 110.582 119.417 111.146 119.37C111.6 119.332 112.056 119.294 112.519 119.309C113.839 119.363 115.144 119.151 116.457 118.938C117.413 118.784 118.374 118.628 119.347 118.573C120.884 118.488 122.222 118.151 123.613 117.505C124.389 117.151 125.206 116.877 126.023 116.603C127.097 116.243 128.171 115.882 129.151 115.341C130.158 114.765 130.367 113.78 130.588 112.742C130.599 112.69 130.61 112.638 130.621 112.586C130.584 112.316 130.493 112.054 130.402 111.791C130.337 111.606 130.273 111.422 130.228 111.235C130.149 110.698 130.188 110.135 130.259 109.599C130.374 108.949 130.391 108.298 130.409 107.648C130.428 106.911 130.448 106.175 130.61 105.44C130.846 104.214 130.848 103.007 130.85 101.794C130.852 100.983 130.853 100.169 130.925 99.3445C131.129 97.8282 131.097 96.2547 131.065 94.6846C131.045 93.7014 131.025 92.7194 131.063 91.7537C131.105 91.192 131.028 90.6473 130.95 90.1022C130.873 89.5593 130.796 89.0161 130.837 88.4555C130.908 86.7044 130.759 84.9829 130.609 83.2562C130.539 82.4475 130.469 81.6376 130.421 80.823C130.404 77.3474 129.973 73.9243 129.529 70.4814C129.422 69.9022 129.357 69.3236 129.291 68.7468C129.183 67.7906 129.075 66.8397 128.782 65.8998C128.591 64.9617 128.318 64.0492 128.045 63.136C127.859 62.512 127.672 61.8876 127.512 61.2546C127.404 60.8398 127.302 60.4237 127.199 60.0076C127.029 59.3123 126.858 58.6171 126.661 57.9279C126.533 57.4529 126.43 56.974 126.326 56.4955C126.161 55.7274 125.995 54.9602 125.727 54.2113C125.4 53.3119 125.288 52.4295 125.175 51.5302C125.106 50.9864 125.037 50.4364 124.918 49.8728C124.87 49.4809 124.803 49.0992 124.736 48.7208C124.591 47.8957 124.448 47.086 124.51 46.2197C124.538 45.4222 124.46 44.6357 124.382 43.8498C124.308 43.1077 124.234 42.366 124.25 41.6162C124.242 40.4839 124.061 39.3472 123.853 38.2369C123.648 38.1975 123.443 38.1597 123.238 38.1218C122.703 38.0228 122.168 37.924 121.637 37.7988C122.451 36.9312 123.391 36.4529 124.374 35.9521C124.806 35.7324 125.246 35.5084 125.688 35.2452C126.511 34.774 127.385 34.4795 128.262 34.1837C128.82 33.9956 129.38 33.807 129.929 33.572C130.49 33.3425 131.077 33.2161 131.665 33.0896C132.293 32.9542 132.923 32.8185 133.524 32.5558C133.989 32.3604 134.446 32.153 134.902 31.9459C135.923 31.4819 136.941 31.0196 138.036 30.6986C138.797 30.5082 139.473 30.0139 140.13 29.534C140.311 29.4013 140.491 29.2696 140.671 29.1458C141.066 28.8165 141.502 28.5563 141.938 28.296C142.27 28.0976 142.602 27.899 142.917 27.6697C144.014 26.7959 145.102 25.9242 146 24.8336C146.343 24.38 146.606 23.8792 146.869 23.3773C147.093 22.9509 147.318 22.5238 147.591 22.1244C147.04 20.9396 146.356 20.0219 145.449 19.0868C144.033 17.3544 142.55 15.7162 140.906 14.1963C139.79 13.3422 138.651 12.4946 137.5 11.6887C136.936 11.3113 136.318 10.9858 135.699 10.6594C134.978 10.2794 134.254 9.89831 133.612 9.4329C132.733 8.81529 131.757 8.22178 130.705 7.96773C130 7.78038 129.338 7.49326 128.677 7.20603C127.97 6.89897 127.263 6.59178 126.501 6.4062C125.378 5.93789 124.223 5.6433 123.058 5.34657C122.611 5.23256 122.163 5.11823 121.714 4.9936C121.357 4.91688 120.998 4.84971 120.641 4.78262C119.824 4.62947 119.009 4.47673 118.211 4.21174C117.692 4.03662 117.194 4.03367 116.68 4.03062ZM88.565 41.4804C87.5343 41.3424 86.53 41.2635 85.4906 41.3227C84.8801 41.3547 84.3031 41.3172 83.7402 41.2806C82.6113 41.2072 81.5389 41.1375 80.3657 41.6402C81.5358 41.9972 82.6634 41.9855 83.8082 41.9736C84.504 41.9664 85.206 41.9591 85.9279 42.0345C87.5475 42.1856 89.1562 42.1111 90.7715 41.9929C91.315 42.0241 91.8471 41.9617 92.3779 41.8995C92.9632 41.8308 93.5469 41.7624 94.1427 41.8198C92.9713 42.5119 91.7209 42.6586 90.3957 42.7988C89.8794 42.8502 89.382 42.9403 88.8879 43.0299C88.2023 43.1541 87.5232 43.2772 86.8091 43.2938C85.7147 43.338 84.6202 43.3116 83.5249 43.2853C83.1005 43.275 82.6759 43.2648 82.2512 43.2587C81.2623 43.0835 80.3107 42.7178 79.5503 42.0476C79.0581 41.4212 77.9461 41.6906 77.489 42.2228C77.1769 42.8163 76.9373 43.5456 77.034 44.2202C77.1484 44.8285 77.1854 45.4393 77.2224 46.0505C77.2566 46.6143 77.2908 47.1786 77.3857 47.7418C77.3725 49.2727 77.256 50.7948 76.867 52.2797C76.5615 54.0909 76.1901 55.8845 75.6979 57.6541C75.5602 58.1903 75.4628 58.726 75.3657 59.2605C75.2613 59.8349 75.1571 60.408 75.0034 60.9787L74.9675 61.1084C74.7348 61.947 74.4983 62.7993 74.3771 63.6615C74.3249 63.9803 74.4153 64.3096 74.5059 64.6396C74.5641 64.8515 74.6224 65.0636 74.643 65.2734C74.6822 66.1485 74.6463 67.0267 74.6105 67.9048C74.5719 68.8483 74.5334 69.7918 74.5881 70.7311C74.6307 71.6499 74.5299 72.5589 74.4288 73.4705C74.3578 74.1104 74.2868 74.7515 74.265 75.3982C74.2569 75.0919 74.2455 74.7832 74.234 74.4733C74.1891 73.2631 74.1436 72.0342 74.2958 70.8538C74.3683 70.2296 74.3551 69.6076 74.2826 68.9856C74.2299 68.5144 74.2179 68.0469 74.2059 67.5802C74.1898 66.9557 74.1738 66.3328 74.0606 65.7049C73.6211 66.6094 73.4211 67.5774 73.3046 68.5695C73.1552 69.5854 72.9689 70.5983 72.7825 71.6117C72.4727 73.2962 72.1626 74.9821 72.0212 76.6859C72.0103 77.3015 71.9316 77.9084 71.8531 78.5148C71.7734 79.1294 71.6938 79.7435 71.685 80.3653C71.761 81.9889 71.7056 83.5985 71.6502 85.2099C71.6079 86.4416 71.5655 87.6744 71.5817 88.9154C71.6047 89.7262 71.5227 90.524 71.4407 91.3212C71.3584 92.1216 71.2762 92.9216 71.3004 93.7336C71.3099 94.2306 71.2559 94.7195 71.2019 95.2084C71.1436 95.7363 71.0853 96.264 71.107 96.8019C71.1235 97.1338 71.1337 97.4667 71.144 97.7996C71.1693 98.6219 71.1947 99.4443 71.3136 100.253C71.8449 99.4961 72.2213 98.6787 72.6001 97.8563C72.8183 97.3826 73.0373 96.9071 73.2871 96.4405C73.4593 96.1149 73.4889 95.7753 73.52 95.4181C73.5314 95.2875 73.5429 95.1546 73.5618 95.0191C74.0826 95.2751 74.577 95.5624 75.0693 95.8486C75.9545 96.363 76.8333 96.8736 77.8472 97.1917C78.796 97.6205 79.7744 97.9684 80.7541 98.3169C81.8461 98.7053 82.9397 99.0942 83.9962 99.5964C84.6395 99.9651 85.3223 100.154 86.0094 100.345C86.4324 100.462 86.8571 100.579 87.275 100.74C87.8311 101.001 88.415 101.167 88.9999 101.333C89.5175 101.48 90.0359 101.627 90.5363 101.841C91.2967 102.16 92.0806 102.315 92.8692 102.47C93.3798 102.571 93.8924 102.672 94.402 102.818C95.4292 103.104 96.4706 103.266 97.5196 103.429C97.7072 103.458 97.895 103.487 98.083 103.517C98.0847 103.265 98.0891 103.015 98.0935 102.765C98.1115 101.733 98.1294 100.711 97.9578 99.6796C97.8479 98.2298 97.8545 96.6332 97.9446 95.1812C98.1248 94.1513 98.1208 93.1277 98.1169 92.104C98.113 91.1183 98.1092 90.1325 98.2698 89.1409C98.3584 87.4762 98.5992 85.8197 98.8395 84.1671C98.9033 83.7281 98.9671 83.2895 99.028 82.851C99.0745 82.8531 99.121 82.8549 99.1675 82.8566C99.2704 82.8603 99.3734 82.8633 99.4763 82.8664C99.3906 83.696 99.2883 84.5226 99.1861 85.3489C98.9974 86.8742 98.8088 88.3983 98.7247 89.9381C98.5799 90.728 98.5741 91.519 98.5683 92.3097C98.5626 93.0909 98.5569 93.8719 98.4171 94.6512C98.2796 95.93 98.2945 97.2416 98.3092 98.5399C98.3143 98.9848 98.3193 99.4281 98.3182 99.868C98.326 100.131 98.3313 100.393 98.3365 100.654C98.3561 101.637 98.3756 102.612 98.5335 103.591C98.5891 103.962 98.5279 104.318 98.4648 104.685C98.4281 104.899 98.3907 105.117 98.3753 105.343C98.3028 107.568 98.3907 109.778 98.8017 111.97C98.9958 112.829 99.0996 113.674 99.2027 114.512C99.369 115.865 99.5331 117.201 100.072 118.549C100.863 116.909 101.472 115.133 101.661 113.317C101.707 113.055 101.755 112.794 101.803 112.533C101.986 111.545 102.167 110.561 102.245 109.553C102.296 108.289 102.305 107.03 102.232 105.766C102.159 104.568 102.174 103.368 102.19 102.166C102.206 100.894 102.223 99.6208 102.133 98.3459C102.094 97.7701 102.03 97.1995 101.965 96.6287C101.89 95.9596 101.815 95.2901 101.779 94.6118C101.724 93.4683 101.737 92.3122 101.75 91.1549C101.768 89.5458 101.786 87.9342 101.621 86.3508C101.518 85.4309 101.56 84.5155 101.619 83.5935C101.193 80.604 100.742 77.6255 99.929 74.7083C99.7631 74.113 99.6812 73.507 99.5992 72.9006C99.5238 72.3424 99.4483 71.7837 99.3071 71.2326C98.5555 68.195 97.9006 65.1289 97.3138 62.054C97.1707 61.5163 96.9984 60.9923 96.8267 60.4698C96.4947 59.4602 96.1646 58.4562 96.0502 57.3694C95.9687 56.3607 95.7657 55.3838 95.5629 54.4082C95.3176 53.2273 95.0726 52.0483 95.0437 50.8167C94.9462 49.4985 95.1169 48.2428 95.2892 46.9754C95.3889 46.2423 95.489 45.5054 95.5382 44.7502C95.5583 44.4718 95.592 44.1883 95.6261 43.9029C95.7036 43.2519 95.7824 42.5905 95.703 41.9556C95.3426 41.6687 94.9206 41.522 94.4855 41.3862C93.9918 41.314 93.4814 41.3177 92.9769 41.3215C92.8233 41.3226 92.6704 41.3237 92.5186 41.3227C91.9432 41.3059 91.3869 41.3669 90.8331 41.4277C90.0861 41.5096 89.3437 41.591 88.565 41.4804Z" fill="#202530"/>
<path d="M114.602 41.9666C116.323 41.8155 118.033 42.0739 119.754 41.7563C118.758 43.861 117.846 45.9022 116.644 47.8842C115.295 50.4291 113.934 53.0155 112.295 55.3874C112.06 54.8508 111.987 53.8806 111.44 53.5718C110.273 53.2148 109.673 53.9595 108.763 54.5026C109.921 51.7913 111.462 49.3537 112.35 46.5285C112.833 44.8816 113.657 43.388 114.602 41.9666Z" fill="white"/>
<path d="M67.582 41.8901C68.2215 42.4179 68.5886 43.283 68.8435 44.0539C69.2039 45.241 69.8588 46.3557 70.1291 47.5668C69.7379 46.7631 69.4896 45.9133 69.0127 45.1446C68.371 44.1372 67.8194 43.0728 67.582 41.8901Z" fill="#202530"/>
<path d="M58.7168 44.2837C59.5453 44.3341 60.3167 44.6582 61.1518 44.8684C61.6506 44.9933 62.1297 45.1553 62.5693 45.4291C61.3056 45.6393 59.9189 45.094 58.7432 44.6582L58.7168 44.2837Z" fill="#202530"/>
<path d="M90.1471 46.9514C90.7251 46.8397 91.1646 47.1398 91.6767 47.3522C90.3911 47.3872 89.145 47.3369 87.8726 47.5822C88.6307 47.3763 89.3757 47.0916 90.1471 46.9514Z" fill="#202530"/>
<path d="M110.968 54.2178C111.957 54.3557 111.77 55.3172 111.737 56.0531C111.401 57.3562 111.009 58.7841 110.24 59.901C109.834 60.5208 109.451 61.1691 108.981 61.7429C108.708 62.1218 108.267 62.0648 107.845 62.1831C107.585 61.1516 107.458 60.05 107.559 58.9878C107.73 58.1796 108.089 57.3978 108.429 56.6444C108.864 55.5953 109.867 54.5485 110.968 54.2178Z" fill="white"/>
<path d="M30.5494 55.0764C31.3801 55.0413 32.18 54.9472 33.0041 55.1311C33.848 55.3282 34.7051 55.2166 35.5446 55.4312C36.4369 55.6283 37.4412 55.6633 38.2785 56.0291C38.8169 56.3225 39.2652 56.8241 39.6256 57.3147C39.9091 57.895 39.9839 58.5915 40.1443 59.2156C40.4498 60.3611 40.1509 61.4189 40.3223 62.5687C40.4959 63.5717 40.5794 64.5813 40.7838 65.5778C41.008 66.767 40.2695 67.6037 40.3399 68.7688C40.4739 70.3018 41.0563 71.8415 41.3464 73.3548C41.5354 74.4652 42.0299 75.4025 42.3991 76.4581C42.7155 77.1874 42.8935 77.9605 43.2451 78.6745C43.8473 79.9207 44.2824 81.2544 44.8296 82.5356C45.1483 83.2562 45.2824 84.0096 45.5219 84.7542C45.7417 85.4572 46.0362 86.1252 46.2164 86.8413C46.5526 88.3087 47.1767 89.6797 47.4712 91.158C47.8382 92.3998 47.88 93.6941 48.2624 94.9293C48.5283 95.8207 48.5854 96.7471 48.8338 97.6428C49.0909 98.5605 49.003 99.4518 49.17 100.38C49.5963 102.424 49.5919 104.548 49.7919 106.622C49.871 107.113 50.06 107.584 50.1545 108.074C50.7611 112.067 50.8776 116.033 51.2929 120.034C51.3522 121.145 51.2006 122.194 51.3808 123.304C51.6094 124.66 51.4072 126.081 51.4973 127.465C51.6555 130.317 51.5786 133.172 51.1435 135.998C51.0292 137.638 51.2446 139.298 51.0995 140.941C50.9589 142.399 51.1391 143.854 50.9391 145.31C50.8951 146.545 50.7545 147.752 50.3611 148.928C50.049 149.756 50.2029 150.52 50.2336 151.374C49.915 151.368 49.5524 151.563 49.3656 151.219C49.2755 149.955 49.3172 148.654 49.5018 147.399C49.5766 145.428 49.5018 143.448 49.5897 141.475C49.8051 139.522 49.7875 137.531 49.7699 135.566C49.8578 132.209 49.7216 128.851 49.7414 125.49C49.6732 124.458 49.5436 123.455 49.5919 122.417C49.4689 120.527 49.6689 118.622 49.3985 116.756C49.2293 115.301 49.4381 113.808 49.2425 112.345C49.137 111.626 49.0425 110.904 48.9612 110.183C48.7656 107.393 48.2404 104.614 47.8844 101.843C47.6338 99.9862 47.0712 98.1203 46.6097 96.2981C46.157 94.7059 45.7483 93.1137 45.0824 91.5916C44.5198 89.7651 44.0451 87.9276 43.2276 86.1865C42.6012 84.5593 41.9617 82.9671 41.2211 81.388C40.6058 79.1804 39.9575 76.9838 39.1553 74.8331C38.7576 73.6023 38.3884 72.3671 37.9598 71.145C37.7335 69.7959 37.417 68.4315 37.406 67.0583C36.116 66.9247 34.8238 66.9554 33.5316 66.9006C34.5733 66.6378 35.6699 66.5393 36.7379 66.4714L36.7731 66.1122C36.8017 65.5888 36.8258 65.0654 36.8566 64.5419C37.0654 64.4959 37.2742 64.4477 37.4851 64.4018C37.4763 64.8507 37.4654 65.2997 37.4588 65.7487C37.7554 65.8363 38.0543 65.9239 38.351 66.0137C38.4213 65.9961 38.4917 65.9764 38.562 65.9589C38.7224 65.4596 39.1729 64.877 38.8169 64.382L38.6411 64.047C37.5686 63.2958 36.7226 63.8586 35.5732 64.001C35.6897 64.6689 35.6062 65.269 35.4435 65.9217C35.16 65.3172 34.9381 64.6908 34.7381 64.0557C33.9821 64.0973 33.2261 64.1368 32.4701 64.1871C32.6305 64.8595 32.7602 65.5362 32.9031 66.2129C32.6503 66.2217 32.402 66.2151 32.1515 66.202C32.046 65.5494 31.9097 64.9033 31.7471 64.2594C30.9098 64.2309 30.0747 64.1565 29.2374 64.0995C30.1582 63.7951 30.89 63.3571 31.8548 63.333C33.5184 63.241 35.2721 63.1622 36.9072 62.8271C37.1005 62.7592 37.5467 62.6979 37.5357 62.4307C37.7291 61.2458 37.8412 60.0435 38.0016 58.8521C37.4236 58.9046 36.8324 58.9923 36.2523 58.9769C35.393 58.9331 34.4897 58.6506 33.6305 58.6725C33.1712 58.7141 32.7206 58.9725 32.2987 59.1477C32.3536 60.0325 32.4415 60.9042 32.6415 61.7693C32.5075 61.7189 32.3712 61.6685 32.2372 61.6203C32.1207 60.7443 31.9822 59.8705 31.8548 58.9966C30.9142 58.8499 29.9758 58.7579 29.022 58.7842C27.9078 58.8543 26.8815 58.3944 25.7497 58.5148C25.5278 59.6887 25.9849 60.9874 26.1409 62.1701C26.4442 63.4053 26.6925 64.5375 26.464 65.8144C25.7871 65.0172 25.4618 64.1346 24.4443 63.6746C24.3213 64.5266 24.3828 65.2953 24.5586 66.1319L24.3718 66.1253C23.7345 65.5165 23.2598 64.785 22.6445 64.1565C22.8181 64.8332 23.0818 65.4771 23.3213 66.1341L23.462 66.4955C24.2487 66.5415 25.0311 66.432 25.8201 66.4911C24.5894 66.9532 23.3851 66.8765 22.1039 66.8809C21.9962 69.8069 20.7083 72.0605 19.5304 74.6404C18.8821 76.5107 18.3019 78.4117 17.6998 80.2974C17.1943 81.5085 16.8735 82.7787 16.3834 83.9942C16.1395 84.66 15.9527 85.3411 15.7966 86.031C15.5856 86.9377 15.1703 87.7765 14.9483 88.6854C14.6077 90.1286 14.0583 91.3945 13.8363 92.8334C13.6935 93.7467 13.4847 94.6402 13.2737 95.5403C13.0979 96.8062 12.9177 98.0677 12.6914 99.3248C12.5397 100.111 12.2101 100.805 12.1661 101.613C11.9573 103.151 12.065 104.695 11.8255 106.228C11.7376 107.549 11.4914 108.832 11.5574 110.161C11.6101 111.134 11.2475 112.036 11.2739 112.997C11.3178 114.25 11.0761 115.479 11.1288 116.732C11.1091 117.686 11.2255 118.624 11.1354 119.576C11.0607 120.387 11.12 121.191 11.1838 121.999C11.3376 124.051 11.2651 126.103 11.5178 128.144C11.4607 129.535 11.6673 130.899 11.7244 132.281C11.6585 134.066 11.6079 135.836 11.9288 137.603C12.3375 140.183 11.9881 142.756 12.2672 145.341C12.6276 146.944 12.5947 148.575 13.0078 150.17C13.2342 151.079 13.9814 151.876 14.6626 152.487C15.6208 153.282 17.1504 153.503 18.3129 153.897C19.0733 154.173 19.8601 154.267 20.6556 154.392C22.895 154.83 25.1893 155.016 27.4705 154.94C28.6462 154.944 29.811 155.043 30.9867 154.957C33.0415 154.821 35.1029 155.021 37.1533 154.896C38.4477 154.819 39.6498 154.348 40.9332 154.228C41.7969 154.103 42.654 154.031 43.4957 153.775C45.3527 153.223 47.1701 152.309 49.0491 151.814C48.3173 152.649 47.4119 153.267 46.4471 153.801C45.6911 154.099 44.878 154.263 44.1 154.506C43.0781 154.852 42.0035 154.843 40.9662 155.146C39.9509 155.446 38.907 155.351 37.8763 155.588C36.5072 155.936 35.0326 155.678 33.6151 155.783C32.1515 155.899 30.6878 155.809 29.2264 155.943C28.6264 155.991 28.0704 155.899 27.4727 155.871C25.8948 155.798 24.407 155.971 22.8467 155.654C21.4511 155.496 19.948 155.391 18.5547 154.968C17.2954 154.585 16.1087 154.418 14.9483 153.746C14.2693 153.391 13.8495 152.774 13.199 152.388C12.7441 152.097 12.3178 151.854 12.098 151.335C11.5859 150.137 11.353 148.762 11.0431 147.5C10.4695 145.553 10.2278 143.503 10.008 141.49C9.87618 139.125 9.296 136.832 9.14656 134.473C9.03888 132.986 8.60155 131.589 8.68945 130.082C8.59276 128.79 8.87186 127.572 8.60155 126.293C8.35541 125.277 8.7378 124.316 8.5532 123.306C8.30267 121.718 8.56858 120.1 8.47628 118.484C8.39936 117.082 8.72681 115.722 8.63231 114.322C8.61693 113.591 8.43453 112.831 8.56419 112.128C8.78615 110.821 8.77296 109.502 8.5554 108.195C8.35541 107.095 8.76857 106.164 8.92021 105.041C9.17074 103.208 9.63664 101.421 9.96189 99.6029C10.0608 98.8714 10.2564 98.1684 10.4915 97.472C10.7311 96.7558 10.7684 96.0397 10.9179 95.3082C11.1552 94.3621 11.4783 93.4817 11.5815 92.4983C11.6629 91.7143 11.8211 90.9828 12.109 90.2491C12.6013 88.9745 12.7067 87.5991 13.2847 86.3748C13.7199 85.4594 13.7748 84.533 14.0099 83.5212C14.2407 82.3714 14.9417 81.4406 15.1945 80.2864C15.401 79.2899 15.8142 78.3745 16.1329 77.413C16.557 75.7902 17.2427 74.3228 17.7591 72.7372C18.3569 70.7727 18.7481 68.76 18.9964 66.7232C19.1129 65.8844 18.5744 65.05 18.6492 64.1827C18.7173 63.517 18.8404 62.8731 18.8206 62.1985C18.814 60.902 18.3657 59.8464 18.7129 58.5389C18.9349 57.6892 19.2271 56.5963 19.8864 55.9765C20.5172 55.7203 21.1677 55.4553 21.8269 55.2735C22.8642 55.2341 23.9081 55.3611 24.9498 55.2823C26.8112 55.1246 28.6814 55.0764 30.5494 55.0764Z" fill="#202530"/>
<path d="M33.6479 56.9706C34.817 56.8108 36.3532 56.7823 37.3333 57.5422C35.8653 58.173 34.0984 57.9496 32.5798 57.6189C32.5644 57.205 33.327 57.0407 33.6479 56.9706Z" fill="#FF7D54"/>
<path d="M21.0619 57.9497C21.5409 59.5638 22.5387 61.2721 22.5035 62.9606C22.1541 62.6584 21.82 62.343 21.5344 61.9773C20.6949 61.0596 20.53 59.5704 20.519 58.379C20.6971 58.2322 20.8773 58.0899 21.0619 57.9497Z" fill="#FF7D54"/>
<path d="M22.0928 58.2651C22.4202 58.2761 22.7455 58.2848 23.0729 58.2958C23.7278 60.0062 24.3014 61.7342 24.5717 63.552C23.9564 63.3067 22.9235 63.2541 22.8246 62.4438C22.4532 61.0772 22.1983 59.6756 22.0928 58.2651Z" fill="#FF7D54"/>
<path d="M24.0047 58.5697C24.2574 58.5478 24.5101 58.5347 24.7629 58.5347C25.51 60.1444 25.6815 61.7782 26.066 63.4821C25.8331 63.6419 25.6001 63.8018 25.3672 63.9639C24.4969 62.7572 24.4046 61.4409 24.1431 60.0305C24.064 59.5421 23.9959 59.0669 24.0047 58.5697Z" fill="#FF7D54"/>
<path d="M25.7497 58.5149C26.8815 58.3944 27.9078 58.8543 29.022 58.7842C29.9758 58.758 30.9142 58.8499 31.8547 58.9967C31.9822 59.8705 32.1207 60.7444 32.2371 61.6204C32.3712 61.6686 32.5074 61.7189 32.6415 61.7693C32.4415 60.9042 32.3536 60.0326 32.2987 59.1478C32.7206 58.9726 33.1711 58.7142 33.6304 58.6725C34.4897 58.6506 35.3929 58.9332 36.2522 58.977C36.8324 58.9923 37.4236 58.9047 38.0015 58.8521C37.8411 60.0435 37.729 61.2459 37.5356 62.4307C37.5466 62.6979 37.1005 62.7592 36.9071 62.8271C35.2721 63.1622 33.5184 63.241 31.8547 63.333C30.89 63.3571 30.1582 63.7951 29.2374 64.0996C30.0747 64.1565 30.9098 64.231 31.7471 64.2594C31.9097 64.9033 32.0459 65.5494 32.1514 66.202C29.6307 66.0597 27.0837 66.2064 24.5586 66.132C24.3828 65.2953 24.3212 64.5266 24.4443 63.6747C25.4618 64.1346 25.7871 65.0172 26.4639 65.8144C26.6925 64.5376 26.4442 63.4053 26.1409 62.1701C25.9849 60.9875 25.5277 59.6887 25.7497 58.5149Z" fill="#FF7D54"/>
<path d="M28.2331 63.8628C28.4199 63.8058 28.6089 63.7555 28.7979 63.7095C29.0374 64.487 28.9187 65.2097 28.7187 65.9806C28.4814 65.317 28.2177 64.5724 28.2331 63.8628Z" fill="#202530"/>
<path d="M38.6412 64.0469C38.5005 64.6973 38.428 65.3543 38.3511 66.0135C38.0544 65.9238 37.7555 65.8361 37.4589 65.7485C37.4655 65.2996 37.4764 64.8506 37.4852 64.4016C37.2743 64.4476 37.0655 64.4958 36.8567 64.5418C36.8259 65.0652 36.8018 65.5887 36.7732 66.1121C35.481 66.1515 34.191 66.1252 32.9032 66.2128C32.7603 65.5361 32.6306 64.8594 32.4702 64.187C33.2262 64.1366 33.9822 64.0972 34.7382 64.0556C34.9382 64.6907 35.1601 65.3171 35.4436 65.9216C35.6062 65.2689 35.6898 64.6688 35.5733 64.0009C36.7227 63.8585 37.5687 63.2957 38.6412 64.0469Z" fill="#FF7D54"/>
<path d="M21.8291 63.8105C21.8401 64.3515 21.7808 64.8355 21.583 65.3436C21.5149 65.0304 21.1523 64.5552 21.2995 64.2486C21.4577 64.0843 21.6357 63.9398 21.8291 63.8105Z" fill="#FF7D54"/>
<path d="M22.6445 64.1562C23.2599 64.7848 23.7346 65.5163 24.3719 66.1251C24.0225 66.1229 23.6708 66.1295 23.3214 66.1339C23.0819 65.4769 22.8181 64.833 22.6445 64.1562Z" fill="#FF7D54"/>
<path d="M38.6412 64.0469L38.817 64.382C39.173 64.8769 38.7225 65.4595 38.562 65.9588C38.4917 65.9763 38.4214 65.996 38.3511 66.0136C38.428 65.3544 38.5005 64.6973 38.6412 64.0469Z" fill="white"/>
<path d="M22.0577 65.9875C22.2533 65.7378 22.6379 65.8276 22.8247 66.04C22.6181 66.0992 22.4291 66.2043 22.2555 66.3554C22.0709 66.2809 22.0072 66.1583 22.0577 65.9875Z" fill="#FF7D54"/>
<path d="M22.8246 66.04L23.0026 66.3182C22.7652 66.4912 22.5169 66.5021 22.2554 66.3554C22.429 66.2043 22.618 66.0992 22.8246 66.04Z" fill="white"/>
<path d="M27.5433 77.8533C28.5476 77.7154 29.5453 77.8906 30.5475 77.8205C32.0089 77.5577 33.567 77.6847 34.9999 78.0504C35.0328 78.2322 35.0658 78.414 35.0988 78.5958C33.5121 78.5279 31.9144 78.495 30.3255 78.4753C28.9388 78.6768 27.5455 78.6199 26.1698 78.8827C25.4885 79.0009 24.6468 79.0009 24.082 79.4236C23.5919 79.7193 23.1238 80.0347 22.6667 80.3807C23.0491 80.8318 23.4095 81.248 23.9897 81.4363C25.1479 81.7999 26.1851 82.2247 27.4158 82.0605C29.3541 81.859 31.1738 82.251 33.0484 82.6781C32.2155 82.827 31.3892 82.9015 30.5453 82.7854C29.2684 82.6255 27.9828 82.8007 26.7082 82.9124C25.7808 83.0132 24.7721 82.6693 23.8732 82.4503C23.0052 82.2532 22.436 81.721 21.7305 81.2239C21.0558 82.0999 20.313 82.9037 19.7482 83.8607C17.9769 86.8086 16.6166 89.9798 15.709 93.2956C15.7485 92.4809 15.8211 91.6399 16.0518 90.8559C16.6144 89.1804 17.2276 87.4503 18.0561 85.8866C18.7 84.6623 19.1615 83.4359 20.0252 82.3583C20.6119 81.6685 20.9548 80.8362 21.5283 80.1398C22.0382 79.4236 22.9436 79.0141 23.704 78.5892C24.9698 77.9366 26.1785 78.0614 27.5433 77.8533Z" fill="#202530"/>
<path d="M66.6214 78.3613C64.9512 78.5475 63.2854 78.5781 61.6372 78.9592C60.5032 79.2483 59.4417 79.1125 58.3846 79.5396C57.2045 79.9732 56.0639 80.4397 54.8135 80.6478C55.264 80.2952 55.7233 79.9667 56.2551 79.7389C58.2836 78.8585 60.501 78.3153 62.7184 78.2825C64.1073 78.2759 65.2743 77.8576 66.6214 78.3613Z" fill="#202530"/>
<path d="M35.8612 78.4053C37.338 78.7294 37.782 80.0018 38.5885 81.1188C39.3753 82.5511 40.006 84.082 40.7356 85.5449C41.263 86.3969 41.6498 87.2992 41.997 88.2366C41.3268 87.0736 40.6411 85.9304 40.0521 84.7215C39.3687 83.7009 38.7753 82.6321 38.1248 81.5897C37.8391 81.0903 37.371 81.0356 36.8743 80.856C36.8678 80.5844 36.87 80.3019 36.8238 80.0369C36.448 79.4302 35.8107 79.2047 35.8612 78.4053Z" fill="#202530"/>
<path d="M73.6497 79.6665C73.8233 81.0046 73.8233 82.5881 73.1838 83.8145C72.9618 82.4545 73.3266 80.9893 73.6497 79.6665Z" fill="#202530"/>
<path d="M101.619 83.5933C101.733 84.8022 101.839 86.0024 101.9 87.2157C102.153 88.591 102.019 89.9357 102.061 91.3264C102.1 92.877 101.955 94.4736 102.142 96.011C102.32 97.0754 102.269 98.1507 102.461 99.2129C102.564 101.62 102.45 104.044 102.504 106.453C102.584 107.511 102.274 108.499 102.245 109.552C102.296 108.289 102.305 107.029 102.232 105.766C102.08 103.3 102.307 100.825 102.133 98.3457C102.047 97.0951 101.845 95.8687 101.779 94.6116C101.647 91.8783 101.905 89.0728 101.621 86.3506C101.518 85.4307 101.56 84.5153 101.619 83.5933Z" fill="white"/>
<path d="M39.0146 93.4027C40.3903 94.489 41.7484 95.8753 42.4627 97.496C41.7199 96.6528 41.1485 95.7154 40.3617 94.9051C37.7553 92.2244 34.0941 90.5863 30.3273 90.6563C26.721 90.5906 23.1938 92.0843 20.6203 94.5766C18.4425 96.7294 16.9722 99.5634 16.5679 102.603C16.2976 104.986 16.5195 107.397 17.4469 109.627C17.8645 110.665 18.4908 111.583 18.9259 112.612C16.302 109.347 15.6405 104.552 16.7766 100.586C17.7524 97.1039 20.1852 94.0356 23.3454 92.2617C28.1956 89.454 34.6325 89.8964 39.0146 93.4027Z" fill="#FF7D54"/>
<path d="M30.8924 91.6729C31.1231 91.6159 31.3561 91.5677 31.5912 91.5283C31.6198 91.9269 31.6418 92.3255 31.6637 92.7241C31.3495 92.6518 31.0374 92.5839 30.7231 92.516C30.7715 92.2357 30.8176 91.9488 30.8924 91.6729Z" fill="#FF7D54"/>
<path fill-rule="evenodd" clip-rule="evenodd" d="M30.4068 92.5005C30.8485 92.2026 30.2332 91.2039 29.7607 91.6157C29.4662 91.804 29.4376 92.0493 29.4618 92.3713C29.7277 92.7239 30.0749 92.8838 30.4068 92.5005ZM29.9343 91.8325C30.2969 91.769 30.4155 92.2617 30.0793 92.391C29.7101 92.4523 29.6024 91.9683 29.9343 91.8325Z" fill="#FF7D54"/>
<path d="M32.1516 91.872C32.4 91.78 32.6527 91.6968 32.9098 91.6245C32.6879 91.9048 32.4615 92.183 32.2351 92.4611C32.5054 92.5159 32.7736 92.5728 33.0417 92.6363C32.7142 92.7327 32.3868 92.8247 32.0571 92.9123C32.0791 92.5684 32.0945 92.2115 32.1516 91.872Z" fill="#FF7D54"/>
<path d="M27.1825 91.9443C27.2682 92.3276 27.3561 92.7087 27.4616 93.0876C27.2792 93.1292 27.0968 93.1708 26.9144 93.2102C26.8199 92.8707 26.7232 92.5335 26.6309 92.1962C26.8155 92.1152 27.0001 92.0319 27.1825 91.9443Z" fill="#FF7D54"/>
<path d="M33.7972 91.894C33.8456 92.2707 33.8874 92.6474 33.9313 93.0241C33.6346 92.9891 33.3401 92.9562 33.0435 92.9234C33.2896 92.5752 33.5423 92.2335 33.7972 91.894Z" fill="#FF7D54"/>
<path fill-rule="evenodd" clip-rule="evenodd" d="M28.378 91.6816C28.1627 91.7342 27.9517 91.7933 27.7407 91.859C27.7486 92.2086 27.7959 92.5653 27.8422 92.9147L27.8572 93.0285C28.1363 92.9519 28.4154 92.873 28.6945 92.7898C28.556 92.4285 28.4659 92.0562 28.378 91.6816ZM28.3055 92.2511L28.1231 92.2576L28.0418 92.4197L28.1385 92.573L28.3187 92.5665L28.4 92.4044L28.3055 92.2511Z" fill="#FF7D54"/>
<path d="M34.5955 92.229C34.7735 92.3801 34.9493 92.5356 35.0922 92.7196C35.1735 92.9758 35.079 93.2868 35.0658 93.5518C34.7823 93.4248 34.501 93.2978 34.2197 93.1686C34.3406 92.8532 34.4571 92.54 34.5955 92.229Z" fill="#FF7D54"/>
<path d="M25.7521 92.7457C26.0048 92.6186 26.4157 93.2757 26.2465 93.4772C25.9454 93.6546 25.5982 92.9712 25.7521 92.7457Z" fill="#FF7D54"/>
<path d="M35.6854 92.7852C36.0787 92.7852 35.6282 93.8868 35.3162 93.6831C35.1623 93.4203 35.4304 92.9078 35.6854 92.7852Z" fill="#FF7D54"/>
<path d="M24.5762 92.8945C24.963 93.1727 25.3409 93.4596 25.7277 93.7333C25.508 93.8165 25.2882 93.8998 25.0684 93.983C24.9014 93.6216 24.7344 93.2603 24.5762 92.8945Z" fill="#FF7D54"/>
<path d="M36.3863 93.0176C36.5929 93.1161 36.7995 93.2213 37.0017 93.333C36.7753 93.3789 36.5468 93.4184 36.3182 93.4512C36.3072 93.7491 36.2962 94.0469 36.2764 94.3426C36.1248 94.1323 35.9732 93.9243 35.8413 93.6987C35.9929 93.449 36.1841 93.23 36.3863 93.0176Z" fill="#FF7D54"/>
<path d="M24.2091 93.3961C24.497 93.2516 24.8574 93.8889 24.697 94.1123C24.4091 94.2503 24.0333 93.6173 24.2091 93.3961Z" fill="#FF7D54"/>
<path d="M23.7213 93.5234C23.9059 93.7468 24.0839 93.9746 24.2641 94.2002C24.029 94.4279 23.7938 94.6535 23.5587 94.8813C23.3675 94.6272 23.1785 94.3754 22.9873 94.1213C23.2312 93.922 23.473 93.7184 23.7213 93.5234Z" fill="#FF7D54"/>
<path d="M38.1266 93.9087C38.2738 94.1803 38.4189 94.4518 38.5617 94.7256C38.2936 94.6161 38.0255 94.5044 37.7574 94.3949C37.6783 94.673 37.597 94.9512 37.5113 95.2293C37.4541 94.9687 37.3992 94.7103 37.3794 94.4431C37.6079 94.246 37.8761 94.0795 38.1266 93.9087Z" fill="#FF7D54"/>
<path fill-rule="evenodd" clip-rule="evenodd" d="M36.2523 95.4964C34.103 94.086 31.4153 93.4508 28.8661 93.821C26.6398 94.1188 24.5609 95.1219 22.9258 96.6527C20.0491 99.3553 18.8404 103.567 19.9458 107.364C20.8578 110.702 23.4818 113.47 26.7585 114.6C30.4 115.915 34.6261 115.074 37.4962 112.487C40.441 109.896 41.7706 105.726 40.8014 101.922C40.1795 99.2984 38.5071 96.9725 36.2523 95.4964ZM34.8612 95.1328C32.8701 94.1604 30.6176 93.9173 28.4397 94.2743C24.5257 94.9685 21.2205 98.0281 20.2535 101.874C19.7261 104.051 19.8469 106.464 20.7633 108.527C22.0819 111.659 25.0663 114.084 28.4353 114.657C30.3978 114.971 32.4042 114.837 34.2481 114.062C38.0148 112.553 40.7069 108.764 40.7069 104.69C40.863 100.667 38.4609 96.8871 34.8612 95.1328Z" fill="#FF7D54"/>
<path d="M21.9898 94.7168C22.3129 94.9468 22.6095 95.2183 22.9106 95.4746C22.7348 95.5928 22.559 95.7133 22.3832 95.8315C22.1349 95.5665 21.8843 95.3015 21.647 95.0278C21.7569 94.9205 21.8711 94.8175 21.9898 94.7168Z" fill="#FF7D54"/>
<path d="M39.3489 94.9663C39.1994 95.3605 39.0434 95.7526 38.8873 96.1424C38.6566 95.9147 38.4236 95.6891 38.1885 95.4613C38.5731 95.2905 38.9599 95.124 39.3489 94.9663Z" fill="#FF7D54"/>
<path fill-rule="evenodd" clip-rule="evenodd" d="M28.0793 94.9316C28.9966 94.9272 29.9128 94.9287 30.8288 94.9302C31.2866 94.9309 31.7444 94.9316 32.2021 94.9316C32.2375 95.6321 32.3319 96.3287 32.4262 97.0247C32.5312 97.7995 32.6361 98.5735 32.6592 99.3512C32.4829 99.6231 32.2171 99.6314 31.9344 99.6403H31.9337C31.8432 99.6432 31.7509 99.6461 31.6593 99.6578C30.7728 99.6757 29.8852 99.6622 28.9981 99.6487H28.9973C28.836 99.6462 28.6747 99.6437 28.5134 99.6415C28.368 99.6394 28.2225 99.6375 28.0771 99.6359C28.0972 99.3453 28.1275 99.0536 28.1577 98.7619C28.2299 98.0646 28.302 97.3682 28.2354 96.6903C28.2305 96.6333 28.2254 96.5763 28.2203 96.5193C28.2159 96.4704 28.2114 96.4215 28.2069 96.3726C28.2 96.2976 28.193 96.2226 28.1859 96.1476L28.1746 96.0287L28.1746 96.0281C28.14 95.6628 28.1054 95.2976 28.0793 94.9316ZM28.3782 95.3521C28.7518 95.2602 28.7474 95.8756 28.3782 95.7902C28.2178 95.6456 28.2178 95.4989 28.3782 95.3521ZM30.496 95.2449C29.9623 95.2392 29.4037 95.2332 28.8859 95.3237C28.7239 96.0463 28.654 96.793 28.5847 97.5321L28.5691 97.6985L28.5587 97.8078L28.5497 97.9014C29.3716 97.9233 30.1891 97.9233 31.011 97.8992C30.9559 97.245 30.8769 96.5943 30.7978 95.9428C30.7696 95.7111 30.7414 95.4792 30.7143 95.247L30.6064 95.2461L30.496 95.2449ZM31.0395 95.1638C31.2197 95.407 31.3802 95.6238 31.4109 95.937C31.5531 96.7765 31.6092 97.6406 31.6644 98.4897L31.6644 98.4901L31.6703 98.5804C30.5693 98.6351 29.4836 98.6811 28.3914 98.4928C29.0774 98.1909 29.7264 98.1906 30.4169 98.1904C30.693 98.1903 30.9758 98.1902 31.2703 98.1708C31.2524 97.7168 31.2054 97.2646 31.1584 96.8125C31.1014 96.2636 31.0444 95.7151 31.0395 95.1638ZM32.2928 98.5239C32.2063 97.3901 32.1152 96.1961 31.6966 95.1704C31.656 95.8324 31.7402 96.4754 31.8244 97.1188C31.8858 97.5887 31.9474 98.0587 31.9604 98.5365C31.9911 98.8278 31.6417 98.9154 31.4109 98.9132C31.0661 98.9295 30.7236 98.9302 30.3822 98.931C29.6639 98.9326 28.9504 98.9342 28.231 99.0797C29.1689 99.4076 30.2556 99.3563 31.3013 99.307C31.6595 99.2902 32.0128 99.2735 32.3537 99.2724C32.3313 99.0276 32.3122 98.7773 32.2928 98.5239Z" fill="#FF7D54"/>
<path d="M21.5018 95.5054C21.7304 95.6521 21.9502 95.8032 22.1721 95.9543C21.9721 96.1865 21.7721 96.4164 21.5722 96.6486C21.3041 96.3902 21.0337 96.1295 20.7656 95.8689C21.0118 95.7441 21.2535 95.6214 21.5018 95.5054Z" fill="#FF7D54"/>
<path d="M39.9335 95.6982C40.0939 95.8756 40.2499 96.0552 40.406 96.237C40.0126 96.3881 39.6214 96.5436 39.228 96.6969C39.4588 96.3618 39.6895 96.0224 39.9335 95.6982Z" fill="#FF7D54"/>
<path d="M20.5369 96.4076C20.7654 96.2477 21.3742 96.7054 21.2335 96.9682C21.005 97.1369 20.4006 96.666 20.5369 96.4076Z" fill="#FF7D54"/>
<path d="M74.0779 96.3311C74.6383 96.526 75.1724 96.8654 75.702 97.1392C78.2974 98.4532 81.073 99.119 83.719 100.28C84.5629 100.639 85.4156 100.665 86.2111 101.108C87.5033 101.813 88.8351 102.119 90.2086 102.577C91.5755 103.074 93.0304 103.158 94.3907 103.694C95.4478 104.13 96.4169 103.913 97.5333 104.084C97.5267 105.786 96.6191 107.492 96.2851 109.185C96.0126 110.483 95.5291 111.548 94.7665 112.627C93.5183 112.216 92.3601 111.657 91.0481 111.456C89.8658 111.267 88.9208 110.562 87.7538 110.31C86.165 109.936 84.664 109.301 83.1168 108.764C81.9323 108.184 80.7632 107.61 79.5303 107.133C78.082 106.587 77.1107 105.398 75.6646 104.815C74.1856 104.215 72.6978 103.626 71.5353 102.476C71.3748 101.677 71.8561 100.904 72.1814 100.197C72.9088 98.8694 73.1857 97.5663 74.0779 96.3311Z" fill="white"/>
<path d="M40.5133 96.6531C40.8144 96.6334 40.8627 96.7867 41.0122 97.0035C40.7814 97.2838 40.5199 97.5466 40.265 97.8028C40.0738 97.6123 39.8826 97.4218 39.6914 97.2334C39.9595 97.0363 40.2254 96.8239 40.5133 96.6531Z" fill="#FF7D54"/>
<path d="M20.139 96.7886C20.5148 97.1061 20.6247 97.5201 20.8115 97.9581C20.4159 97.7325 20.0335 97.4894 19.6533 97.2375C19.8137 97.0864 19.9742 96.9353 20.139 96.7886Z" fill="#FF7D54"/>
<path d="M19.1544 98.6041C19.5456 98.3435 19.7983 98.9501 19.3368 99.0421C19.0863 98.972 19.0248 98.8253 19.1544 98.6041Z" fill="#FF7D54"/>
<path d="M41.1221 98.6417C41.465 98.427 41.6672 98.957 41.2694 99.0249C41.0562 98.9592 41.0079 98.8322 41.1221 98.6417Z" fill="#FF7D54"/>
<path d="M43.0893 98.7007C43.8123 99.9052 44.1442 101.386 44.32 102.765C44.4958 104.463 44.4409 106.167 44.0189 107.825C43.1662 111.364 40.8521 114.548 37.7227 116.432C33.1494 119.281 27.0026 119.204 22.5348 116.173C21.2228 115.286 19.8383 114.165 19.0669 112.761C19.7745 113.403 20.3657 114.145 21.0821 114.778C23.1897 116.631 25.8268 117.864 28.6244 118.199C30.8506 118.418 33.0922 118.232 35.191 117.426C38.505 116.182 41.2411 113.714 42.7948 110.538C44.1442 107.86 44.4914 104.789 43.9596 101.852C43.7618 100.77 43.331 99.7694 43.0893 98.7007Z" fill="#FF7D54"/>
<path d="M73.8823 99.7389C74.0384 99.7477 74.1966 99.7586 74.3526 99.7761C74.702 100.7 74.9724 101.646 75.2712 102.588C76.3547 101.809 76.8447 100.738 77.3612 99.5571C77.3942 100.753 76.8755 101.714 76.1745 102.639C75.858 103.048 75.3064 103.239 74.8515 103.466C74.6823 102.174 74.1109 101.007 73.8823 99.7389Z" fill="#202530"/>
<path d="M80.2645 100.058C80.7194 99.8 81.3105 100.293 81.2446 100.781C81.2512 101.541 81.2073 102.334 81.1391 103.092C80.7677 103.716 80.4249 104.309 80.2491 105.026C80.1106 105.05 79.9744 105.076 79.8381 105.1C79.9942 104.496 80.1304 103.893 80.2315 103.276C79.5195 103.267 78.7459 103.168 78.0493 103.333C77.8603 103.657 77.7086 104.012 77.5592 104.355C77.3482 104.364 77.1372 104.371 76.9263 104.379C77.3636 103.309 77.8449 102.259 78.2097 101.158C78.9393 100.864 79.5612 100.396 80.2645 100.058Z" fill="#202530"/>
<path d="M18.0471 100.407C18.3987 100.363 18.7592 100.361 19.1152 100.35C19.1174 100.619 19.124 100.886 19.1328 101.153C18.7526 101.075 18.3746 100.998 17.9966 100.906C18.0076 100.737 18.0252 100.571 18.0471 100.407Z" fill="#FF7D54"/>
<path d="M41.5024 100.212C41.909 100.243 42.3156 100.275 42.7221 100.313C42.4276 100.565 42.131 100.81 41.8321 101.055C41.7222 100.775 41.6123 100.492 41.5024 100.212Z" fill="#FF7D54"/>
<path d="M32.5755 101.175C32.3909 101.471 32.2041 101.765 32.0195 102.058C31.9272 101.743 31.8349 101.427 31.7426 101.11C31.3844 101.23 30.8767 101.186 30.7031 101.57C30.3932 102.17 30.5229 103.074 31.1207 103.462C31.6085 103.563 32.2019 103.181 32.659 103.033C32.4085 103.357 32.1689 103.819 31.7997 104.012C31.024 104.25 30.1273 104.036 29.7757 103.247C29.334 102.404 29.6812 101.331 30.5734 100.965C31.2965 100.645 31.8832 100.954 32.5755 101.175Z" fill="#FF7D54"/>
<path d="M35.6677 101.147C35.5863 101.379 35.505 101.611 35.4215 101.841C35.1292 101.596 34.8238 101.311 34.4831 101.136C33.5359 101.217 33.4656 102.853 34.1271 103.326C34.5732 103.709 35.3138 103.203 35.7951 103.09C35.494 103.464 35.2347 104.029 34.7007 104.073C34.0018 104.202 33.3469 103.959 32.9799 103.341C32.4085 102.474 32.8766 101.274 33.8326 100.93C34.4853 100.667 35.0413 100.961 35.6677 101.147Z" fill="#FF7D54"/>
<path d="M80.6246 100.761C80.8818 101.506 80.6906 102.126 80.4774 102.846C79.8115 102.715 79.1412 102.572 78.4907 102.382C79.0885 101.791 79.6599 100.652 80.6246 100.761Z" fill="white"/>
<path d="M17.8649 101.342C18.0451 101.175 18.9615 101.348 18.8362 101.672C18.656 101.843 17.7418 101.67 17.8649 101.342Z" fill="#FF7D54"/>
<path fill-rule="evenodd" clip-rule="evenodd" d="M25.3284 100.863C25.2144 100.867 25.1012 100.871 24.9893 100.873C25.209 102.012 25.2398 102.936 24.9233 104.058C25.3387 104.058 25.754 104.053 26.1672 104.047C26.1035 103.602 26.0419 103.157 25.9826 102.713C26.0809 102.831 26.1772 102.954 26.2739 103.078C26.53 103.404 26.7896 103.735 27.099 104.001C27.6999 104.114 28.3361 104.087 28.9564 104.061C29.1255 104.054 29.2935 104.046 29.4593 104.042C29.2285 102.908 29.2307 102.012 29.4373 100.875C29.0351 100.873 28.633 100.873 28.233 100.875C28.4857 101.929 28.5714 102.829 28.2308 103.88C28.0631 103.744 27.8966 103.606 27.7301 103.468C27.4906 103.269 27.2513 103.071 27.0089 102.877C27.0752 102.787 27.1722 102.686 27.2759 102.578C27.6018 102.239 27.9935 101.831 27.7034 101.469C27.5737 101.171 27.3232 100.991 27.0067 100.93C26.4663 100.826 25.888 100.845 25.3284 100.863ZM26.8573 102.058C26.7772 101.583 26.736 101.339 26.1936 101.116C26.0643 101.569 25.9857 102.027 25.9061 102.49L25.9013 102.518C26.2287 102.417 26.5562 102.314 26.8836 102.211C26.8741 102.158 26.8655 102.107 26.8573 102.058Z" fill="#FF7D54"/>
<path fill-rule="evenodd" clip-rule="evenodd" d="M39.3928 101.797C39.0192 100.93 38.1116 100.691 37.2458 100.856C36.1403 101.044 35.5953 102.297 36.1206 103.265C36.5249 104.062 37.4128 104.198 38.2237 104.068C39.1995 103.911 39.8917 102.693 39.3928 101.797ZM38.1578 101.217C37.8479 101.156 37.5337 101.16 37.2216 101.208C36.8722 101.782 36.8524 102.459 36.9469 103.105C37.015 103.521 37.3425 103.874 37.793 103.806C38.2486 103.851 38.3832 103.444 38.5006 103.088C38.5073 103.068 38.5138 103.048 38.5204 103.028C38.6435 102.452 38.6127 101.651 38.1578 101.217Z" fill="#FF7D54"/>
<path d="M42.8496 101.092C42.6584 101.316 42.465 101.535 42.265 101.752C42.5463 101.854 42.8254 101.962 43.1023 102.078C42.5683 102.062 42.0914 101.984 41.5771 101.841C41.9793 101.528 42.3793 101.296 42.8496 101.092Z" fill="#FF7D54"/>
<path d="M18.8865 102.084C18.7964 102.306 18.7085 102.529 18.6206 102.755C18.2513 102.669 17.8843 102.582 17.5151 102.49C17.9722 102.356 18.4294 102.222 18.8865 102.084Z" fill="#FF7D54"/>
<path d="M43.0649 102.316C43.1176 102.542 43.1726 102.765 43.2341 102.989C42.8187 103.054 42.4034 103.114 41.9858 103.173C42.0188 102.978 42.0518 102.783 42.0869 102.59C42.41 102.489 42.7352 102.404 43.0649 102.316Z" fill="#FF7D54"/>
<path d="M82.761 102.242C83.3368 103.311 83.6159 104.47 84.073 105.582C84.5895 104.654 84.9367 103.664 85.3345 102.685C85.2378 103.845 84.7169 104.98 84.4774 106.125C84.2796 106.125 84.0818 106.125 83.884 106.125C83.5522 105.304 83.1698 104.513 82.6248 103.808C82.2732 104.485 81.9633 105.179 81.638 105.867C81.46 105.878 81.282 105.887 81.104 105.897C81.4688 104.59 81.9831 103.359 82.761 102.242Z" fill="#202530"/>
<path fill-rule="evenodd" clip-rule="evenodd" d="M22.653 100.878C22.2728 100.878 21.8926 100.88 21.5103 100.884C21.7366 102.036 21.7388 102.895 21.4927 104.042C21.6395 104.047 21.7878 104.052 21.937 104.058C22.5942 104.083 23.2689 104.108 23.9101 104.003C24.2028 103.968 24.4174 103.713 24.615 103.478C24.6785 103.402 24.7403 103.328 24.8023 103.265C24.7511 103.169 24.6942 103.074 24.6369 102.979C24.5199 102.784 24.4014 102.586 24.3276 102.376C24.3157 102.168 24.335 101.959 24.3544 101.75C24.3706 101.575 24.3868 101.4 24.3848 101.226C24.0777 100.995 23.649 100.911 23.2481 100.833C23.124 100.809 23.0025 100.785 22.8882 100.757C22.9529 100.86 23.0226 100.957 23.0915 101.054C23.301 101.347 23.5029 101.63 23.5343 102.006C23.3215 102.094 23.0991 102.165 22.8771 102.235C22.7481 102.276 22.6193 102.316 22.4926 102.36C22.5409 101.866 22.5915 101.371 22.653 100.878ZM23.5936 102.694C23.2207 102.614 22.8499 102.535 22.4684 102.496C22.4972 102.937 22.5701 103.363 22.6442 103.797L22.6596 103.887C22.7048 103.873 22.7504 103.859 22.796 103.845C23.0409 103.769 23.2899 103.693 23.5233 103.591C23.617 103.418 23.6726 103.223 23.7279 103.029C23.7556 102.932 23.7833 102.835 23.8156 102.742C23.7414 102.726 23.6675 102.71 23.5936 102.694Z" fill="#FF7D54"/>
<path d="M87.2462 102.717C86.8044 104.125 85.9188 105.155 85.9891 106.732C85.7781 106.751 85.5694 106.769 85.3584 106.789C85.4881 105.608 85.9693 104.461 86.4001 103.361C86.5715 102.917 86.8066 102.833 87.2462 102.717Z" fill="#202530"/>
<path d="M87.6243 103.028C87.8572 103.024 88.0858 103.046 88.3187 103.063C87.91 104.345 87.3034 105.459 87.2704 106.839C88.0132 106.826 88.6879 106.811 89.1494 106.145C89.5516 105.164 89.6879 104.106 90.1867 103.153C90.3537 103.322 90.523 103.488 90.69 103.657C90.2505 104.848 89.8285 106.024 89.6593 107.288C90.0197 107.244 90.3801 107.194 90.7405 107.141L91.1141 107.205C90.6526 107.553 90.3164 107.95 89.6922 107.921C89.2329 107.98 88.9253 107.398 88.6308 107.117C88.0088 107.395 87.5254 107.492 86.8397 107.492C86.7144 106.852 86.576 106.226 86.7804 105.586C87.0573 104.732 87.3583 103.887 87.6243 103.028Z" fill="#202530"/>
<path d="M43.1178 103.707C43.3926 103.762 43.4057 104.073 43.1266 104.13C42.8739 104.139 42.5443 104.119 42.3355 103.966C42.2871 103.72 42.9596 103.694 43.1178 103.707Z" fill="#FF7D54"/>
<path d="M92.934 103.775C93.6526 104.108 93.9515 104.585 93.9691 105.363C93.9559 106.499 94.1163 107.625 94.0943 108.757C93.4372 108.293 93.5361 107.724 93.4262 107.016C93.0351 106.999 92.6417 106.981 92.2483 106.961C91.956 107.568 91.7011 108.181 91.3495 108.76C91.3077 108.256 91.3099 107.754 91.3143 107.251L91.1143 107.205L90.7407 107.141C90.9209 107.007 91.0989 106.869 91.2704 106.727C92.2285 106.028 92.2483 104.822 92.934 103.775Z" fill="#202530"/>
<path d="M17.7635 104.178C18.0734 104.487 18.3635 104.809 18.6579 105.131C18.2162 105.118 17.7745 105.098 17.3306 105.074C17.3855 104.903 17.4426 104.732 17.502 104.564C17.5855 104.432 17.6734 104.303 17.7635 104.178Z" fill="#FF7D54"/>
<path d="M42.3421 104.728C42.5267 104.55 42.9597 104.563 43.1421 104.736C43.2629 105.063 42.2191 105.052 42.3421 104.728Z" fill="#FF7D54"/>
<path d="M24.8753 105.144C25.284 105.107 25.6994 105.104 26.1103 105.096C25.7235 106.202 25.6818 106.872 25.9609 108.019C26.4092 107.73 26.8421 107.419 27.2751 107.106C27.2421 107.457 27.2091 107.807 27.174 108.157C26.3982 108.188 25.6202 108.195 24.8423 108.195C25.0467 107.157 24.9763 106.184 24.8753 105.144Z" fill="#FF7D54"/>
<path d="M27.5034 105.14C28.266 105.078 29.044 105.116 29.8087 105.142C29.8439 105.481 29.8791 105.823 29.912 106.163C29.4571 105.869 29.0022 105.578 28.5341 105.306C28.4814 105.643 28.4286 105.979 28.3759 106.316C28.6879 106.401 28.9978 106.493 29.3055 106.585C29.0044 106.741 28.7011 106.896 28.3913 107.039C28.466 107.365 28.5451 107.691 28.622 108.02C29.0659 107.742 29.4989 107.45 29.9296 107.152C29.9076 107.492 29.8857 107.831 29.8637 108.171C29.0703 108.193 28.277 108.195 27.4814 108.195C27.666 107.155 27.6001 106.18 27.5034 105.14Z" fill="#FF7D54"/>
<path d="M30.2573 105.118C30.5408 105.105 30.8243 105.113 31.1078 105.131C31.5847 105.832 32.0132 106.463 32.7714 106.887C32.7033 106.263 32.578 105.681 32.389 105.081C32.6088 105.098 32.8264 105.113 33.0439 105.129C32.989 106.173 32.9824 107.216 32.9341 108.261C32.1627 107.575 31.4924 106.795 30.7122 106.121C30.7188 106.883 30.8177 107.523 31.0968 108.23C30.8463 108.21 30.5958 108.193 30.3474 108.177C30.4134 107.146 30.343 106.143 30.2573 105.118Z" fill="#FF7D54"/>
<path d="M39.3442 105.306C39.2343 105.54 39.1244 105.772 39.019 106.007C38.8212 105.783 38.6256 105.56 38.43 105.334C38.1817 105.372 37.9333 105.411 37.6872 105.448C38.1025 106.151 38.797 106.399 39.3574 106.938C39.5002 107.314 39.4739 107.719 39.1003 107.947C38.2542 108.468 37.4762 108.144 36.6543 107.785C36.7246 107.549 36.7949 107.312 36.8675 107.076C37.107 107.341 37.3466 107.608 37.5861 107.873C37.9026 107.805 38.2212 107.737 38.5377 107.669C38.0102 107.135 37.4015 106.694 36.8719 106.169C36.8257 105.832 36.8279 105.567 37.1378 105.358C37.7707 104.885 38.6432 105.164 39.3442 105.306Z" fill="#FF7D54"/>
<path d="M42.3353 105.24C42.6451 105.225 42.9638 105.256 43.2715 105.278C43.1704 105.53 43.0693 105.781 42.9682 106.033C42.6385 106.02 42.3089 106.005 41.9771 105.989C42.0913 105.738 42.2034 105.481 42.3353 105.24Z" fill="#FF7D54"/>
<path d="M92.9647 104.901C93.1911 105.271 93.6218 105.95 93.2834 106.36C92.9383 106.243 92.5911 106.127 92.2461 106.013C92.4878 105.643 92.7076 105.262 92.9647 104.901Z" fill="white"/>
<path fill-rule="evenodd" clip-rule="evenodd" d="M33.9556 105.11C33.759 105.114 33.5655 105.118 33.3799 105.113C33.5711 106.206 33.5667 107.102 33.3843 108.195C33.5674 108.189 33.7682 108.193 33.9772 108.198C34.6586 108.215 35.426 108.233 35.9423 107.879C36.8478 107.192 36.6654 105.764 35.6588 105.28C35.1406 105.088 34.5341 105.1 33.9556 105.11ZM35.3072 105.63C35.0764 105.472 34.8105 105.394 34.5446 105.319C34.138 106.237 34.2963 107.117 34.5051 108.057C34.5946 107.999 34.707 107.945 34.8249 107.888C35.1411 107.737 35.4969 107.566 35.5577 107.253C35.6588 106.749 35.672 106.04 35.3072 105.63Z" fill="#FF7D54"/>
<path fill-rule="evenodd" clip-rule="evenodd" d="M18.7524 106.279C18.7216 106.033 18.6886 105.786 18.6557 105.54L18.6004 105.524C18.2056 105.403 17.9439 105.323 17.5656 105.602C17.4646 105.992 17.5678 106.149 17.825 106.432C18.1392 106.403 18.4447 106.349 18.7524 106.279ZM18.0513 105.646C18.4293 105.586 18.5568 106.033 18.192 106.169C17.8118 106.243 17.6865 105.773 18.0513 105.646Z" fill="#FF7D54"/>
<path fill-rule="evenodd" clip-rule="evenodd" d="M21.8891 105.127C21.9646 105.123 22.0396 105.117 22.114 105.112C22.9968 105.05 23.8015 104.994 24.5105 105.709C24.3347 105.99 24.1567 106.27 23.9765 106.548C24.2314 106.758 24.4841 106.973 24.7347 107.187C24.6827 107.262 24.6325 107.348 24.5807 107.436C24.4068 107.733 24.215 108.06 23.8798 108.114C23.3077 108.229 22.6997 108.212 22.1041 108.195C21.9058 108.19 21.7089 108.184 21.5151 108.184C21.7305 107.148 21.6602 106.184 21.5679 105.144C21.676 105.14 21.7831 105.134 21.8891 105.127ZM22.7062 105.326C22.9612 105.403 23.2095 105.499 23.4468 105.622C23.4366 105.875 23.3957 106.123 23.3545 106.372L23.3457 106.425C23.2693 106.424 23.1931 106.423 23.1169 106.422C22.8686 106.418 22.621 106.413 22.3722 106.41L22.4025 106.302C22.4949 105.971 22.5854 105.648 22.7062 105.326ZM22.6555 106.69C22.58 106.68 22.5054 106.671 22.4337 106.66C22.4733 107.128 22.5656 107.586 22.6623 108.046C22.7265 108.015 22.7932 107.984 22.861 107.953C23.1453 107.822 23.4474 107.682 23.6622 107.47C23.6927 106.819 23.1546 106.752 22.6555 106.69Z" fill="#FF7D54"/>
<path d="M17.8425 107.016C18.2117 106.946 18.5985 106.944 18.9721 106.933C18.5656 107.161 18.1502 107.371 17.7261 107.564C17.7612 107.38 17.7986 107.198 17.8425 107.016Z" fill="#FF7D54"/>
<path d="M113.398 107.126C114.429 106.94 115.442 107.003 116.475 107.135C118.035 107.222 119.615 107.321 121.158 107.586C119.338 107.805 117.624 107.373 115.815 107.404C114.136 107.413 112.609 107.26 110.996 107.757C110.818 107.687 110.64 107.617 110.462 107.549C111.431 107.277 112.4 107.205 113.398 107.126Z" fill="#202530"/>
<path d="M41.6982 107.632C42.096 107.625 42.4938 107.63 42.8916 107.63C42.8037 107.88 42.7179 108.129 42.6344 108.379C42.3224 108.129 42.0037 107.888 41.6982 107.632Z" fill="#FF7D54"/>
<path d="M110.462 107.549C110.64 107.617 110.818 107.687 110.996 107.757C109.603 108.25 108.155 108.782 106.902 109.575C106.203 109.989 105.623 110.477 104.794 110.624C105.212 110.063 105.693 109.605 106.295 109.248C107.612 108.486 108.966 107.864 110.462 107.549Z" fill="#202530"/>
<path d="M18.9875 107.682C19.0776 107.93 19.1677 108.179 19.2578 108.427C18.9523 108.519 18.6446 108.611 18.337 108.701C18.2381 108.453 18.137 108.206 18.0381 107.958C18.3545 107.864 18.671 107.772 18.9875 107.682Z" fill="#FF7D54"/>
<path d="M122.593 107.833C123.235 107.908 123.813 108.057 124.411 108.3C123.787 108.21 123.173 108.088 122.593 107.833Z" fill="#202530"/>
<path d="M41.6124 108.436C42.1047 108.388 42.309 108.832 42.6013 109.143C42.0959 109.066 41.6124 108.948 41.1245 108.791C41.2674 108.65 41.43 108.532 41.6124 108.436Z" fill="#FF7D54"/>
<path fill-rule="evenodd" clip-rule="evenodd" d="M19.5913 109.109C19.5861 108.986 19.5813 108.872 19.5962 108.791C18.8885 108.863 18.7171 108.915 18.3193 109.513C18.4254 109.557 18.5307 109.633 18.6358 109.708C18.8922 109.892 19.1475 110.075 19.4094 109.796C19.6166 109.709 19.603 109.387 19.5913 109.109ZM18.9852 109.088C19.4182 108.999 19.5039 109.537 19.1171 109.671C18.6929 109.737 18.6116 109.237 18.9852 109.088Z" fill="#FF7D54"/>
<path d="M41.0696 109.413C41.3641 109.511 41.652 109.636 41.9399 109.754C41.8739 109.969 41.8102 110.181 41.7443 110.396C41.463 110.221 41.1795 110.046 40.9004 109.866C40.9509 109.71 41.0081 109.559 41.0696 109.413Z" fill="#FF7D54"/>
<path d="M27.7034 109.942C27.9627 109.879 28.2374 109.857 28.5033 109.826C28.5055 110.214 28.5077 110.599 28.5099 110.987C28.3451 110.847 28.1825 110.707 28.0176 110.564C27.8858 110.724 27.7583 110.884 27.6309 111.048C27.644 110.68 27.6418 110.306 27.7034 109.942Z" fill="#FF7D54"/>
<path d="M31.7271 109.623C31.9491 110.067 32.1601 110.459 32.0062 110.969C31.7931 111.002 31.5931 110.991 31.4019 110.939C31.3118 110.63 31.2612 110.317 31.2261 109.997C31.3909 109.868 31.5579 109.743 31.7271 109.623Z" fill="#FF7D54"/>
<path d="M32.4304 109.881C32.648 109.813 32.8678 109.752 33.0897 109.699C33.0941 110.142 33.0941 110.584 33.1029 111.026C32.848 111.005 32.5953 110.987 32.3403 110.972C32.3601 110.61 32.3689 110.238 32.4304 109.881Z" fill="#FF7D54"/>
<path d="M19.8227 109.89C19.9721 110.188 20.1105 110.49 20.249 110.794C20.0007 110.897 19.7501 111 19.5018 111.103C19.3304 110.853 19.159 110.606 18.9854 110.361C19.1062 110.29 19.2271 110.22 19.3502 110.15C19.5062 110.06 19.6644 109.975 19.8227 109.89Z" fill="#FF7D54"/>
<path d="M30.0264 109.955C30.2351 110.122 30.4373 110.295 30.6351 110.472C30.7494 110.28 30.8637 110.089 30.9801 109.898C30.9889 110.188 30.9977 110.474 31.0043 110.764C30.8109 110.902 30.6175 111.042 30.4219 111.18C30.2637 110.779 30.1253 110.376 30.0264 109.955Z" fill="#FF7D54"/>
<path fill-rule="evenodd" clip-rule="evenodd" d="M29.4048 109.722C29.3717 109.689 29.3392 109.655 29.308 109.623C29.119 109.752 28.9322 109.883 28.752 110.017C28.7545 110.046 28.7569 110.08 28.7594 110.118C28.7831 110.463 28.8258 111.084 29.2464 111.013C29.622 111.05 29.7092 110.831 29.814 110.567C29.8386 110.505 29.8642 110.44 29.8947 110.376C29.803 110.13 29.5948 109.917 29.4048 109.722ZM29.0794 110.201C29.4706 109.934 29.7167 110.551 29.2596 110.643C29.0135 110.573 28.9541 110.426 29.0794 110.201Z" fill="#FF7D54"/>
<path d="M40.7069 110.299C40.9442 110.619 41.1684 110.95 41.3882 111.283C40.9684 111.208 40.553 111.125 40.1377 111.04C40.3245 110.792 40.5135 110.542 40.7069 110.299Z" fill="#FF7D54"/>
<path d="M39.8035 111.287C40.3375 111.561 40.5727 111.762 40.7859 112.343C40.3507 112.253 39.92 112.148 39.4893 112.038C39.5882 111.784 39.687 111.532 39.8035 111.287Z" fill="#FF7D54"/>
<path d="M13.0913 111.559L13.7023 111.417C13.7462 112.459 13.6583 113.499 13.7023 114.542C13.7594 115.433 13.5396 116.281 13.5308 117.168C13.4979 118.131 13.599 119.106 13.5045 120.061C13.3968 118.637 13.4847 117.214 13.3001 115.79C13.2539 114.364 13.2605 112.976 13.0913 111.559Z" fill="#202530"/>
<path d="M29.8112 111.804C29.5167 111.99 29.2222 112.172 28.9278 112.358C29.2464 112.439 29.5651 112.52 29.8837 112.601C29.5189 112.691 29.1541 112.778 28.7871 112.857C28.7981 112.47 28.8113 112.082 28.8421 111.694C29.1673 111.721 29.4904 111.758 29.8112 111.804Z" fill="#FF7D54"/>
<path d="M30.5099 111.569C30.6923 111.953 30.8571 112.345 31.0285 112.734C30.6813 112.721 30.334 112.713 29.9868 112.704C30.1538 112.323 30.3253 111.944 30.5099 111.569Z" fill="#FF7D54"/>
<path d="M31.2725 111.712C31.5296 111.684 31.7889 111.66 32.0482 111.642C31.8614 112.047 31.6834 112.455 31.4834 112.855C31.4043 112.477 31.3252 112.095 31.2725 111.712Z" fill="#FF7D54"/>
<path d="M21.7722 113.039H21.9524L22.0425 113.197L21.9524 113.354H21.77L21.6821 113.197L21.7722 113.039Z" fill="#FF7D54"/>
<path d="M38.7334 113.251L38.8916 113.162L39.0499 113.251V113.431L38.8916 113.521L38.7334 113.431V113.251Z" fill="#FF7D54"/>
<path d="M94.7557 113.425C94.9755 113.372 95.1974 113.317 95.4172 113.263C94.8942 113.447 94.4107 113.797 93.8635 113.793C92.5998 113.843 91.356 113.69 90.0901 113.837C88.9188 114.003 87.7475 113.904 86.5827 114.156C85.3191 114.281 84.117 114.684 82.8555 114.813C81.5567 114.947 80.2733 115.324 79.0184 115.676C77.7043 116.165 76.4934 116.824 75.3286 117.599C75.5835 117.253 75.7769 116.918 76.1637 116.706C78.2515 115.589 80.4337 115.085 82.7149 114.537C84.9784 114.158 87.2376 113.801 89.5341 113.712C91.2483 113.366 93.0811 113.858 94.7557 113.425Z" fill="#202530"/>
<path d="M71.5596 113.58C71.8145 114.504 72.12 115.42 72.4738 116.311L72.5243 115.834C72.8364 117.478 73.2276 119.097 73.4891 120.75C73.6715 120.796 73.8517 120.84 74.0341 120.886C73.9528 121.002 73.8671 121.116 73.7814 121.23C73.6407 121.267 73.5023 121.307 73.3616 121.348C73.243 120.177 72.8122 119.047 72.5529 117.886C72.1639 116.456 71.8541 115.03 71.5596 113.58Z" fill="#202530"/>
<path d="M24.5917 114.373C24.84 114.929 24.8093 115.317 24.6994 115.895C24.3961 115.786 24.0928 115.674 23.7896 115.56C24.0555 115.164 24.3148 114.763 24.5917 114.373Z" fill="#FF7D54"/>
<path d="M36.0367 114.472C36.162 114.864 36.2938 115.254 36.4279 115.643C36.285 115.713 36.1444 115.784 36.0037 115.854C35.8499 115.565 35.6983 115.278 35.5576 114.982C35.7115 114.805 35.8719 114.638 36.0367 114.472Z" fill="#FF7D54"/>
<path d="M25.8749 115.137C25.8441 115.545 25.809 115.952 25.7738 116.359C25.4969 116.195 25.2222 116.031 24.9453 115.867C25.253 115.621 25.5628 115.376 25.8749 115.137Z" fill="#FF7D54"/>
<path fill-rule="evenodd" clip-rule="evenodd" d="M34.9007 115.201C34.7451 115.196 34.5896 115.192 34.4346 115.188C34.5357 115.558 34.6389 115.928 34.7422 116.298C34.8492 116.289 34.9562 116.281 35.0629 116.274C35.1776 116.265 35.2921 116.257 35.4059 116.247C35.4125 115.906 35.4169 115.562 35.4191 115.218C35.2467 115.212 35.0737 115.207 34.9007 115.201ZM34.8368 115.459C35.1268 115.315 35.3598 115.707 35.1444 115.919C34.8675 116.064 34.6258 115.665 34.8368 115.459Z" fill="#FF7D54"/>
<path d="M26.5455 115.547C26.7609 115.58 26.9784 115.615 27.1938 115.648C27.1301 115.983 27.0641 116.316 26.9982 116.648C26.6971 116.618 26.3939 116.594 26.0928 116.572C26.2224 116.217 26.3807 115.886 26.5455 115.547Z" fill="#FF7D54"/>
<path d="M33.6565 115.503C33.9356 115.814 34.2235 116.116 34.5048 116.423C34.1861 116.519 33.8675 116.615 33.5488 116.714C33.584 116.311 33.6192 115.908 33.6565 115.503Z" fill="#FF7D54"/>
<path d="M27.7451 115.917C27.9077 116.11 27.7934 116.653 27.5868 116.788C27.2242 116.839 27.4066 115.753 27.7451 115.917Z" fill="#FF7D54"/>
<path d="M28.7428 115.829C28.745 116.171 28.7736 116.53 28.7142 116.869C28.5582 117.007 28.3934 117.141 28.2241 117.268C28.1934 116.847 28.1692 116.434 28.1824 116.013C28.367 115.95 28.5538 115.888 28.7428 115.829Z" fill="#FF7D54"/>
<path d="M32.0898 116.024C32.3755 115.954 32.67 115.91 32.9601 115.86C33.0414 116.182 33.1205 116.504 33.2018 116.826C32.8766 116.848 32.5513 116.872 32.2261 116.898C32.1734 116.611 32.1162 116.315 32.0898 116.024Z" fill="#FF7D54"/>
<path d="M29.334 116.103C29.5691 116.064 29.8065 116.031 30.046 116.004C29.8592 116.412 29.6856 116.823 29.4878 117.224C29.4285 116.852 29.3669 116.48 29.334 116.103Z" fill="#FF7D54"/>
<path d="M30.7757 115.958C30.9625 116.324 31.1317 116.699 31.3031 117.073C30.9713 117.082 30.6395 117.093 30.3076 117.104C30.3867 116.905 30.4658 116.705 30.5428 116.506C30.6175 116.322 30.6944 116.14 30.7757 115.958Z" fill="#FF7D54"/>
<path d="M44.6188 118.797C44.8342 118.753 45.0078 118.819 45.1419 118.99C46.0583 120.326 46.3704 122.207 46.7791 123.751C47.0934 125.036 47.612 126.083 47.0494 127.406C46.366 126.226 46.1154 124.793 45.7001 123.499C45.3968 122.167 45.0606 120.897 44.3595 119.71C43.175 119.98 42.2014 120.637 41.0828 121.07C40.206 121.414 39.6082 121.975 38.6852 122.023C37.3578 122.086 36.2634 122.829 34.9382 122.888C34.0284 122.912 33.2241 123.319 32.3142 123.262C31.4572 123.216 30.6638 123.444 29.8331 123.587C28.5255 123.556 27.2355 123.709 25.9301 123.661C24.6599 123.694 23.4973 124.178 22.1985 124.062C20.981 123.959 19.7855 123.952 18.5856 124.215C18.7856 125.799 18.9372 127.404 19.0273 128.996C18.9746 130.317 18.9328 131.629 18.9196 132.951C18.6845 132.899 18.5219 132.789 18.4296 132.621C18.0933 131.891 18.1461 131.092 18.1702 130.31C18.2318 128.7 18.0626 127.15 17.8494 125.56C17.7373 124.745 17.5088 124.02 17.5615 123.192C18.3812 123.197 19.1899 123.221 20.0009 123.061C21.0513 122.857 22.0073 123.267 23.0446 123.092C24.0621 122.903 25.0972 122.949 26.1213 122.803C27.7893 122.693 29.4375 122.831 31.0902 122.496C33.0988 122.316 35.0811 121.983 37.0326 121.473C37.9886 121.234 38.861 121.213 39.7511 120.831C41.34 120.22 42.9596 119.114 44.6188 118.797Z" fill="#202530"/>
<path d="M13.3749 120.109C13.6496 120.818 13.5023 121.467 13.5023 122.205C13.4562 123.23 13.5749 124.25 13.5441 125.275C13.4562 127.2 13.5287 129.125 13.4935 131.053C13.4606 132.139 13.7199 133.188 13.7221 134.266C13.7177 135.295 13.7023 136.322 13.6825 137.349C13.676 138.164 13.8452 139.036 13.61 139.809C13.2848 138.295 13.6803 136.81 13.3507 135.301C13.3067 133.346 13.2364 131.39 13.2386 129.434C13.232 128.604 13.0145 127.888 13.2122 127.06C13.5199 125.67 13.2166 124.393 13.3573 122.945C13.4452 121.997 13.3309 121.057 13.3749 120.109Z" fill="#202530"/>
<path d="M74.034 120.886C75.7196 121.298 77.3678 121.887 79.0622 122.259C81.8686 122.457 84.6815 123.107 87.466 123.037C89.2812 123.008 91.1074 123.057 92.9183 122.919C94.1358 122.814 95.3533 122.702 96.5708 122.581C95.7664 122.835 94.9709 123.135 94.1556 123.346C92.5886 123.543 91.0217 123.646 89.4438 123.674C87.6154 123.858 85.8397 123.959 84.0201 123.637C82.185 123.344 80.3258 123.184 78.504 122.829C76.8645 122.362 75.2888 122.027 73.7812 121.23C73.867 121.116 73.9527 121.002 74.034 120.886Z" fill="#202530"/>
<path d="M98.2983 121.837C97.7489 122.159 97.1841 122.409 96.5709 122.582C95.3534 122.702 94.1359 122.814 92.9185 122.919C94.7469 122.698 96.4852 122.108 98.2983 121.837Z" fill="#202530"/>
<path d="M38.8544 124.058C39.3159 124.623 39.4104 125.037 39.4214 125.744C39.4038 126.743 39.6764 127.662 39.9379 128.613C39.6939 128.604 39.4478 128.595 39.2039 128.585C38.9885 127.862 38.8061 127.13 38.5731 126.414C38.2611 126.524 37.949 126.633 37.6369 126.74C37.6633 127.549 37.7314 128.357 37.7468 129.167C37.5271 129.163 37.3095 129.156 37.0919 129.152C37.004 127.796 36.692 126.486 36.3184 125.186C36.5139 125.124 36.7095 125.069 36.9073 125.017C37.1073 125.28 37.2809 125.578 37.4545 125.86C37.8193 125.832 38.182 125.805 38.5468 125.781C38.5731 125.186 38.6479 124.623 38.8544 124.058Z" fill="#202530"/>
<path d="M33.6328 124.743C33.435 125.446 33.0196 125.779 32.4548 126.193C32.4856 127.268 32.7054 128.287 32.6065 129.364C32.3955 129.34 32.1845 129.316 31.9713 129.294C31.8131 128.201 31.6175 127.117 31.4395 126.031C30.8352 126.2 30.233 126.366 29.6133 126.469C29.7803 126.173 29.8199 125.871 30.1495 125.713C31.2417 125.183 32.4307 124.881 33.6328 124.743Z" fill="#202530"/>
<path fill-rule="evenodd" clip-rule="evenodd" d="M43.3894 125.301C42.9821 124.607 42.5405 123.856 41.8649 123.512C41.6775 123.953 41.5714 124.412 41.4653 124.869C41.375 125.26 41.2847 125.65 41.1441 126.029C40.9238 126.5 40.957 127.061 40.9888 127.597C40.9982 127.757 41.0075 127.914 41.0101 128.065C41.4884 127.837 41.6955 127.442 41.9067 127.04C42.1098 126.653 42.3168 126.259 42.7726 125.998L42.7858 126.015C43.1694 126.525 43.5133 126.982 44.1043 127.268C44.1043 126.747 44.0714 126.348 43.7615 125.91C43.6369 125.722 43.5148 125.514 43.3894 125.301ZM42.0561 125.144C42.3572 124.925 42.766 125.295 42.5242 125.604C42.1946 125.823 41.832 125.475 42.0561 125.144Z" fill="#202530"/>
<path d="M35.182 125.065C35.872 125.608 35.7731 126.254 35.2852 126.887C34.9798 126.924 34.6655 126.911 34.3578 126.916C34.3732 127.595 34.2436 128.326 34.738 128.871C35.2633 128.771 35.7797 128.576 36.2918 128.425C35.9423 128.803 35.5863 129.257 35.1336 129.513C34.7226 129.563 34.3359 129.609 34.0128 129.296C33.4876 128.817 33.4194 127.923 33.5447 127.266C33.7535 126.315 34.5029 125.702 35.182 125.065Z" fill="#202530"/>
<path d="M25.3125 125.562C25.3982 126.272 25.3455 126.981 25.4004 127.693C25.4905 128.462 25.7564 129.228 25.9301 129.984C25.6553 129.99 25.3806 129.997 25.1037 130.003C24.8664 129.381 24.6488 128.751 24.3895 128.135C24.0533 128.865 23.717 129.539 23.0577 130.032C22.5237 129.758 22.3391 128.895 21.9633 128.431C21.9897 129.106 22.0688 129.771 22.1501 130.441C21.8381 130.514 21.526 130.586 21.2139 130.658C21.2249 129.714 21.4447 128.849 21.2952 127.908C21.2557 127.222 21.0227 126.653 21.5106 126.059C22.1545 126.872 22.6512 127.781 23.2709 128.615C23.6445 127.756 24.0049 126.856 24.5126 126.068C24.7587 125.873 25.0488 125.728 25.3125 125.562Z" fill="#202530"/>
<path fill-rule="evenodd" clip-rule="evenodd" d="M29.8081 127.99C29.3606 127.03 28.9165 126.078 28.0815 125.521C27.2461 126.288 27.1859 127.674 27.133 128.893C27.1168 129.267 27.1012 129.626 27.064 129.947C27.387 129.951 27.7101 129.953 28.0309 129.953C28.0309 129.511 28.0309 129.066 28.0397 128.624C28.3803 128.543 28.7232 128.462 29.066 128.385C29.1609 128.511 29.2456 128.639 29.3276 128.764C29.6598 129.268 29.9499 129.709 30.7076 129.649C30.349 129.15 30.0779 128.568 29.8081 127.99ZM28.5628 127.284L28.3782 127.281L28.2859 127.437L28.376 127.592L28.5584 127.594L28.6529 127.439L28.5628 127.284Z" fill="#202530"/>
<path d="M44.085 128.799C42.6302 130.165 40.9512 130.654 39.1996 131.495C38.2788 131.889 37.213 132.005 36.2482 132.279C34.6901 132.774 32.9451 132.798 31.3167 132.982C28.3455 133.052 25.427 133.348 22.4492 133.247C21.5064 133.181 20.5702 132.815 19.6494 132.603C19.6538 132.406 19.6604 132.211 19.6648 132.014C20.9021 131.727 21.8427 132.377 23.0645 132.373C25.5479 132.491 28.0576 132.338 30.5409 132.213C31.5101 132.215 32.4463 131.979 33.411 131.961C35.2812 131.937 37.1756 131.366 38.9469 130.816C39.8194 130.507 40.6479 130.266 41.4434 129.795C42.2653 129.318 43.1422 128.954 44.085 128.799Z" fill="#202530"/>
<path d="M10.4761 129.208C10.8695 130.139 10.8695 131.083 10.8936 132.075C10.7112 131.127 10.5574 130.17 10.4761 129.208Z" fill="white"/>
<path d="M29.8876 146.749C31.0897 146.964 32.2127 146.526 33.4038 146.679C35.0367 146.931 36.8036 146.773 38.4496 146.817C39.3089 146.878 40.155 147.088 41.0121 147.193C42.4471 147.358 43.8734 147.96 45.1876 148.547C44.0206 148.429 42.913 148.098 41.7681 147.875C40.7593 147.618 39.7572 147.688 38.676 147.651C37.4233 147.671 36.1992 147.412 34.951 147.476C34.3642 147.498 33.7818 147.553 33.1929 147.537C30.8436 147.478 28.4921 147.592 26.145 147.559C24.4529 147.583 22.7717 148.048 21.0817 148.181C19.8136 148.249 18.7148 148.854 17.4534 149.029C17.4446 148.783 17.438 148.538 17.4292 148.293C18.2929 148.013 19.2005 147.581 20.1059 147.5C21.8025 147.369 23.4397 146.898 25.1693 146.841C26.7736 146.808 28.2746 146.486 29.8876 146.749Z" fill="#202530"/>
<path d="M16.7988 150.54C17.8889 150.536 18.9745 150.906 20.0601 151.039C21.3172 151.309 22.5369 151.206 23.8027 151.085C22.5413 151.445 21.3392 151.786 20.014 151.534C18.9327 151.331 17.8295 151.274 16.7549 151.037C16.7659 150.871 16.7791 150.704 16.7988 150.54Z" fill="#202530"/>
</svg>
