<svg width="179" height="179" viewBox="0 0 179 179" fill="none" xmlns="http://www.w3.org/2000/svg">
<g clip-path="url(#clip0)">
<path fill-rule="evenodd" clip-rule="evenodd" d="M94.0904 1.9102L89.5 0L84.9096 1.9102L80.1447 0.490288L75.7791 2.86985L70.8919 1.95579L66.799 4.77864L61.843 4.38044L58.0675 7.61566L53.0971 7.73768L49.6805 11.3498L44.75 11.9907L41.7297 15.9402L36.8932 17.093L34.3023 21.3365L29.6128 22.9885L27.4797 27.4797L22.9885 29.6128L21.3365 34.3023L17.093 36.8932L15.9402 41.7297L11.9907 44.75L11.3498 49.6805L7.73768 53.0971L7.61566 58.0675L4.38044 61.843L4.77864 66.799L1.95579 70.8919L2.86985 75.7791L0.490288 80.1447L1.9102 84.9096L0 89.5L1.9102 94.0904L0.490288 98.8553L2.86985 103.221L1.95579 108.108L4.77864 112.201L4.38044 117.157L7.61566 120.932L7.73768 125.903L11.3498 129.32L11.9907 134.25L15.9402 137.27L17.093 142.107L21.3365 144.698L22.9885 149.387L27.4797 151.52L29.6128 156.011L34.3023 157.663L36.8932 161.907L41.7297 163.06L44.75 167.009L49.6805 167.65L53.0971 171.262L58.0675 171.384L61.843 174.62L66.799 174.221L70.8919 177.044L75.7791 176.13L80.1447 178.51L84.9096 177.09L89.5 179L94.0904 177.09L98.8553 178.51L103.221 176.13L108.108 177.044L112.201 174.221L117.157 174.62L120.932 171.384L125.903 171.262L129.32 167.65L134.25 167.009L137.27 163.06L142.107 161.907L144.698 157.663L149.387 156.011L151.52 151.52L156.011 149.387L157.663 144.698L161.907 142.107L163.06 137.27L167.009 134.25L167.65 129.32L171.262 125.903L171.384 120.932L174.62 117.157L174.221 112.201L177.044 108.108L176.13 103.221L178.51 98.8553L177.09 94.0904L179 89.5L177.09 84.9096L178.51 80.1447L176.13 75.7791L177.044 70.8919L174.221 66.799L174.62 61.843L171.384 58.0675L171.262 53.0971L167.65 49.6805L167.009 44.75L163.06 41.7297L161.907 36.8932L157.663 34.3023L156.011 29.6128L151.52 27.4797L149.387 22.9885L144.698 21.3365L142.107 17.093L137.27 15.9402L134.25 11.9907L129.32 11.3498L125.903 7.73768L120.932 7.61566L117.157 4.38044L112.201 4.77864L108.108 1.95579L103.221 2.86985L98.8553 0.490288L94.0904 1.9102ZM89.3757 176.017C137.089 176.017 175.768 137.337 175.768 89.6243C175.768 41.9111 137.089 3.23194 89.3757 3.23194C41.6625 3.23194 2.98333 41.9111 2.98333 89.6243C2.98333 137.337 41.6625 176.017 89.3757 176.017Z" fill="#202530"/>
<path fill-rule="evenodd" clip-rule="evenodd" d="M89.4999 155.879C126.16 155.879 155.879 126.16 155.879 89.4999C155.879 52.8397 126.16 23.1207 89.4999 23.1207C52.8397 23.1207 23.1207 52.8397 23.1207 89.4999C23.1207 126.16 52.8397 155.879 89.4999 155.879ZM89.4999 157.868C127.259 157.868 157.868 127.259 157.868 89.4999C157.868 51.7413 127.259 21.1318 89.4999 21.1318C51.7413 21.1318 21.1318 51.7413 21.1318 89.4999C21.1318 127.259 51.7413 157.868 89.4999 157.868Z" fill="#202530"/>
<path d="M77.4568 127.309L77.6259 127.04H75.9254L76.0944 127.309V129.586H73.9763V127.309L74.1453 127.04H72.4448L72.6139 127.309V133.733L72.4448 134.001H74.1453L73.9763 133.733V130.949H76.0944V133.733L75.9254 134.001H77.6259L77.4568 133.733V127.309Z" fill="#202530"/>
<path d="M82.9337 134.19C81.1834 134.19 79.7614 132.54 79.7614 130.511C79.7614 128.482 81.1834 126.832 82.9337 126.832C84.6839 126.832 86.1059 128.482 86.1059 130.511C86.1059 132.54 84.6839 134.19 82.9337 134.19ZM82.9337 128.174C81.9193 128.174 81.1039 129.218 81.1039 130.511C81.1039 131.804 81.9193 132.848 82.9337 132.848C83.948 132.848 84.7634 131.804 84.7634 130.511C84.7634 129.218 83.948 128.174 82.9337 128.174Z" fill="#202530"/>
<path d="M93.5326 127.04H91.8321L92.0011 127.309V131.834C92.0011 132.39 91.5536 132.838 90.9967 132.838H90.8277C90.2708 132.838 89.8233 132.39 89.8233 131.834V127.309L89.9924 127.04H88.2919L88.4609 127.309V131.834C88.4609 133.136 89.525 134.2 90.8277 134.2H90.9967C92.2995 134.2 93.3635 133.136 93.3635 131.834V127.309L93.5326 127.04Z" fill="#202530"/>
<path d="M98.2756 129.884C97.2116 129.576 96.9431 129.417 96.9431 129.079C96.9431 128.572 97.5099 128.224 98.0171 128.224C98.6635 128.224 99.1607 128.641 99.3397 129.039L100.354 128.025C99.8369 127.319 98.9618 126.832 98.0171 126.832C96.8237 126.832 95.5508 127.736 95.5508 129.079C95.5508 130.561 96.9629 130.958 97.8977 131.227C98.9717 131.525 99.2402 131.684 99.2402 132.032C99.2402 132.45 98.6933 132.788 98.0469 132.788C97.5895 132.788 96.7839 132.579 96.5652 131.834L95.521 132.878C96.0679 133.743 97.0823 134.19 98.0469 134.19C99.4988 134.19 100.632 133.246 100.632 132.032C100.632 130.551 99.2203 130.143 98.2756 129.884Z" fill="#202530"/>
<path d="M107.303 127.04H102.818L102.987 127.299V133.733L102.818 134.001H107.303V132.47L107.045 132.639H104.35V130.949H106.348L106.607 131.028V129.507L106.348 129.586H104.35V128.403H107.045L107.303 128.572V127.04Z" fill="#202530"/>
<path d="M82.8802 146.124C81.13 146.124 79.708 144.473 79.708 142.444C79.708 140.416 81.13 138.765 82.8802 138.765C84.6305 138.765 86.0525 140.416 86.0525 142.444C86.0525 144.473 84.6305 146.124 82.8802 146.124ZM82.8802 140.107C81.8659 140.107 81.0505 141.152 81.0505 142.444C81.0505 143.737 81.8659 144.781 82.8802 144.781C83.8946 144.781 84.71 143.737 84.71 142.444C84.71 141.152 83.8946 140.107 82.8802 140.107Z" fill="#202530"/>
<path d="M93.384 145.676L91.3156 139.232L91.4051 138.974H89.804L89.8935 139.232L87.8151 145.676L87.646 145.935H89.3267L89.2471 145.676L89.6648 144.373H91.5443L91.9619 145.676L91.8824 145.935H93.563L93.384 145.676ZM90.1023 143.011L90.5995 141.44L91.1067 143.011H90.1023Z" fill="#202530"/>
<path d="M94.9043 138.974V140.505L95.1728 140.326H96.7938V145.666L96.6247 145.935H98.3153L98.1462 145.666V140.326H99.7672L100.036 140.505V138.974H94.9043Z" fill="#202530"/>
<path d="M24.7803 40.0737L22.1943 43.738L22.5112 43.7547L27.7599 47.4588L27.8818 47.7518L28.8623 46.3624L28.5454 46.3457L26.2705 44.7402L27.4172 43.1152L27.637 42.9417L26.3858 42.0587L26.296 42.324L25.1492 43.9489L24.1823 43.2666L25.7305 41.0729L26.0316 40.9567L24.7803 40.0737Z" fill="#202530"/>
<path d="M32.4154 41.2914L27.4204 37.2517L27.3242 36.9437L26.2549 38.2659L26.57 38.3033L31.565 42.343L31.6674 42.6433L32.7368 41.321L32.4154 41.2914Z" fill="#202530"/>
<path d="M32.4943 31.2021L31.3383 32.4356L31.6498 32.4959L34.4652 35.1343L30.0191 33.8433L28.9175 35.0188L29.229 35.079L33.9165 39.4719L33.9968 39.7788L35.1528 38.5453L34.8413 38.485L32.0259 35.8466L36.472 37.1376L37.458 36.0854L32.5746 31.509L32.4943 31.2021Z" fill="#202530"/>
<path d="M37.7058 26.4381L34.353 29.417L34.6511 29.498L38.9246 34.3079L38.9765 34.6209L42.3293 31.642L41.3121 30.4972L41.2311 30.7953L39.2165 32.5852L38.0936 31.3214L39.5879 29.9938L39.834 29.8816L38.8235 28.7442L38.683 28.9754L37.1888 30.303L36.4028 29.4183L38.4174 27.6283L38.723 27.583L37.7058 26.4381Z" fill="#202530"/>
<path d="M51.0632 25.0178L47.5039 19.6698L47.4959 19.3527L46.1299 20.2618L46.9738 23.9886L43.8616 21.7714L42.5039 22.675L42.7934 22.8049L46.3527 28.1528L46.3607 28.47L47.7764 27.5279L47.4869 27.398L45.7348 24.7654L47.7415 26.2012L47.7718 26.3364L48.8314 25.6311L48.7267 25.5455L48.1797 23.1263L49.9373 25.7671L49.9371 26.0898L51.3527 25.1476L51.0632 25.0178Z" fill="#202530"/>
<path d="M54.0884 23.3199L50.936 17.7224L50.9602 17.4006L49.4785 18.2351L49.7576 18.3861L52.91 23.9835L52.8945 24.3004L54.3762 23.466L54.0884 23.3199Z" fill="#202530"/>
<path d="M59.2527 19.5068L56.822 20.6706L54.5202 15.863L54.5567 15.5479L53.0229 16.2822L53.2914 16.4514L56.0656 22.2456L56.0291 22.5608L60.0743 20.624L59.4129 19.2427L59.2527 19.5068Z" fill="#202530"/>
<path d="M65.2806 17.1187L62.7606 18.0739L60.8714 13.0896L60.9344 12.7787L59.3442 13.3813L59.5975 13.5725L61.8743 19.5796L61.8114 19.8906L66.0052 18.301L65.4624 16.869L65.2806 17.1187Z" fill="#202530"/>
<path d="M70.1998 9.79366L65.8877 11.0266L66.1213 11.2287L67.8901 17.4149L67.8014 17.7195L72.1135 16.4866L71.6925 15.0141L71.4904 15.2477L68.8993 15.9886L68.4345 14.3632L70.3563 13.8137L70.6268 13.8191L70.2085 12.3562L69.9818 12.5038L68.06 13.0533L67.7347 11.9155L70.3258 11.1746L70.6208 11.2661L70.1998 9.79366Z" fill="#202530"/>
<path d="M75.7512 8.66914L75.6693 8.66444L72.6406 9.2395L72.8549 9.46198L74.0552 15.7831L73.9392 16.0784L76.9678 15.5034L77.0423 15.469C77.81 15.141 79.1346 13.9077 78.7024 11.6313C78.272 9.36466 76.5875 8.70265 75.7512 8.66914ZM76.5494 14.2062L75.1914 14.464L74.3975 10.2825L75.7555 10.0247C76.0457 10.0607 77.0671 10.3222 77.3639 11.8854C77.6626 13.4584 76.8063 14.0663 76.5494 14.2062Z" fill="#202530"/>
<path d="M87.5754 14.4954C85.8268 14.5689 84.3367 12.9792 84.2516 10.9523C84.1664 8.92545 85.518 7.21645 87.2667 7.14301C89.0153 7.06957 90.5054 8.65923 90.5905 10.6861C90.6757 12.713 89.3241 14.422 87.5754 14.4954ZM87.323 8.48433C86.3095 8.52689 85.5386 9.60436 85.5929 10.896C85.6471 12.1876 86.5057 13.1967 87.5191 13.1541C88.5326 13.1115 89.3035 12.0341 89.2492 10.7424C89.195 9.4508 88.3364 8.44177 87.323 8.48433Z" fill="#202530"/>
<path d="M97.8535 14.281L96.809 11.3083C97.4164 10.9866 97.8416 10.3848 97.8845 9.68006L97.8899 9.59073C97.957 8.48893 97.0684 7.53819 95.907 7.4675L92.8994 7.28442L93.0524 7.55277L92.6615 13.9749L92.4765 14.2327L94.1738 14.336L94.0214 14.0577L94.0115 14.0571L94.1692 11.4664L95.4496 11.5444L96.4025 14.2226L96.3092 14.446L98.0363 14.5512L97.8535 14.281ZM94.3353 8.73674L95.8242 8.82737C96.2411 8.85274 96.5611 9.16114 96.54 9.50856L96.5345 9.59789C96.5128 9.95523 96.1578 10.2225 95.7409 10.1972L94.252 10.1065L94.3353 8.73674Z" fill="#202530"/>
<path d="M105.58 12.4557L104.077 12.2175L104.202 12.5092L103.963 14.0218C103.661 14.1452 103.331 14.1936 102.997 14.1407C102.084 13.9959 101.448 12.7977 101.644 11.5601C101.842 10.3128 102.766 9.37183 103.65 9.51192C104.19 9.59752 104.609 10.0667 104.82 10.7042L105.937 9.88439C105.525 8.99339 104.784 8.33227 103.86 8.18596C102.23 7.92759 100.626 9.34479 100.308 11.3485C99.9955 13.3227 101.137 15.2051 102.787 15.4666C103.632 15.6005 104.483 15.3729 105.194 14.8915L105.58 12.4557Z" fill="#202530"/>
<path d="M112.332 17.1891L111.979 10.4305L112.132 10.2034L110.584 9.79429L110.604 10.0671L106.948 15.7662L106.719 15.973L108.344 16.4024L108.333 16.1321L109.07 14.9793L110.887 15.4595L110.958 16.8257L110.815 17.0554L112.439 17.4848L112.332 17.1891ZM109.841 13.7739L110.723 12.3819L110.812 14.0306L109.841 13.7739Z" fill="#202530"/>
<path d="M121.433 13.3373L119.849 12.7465L119.913 13.0572L118.565 16.6724L118.041 12.0724L116.532 11.5095L116.596 11.8202L114.352 17.8393L114.099 18.0319L115.683 18.6226L115.619 18.3119L116.967 14.6967L117.491 19.2967L118.842 19.8005L121.181 13.5298L121.433 13.3373Z" fill="#202530"/>
<path d="M122.182 21.0123L124.835 15.1618L125.109 14.9912L123.561 14.2888L123.604 14.6032L120.95 20.4537L120.685 20.6284L122.234 21.3308L122.182 21.0123Z" fill="#202530"/>
<path d="M128.71 22.2824C128.158 22.6724 127.536 22.7751 127.056 22.5134C126.261 22.0805 126.106 20.7846 126.715 19.6668C127.319 18.5577 128.497 17.9762 129.291 18.4091C129.772 18.6707 130.018 19.2579 129.995 19.9246L131.321 19.5262C131.24 18.5533 130.755 17.6773 129.934 17.2301C128.475 16.4357 126.507 17.2431 125.536 19.0246C124.566 20.806 124.955 22.8979 126.413 23.6924C127.234 24.1395 128.229 24.0811 129.095 23.6132L128.71 22.2824Z" fill="#202530"/>
<path d="M135.468 29.5442C134.07 28.4914 133.927 26.3173 135.147 24.6967C136.367 23.0761 138.496 22.6127 139.895 23.6655C141.293 24.7183 141.436 26.8924 140.216 28.513C138.995 30.1337 136.866 30.597 135.468 29.5442ZM139.087 24.738C138.277 24.1278 136.997 24.4715 136.22 25.5042C135.442 26.537 135.465 27.8616 136.276 28.4718C137.086 29.0819 138.365 28.7383 139.143 27.7055C139.921 26.6728 139.897 25.3481 139.087 24.738Z" fill="#202530"/>
<path d="M143.762 36.0982L146.636 29.9707L146.878 29.8424L145.705 28.752L145.595 29.0023L139.684 32.3057L139.384 32.38L140.615 33.5245L140.733 33.2809L141.926 32.6114L143.302 33.8914L142.721 35.1298L142.487 35.2649L143.717 36.4094L143.762 36.0982ZM143.174 31.9117L144.608 31.0998L143.91 32.5957L143.174 31.9117Z" fill="#202530"/>
<path d="M150.076 33.0049L148.931 34.0221L149.243 34.1039L150.32 35.3156L146.328 38.8625L146.015 38.9145L147.138 40.1783L147.226 39.8736L151.218 36.3267L152.295 37.5384L152.339 37.8581L153.484 36.8409L150.076 33.0049Z" fill="#202530"/>
<path d="M154.298 42.582C153.914 41.5429 153.883 41.2324 154.155 41.0316C154.563 40.7304 155.18 40.9797 155.481 41.3878C155.865 41.9078 155.824 42.5559 155.61 42.9361L157.029 43.1498C157.29 42.3145 157.162 41.321 156.601 40.5609C155.892 39.6008 154.408 39.1142 153.328 39.9114C152.136 40.7914 152.655 42.1638 152.994 43.0753C153.392 44.1166 153.423 44.4271 153.143 44.6338C152.807 44.8818 152.21 44.6426 151.826 44.1225C151.555 43.7545 151.244 42.9824 151.714 42.3634L150.254 42.1435C149.883 43.0973 150.125 44.1792 150.698 44.9552C151.56 46.1234 152.994 46.4744 153.97 45.7539C155.162 44.8739 154.651 43.4957 154.298 42.582Z" fill="#202530"/>
<path d="M160.106 53.2027C160.106 53.7519 159.66 54.1971 159.111 54.1971C158.562 54.1971 158.117 53.7519 158.117 53.2027C158.117 52.6535 158.562 52.2083 159.111 52.2083C159.66 52.2083 160.106 52.6535 160.106 53.2027Z" fill="#202530"/>
<path d="M20.6349 53.2027C20.6349 53.7519 20.1897 54.1971 19.6404 54.1971C19.0912 54.1971 18.646 53.7519 18.646 53.2027C18.646 52.6535 19.0912 52.2083 19.6404 52.2083C20.1897 52.2083 20.6349 52.6535 20.6349 53.2027Z" fill="#202530"/>
<path d="M36.546 145.189C36.546 145.738 36.1008 146.183 35.5516 146.183C35.0024 146.183 34.5571 145.738 34.5571 145.189C34.5571 144.64 35.0024 144.194 35.5516 144.194C36.1008 144.194 36.546 144.64 36.546 145.189Z" fill="#202530"/>
<path d="M144.94 146.183C144.94 146.733 144.495 147.178 143.946 147.178C143.396 147.178 142.951 146.733 142.951 146.183C142.951 145.634 143.396 145.189 143.946 145.189C144.495 145.189 144.94 145.634 144.94 146.183Z" fill="#202530"/>
<path d="M23.0835 124.046L17.5272 127.271L17.2101 127.259L18.0336 128.678L21.8052 128.065L19.4012 131.035L20.2197 132.446L20.3671 132.165L25.9235 128.941L26.2406 128.952L25.3871 127.481L25.2397 127.762L22.5045 129.349L24.0608 127.435L24.1976 127.413L23.5587 126.312L23.4668 126.411L21.0186 126.808L23.7623 125.216L24.0844 125.236L23.2309 123.766L23.0835 124.046Z" fill="#202530"/>
<path d="M21.3328 119.309C22.0496 120.905 21.126 122.879 19.2752 123.709C17.4245 124.54 15.3361 123.919 14.6193 122.322C13.9025 120.726 14.8262 118.752 16.6769 117.921C18.5277 117.091 20.616 117.712 21.3328 119.309ZM15.8441 121.772C16.2595 122.698 17.546 123.014 18.7254 122.485C19.9048 121.955 20.5235 120.784 20.1081 119.858C19.6927 118.933 18.4061 118.617 17.2267 119.146C16.0473 119.676 15.4287 120.847 15.8441 121.772Z" fill="#202530"/>
<path d="M10.9586 111.943L11.4887 113.548L11.6906 113.304L15.3545 112.094L12.0935 115.38L12.5986 116.91L12.8006 116.665L18.9008 114.651L19.2087 114.728L18.6787 113.122L18.4767 113.367L14.8129 114.577L18.0738 111.29L17.6217 109.921L11.2666 112.019L10.9586 111.943Z" fill="#202530"/>
<path d="M10.3511 109.752L11.8428 109.405L11.6077 109.184L11.2409 107.605L16.4425 106.397L16.7423 106.501L16.3598 104.854L16.1365 105.08L10.9349 106.288L10.5681 104.709L10.6817 104.407L9.18995 104.753L10.3511 109.752Z" fill="#202530"/>
<path d="M15.4211 98.2719C15.6435 100.008 14.1868 101.628 12.1745 101.886C10.1623 102.144 8.34422 100.943 8.12184 99.2069C7.89947 97.4709 9.35618 95.8506 11.3684 95.5929C13.3806 95.3351 15.1987 96.5359 15.4211 98.2719ZM9.45346 99.0364C9.58234 100.042 10.7217 100.719 12.004 100.554C13.2863 100.39 14.2184 99.4486 14.0895 98.4425C13.9606 97.4364 12.8213 96.7602 11.539 96.9245C10.2567 97.0887 9.32459 98.0303 9.45346 99.0364Z" fill="#202530"/>
<path d="M7.69352 90.5976L7.77686 93.6096L8.04058 93.4332L14.4622 93.2555L14.7353 93.4171L14.6885 91.7272L14.4248 91.9036L11.8303 91.9754L11.7891 90.4843C11.7569 89.3212 10.8262 88.4019 9.72274 88.4324L9.63328 88.4349C8.52987 88.4655 7.66134 89.4346 7.69352 90.5976ZM9.76015 89.7844C10.118 89.7745 10.4156 90.1045 10.4272 90.522L10.4682 92.0031L9.09637 92.0411L9.05539 90.5599C9.04383 90.1424 9.32276 89.7965 9.67068 89.7868L9.76015 89.7844Z" fill="#202530"/>
<path d="M15.0249 83.4292C14.9004 85.175 13.1526 86.4761 11.1291 86.3318C9.10558 86.1875 7.56013 84.6516 7.68461 82.9058C7.8091 81.1601 9.55684 79.859 11.5804 80.0033C13.6039 80.1476 15.1493 81.6835 15.0249 83.4292ZM9.02371 83.0013C8.95157 84.0131 9.93509 84.9007 11.2246 84.9927C12.5141 85.0846 13.6136 84.3455 13.6858 83.3338C13.7579 82.322 12.7744 81.4343 11.4849 81.3424C10.1954 81.2504 9.09586 81.9896 9.02371 83.0013Z" fill="#202530"/>
<path d="M14.6844 74.0908L14.2396 76.7487L8.98246 75.8689L8.74556 75.6578L8.46484 77.335L8.75757 77.2125L15.0935 78.273L15.3305 78.4841L16.0708 74.0607L14.5604 73.8079L14.6844 74.0908Z" fill="#202530"/>
<path d="M16.5839 70.6964L10.3308 69.2241L10.1104 68.9883L9.7207 70.6436L10.0208 70.5405L16.2739 72.0128L16.4965 72.2389L16.8863 70.5837L16.5839 70.6964Z" fill="#202530"/>
<path d="M14.1999 64.9786C13.5907 65.9039 13.3593 66.1133 13.0363 66.0132C12.5518 65.8632 12.387 65.2188 12.5371 64.7343C12.7283 64.1168 13.2744 63.7654 13.7073 63.7121L13.0384 62.4431C12.211 62.7282 11.4866 63.42 11.2072 64.3224C10.8541 65.4624 11.342 66.946 12.6244 67.3432C14.0398 67.7815 14.8375 66.5503 15.3706 65.7367C15.9733 64.7991 16.2047 64.5897 16.5372 64.6926C16.9361 64.8162 17.0973 65.4387 16.9061 66.0561C16.7708 66.4931 16.333 67.2008 15.5558 67.1891L16.2443 68.4955C17.2326 68.2289 17.9601 67.3924 18.2455 66.4709C18.675 65.084 18.1079 63.7216 16.949 63.3627C15.5336 62.9244 14.7264 64.1527 14.1999 64.9786Z" fill="#202530"/>
<path d="M53.8363 158.745C54.1598 158.555 54.4359 158.284 54.6246 157.922L54.666 157.843C55.1723 156.873 54.8195 155.679 53.8763 155.187L51.452 153.921L51.4823 154.229L48.5046 159.932L48.2305 160.092L50.928 161.5C51.9682 162.043 53.2517 161.648 53.7855 160.625L53.804 160.59C54.1123 159.999 54.0975 159.319 53.8363 158.745ZM52.1749 155.824L53.2504 156.386C53.5325 156.533 53.6282 156.908 53.4671 157.217L53.4257 157.296C53.26 157.614 52.8974 157.75 52.6153 157.602L51.5398 157.041L52.1749 155.824ZM52.5962 159.959C52.3845 160.365 51.9283 160.508 51.5493 160.31L50.2005 159.606L50.9185 158.231L52.2672 158.935C52.6463 159.133 52.7895 159.589 52.5962 159.959Z" fill="#202530"/>
<path d="M60.4821 165.461L60.9846 158.712L61.1647 158.506L59.6808 157.904L59.6666 158.178L55.3207 163.37L55.0669 163.546L56.6246 164.177L56.6479 163.907L57.5242 162.857L59.2661 163.563L59.1641 164.927L58.9933 165.137L60.5509 165.768L60.4821 165.461ZM58.4413 161.758L59.4921 160.489L59.3722 162.136L58.4413 161.758Z" fill="#202530"/>
<path d="M68.1324 167.82L67.7767 164.69C68.4405 164.511 68.9891 164.019 69.188 163.342L69.2132 163.256C69.5242 162.197 68.8698 161.072 67.7534 160.744L64.8623 159.896L64.9517 160.191L63.1393 166.365L62.9014 166.575L64.5331 167.054L64.4465 166.749L64.437 166.746L65.1681 164.255L66.399 164.617L66.7309 167.44L66.5902 167.637L68.2504 168.124L68.1324 167.82ZM65.9384 161.631L67.3697 162.052C67.7704 162.169 68.0136 162.541 67.9156 162.875L67.8904 162.961C67.7895 163.304 67.3839 163.486 66.9831 163.368L65.5518 162.948L65.9384 161.631Z" fill="#202530"/>
<path d="M72.0606 168.707L73.4221 162.428L73.6539 162.204L71.992 161.844L72.1004 162.142L70.7388 168.42L70.5167 168.647L72.1786 169.007L72.0606 168.707Z" fill="#202530"/>
<path d="M77.8844 165.81C76.8747 165.354 76.6315 165.159 76.6794 164.824C76.7512 164.322 77.3616 164.058 77.8637 164.13C78.5036 164.221 78.9366 164.705 79.0574 165.124L80.2052 164.264C79.7934 163.492 78.9961 162.885 78.0609 162.751C76.8796 162.582 75.4914 163.298 75.3012 164.627C75.0913 166.094 76.4328 166.687 77.3201 167.086C78.341 167.533 78.5843 167.729 78.535 168.073C78.4758 168.487 77.8865 168.744 77.2466 168.652C76.7938 168.587 76.026 168.267 75.9151 167.497L74.7335 168.383C75.1524 169.317 76.0931 169.904 77.0479 170.04C78.4852 170.246 79.7413 169.471 79.9131 168.27C80.123 166.804 78.7829 166.2 77.8844 165.81Z" fill="#202530"/>
<path d="M82.4893 163.506L82.4142 165.035L82.6912 164.87L84.3101 164.949L84.0481 170.283L83.8661 170.543L85.5546 170.626L85.399 170.349L85.661 165.016L87.28 165.095L87.5393 165.287L87.6145 163.758L82.4893 163.506Z" fill="#202530"/>
<path d="M95.4234 170.204L93.0562 163.864L93.1335 163.601L91.5342 163.676L91.6357 163.93L89.8606 170.464L89.7038 170.73L91.3826 170.652L91.2911 170.397L91.6474 169.076L93.5249 168.989L94.0029 170.27L93.9355 170.532L95.6143 170.454L95.4234 170.204ZM92.0209 167.695L92.4441 166.102L93.0241 167.648L92.0209 167.695Z" fill="#202530"/>
<path d="M107.436 168.332L106.206 162.027L106.32 161.731L104.71 162.046L104.056 165.81L102.035 162.567L100.435 162.88L100.652 163.111L101.883 169.416L101.768 169.712L103.437 169.386L103.22 169.155L102.614 166.051L103.915 168.148L103.891 168.285L105.14 168.041L105.076 167.922L105.501 165.478L106.109 168.591L105.985 168.889L107.654 168.563L107.436 168.332Z" fill="#202530"/>
<path d="M115.528 166.035L111.678 160.468L111.689 160.195L110.156 160.66L110.317 160.881L110.199 167.651L110.112 167.948L111.72 167.46L111.569 167.235L111.591 165.868L113.389 165.322L114.167 166.447L114.166 166.718L115.774 166.23L115.528 166.035ZM111.614 164.437L111.634 162.789L112.575 164.145L111.614 164.437Z" fill="#202530"/>
<path d="M118.407 157.776L118.326 157.789L115.478 158.968L115.733 159.143L118.196 165.087L118.142 165.4L120.99 164.22L121.056 164.171C121.741 163.693 122.787 162.216 121.9 160.075C121.017 157.944 119.233 157.639 118.407 157.776ZM120.316 163.035L119.039 163.564L117.41 159.632L118.687 159.103C118.979 159.079 120.032 159.127 120.641 160.597C121.254 162.076 120.539 162.846 120.316 163.035Z" fill="#202530"/>
<path d="M126.282 153.89L122.313 155.978L122.583 156.128L125.578 161.823L125.553 162.139L129.523 160.051L128.81 158.696L128.66 158.966L126.275 160.22L125.488 158.724L127.257 157.794L127.523 157.744L126.814 156.397L126.622 156.588L124.853 157.518L124.303 156.471L126.688 155.217L126.995 155.246L126.282 153.89Z" fill="#202530"/>
<path d="M162.17 67.8466L167.636 63.8549L167.909 63.8585L167.405 62.3388L167.188 62.5051L160.417 62.5607L160.119 62.4817L160.648 64.0768L160.868 63.92L162.236 63.9063L162.828 65.6903L161.723 66.4968L161.452 66.5027L161.981 68.0979L162.17 67.8466ZM163.667 63.8928L165.315 63.8702L163.983 64.8461L163.667 63.8928Z" fill="#202530"/>
<path d="M170.425 73.581L170.053 71.9216L169.828 72.1452L165.413 73.1334C164.869 73.255 164.335 72.916 164.213 72.3726L164.176 72.2076C164.055 71.6641 164.394 71.1297 164.937 71.0081L169.353 70.0199L169.652 70.1263L169.28 68.4668L169.055 68.6904L164.64 69.6786C163.368 69.9631 162.562 71.2338 162.847 72.5051L162.884 72.6701C163.168 73.9414 164.439 74.7474 165.71 74.4629L170.126 73.4747L170.425 73.581Z" fill="#202530"/>
<path d="M168.357 78.9795C168.527 77.8847 168.65 77.598 168.985 77.5547C169.488 77.4897 169.906 78.0073 169.971 78.5103C170.054 79.1514 169.704 79.698 169.332 79.9265L170.468 80.8025C171.102 80.1992 171.473 79.2689 171.352 78.3319C171.199 77.1484 170.139 76.002 168.807 76.174C167.338 76.3638 167.124 77.8152 166.978 78.7767C166.819 79.8801 166.696 80.1668 166.351 80.2113C165.936 80.2649 165.531 79.7657 165.448 79.1247C165.39 78.671 165.494 77.8454 166.205 77.5329L165.036 76.6311C164.248 77.2844 163.934 78.3477 164.058 79.3043C164.244 80.7442 165.326 81.7475 166.529 81.5921C167.999 81.4023 168.222 79.9496 168.357 78.9795Z" fill="#202530"/>
<path d="M171.667 83.2576L170.137 83.3152L170.326 83.5768L170.387 85.1966L165.05 85.3974L164.776 85.2386L164.839 86.928L165.101 86.7489L170.437 86.548L170.498 88.1678L170.33 88.4429L171.86 88.3853L171.667 83.2576Z" fill="#202530"/>
<path d="M165.059 92.0339L171.479 92.2499L171.742 92.4378L171.799 90.7383L171.525 90.8982L165.104 90.6822L164.842 90.5043L164.784 92.2038L165.059 92.0339Z" fill="#202530"/>
<path d="M171.094 99.9668L171.27 98.2854L170.985 98.4256L167.148 98.0239L171.471 96.3666L171.639 94.7644L171.354 94.9046L164.965 94.2358L164.715 94.0397L164.539 95.7211L164.824 95.5809L168.662 95.9826L164.339 97.6398L164.188 99.0739L170.845 99.7707L171.094 99.9668Z" fill="#202530"/>
<path d="M163.126 101.532C163.41 101.865 163.938 102.594 164.301 102.658C164.712 102.73 165.097 102.495 165.169 102.084C165.24 101.682 164.964 101.3 164.553 101.228C164.171 101.161 163.832 101.131 163.3 101.058L163.126 101.532Z" fill="#202530"/>
<path d="M169.204 109.426L167.734 108.997L167.83 109.305L167.376 110.861L162.25 109.363L162.039 109.125L161.565 110.748L161.87 110.661L166.996 112.159L166.542 113.715L166.294 113.922L167.764 114.352L169.204 109.426Z" fill="#202530"/>
<path d="M165.28 120.913L166.924 116.74L166.621 116.803L160.635 114.444L160.447 114.189L158.803 118.361L160.228 118.923L160.166 118.62L161.153 116.113L162.726 116.732L161.994 118.592L161.825 118.804L163.241 119.361L163.261 119.091L163.994 117.232L165.095 117.665L164.107 120.173L163.855 120.351L165.28 120.913Z" fill="#202530"/>
<path d="M156.052 124.663L159.654 124.614L161.797 127.56L161.94 127.876L162.738 126.274L162.525 126.234L161.322 124.59L163.359 124.561L163.515 124.716L164.313 123.114L163.976 123.19L160.338 123.243L158.209 120.337L158.075 120.026L157.276 121.628L157.481 121.663L158.661 123.263L156.669 123.292L156.522 123.141L155.723 124.743L156.052 124.663Z" fill="#202530"/>
<path d="M152.036 131.275L158.594 132.951L158.765 133.164L159.616 131.808L159.35 131.747L154.998 126.559L154.869 126.279L153.975 127.702L154.237 127.772L155.118 128.819L154.118 130.41L152.793 130.071L152.616 129.866L151.722 131.289L152.036 131.275ZM156.039 129.914L157.105 131.17L155.505 130.764L156.039 129.914Z" fill="#202530"/>
<path d="M152.317 137.354C153.21 136.699 153.5 136.584 153.768 136.79C154.17 137.099 154.1 137.761 153.791 138.163C153.397 138.675 152.762 138.814 152.338 138.713L152.523 140.136C153.398 140.157 154.318 139.76 154.894 139.012C155.622 138.066 155.681 136.505 154.617 135.687C153.443 134.783 152.267 135.659 151.484 136.236C150.592 136.905 150.302 137.021 150.027 136.809C149.696 136.554 149.761 135.914 150.155 135.402C150.434 135.04 151.091 134.529 151.816 134.81L151.625 133.346C150.606 133.252 149.633 133.782 149.044 134.547C148.159 135.697 148.216 137.172 149.177 137.912C150.352 138.816 151.536 137.945 152.317 137.354Z" fill="#202530"/>
<g clip-path="url(#clip1)">
<path d="M103.381 72.7137C102.335 74.3613 101.215 75.9496 99.9328 77.4245C99.627 75.8362 99.9575 73.4882 99.0104 72.1465C97.205 70.8492 94.0677 71.2093 92.6668 73.0097C91.0883 74.7855 90.5901 77.4245 90.6789 79.7331C90.7776 82.1057 91.5619 84.577 93.5893 85.9927C95.1875 87.1815 97.5108 87.2062 99.3162 86.5304C101.427 85.7165 102.547 83.5165 103.82 81.7802C103.331 84.3748 102.922 86.7524 100.831 88.5874C98.4283 90.7874 94.931 90.8614 91.9318 90.1116C87.7341 88.9869 85.0211 84.3205 84.7744 80.2066C85.0457 76.1913 87.7834 71.8752 91.7099 70.5532C95.8189 69.246 100.091 69.8281 103.381 72.7137Z" fill="#202530"/>
<path d="M123.462 72.7136C122.431 74.3809 121.312 75.9692 120.009 77.4343C119.758 75.841 120.019 73.6065 119.186 72.2203C117.449 70.8244 114.238 71.2091 112.822 72.9405C111.027 74.8939 110.711 77.6316 110.849 80.172C110.968 82.3276 111.747 84.4585 113.478 85.8348C115.032 87.1074 117.341 87.2209 119.19 86.6437C121.208 85.9532 122.461 83.8123 123.778 82.2487C123.561 83.3585 123.364 84.5177 122.984 85.5931C122.224 87.7289 120.369 89.4505 118.224 90.1509C114.435 91.098 110.198 90.3976 107.663 87.2011C105.749 84.7594 104.19 80.9661 105.315 77.8881C106.336 74.6966 108.343 71.8997 111.545 70.6517C115.619 69.2015 120.187 69.7786 123.462 72.7136Z" fill="#202530"/>
<path fill-rule="evenodd" clip-rule="evenodd" d="M141.541 70.6221C138.921 69.7145 135.888 69.7786 133.175 70.1979C128.41 71.0365 125.465 75.6437 125.129 80.2065C125.327 83.3092 126.95 86.698 129.455 88.5971C132.104 90.5801 135.503 90.6837 138.67 90.4321C141.457 90.1855 144.066 88.903 145.689 86.5846C146.986 84.6509 148.067 82.1845 148.027 79.8316C147.554 76.0482 145.314 71.9589 141.541 70.6221ZM140.224 72.8764C138.931 71.4015 136.924 71.2289 135.098 71.5643C133.308 71.9441 132.287 73.3993 131.71 75.037C130.876 77.5773 130.94 80.4679 131.152 83.102C131.364 85.159 132.292 87.7388 134.359 88.5872C136.346 89.2877 139.124 89.1249 140.451 87.2653C142.049 85.0998 142.142 82.2832 142.128 79.6984C142.093 77.3504 141.827 74.7311 140.224 72.8764Z" fill="#202530"/>
<path fill-rule="evenodd" clip-rule="evenodd" d="M81.7204 70.1066C79.7795 70.0732 77.8346 70.0399 75.91 70.193C76.1245 70.9974 76.3851 71.7791 76.6449 72.558C77.1497 74.0719 77.6511 75.5758 77.8042 77.2173C78.3616 81.4052 77.819 85.9581 75.8163 89.7169C74.6598 88.6726 73.6011 87.5408 72.5416 86.4082C71.9697 85.7968 71.3975 85.1852 70.8095 84.5868C69.7026 83.4626 68.3645 82.9221 66.9579 82.3539C66.7599 82.2739 66.5605 82.1934 66.3602 82.1106C66.6235 82.0259 66.8911 81.9439 67.1606 81.8613C68.8849 81.3326 70.6831 80.7814 71.8947 79.3778C72.6938 78.4159 73.4485 77.0644 73.4042 75.7868C72.9898 73.6558 71.4606 71.5594 69.3692 70.8195C67.4977 70.1403 65.3842 70.1194 63.4123 70.0999L63.3561 70.0993C63.2153 70.0995 63.0745 70.0998 62.9337 70.1C60.2579 70.1045 57.5823 70.1089 54.9112 70.198C56.6032 74.598 57.7772 79.8464 56.6969 84.5128C56.3692 86.1977 55.7909 87.7789 55.206 89.3781C55.1042 89.6564 55.0022 89.9351 54.9014 90.2151C57.7574 90.3434 60.6086 90.3483 63.4646 90.2052C62.3844 87.4429 61.4619 84.7743 61.679 81.7406C63.5327 82.6039 64.6456 84.4307 65.749 86.2419C66.657 87.7323 67.5585 89.2121 68.8611 90.1362C69.891 90.3381 70.9738 90.3317 72.031 90.3255C72.265 90.3241 72.4977 90.3227 72.7284 90.3236C74.2443 90.2986 75.7565 90.3014 77.2675 90.3041C79.6359 90.3083 82.0016 90.3126 84.3746 90.2102C83.245 86.9348 82.3571 83.6989 82.293 80.2065C82.3522 76.7043 83.2253 73.3648 84.5177 70.1338C83.588 70.1386 82.6546 70.1226 81.7204 70.1066ZM63.2536 71.5483C63.0942 71.5058 62.9371 71.4638 62.7839 71.4213C61.8615 74.45 61.5902 77.5527 61.4915 80.7047C61.6946 80.6668 61.9011 80.6305 62.1095 80.5939C63.6634 80.321 65.326 80.029 66.4786 78.8895C68.2297 77.1827 67.9337 74.0948 66.0198 72.6347C65.2342 72.0772 64.2027 71.8018 63.2536 71.5483Z" fill="#202530"/>
<path fill-rule="evenodd" clip-rule="evenodd" d="M32.8769 70.2425C34.8793 70.0746 36.8986 70.0937 38.9163 70.1128C40.1593 70.1246 41.4015 70.1363 42.6388 70.1043C42.8692 70.1058 43.1065 70.1057 43.3489 70.1056C45.5717 70.1044 48.2307 70.1031 50.0676 71.3129C51.4339 72.2452 52.8891 74.2084 52.1738 75.9349C51.4707 77.7416 49.7609 78.5813 48.1275 79.3834L48.127 79.3836C48.0303 79.4311 47.9339 79.4785 47.8379 79.5259C48.0327 79.5799 48.2307 79.6324 48.4302 79.6853L48.4303 79.6854C49.9081 80.0774 51.4726 80.4925 52.4895 81.6963C53.2147 82.5645 53.9398 83.8421 53.7967 85.0111C53.407 87.1421 51.6855 88.9425 49.6631 89.643C47.8169 90.2901 45.778 90.2992 43.8385 90.3079L43.6254 90.3089C42.5566 90.3031 41.4908 90.3046 40.4266 90.306C37.8611 90.3094 35.3049 90.3128 32.7388 90.2152C34.4307 85.8694 35.4567 81.4596 34.6527 76.7734C34.4796 75.2258 34.0078 73.7926 33.5329 72.3497C33.3039 71.6542 33.0742 70.9564 32.8769 70.2425ZM40.4635 71.6187C41.9532 71.4411 43.7931 71.4806 45.0953 72.3093C47.2312 73.5869 46.9846 77.3111 44.8191 78.4456C43.62 79.1391 41.9924 79.1392 40.5141 79.1394C40.089 79.1394 39.6762 79.1394 39.2895 79.156C39.3552 78.6015 39.4125 78.0399 39.47 77.4754C39.6714 75.4991 39.8764 73.4873 40.4635 71.6187ZM46.2595 81.499C44.4689 80.1623 41.524 80.3892 39.4177 80.5667C39.216 82.4416 39.5686 84.4096 39.9134 86.3341C40.0575 87.1389 40.2003 87.9361 40.3007 88.7157C40.6347 88.7174 40.9804 88.7294 41.3321 88.7416C42.9384 88.7971 44.6707 88.8571 45.998 87.9708C48.1635 86.565 48.3806 83.0627 46.2595 81.499Z" fill="#202530"/>
<path d="M140.564 97.0913C142.685 97.185 144.446 98.0088 146.335 98.8671C145.718 100.436 145.062 101.999 144.352 103.533C143.716 101.925 143.119 100.307 142.497 98.6944C140.924 98.6747 138.822 98.2308 137.397 99.0003C136.144 99.6415 136.109 101.25 137.111 102.138C139.631 104.451 143.735 105.309 146.192 107.85C148.209 109.951 147.603 113.631 145.146 115.125C140.283 117.932 133.845 117.173 129.835 113.197C130.56 111.668 131.339 110.168 132.183 108.703C132.494 110.262 132.528 112.052 133.194 113.503C134.585 114.524 136.618 115.022 138.319 114.884C139.38 114.731 140.84 114.257 141.062 113.044C141.294 111.885 140.667 111.021 139.814 110.316C137.461 108.343 133.885 107.238 131.922 104.875C130.644 103.39 130.659 101.003 132.099 99.6267C134.274 97.4021 137.584 96.9038 140.564 97.0913Z" fill="#202530"/>
<path d="M54.0927 97.3922C57.1954 97.0815 60.3672 97.259 63.4748 97.3478C62.286 99.1384 60.964 100.539 60.6039 102.754C59.6322 107.1 60.5546 110.982 61.3735 115.244C62.6658 115.042 64.4219 115.328 65.3197 114.228C66.8587 112.664 68.1905 110.908 69.7098 109.32C69.621 111.722 69.4138 114.09 69.0932 116.467C64.0618 116.497 59.0353 116.492 54.0039 116.467C55.2322 113.143 56.3124 109.458 56.0855 105.877C55.9227 102.897 54.9115 100.214 54.0927 97.3922Z" fill="#202530"/>
<path d="M70.7158 97.328C75.7472 97.2442 80.8033 97.111 85.8298 97.4168C86.1159 99.7056 86.3379 101.994 86.4513 104.303C84.8235 102.7 83.3831 100.894 81.6863 99.3702C80.7984 98.4379 79.1607 98.7437 77.9719 98.6253C77.523 101.082 77.1383 103.538 76.9015 106.024C78.623 105.743 80.3396 105.423 82.0562 105.127C82.0464 106.237 82.0365 107.351 82.0316 108.466C80.3199 108.18 78.6132 107.899 76.9015 107.637C77.1284 110.143 77.5132 112.625 77.9078 115.106C79.1163 115.042 80.6159 115.278 81.7307 114.815C83.6495 113.33 85.08 111.268 86.9199 109.675C86.8607 111.954 86.5944 114.208 86.2836 116.467C81.0993 116.497 75.9199 116.497 70.7356 116.467C71.8504 113.335 72.6889 110.188 72.7777 106.843C72.7037 103.538 71.8652 100.406 70.7158 97.328Z" fill="#202530"/>
<path d="M88.0991 97.348C90.3534 97.1507 92.6521 97.2592 94.9113 97.3036C96.2234 99.5381 97.3431 101.891 98.6602 104.121C99.8194 106.217 102.71 107.066 104.797 107.948C104.866 105.744 105.25 103.228 104.658 101.082C103.84 99.7009 102.518 98.591 101.462 97.3825C103.391 97.2543 105.329 97.2395 107.258 97.2987C106.858 99.839 106.301 102.266 106.202 104.851C106.035 108.688 106.4 112.847 105.995 116.724C103.484 115.639 102.301 113.572 100.49 111.633C97.5552 108.397 94.709 105.078 91.7099 101.896C91.7395 105.438 91.4485 109.053 91.7938 112.575C92.4202 114.109 94.2897 115.274 95.4588 116.443C93.3574 116.492 91.2561 116.497 89.1547 116.472C90.3879 111.816 90.3978 107.144 90.2251 102.365C90.2202 100.515 88.8637 98.9906 88.0991 97.348Z" fill="#202530"/>
<path fill-rule="evenodd" clip-rule="evenodd" d="M112.776 97.2294C111.33 97.2199 109.859 97.2101 108.456 97.4713C108.648 98.2512 108.891 99.0115 109.135 99.7712C109.538 101.03 109.941 102.286 110.104 103.627C110.938 108.106 109.926 112.314 108.274 116.462C109.46 116.461 110.647 116.472 111.834 116.482C114.397 116.506 116.96 116.529 119.516 116.428C122.47 116.24 125.277 115.343 126.979 112.763C128.286 110.686 129.549 107.667 128.661 105.226C127.773 102.419 126.106 99.5184 123.299 98.2901C120.808 97.2358 117.871 97.2339 115.154 97.2322C114.82 97.232 114.49 97.2317 114.164 97.2296C113.706 97.2356 113.242 97.2325 112.776 97.2294ZM121.933 101.052C120.512 99.1139 117.967 98.3937 115.658 98.8179C115.201 100.3 114.995 101.886 114.793 103.44C114.753 103.747 114.713 104.054 114.672 104.357C114.178 107.624 114.837 111.017 115.47 114.268C115.531 114.587 115.593 114.904 115.653 115.219C115.973 115.186 116.299 115.16 116.626 115.135C118.219 115.01 119.852 114.882 121.104 113.794C122.885 112.319 123.309 110.02 123.398 107.825C123.467 105.536 123.339 102.966 121.933 101.052Z" fill="#202530"/>
<path fill-rule="evenodd" clip-rule="evenodd" d="M33.0052 97.338C35.4443 97.244 37.8948 97.2417 40.3437 97.2394C41.1091 97.2386 41.8743 97.2379 42.6389 97.2344L42.792 97.2351C44.7332 97.2442 46.7516 97.2537 48.5779 97.9891C50.1762 98.6254 51.4291 100.184 51.6412 101.901C51.2952 104.23 49.5082 105.145 47.648 106.097C47.5192 106.163 47.39 106.229 47.2609 106.296C47.4336 106.342 47.6053 106.387 47.7756 106.432C49.5617 106.899 51.2008 107.327 52.2726 109.038C53.3578 110.666 53.0273 112.59 51.7694 114.006C50.0775 115.999 47.6161 116.428 45.1299 116.477C42.6704 116.498 40.2092 116.492 37.7483 116.486H37.748H37.7477C36.1073 116.482 34.4671 116.478 32.8276 116.482C34.0066 113.345 34.8698 110.222 34.9438 106.843C34.8846 103.534 34.0066 100.451 33.0052 97.338ZM44.9277 99.6021C46.738 101.033 46.3681 104.027 44.4394 105.176C43.2761 105.88 41.6525 105.886 40.2078 105.892C39.8515 105.893 39.506 105.894 39.1811 105.906C39.3685 103.499 39.5954 101.136 40.1183 98.7734L40.2453 98.7623C41.9002 98.6172 43.557 98.4718 44.9277 99.6021ZM40.0835 107.211C39.7092 107.22 39.3467 107.228 39.0035 107.228C39.2846 109.843 39.6497 112.442 40.0443 115.042C40.4018 115.036 40.7779 115.045 41.163 115.055C42.6961 115.093 44.3704 115.135 45.569 114.228C47.5815 112.876 47.7788 109.586 45.7761 108.141C44.2402 107.117 42.0061 107.168 40.0835 107.211Z" fill="#202530"/>
<g clip-path="url(#clip2)">
<path fill-rule="evenodd" clip-rule="evenodd" d="M79.5816 33.6776C79.6926 33.1823 80.1308 32.8224 80.6441 32.8224H89.1564C88.7676 32.5078 88.2725 32.3193 87.7333 32.3193H78.1568C76.7951 32.3193 75.7415 33.5128 75.9104 34.864L77.6766 48.994L78.3584 43.4972L77.2582 34.6955C77.1907 34.155 77.6121 33.6776 78.1568 33.6776H79.5816ZM79.9366 60.4872C80.2901 60.7136 80.7095 60.8438 81.1564 60.8438H87.7333C88.1826 60.8438 88.6013 60.7129 88.9534 60.4872H79.9366Z" fill="#202530"/>
<mask id="mask0" mask-type="alpha" maskUnits="userSpaceOnUse" x="75" y="32" width="29" height="29">
<path d="M78.91 34.3029C79.0516 33.17 80.0146 32.3198 81.1564 32.3198H98.5527C99.6945 32.3198 100.657 33.17 100.799 34.3029L103.799 58.2996C103.968 59.6508 102.914 60.8443 101.552 60.8443H78.1568C76.7951 60.8443 75.7415 59.6508 75.9104 58.2996L78.91 34.3029Z" fill="#FF5C00"/>
</mask>
<g mask="url(#mask0)">
<path fill-rule="evenodd" clip-rule="evenodd" d="M76.0527 59.4176C76.3836 60.2461 77.193 60.844 78.1569 60.844H101.552C102.914 60.844 103.968 59.6506 103.799 58.2994L100.799 34.3026C100.691 33.436 100.102 32.7349 99.32 32.4531L102.531 58.1453C102.616 58.8209 102.089 59.4176 101.408 59.4176H76.0527Z" fill="#202530"/>
<path fill-rule="evenodd" clip-rule="evenodd" d="M71.7739 55.139C72.1048 55.9675 72.9142 56.5654 73.878 56.5654H97.2736C98.6353 56.5654 99.6889 55.372 99.52 54.0208L96.5204 30.024C96.4121 29.1575 95.8232 28.4563 95.0413 28.1746L98.2528 53.8666C98.3373 54.5422 97.8105 55.139 97.1297 55.139H71.7739Z" fill="#202530"/>
<path fill-rule="evenodd" clip-rule="evenodd" d="M67.4951 50.8604C67.826 51.6889 68.6354 52.2868 69.5992 52.2868H92.9948C94.3565 52.2868 95.4101 51.0934 95.2412 49.7422L92.2416 25.7454C92.1333 24.8789 91.5444 24.1778 90.7626 23.896L93.9741 49.5881C94.0585 50.2636 93.5317 50.8604 92.8509 50.8604H67.4951Z" fill="#202530"/>
</g>
<path fill-rule="evenodd" clip-rule="evenodd" d="M98.5527 33.6781H81.1564C80.6997 33.6781 80.3145 34.0182 80.2578 34.4714L77.2582 58.4681C77.1907 59.0086 77.6121 59.486 78.1568 59.486H101.552C102.097 59.486 102.518 59.0086 102.451 58.4681L99.4513 34.4714C99.3946 34.0182 99.0094 33.6781 98.5527 33.6781ZM81.1564 32.3198C80.0146 32.3198 79.0516 33.17 78.91 34.3029L75.9104 58.2996C75.7415 59.6508 76.7951 60.8443 78.1568 60.8443H101.552C102.914 60.8443 103.968 59.6508 103.799 58.2996L100.799 34.3029C100.657 33.17 99.6944 32.3198 98.5527 32.3198H81.1564Z" fill="#202530"/>
<path d="M75.3291 32.3193H81.1035L76.9487 33.5165C76.7844 35.3943 76.5912 38.8376 76.3854 37.6712C76.1741 36.4741 75.7047 33.5869 75.3291 32.3193Z" fill="#202530"/>
<path d="M101.173 32.3193H97.6519L99.6236 33.2348C100.093 34.4789 101.074 36.9248 100.962 35.629C100.849 34.3333 101.032 32.7888 101.173 32.3193Z" fill="#202530"/>
<path d="M75.6108 60.8393L76.0334 57.3184L76.7376 59.5718L79.2022 60.8393H75.6108Z" fill="#202530"/>
</g>
</g>
</g>
<defs>
<clipPath id="clip0">
<path d="M0 89.5C0 40.0705 40.0705 0 89.5 0V0C138.929 0 179 40.0705 179 89.5V89.5C179 138.929 138.929 179 89.5 179V179C40.0705 179 0 138.929 0 89.5V89.5Z" fill="white"/>
</clipPath>
<clipPath id="clip1">
<rect width="124.306" height="85.3762" fill="white" transform="translate(27.3472 32.3193)"/>
</clipPath>
<clipPath id="clip2">
<rect width="28.5903" height="28.5904" fill="white" transform="translate(75.3291 32.3193)"/>
</clipPath>
</defs>
</svg>
