<svg width="175" height="147" viewBox="0 0 175 147" fill="none" xmlns="http://www.w3.org/2000/svg">
<path d="M166.87 5.47363L166.867 5.48161C166.325 6.90448 165.641 8.29012 164.872 9.60661C164.04 11.0907 163.415 12.6784 162.516 14.1199C161.843 15.2609 161.396 16.447 160.62 17.5375C159.987 18.4071 159.346 19.2609 158.646 20.0774C157.285 21.6598 156.513 23.4391 154.91 24.8274C152.729 27.104 150.463 29.2582 148.298 31.5401C147.165 32.6305 146.093 33.7742 144.872 34.7662C143.013 36.5694 141.218 38.3832 139.681 40.4736C138.378 42.3061 136.71 43.9045 135.16 45.5295C133.266 47.6093 131.633 49.8805 130.205 52.3008C129.636 53.2954 128.987 54.2077 128.718 55.3274C128.511 56.1412 128.301 56.9497 128.069 57.7555C129.809 55.7529 131.216 53.5295 132.795 51.4045C134.138 49.463 135.33 47.4524 136.825 45.596C137.984 44.1864 139.077 42.7157 140.287 41.354C141.585 40.0641 142.771 38.6545 144.202 37.5508C143.346 38.6492 142.29 39.5508 141.426 40.6412C138.718 43.7263 136.136 46.9657 133.942 50.4391C132.883 52.2024 131.527 53.7449 130.529 55.5508C129.516 57.2928 128.064 58.7928 127.229 60.6279C128.676 60.2396 129.747 59.2077 130.859 58.2502C132.359 56.83 133.798 55.3247 135.122 53.7369C136.069 52.6199 136.745 51.3433 137.755 50.2715C136.508 52.5694 135.003 54.6997 133.115 56.5188C131.819 58.0561 130.277 59.3008 128.763 60.6093C129.016 61.072 129.242 61.5428 129.455 62.0215C130.511 61.3672 131.282 60.4417 132.213 59.6465C130.971 61.0454 129.607 62.3327 128.399 63.7715C127.388 64.9763 126.271 65.979 125.431 67.3247C126.184 67.3619 126.915 67.3779 127.638 67.6119C127.314 69.8114 125.894 71.0454 124.947 72.9258C126.415 71.6704 127.489 70.1438 128.886 68.7795C129.923 67.7582 130.721 66.5853 131.628 65.455C130.38 67.5188 128.747 69.1811 127.266 71.1492C125.992 72.8992 124.242 74.3859 123.035 76.2396C124.25 76.0348 124.726 75.4896 125.402 74.5401C125.662 74.58 125.926 74.6173 126.186 74.6545C126.085 76.1837 125.545 77.6651 124.652 78.9098C124.173 79.58 123.516 80.0827 123.027 80.7343C122.843 82.0162 123.077 83.2875 122.718 84.5614C123.447 84.322 123.934 84.0508 124.697 84.4125C124.351 85.7981 123.452 86.8274 123.468 88.2662C123.479 89.3779 123.537 90.5029 123.7 91.604C126.008 91.5481 128.12 91.6359 130.029 93.0986C130.42 93.6811 130.37 94.6731 130.447 95.3646C132.149 95.7662 134.099 96.0401 135.713 96.7396C136.077 96.9337 136.599 97.1332 136.814 97.4976C136.91 98.1385 136.838 98.8141 136.83 99.4603C138.317 99.8912 139.915 100.266 141.266 101.032C142.545 101.779 142.891 103.154 143.08 104.524C142.428 103.29 141.88 102.112 140.548 101.479C139.298 100.947 137.934 100.66 136.625 100.317C136.559 99.604 136.66 98.6731 136.261 98.0587C135.625 97.4071 134.548 97.1385 133.692 96.9125C132.585 96.6598 131.447 96.4018 130.311 96.3513C129.814 96.3114 129.322 96.7077 128.872 96.8992C128.069 97.3593 126.96 97.197 126.045 97.2582C126.859 97.0774 127.817 97.0295 128.548 96.6226C128.843 96.2875 128.846 95.8938 128.944 95.4763C129.298 95.3008 129.649 95.1226 129.997 94.9391C129.798 94.5135 129.657 93.8859 129.258 93.604C127.822 92.7343 126.255 92.2821 124.564 92.4258C124.452 94.1598 124.716 95.8752 124.577 97.604C124.482 99.0481 124.505 100.492 124.567 101.936C125.87 102.279 127.354 102.258 128.505 102.883C129.668 103.468 130.117 105.33 129.133 106.272C128.136 107.458 126.255 107.843 124.806 108.128C124.809 108.484 124.811 108.838 124.814 109.194C126.455 109.197 128.322 108.92 129.867 109.514C130.721 109.809 131.607 110.2 132.301 110.787C133.096 111.545 133.29 112.649 132.782 113.633C131.593 114.482 130.157 114.726 128.753 114.317C127.247 113.968 126.024 113.136 124.625 112.551C124.553 113.604 124.67 114.636 124.771 115.681C124.928 117.394 124.46 119.032 124.577 120.745C124.681 122.165 124.591 123.583 124.617 125.003C126.354 127.875 129.338 130.298 131.71 132.647C133.157 133.774 134.46 134.923 135.854 136.112C136.109 136.761 136.091 137.264 136.942 137.365C138.117 137.016 139.138 136.543 140.42 136.604C141.08 136.686 141.676 137.351 142.144 137.785C141.912 138.777 141.806 139.758 141.075 140.537C140.452 141.152 139.702 141.748 138.867 142.035C136.854 142.551 134.551 142.12 133.08 140.585C132.739 140.295 132.777 139.907 132.867 139.511C133.41 138.476 134.279 137.753 135.293 137.2C135.266 136.899 135.242 136.596 135.218 136.293C134.577 136.322 133.931 136.404 133.287 136.391C132.857 136.306 132.474 135.947 132.107 135.713C130.059 134.162 128.099 132.737 126.407 130.777C125.737 129.979 125.024 129.237 124.197 128.599C123.604 129.216 123.141 130.168 122.354 130.532C121.045 131.194 119.864 131.91 118.37 132.051C116.088 132.567 113.795 133.373 111.649 134.293C109.372 134.827 107.255 135.79 104.963 136.24C103.628 136.522 102.295 136.551 101.005 137.037C100.075 137.256 99.1305 137.593 98.1863 137.71C95.6996 137.168 93.0985 136.309 91.0533 134.745C89.4735 133.745 87.8273 132.87 86.2874 131.798C84.1411 130.543 81.9735 129.234 79.6517 128.325C77.7315 127.511 75.8778 126.522 73.9363 125.761C72.5533 125.338 71.2049 124.889 69.915 124.224C68.29 123.381 66.665 123.139 65.1783 122.056C64.29 121.389 63.3219 120.678 62.6544 119.782C62.2129 118.843 61.6969 117.907 61.3672 116.923C60.564 113.793 60.5666 110.359 60.4709 107.189C59.415 107.647 58.4017 108.205 57.3299 108.607C58.1783 108.006 59.1118 107.631 60.032 107.165C60.3592 106.995 60.6836 106.785 60.7102 106.381C60.8512 104.915 60.7874 103.434 60.8911 101.966C59.0773 102.162 57.1092 102.061 55.5985 103.202C54.9576 103.615 54.6943 104.303 54.6358 105.037C54.5959 105.811 54.5586 106.516 55.1012 107.136C55.6038 107.809 56.7661 107.772 57.5188 107.955C56.4177 108.295 55.6038 108.224 54.5028 107.923C53.1251 108.059 51.3086 108.524 50.0826 107.649C49.3033 107.077 49.3911 106.08 49.3565 105.226C48.6118 105.059 47.5294 104.95 47.0533 104.279C46.6198 103.596 46.5852 102.612 46.4363 101.825C45.189 102.561 43.915 103.043 42.7927 103.952C42.2156 104.394 41.4283 104.809 41.032 105.426C40.6517 106.455 41.1358 108.006 42.298 108.309C42.9257 108.404 43.5693 108.402 44.2023 108.455C43.2076 108.787 42.1677 109.258 41.2262 108.506C40.0906 107.697 39.9629 106.42 40.0081 105.128C38.548 105.846 37.056 106.367 35.4602 106.697C34.4815 106.899 33.5507 107.226 32.6278 107.604C32.4682 108.471 32.3671 109.319 32.3379 110.2C31.1757 110.056 29.7634 109.686 28.6225 110.008C27.2156 110.774 25.7262 111.971 25.1836 113.532C25.415 111.838 26.6092 110.301 28.048 109.431C29.1491 108.716 30.6757 109.381 31.8778 109.436C31.8193 108.891 31.7554 108.349 31.689 107.803C28.9177 108.516 25.9629 108.585 23.1278 108.894C22.3698 108.971 21.7156 108.724 21.0054 108.514C18.8884 108.014 16.939 106.514 15.0879 105.394C13.8512 104.694 12.9097 103.692 11.8166 102.811C10.4709 101.692 9.49215 100.373 8.43896 99.0082C6.61183 96.7077 4.32991 95.3566 2.92566 92.6997C3.26076 92.4657 3.59853 92.3806 3.93364 92.447C5.54534 94.2157 7.14906 96.4524 9.26874 97.6119C10.2448 98.2582 11.0533 98.9763 12.2288 99.2476C13.6437 99.6837 15.0347 99.5614 16.4895 99.6119C18.9177 99.7236 21.6145 99.3566 24.04 99.6758C25.4177 99.9311 26.7661 100.285 28.1624 100.452C29.4097 100.662 30.5826 100.859 31.8299 100.498C33.5959 100.053 34.8459 98.4896 36.3219 97.5215C37.2395 96.9284 38.1597 96.338 39.0773 95.7476C40.6597 94.7183 42.4656 94.3353 44.2368 93.6811C42.7634 93.3061 41.314 92.9151 39.9416 92.2422C38.3459 91.4816 36.7342 91.6598 35.0453 91.9178C33.5134 92.1837 32.3512 92.8859 30.8246 92.9657C29.7102 93.0774 28.7634 92.6651 27.6677 92.6173C26.6836 92.5454 25.7794 92.572 24.8671 92.1465C22.2794 90.979 20.3858 88.7476 18.9656 86.354C18.4044 85.3407 17.6624 84.4098 17.1969 83.3593C16.4523 81.6385 15.5719 79.9736 14.8033 78.2662C14.3725 77.3008 13.7395 76.4736 13.2794 75.5268C12.6198 74.2502 12.2448 72.8832 11.6544 71.588C11.0746 70.3034 10.1358 69.2422 9.22087 68.1651C8.55332 67.3965 7.61449 67.0508 6.69959 66.6545C5.45491 66.1332 4.14108 66.1997 2.86981 65.7263C2.55864 65.6571 2.34055 65.4603 2.21289 65.1359C2.3964 64.8087 2.65172 64.6598 2.98151 64.6864C4.76874 64.6332 6.61981 65.7157 8.23949 65.9843C11.3033 65.479 14.4602 65.0268 17.1996 63.6252C18.7209 62.9976 20.2049 62.3407 21.6039 61.463C23.4735 60.2981 25.6916 58.838 27.931 58.6412C29.6517 58.9976 31.5214 58.9178 33.0613 59.7103C35.0347 60.4098 36.5427 61.7609 38.4602 62.5667C39.6331 63.0454 40.8166 63.1385 42.1198 63.4178C43.3725 63.6837 44.6092 63.5694 45.8033 64.0029C46.6384 64.2875 47.4948 64.4284 48.3565 64.5986C48.9602 64.8726 49.4842 65.2875 50.0906 65.5587C51.8166 66.2742 53.5054 67.5242 54.7714 68.8912C56.0294 70.7875 57.5294 72.5534 57.8219 74.8859C57.9868 76.4683 58.3459 78.0002 58.7714 79.5295C59.1969 81.2582 60.048 82.8938 60.7315 84.5481C61.2235 83.7635 60.923 82.6412 61.1065 81.7369C61.3592 80.3194 61.1916 78.8965 61.3565 77.4736C61.532 76.3805 61.814 75.322 61.8379 74.2024C61.9895 72.5082 61.7741 70.8327 61.8246 69.1359C61.8379 67.5986 62.1996 66.1704 62.0693 64.6173C61.6996 62.4444 61.7475 60.1704 62.0267 57.9869C62.0799 56.6492 62.0719 55.3194 62.282 53.9896C62.415 52.0135 62.6198 50.0481 63.1118 48.1226C63.3007 46.713 63.8007 45.4151 64.3166 44.0986C64.8751 42.705 65.2129 41.2742 65.9363 39.9444C66.814 38.2981 67.8246 36.6678 68.9629 35.1917C70.5719 33.0667 72.6597 31.8194 74.6544 29.9577C75.923 28.721 77.5028 27.854 78.2741 26.1758C78.3964 25.7263 78.4842 24.9178 78.0294 24.6226C77.2714 24.471 76.5028 24.5029 75.7475 24.2768C74.6225 23.979 73.556 23.2795 72.8831 22.3247C72.5134 21.5774 72.4336 20.6465 72.5294 19.8274C73.3432 18.2688 74.4283 16.8087 75.6783 15.5694C77.3352 13.838 78.5932 11.971 80.7422 10.729C81.6304 10.1891 82.7395 10.0082 83.7634 9.98693C84.4443 10.0774 85.1065 10.5135 85.7076 10.83C87.0693 11.6119 88.5134 11.8141 89.9363 12.4497C92.4789 13.6571 95.0134 14.8726 97.6172 15.9524C99.1677 16.58 100.375 17.58 101.819 18.3965C104.343 19.9417 107.037 21.0641 109.798 22.1066C112.378 23.2476 114.982 24.33 117.519 25.572C118.774 26.1864 120.444 26.7555 121.335 27.8699C122.476 29.4071 122.814 31.4922 122.136 33.2901C121.391 34.9258 119.968 36.0242 118.992 37.3274C117.934 39.2688 117.325 41.5774 116.931 43.7449C116.692 45.1093 117.138 46.2343 117.168 47.5986C117.208 48.7476 117.412 49.8673 117.561 51.0029C117.843 53.8593 117.989 56.7742 118.561 59.5933C119.801 57.1837 120.157 54.5986 121.157 52.104C120.673 54.3008 120.12 56.4896 119.492 58.6492C119.173 59.838 118.91 61.0188 118.971 62.2582C119.75 61.3938 120.178 60.3965 120.508 59.2954C120.902 59.1784 121.293 59.0641 121.686 58.947C122.364 56.5428 123.035 54.096 123.548 51.6492C123.787 50.5055 124.21 49.4284 124.745 48.3938C126.003 45.58 127.74 43.0774 129.301 40.4337C130.21 39.0029 131.325 37.6811 132.325 36.3087C133.708 34.4178 135.271 32.7024 136.758 30.8912C137.819 29.7343 138.718 28.5029 139.88 27.447C138.482 29.1438 137.072 30.83 135.737 32.5774C133.117 35.6731 130.644 38.9444 128.604 42.4524C126.641 45.4045 125.085 48.697 124.247 52.1492C125.136 51.7662 126.452 51.4843 126.697 50.4045C127.107 49.3912 127.399 48.2901 127.971 47.3779C129.109 45.588 130.13 43.7981 131.628 42.2688C133.216 40.5614 134.753 38.8194 136.221 37.0055C138.067 35.0082 139.553 32.7449 141.505 30.838C142.633 29.4657 143.891 28.3247 145.258 27.1997C143.984 28.588 142.612 29.8832 141.341 31.2715C140.168 32.5907 139.213 34.0747 138.048 35.3965C136.62 37.0641 135.287 38.8407 133.817 40.4736C132.349 42.1704 130.721 43.8407 129.513 45.7423C128.857 47.0055 128.053 48.2768 127.657 49.6465C128.351 49.2263 128.944 48.6997 129.529 48.1438C130.096 47.604 130.763 47.4178 131.428 47.0508C131.785 46.8274 132.005 46.3699 132.237 46.0295C133.077 44.5827 134.306 43.3167 135.402 42.0508C136.942 40.4816 138.343 38.7901 139.886 37.2236C142.835 33.955 145.37 30.447 148.607 27.5986C149.561 26.7024 150.447 25.729 151.412 24.8433C150.739 25.7555 149.968 26.58 149.154 27.3619C147.157 29.3672 145.205 31.4045 143.396 33.5827C142.266 35.0694 140.976 36.4736 139.732 37.8752C137.676 39.9976 135.803 42.2742 133.809 44.4497C133.154 45.2555 132.638 46.213 132.109 47.1093C132.311 47.2024 132.513 47.2928 132.716 47.3859C134.141 45.8672 135.58 44.3646 136.984 42.8274C138.351 41.3486 139.503 39.6837 140.851 38.1837C141.79 37.1651 142.622 36.0747 143.617 35.1066C144.418 34.3034 145.303 33.604 146.141 32.8407C147.58 31.5587 148.91 30.104 150.282 28.7396C152.404 26.58 154.604 24.5641 156.455 22.1492C157.849 20.2422 159.434 18.5215 160.665 16.4922C162.327 13.838 163.692 11.0188 165.333 8.35129C165.915 7.42576 166.266 6.38055 166.87 5.47363Z" fill="#202530"/>
<path d="M82.9762 11.9922C83.9097 11.9577 84.4496 12.5215 85.2927 12.8247C86.9044 13.3885 88.3937 14.2236 89.9841 14.8433C92.157 16.0002 94.4708 16.7875 96.5666 18.0587C98.7714 19.471 101.282 20.1492 103.575 21.4178C105.947 22.2343 108.12 23.4417 110.436 24.3805C113.133 25.2795 115.543 26.6837 118.072 27.947C119.061 28.5481 120.356 28.9045 120.843 30.0561C120.95 30.7156 121.013 31.4922 120.779 32.1279C119.912 33.9444 118.314 34.822 117.277 36.4258C116.622 37.4071 115.974 38.3114 115.702 39.4843C115.386 40.8752 114.96 42.1598 115.003 43.6066C115.045 44.9417 114.95 46.3167 115.192 47.6252C115.423 49.0587 115.279 50.4311 115.274 51.8672C115.229 53.8327 115.753 55.697 115.904 57.6624C116.375 59.8034 117.021 61.9151 117.375 64.088C117.492 65.2635 117.213 66.5374 117.048 67.7156C116.5 67.072 115.952 66.4497 115.261 65.9523C115.295 66.4257 115.157 66.838 115.497 67.2236C116.529 68.5268 117.075 70.1545 117.138 71.8087C117.178 72.8912 117.524 73.9311 117.625 75.0162C117.726 76.4816 117.801 77.8699 117.146 79.2343C116.314 77.8619 115.724 76.3805 115.277 74.8433C115.043 74.0055 114.753 73.213 114.737 72.3539C114.654 70.596 115.093 68.9124 115.138 67.1491C114.761 67.721 114.418 68.3114 114.019 68.8672C113.947 67.5242 113.819 66.064 114.13 64.7476C114.372 63.6438 114.463 62.5454 114.442 61.4178C114.184 62.6757 113.875 63.9417 113.724 65.2156C113.527 67.0002 113.165 68.8672 113.141 70.6651C113.114 71.5614 112.923 72.439 112.817 73.3353C112.556 73.0082 112.311 72.6066 111.968 72.3619C111.458 72.1013 110.926 71.9018 110.439 71.5933C110.67 70.8566 110.958 70.197 110.989 69.4231C111.048 67.1944 111.471 65.0002 111.606 62.7741C111.859 59.9178 113.109 57.0109 112.402 54.2502C112.194 53.0374 112.335 51.7422 112.455 50.5242C112.572 49.5002 113.114 48.7848 113.575 47.9045C113.95 47.2103 114.106 46.4789 114.277 45.7183C113.633 46.8114 112.891 47.8406 112.239 48.9231C111.697 49.8646 111.83 50.8007 111.907 51.838C112.662 55.7422 111.08 60.1864 110.795 64.1199C110.769 65.6359 110.463 67.1119 110.452 68.6305C110.133 71.0241 110.194 73.3912 110.194 75.8087C110.173 77.1013 110.657 78.2608 110.755 79.5374C110.787 80.9444 112.019 81.9311 112.556 83.2608C111.16 82.2555 110.803 80.6944 109.811 79.1757C109.293 79.7422 108.633 80.2263 108.63 81.0694C108.481 82.8912 109.144 84.8539 109.71 86.5694C110.197 88.2263 111.535 89.1518 112.218 90.721C110.646 89.7263 109.58 88.0481 107.947 87.2422C106.989 88.3513 107.181 89.6465 107.463 90.9763C108.072 93.0268 109.21 94.955 110.349 96.7555C108.939 95.9816 107.588 95.3593 106.072 94.8167C106.005 95.6518 105.739 96.7741 106.178 97.5268C107.08 99.2263 108.325 100.676 109.622 102.083C110.529 103.029 111.625 103.591 112.612 104.407C113.516 105.146 113.854 106.319 114.503 107.293C115.394 108.468 115.396 110.075 115.723 111.484C116.277 114.306 117.646 116.564 118.577 119.226C119.088 120.641 119.91 121.96 120.63 123.277C121.33 124.553 122.327 125.625 123.053 126.875C122.894 127.782 121.952 128.657 121.301 129.282C120.388 130.027 119.388 131.024 118.237 131.341C116.771 131.801 115.247 132.067 113.777 132.615C112.128 133.25 110.463 133.915 108.755 134.37C107.245 134.604 105.753 134.873 104.261 135.205C102.2 135.654 99.9708 135.609 97.8698 135.466C97.0453 135.277 96.3512 134.338 95.7528 133.764C94.7581 132.774 95.1437 131.378 94.9948 130.104C94.7262 127.654 94.7102 125.21 94.7315 122.75C94.7581 121.482 94.4416 120.29 94.6411 119.011C94.8166 117.936 94.8139 116.854 94.9522 115.779C95.1544 113.96 95.6038 112.21 95.6091 110.37C95.8432 107.963 96.2634 105.149 95.6756 102.766C95.3937 102.756 95.1145 102.745 94.8326 102.734C94.8299 104.476 94.8086 106.216 94.8086 107.96C94.5294 110.527 94.149 113.101 94.024 115.684C94.0453 117.123 93.6544 118.498 93.7368 119.942C93.8166 123.202 93.524 126.545 93.9629 129.774C94.0161 130.708 93.9469 131.662 94.0613 132.591C94.2767 133.577 95.2368 134.101 95.915 134.75C95.282 134.71 94.7262 134.593 94.149 134.327C92.6464 133.66 91.1278 133.029 89.6091 132.394C88.3804 131.859 87.5985 130.955 86.423 130.285C85.3485 129.684 84.3006 129.035 83.2235 128.439C81.54 127.506 80.1012 126.359 78.3166 125.583C76.7368 124.904 75.181 124.08 73.5427 123.607C70.8512 122.793 68.6996 121.264 66.2874 119.886C65.665 119.54 65.1437 119.112 64.7368 118.521C63.9017 117.319 62.9416 116.298 62.4283 114.95C61.9283 113.686 61.8086 112.41 61.6278 111.08C61.5001 110.165 61.798 109.389 61.8379 108.495C61.8751 106.548 61.8033 104.604 61.7794 102.66C61.8911 98.4045 61.9496 94.1332 61.8139 89.8779C61.7581 89.213 62.1065 88.5906 62.1012 87.955C61.6517 86.6358 61.931 85.4018 61.8725 84.0428C61.8007 82.6066 62.189 81.2263 62.1304 79.7901C62.0826 78.3539 62.6278 77.0268 62.7076 75.5853C63.0639 73.4869 62.8432 71.3859 63.1118 69.2848C63.2342 67.9151 63.1411 66.5348 63.2475 65.1598C63.4602 62.5906 63.4203 60.0241 63.8512 57.4789C63.9921 55.1412 64.5187 52.8752 64.5294 50.5321C64.6278 48.4284 65.3352 46.6039 65.915 44.6172C66.2608 43.4417 66.8459 42.3699 67.2847 41.2156C68.1304 38.963 69.3831 36.8566 70.8911 34.9843C72.6437 32.9843 75.0959 31.4763 77.1889 29.8486C78.1437 29.0348 79.0373 28.1518 79.907 27.2476C80.5081 26.6252 80.8937 25.7768 81.3592 25.0481C82.2102 25.2183 83.0932 25.3859 83.9017 25.705C84.9283 26.1385 85.774 26.8726 86.8219 27.2795C87.8778 27.7077 88.9044 28.1731 89.8857 28.7502C91.2953 29.588 92.8166 30.1598 94.165 31.0986C95.7794 32.1757 97.5267 33.0215 99.0666 34.189C100.051 34.9151 101.059 35.5933 102.152 36.1412C104.059 37.072 105.862 38.3486 107.726 39.3513C108.13 39.5375 108.596 39.8194 109.048 39.8194C109.944 39.7023 110.817 39.1465 111.561 38.6598C112.66 37.9603 113.037 36.8247 114.346 36.3965C115.333 36.0534 115.806 35.3114 116.537 34.6252C117.548 33.6305 118.431 32.2688 118.654 30.8513C118.553 30.1784 118.341 29.2422 117.649 28.9311C116.989 28.6758 116.29 28.4444 115.601 28.2901C114.742 28.1571 113.758 28.6678 112.952 28.9364C111.567 29.3992 110.356 30.3885 109.479 31.5401C108.817 32.822 108.205 34.064 108.293 35.5507C108.944 36.0587 109.596 36.5534 110.343 36.9178C110.944 35.9257 111.665 35.0933 111.708 33.8885C111.481 33.8699 111.258 33.8513 111.032 33.8353C110.766 34.3938 110.479 34.939 110.157 35.471C109.896 35.2928 109.63 35.1172 109.367 34.9444C109.447 33.8965 109.995 32.8646 110.415 31.9098C110.644 31.6385 111.152 31.8486 111.442 31.9018C112.601 32.2422 113.761 32.6864 114.872 33.1571C113.942 35.1625 112.489 36.7555 110.92 38.2768C110.338 38.6625 109.231 38.814 108.596 38.4816C106.301 37.4364 104.285 35.9736 102.019 34.8885C99.3857 33.5321 97.2262 31.471 94.7661 29.971C92.1012 28.2928 89.4017 25.9071 86.4788 24.6518C83.9576 23.4869 81.2102 23.0375 78.7022 21.8114C77.8405 21.3619 76.8086 21.1066 76.0453 20.5109C75.4629 20.072 75.524 19.3965 75.6703 18.7635C75.9735 17.6651 76.8538 16.721 77.4177 15.7077C78.0081 14.6119 78.9283 13.9896 79.8246 13.0667C80.5879 12.2316 81.9017 12.0188 82.9762 11.9922Z" fill="white"/>
<path d="M114.87 29.5962C115.511 29.7983 116.218 30.1627 116.625 30.7132C116.787 31.3063 116.511 32.043 116.386 32.6361C115.849 32.1121 115.311 31.4951 114.657 31.1175C113.96 30.8196 113.24 30.5749 112.545 30.2691C113.306 30.0324 114.08 29.6973 114.87 29.5962Z" fill="white"/>
<path d="M113.71 37.2451C113.878 38.0643 113.601 38.5962 113.208 39.2797C112.434 40.5829 112.085 41.9659 111.133 43.043C110.301 43.9313 109.793 45.0191 108.87 45.8355C107.84 46.7664 106.987 47.8488 106.003 48.8196C104.168 50.6387 102.854 52.902 101.692 55.1866C101.104 56.5191 100.673 57.9393 100.253 59.3329C99.8777 61.3781 99.4256 63.3488 98.5134 65.2318C98.415 63.7744 98.8671 62.4659 99.0479 61.0403C99.6197 57.1414 101.149 53.2531 103.604 50.152C104.569 48.6999 105.87 47.6733 107.029 46.3967C108.125 45.1919 109.277 43.9978 110.269 42.7052C111.465 41.1813 111.755 39.2744 112.95 37.6839C113.2 37.535 113.455 37.3887 113.71 37.2451Z" fill="#202530"/>
<path d="M131.109 47.8804C130.684 49.4309 129.817 50.5745 129.178 52.0506C127.928 54.9681 126.708 57.8804 125.774 60.9203C125.702 61.2288 125.676 61.5532 125.636 61.8671C125.029 62.2793 124.327 62.6543 123.851 63.2022C123.194 63.9282 122.577 64.6782 121.833 65.3192C121.883 64.0346 122.269 62.8192 122.479 61.5453C122.923 59.6676 123.003 57.7394 123.458 55.8618C123.702 54.516 124.37 53.2899 125.516 52.508C126.043 53.508 125.923 54.5134 125.92 55.5985C125.899 57.2235 125.548 58.9229 124.729 60.3378C124.21 61.2554 123.545 61.9868 122.936 62.8298C124.221 61.8671 125.231 60.5958 125.846 59.1144C126.213 57.8006 126.505 56.4256 126.495 55.0559C126.45 53.4841 127.13 51.8644 127.952 50.5532C128.835 49.5453 129.846 48.399 131.109 47.8804Z" fill="white"/>
<path d="M121.114 60.0508C121.383 62.6758 120.707 65.463 120.319 68.0614C121.684 66.8699 122.066 65.1386 123.662 64.088C124.912 63.3433 126.402 62.5588 127.883 62.5295C127.745 63.0534 127.638 63.5455 127.258 63.955C126.386 64.9391 125.391 65.8194 124.457 66.7449C122.888 68.3513 120.96 69.4763 119.33 71.0242C119.548 71.1864 119.769 71.3487 119.987 71.5109C119.306 73.2237 118.729 74.9125 118.535 76.7582C118.527 77.4151 118.574 78.0534 118.511 78.713C118.495 79.2769 118.048 79.5215 117.715 79.9311C117.162 78.9444 117.694 78.2556 117.822 77.2609C117.979 76.2636 117.827 75.2157 117.952 74.213C118.104 73.6678 118.516 73.1545 118.463 72.596C118.386 71.4338 118.112 70.3194 118.226 69.1359C118.484 66.1173 119.311 63.1412 120.38 60.3194C120.625 60.2237 120.87 60.1359 121.114 60.0508Z" fill="white"/>
<path d="M31.8699 62.0402C33.8593 62.3966 35.2369 63.5163 37.1492 64.1785C38.8859 64.8354 40.7024 64.9471 42.463 65.5429C44.1758 66.1253 45.8885 66.7104 47.6013 67.2982C49.4151 67.9152 51.0215 68.9099 52.5055 70.1041C53.3699 70.8301 54.2343 71.6014 54.8008 72.5908C55.5774 73.9259 55.955 75.3434 56.3061 76.8328C56.7901 78.8886 57.4843 80.8567 58.0747 82.8833C58.3433 83.7477 58.6651 84.7078 59.3114 85.3674C59.8805 85.9445 60.5614 86.4099 61.1678 86.9525C59.9976 86.6626 58.6571 86.0296 57.4524 86.1466C56.447 86.3408 55.5375 87.1413 54.6438 87.6307C53.1811 88.4525 52.0162 89.644 50.5401 90.4339C48.9816 91.2796 47.2662 91.9658 45.4896 92.1333C43.8034 92.2716 42.2875 91.8009 40.7529 91.1626C39.8752 90.8248 38.9337 90.2743 37.9949 90.2184C36.5268 90.1307 35.0215 90.3886 33.5907 90.6865C32.2901 90.9578 30.8513 90.8301 29.5135 90.8647C27.2369 90.987 24.9151 89.9658 23.2396 88.4658C21.2556 86.612 19.3646 84.3674 18.5348 81.737C17.9098 79.8142 16.838 77.9604 15.7715 76.2503C14.8779 74.8408 14.4603 73.2344 13.5534 71.8301C12.5322 69.9631 10.8726 68.7211 9.69971 66.9471C10.6731 66.6918 11.6412 66.5987 12.6439 66.5748C14.072 66.5376 15.3859 66.1227 16.7369 65.6971C18.1678 65.2397 19.3433 64.3514 20.7609 63.8487C22.5029 63.2264 24.2981 62.6838 26.1013 62.2743C28.0774 61.9924 29.8806 61.6546 31.8699 62.0402Z" fill="#FF7D54"/>
<path d="M23.8353 64.604C24.9869 64.8221 25.8645 65.3061 26.697 66.1226C28.1571 67.5375 28.8486 69.9099 29.58 71.7583C30.0374 72.9285 31.0028 73.6944 32.0055 74.3912C32.8619 74.8646 33.9523 74.9657 34.8911 75.2263C36.9869 75.745 38.9497 76.6891 41.0401 77.2077C40.1864 76.1944 38.9231 75.37 38.2794 74.229C37.7901 73.213 37.6731 72.0242 37.2901 70.9604C36.7608 69.3088 35.6199 68.3779 34.7901 66.8301C35.9443 67.6067 36.947 68.5721 37.6837 69.7556C38.5507 71.1997 38.5826 73.1811 39.5693 74.5242C40.7263 75.9125 42.322 76.9471 43.681 78.1306C45.6837 80.0162 48.5028 81.1918 51.0108 82.2556C51.9124 82.6492 52.7156 83.1652 53.5188 83.721C51.806 83.7157 50.2848 83.1492 48.6172 83.4019C47.4576 83.5508 46.2821 83.6918 45.1491 83.9817C43.4071 84.463 42.2582 85.6997 40.5294 86.2769C39.2023 86.7689 37.83 86.8726 36.4257 86.8753C37.6252 86.3833 38.8645 86.0109 40.088 85.5827C41.4284 85.1067 42.4497 84.2609 43.6624 83.5747C45.1651 82.7742 47.0933 82.6838 48.7502 82.4817C47.5454 81.471 46.1571 80.9843 44.8406 80.1572C44.1491 79.7556 43.4789 79.229 42.7316 78.9444C41.947 79.1067 41.2475 79.4125 40.4204 79.3567C39.1651 79.3008 38.08 79.7689 36.9949 80.3434C35.5773 81.1093 34.9523 82.5109 33.5507 83.2875C31.572 84.4019 29.431 85.1625 27.1252 85.0508C29.072 84.1625 31.1704 83.5482 33.0427 82.5162C34.3592 81.7795 35.1598 80.5721 36.3433 79.7024C37.7316 78.7689 39.455 78.62 41.064 78.4125C39.6784 77.5721 38.2236 77.1386 36.697 76.5934C34.7635 75.8886 32.7342 75.6492 30.7582 75.0694C29.9736 74.8274 29.2475 75.0083 28.4816 75.2157C27.1837 75.5934 26.2927 76.5854 25.0108 77.1333C23.9151 77.596 22.7289 78.2928 21.5374 78.3992C20.181 78.4737 18.8938 78.4923 17.705 77.737C19.2954 77.6705 21.1518 77.7822 22.6465 77.1652C24.4763 76.3859 26.2635 75.5774 27.8699 74.3859C26.5853 73.7556 25.1731 73.5801 23.9098 72.9072C23.0188 72.4471 22.0906 72.0694 21.2076 71.596C18.9177 70.2662 16.2103 69.5003 13.6757 68.7769C13.1092 68.5535 12.5321 68.5694 12.4443 67.8301C13.447 67.8939 14.4071 68.1306 15.3619 68.4231C17.3699 69.0428 19.338 69.5029 21.1624 70.588C23.806 72.0535 26.6199 73.0216 29.5294 73.7955C28.3034 71.338 27.9975 69.0987 26.3725 66.979C25.6624 66.0189 24.5587 65.5615 23.8353 64.604Z" fill="#202530"/>
<path d="M126.277 68.3887C126.202 69.0163 126.117 69.6147 125.785 70.1679C124.41 72.5935 122.035 74.5562 120.29 76.6919C119.814 77.2637 119.303 77.745 118.705 78.1919C118.713 77.4711 118.729 76.7823 118.921 76.0855C119.349 74.644 119.535 73.3115 120.434 72.0589C121.181 71.0748 122.293 70.3009 123.258 69.5349C124.157 68.8488 125.133 68.4153 126.277 68.3887Z" fill="white"/>
<path d="M113.689 71.5107C114.045 73.3964 114.689 75.1889 115.091 77.0586C114.777 76.7421 114.362 76.4044 114.186 75.9868C113.604 74.5054 113.649 73.0719 113.689 71.5107Z" fill="white"/>
<path d="M46.0693 71.7637C46.3752 72.0775 46.6677 72.386 46.8858 72.7717C47.8832 74.6919 48.3646 77.0589 49.6731 78.7796C50.3672 79.7876 51.2263 80.5163 51.6332 81.7105C51.1864 81.5935 50.7848 81.5509 50.4763 81.1679C49.1624 79.6573 48.0959 77.8967 47.4417 75.9977C46.9709 74.5988 46.3725 73.2105 46.0693 71.7637Z" fill="#202530"/>
<path d="M111.199 73.104C111.963 73.4684 112.162 74.6971 112.659 75.3593C113.343 76.2928 113.598 77.3487 113.992 78.4125C114.253 78.213 114.508 78.0109 114.766 77.8061C115.933 78.9923 116.856 80.2955 117.165 81.963C117.101 83.0295 116.665 84.0641 116.55 85.1359C116.963 84.5508 117.33 83.9604 117.495 83.2529C118.024 80.987 119.915 79.0668 121.915 77.995C122.824 77.4604 123.659 76.8806 124.699 76.6173C124.675 78.3354 123.489 79.0402 122.37 80.0801C121.364 81.4577 120.109 82.596 119.072 83.9391C118.136 85.3753 117.487 86.9577 116.412 88.3168C116.221 87.9604 116.013 87.5934 115.872 87.2157C115.811 86.5854 115.995 85.8434 115.761 85.2556C115.08 83.4817 114.056 82.0588 113.165 80.4232C112.503 79.2343 111.739 78.2503 111.308 76.9391C110.904 75.5827 110.375 74.4418 111.199 73.104Z" fill="white"/>
<path d="M124.043 73.9336C123.348 74.8565 122.476 75.7421 121.535 76.415C122.25 75.516 123.138 74.6437 124.043 73.9336Z" fill="white"/>
<path d="M98.4042 74.1387C98.7845 75.7823 98.601 77.6014 98.3377 79.2557C98.1489 80.7158 98.359 82.1972 98.2526 83.652C98.2845 83.9419 97.7101 83.9525 97.5133 84.0669C97.3962 81.8302 97.859 79.6413 97.7553 77.394C97.8297 76.2211 97.4521 75.0137 98.4042 74.1387Z" fill="#202530"/>
<path d="M109.253 79.9897C109.989 81.011 110.497 82.16 111.25 83.1679C112.311 84.6254 113.867 85.7663 114.957 87.1679C115.777 88.2424 116.021 89.5589 116.072 90.8807C115.939 91.3195 115.697 91.7823 115.649 92.2371C115.79 92.6201 115.981 92.9818 116.12 93.3647C115.992 93.9658 115.779 94.6041 115.867 95.2158C116.003 95.6759 116.295 96.1068 116.553 96.5057C116.638 95.4631 116.449 94.3541 116.66 93.3328C116.947 92.3674 117.484 91.4605 117.989 90.5908C119.396 88.6041 120.896 86.7796 123.096 85.6254C123.064 87.7291 121.862 89.5376 120.785 91.2557C120.003 92.5084 118.894 93.4472 118.072 94.6626C117.612 95.3514 117.08 96.003 116.676 96.7238C116.593 97.1201 116.601 97.5376 116.582 97.9392C116.886 97.785 117.176 97.7211 117.346 97.3967C118.061 96.2397 118.606 95.0323 119.545 94.0163C120.59 92.8674 121.38 91.5403 122.351 90.3355C122.433 91.2344 122.484 92.1334 122.558 93.0296C121.495 94.1227 120.261 94.9871 119.106 95.9711C118.048 96.9312 117.162 98.2983 117.122 99.7637C117.109 100.788 116.976 101.7 117.652 102.556C117.676 101.455 117.548 100.226 117.766 99.144C118.032 98.0961 118.75 97.3594 119.484 96.6094C120.5 95.6387 121.529 94.7451 122.806 94.128C122.798 94.9658 122.699 95.6892 122.263 96.4206C121.407 97.9312 120.508 99.4631 119.473 100.857C118.476 102.027 117.649 103.317 116.939 104.676C116.617 107.535 117.085 110.607 118.021 113.328C118.399 114.495 118.678 115.689 119.061 116.854C119.516 118.24 120.21 119.405 120.436 120.867C119.356 119.676 119.136 118.261 118.351 116.761C117.524 114.75 116.426 112.883 115.995 110.788C115.537 109.328 115.665 107.934 114.949 106.572C115.069 106.394 115.189 106.216 115.308 106.038C114.62 104.503 114.537 102.939 114.362 101.304C114.136 100.367 113.872 99.4871 113.226 98.7504C111.859 97.1201 110.372 95.7052 109.439 93.7504C108.601 91.9977 107.367 89.9844 107.519 88.0004C109.194 89.1121 110.537 90.6307 112.183 91.8062C113.375 92.6387 114.346 93.8089 114.699 95.2424C114.933 96.7371 114.527 97.9924 114.463 99.4791C114.683 98.1546 115 96.8195 115.074 95.4791C115.125 94.7105 114.838 94.0908 114.617 93.3807C114.388 92.6972 114.606 92.0802 114.114 91.4871C113.242 90.3967 112.457 89.2451 111.543 88.1865C110.678 87.1626 110.324 85.9924 109.918 84.7397C109.455 83.1786 109.088 81.6334 109.253 79.9897Z" fill="white"/>
<path d="M118.035 80.3462C118.008 80.5643 117.984 80.7824 117.96 81.0004C117.74 81.027 117.519 81.051 117.301 81.0749C117.397 80.3595 117.322 80.4473 118.035 80.3462Z" fill="white"/>
<path d="M121.83 81.9365C122.098 82.9126 122.285 83.9073 122.543 84.8833C121.649 85.7371 120.641 86.4498 119.766 87.3248C118.484 88.5323 117.598 90.2238 116.636 91.7238C116.471 91.277 116.359 90.8434 116.322 90.3674C116.41 89.745 116.444 89.1785 116.896 88.6972C118.082 87.2743 118.628 85.5615 119.723 84.0961C120.319 83.2929 121.093 82.6041 121.83 81.9365Z" fill="white"/>
<path d="M57.4733 87.7582C58.5238 87.4071 59.7845 87.6811 60.843 87.8938C61.0531 88.838 60.9281 89.7449 60.8722 90.6944C61.0159 92.1279 61.0611 93.5508 61.0611 94.9923C59.9068 95.4071 58.9839 96.0082 57.71 95.8726C56.9068 95.7928 55.8563 95.6039 55.2871 94.9789C54.7552 94.455 54.7712 93.5986 54.8563 92.9098C56.0504 91.0534 58.5398 89.6359 60.7153 90.6492C60.7286 90.2901 60.7419 89.9284 60.7579 89.5694C58.7898 89.1146 56.6675 89.7609 55.1621 91.0694C54.6887 91.4843 54.327 92.0162 53.8536 92.4284C53.2286 92.705 52.5664 92.8965 51.944 93.1891C50.9467 93.7901 49.9307 93.1784 48.7393 93.1465C50.7047 92.0268 52.3031 90.4683 54.3058 89.4204C55.4494 88.838 56.2526 88.1013 57.4733 87.7582Z" fill="white"/>
<path d="M116.322 90.3672C116.359 90.8433 116.471 91.2768 116.636 91.7236C116.431 92.2581 116.271 92.814 116.12 93.3645C115.981 92.9815 115.79 92.6198 115.649 92.2369C115.697 91.7821 115.939 91.3193 116.072 90.8805C116.09 91.0906 116.112 91.3007 116.136 91.5108C116.202 91.1305 116.263 90.7502 116.322 90.3672Z" fill="#202530"/>
<path d="M53.4841 93.3486C53.8432 94.1704 54.0772 95.1412 54.8485 95.6864C55.7607 96.3433 56.7926 96.4284 57.8591 96.6625C56.0613 97.9045 53.9176 98.2742 51.7793 97.9497C50.8511 97.4471 50.7261 96.1492 51.1464 95.2768C51.7368 94.3965 52.4442 93.6758 53.4841 93.3486Z" fill="white"/>
<path d="M50.1302 94.5404C50.101 95.4579 50.0026 96.4313 50.1701 97.3356C50.4467 98.2983 51.476 98.5191 52.2925 98.8515C50.2552 99.1069 48.4627 99.5776 46.585 100.402C45.9866 99.9499 45.4946 99.5005 44.6861 99.543C42.5371 99.5563 40.3749 100.062 38.3988 100.899C37.327 101.354 36.5212 102.28 35.468 102.724C34.1808 103.099 33.0105 102.53 31.8403 102.067C32.6887 101.599 33.6355 101.205 34.3776 100.604C35.0664 100.056 35.7127 99.4473 36.4068 98.9047C37.3563 98.1441 38.452 97.6175 39.5105 96.9579C40.835 96.1335 42.3191 95.4632 43.8563 95.16C45.9308 94.7558 48.0105 94.4553 50.1302 94.5404Z" fill="#FF7D54"/>
<path d="M60.9974 95.2607C61.1011 97.4177 61.0001 99.5879 60.9948 101.747C59.4708 101.644 57.8884 101.426 56.3857 101.152C55.5878 101.008 55.1623 100.45 54.907 99.7209C54.8511 98.8618 55.54 98.2687 56.3059 98.0453C57.149 97.7767 57.766 97.3006 58.3937 96.6996C59.1995 96.1357 60.141 95.7474 60.9974 95.2607Z" fill="white"/>
<path d="M106.638 96.0879C108.38 96.532 110.013 97.5799 111.378 98.7262C112.133 99.3485 112.984 99.9895 113.548 100.795C113.88 101.466 114.008 102.25 114.226 102.966C114.452 103.795 114.577 104.569 114.513 105.436C113.768 104.136 112.675 103.202 111.449 102.38C110.479 101.75 109.755 100.896 109.037 100.005C108.045 98.7475 107.032 97.6969 106.638 96.0879Z" fill="white"/>
<path d="M122.503 97.3301C122.984 98.7317 122.683 100.394 122.737 101.862C122.782 106.213 122.657 110.548 122.79 114.897C123.093 116.857 122.987 118.79 122.981 120.764C122.976 121.186 122.957 121.596 122.792 121.992C122.489 122.064 122.279 121.968 122.162 121.708C121.495 120.721 121.205 119.444 120.691 118.354C119.513 115.936 118.808 113.242 118.05 110.663C117.628 109.048 117.026 107.264 117.093 105.585C117.925 104.245 118.808 102.939 119.763 101.681C120.8 100.309 121.657 98.8274 122.503 97.3301Z" fill="white"/>
<path d="M52.9893 98.4497C53.4095 98.4736 53.8084 98.5587 54.21 98.6811C53.7685 98.6997 52.9972 99.2024 52.9893 98.4497Z" fill="#FF7D54"/>
<path d="M53.835 99.8167C54.242 100.548 54.7553 101.194 55.2845 101.841C54.742 102.508 54.2446 103.293 53.5744 103.838C52.5239 104.633 51.2393 104.46 49.9893 104.468C49.2898 104.418 48.2393 104.447 47.8217 103.764C47.5638 103.101 47.5425 102.314 48.0212 101.74C48.6569 100.708 50.1861 100.378 51.2579 99.9497C52.1223 99.5986 52.9414 99.6811 53.835 99.8167Z" fill="white"/>
<path d="M10.8594 100.139C11.8727 100.367 12.8408 100.657 13.8886 100.705C15.9152 100.766 17.9205 100.907 19.9471 100.718C24.245 100.471 27.8886 101.833 31.8328 103.285C32.8195 103.687 34.1041 104.088 35.1599 103.777C36.6971 103.325 37.6067 102.131 39.0934 101.562C41.1652 100.724 43.5854 100.144 45.8115 100.604C44.7902 101.612 43.4897 102.187 42.1014 102.495C39.7955 102.937 37.5296 104.08 35.4099 105.072C34.1386 105.572 32.7663 105.814 31.4604 106.218C28.5934 107.032 25.4126 107.958 22.4232 107.516C20.7184 107.173 19.0429 106.532 17.6067 105.543C16.1865 104.575 14.7929 103.841 13.5535 102.665C12.6493 101.801 11.6572 101.117 10.8594 100.139Z" fill="#FF7D54"/>
<path d="M132.479 100.378C133.524 100.335 134.585 100.327 135.628 100.428C136.048 100.42 136.306 100.96 136.527 101.25C135.016 101.272 133.607 100.702 132.224 101.107C131.665 101.237 130.944 101.532 130.942 102.208C130.7 104.056 132.365 105.817 134.266 105.402C135.378 105.117 136.875 104.753 137.628 103.827C138.272 103.117 137.325 102.237 137.059 101.527C137.415 101.854 137.804 102.202 138.08 102.601C138.226 103.197 138.319 103.835 137.764 104.25C136.394 105.434 134.349 106.224 132.532 105.955C131.003 105.649 129.66 103.655 129.958 102.144C130.442 101.256 131.423 100.399 132.479 100.378Z" fill="#202530"/>
<path d="M114.362 101.303C114.537 102.939 114.62 104.503 115.309 106.037C115.189 106.215 115.069 106.394 114.949 106.572C114.79 106.199 114.649 105.819 114.513 105.436C114.577 104.569 114.452 103.795 114.226 102.965C114.263 102.41 114.327 101.856 114.362 101.303Z" fill="#202530"/>
<path d="M124.614 102.998C126.048 102.998 127.782 102.976 128.761 104.221C129.255 104.934 129.069 105.583 128.503 106.17C127.468 107.016 126.255 107.612 124.894 107.615C124.683 106.056 124.596 104.569 124.614 102.998Z" fill="white"/>
<path d="M53.6039 104.471C53.6837 105.495 53.8114 106.516 53.9577 107.532C52.9231 107.508 51.4683 107.79 50.6226 107.088C50.1279 106.586 50.2449 106.062 50.322 105.429C51.4603 105.187 52.5162 104.881 53.6039 104.471Z" fill="white"/>
<path d="M109.16 105.987C109.242 108.269 109.319 110.54 109.449 112.822C109.564 114.146 109.891 115.5 109.532 116.814C109.221 118.112 108.806 119.41 108.34 120.66C107.862 121.827 107.404 122.995 107.168 124.239C108.104 125.008 109.136 125.625 110.12 126.325C111.521 127.532 113.678 127.601 115.428 128.33C112.934 128.474 110.699 127.396 108.226 127.54C107.157 127.62 106.285 127.197 105.359 126.731C104.572 128.527 103.255 130.064 101.593 131.104C100.444 131.838 99.6277 132.875 98.2021 132.92C98.2208 132.724 98.2367 132.527 98.2553 132.33C99.5346 131.684 100.505 130.7 101.676 129.894C103.202 128.803 104.146 127.351 105.487 125.936C106.742 126.681 107.633 126.864 109.088 126.673C108.253 126.093 107.197 125.62 106.516 124.87C106.378 123.867 106.835 122.713 107.125 121.755C107.896 119.79 108.532 117.787 108.862 115.697C108.997 114.45 108.535 113.245 108.609 111.981C108.668 110 108.402 107.822 109.16 105.987Z" fill="#202530"/>
<path d="M137.915 108.684C139.226 108.88 140.604 109.649 141.49 110.633C142.064 111.266 141.857 112.16 141.891 112.939C141.101 113.407 140.346 113.801 139.391 113.678C137.601 113.505 135.713 112.846 134.25 111.79C135.46 112.237 136.742 112.942 138.035 113.146C138.902 113.245 139.819 113.277 140.678 113.096C141.33 112.88 141.511 112.253 141.314 111.644C141.024 110.878 140.232 110.29 139.532 109.915C138.003 109.16 136.139 108.976 134.506 109.503C133.641 109.734 132.971 110.216 132.069 110.279C132.263 109.992 132.442 109.548 132.774 109.404C134.396 108.591 136.141 108.489 137.915 108.684Z" fill="#202530"/>
<path d="M130.963 110.803C131.968 111.394 132.394 112.04 132.391 113.224C131.226 113.91 130.131 114.101 128.795 113.859C127.482 113.588 126.016 113.136 124.974 112.264C124.338 111.737 124.798 110.95 124.947 110.303C126.83 109.564 129.194 109.873 130.963 110.803Z" fill="white"/>
<path d="M52.9975 110.296C53.0533 110.532 53.1092 110.769 53.1624 111.006C51.5374 110.54 49.806 110.804 48.3539 111.641C47.5586 112.094 47.3778 113.285 48.0533 113.913C48.5294 114.298 49.2129 114.45 49.8113 114.503C51.689 114.756 53.5427 113.535 54.8884 112.352C54.1225 113.883 52.6012 114.655 51.0214 115.109C50.0746 115.378 49.0985 115.112 48.181 114.849C47.0719 114.54 46.4177 113.352 46.6836 112.242C47.2235 111.325 48.165 110.583 49.2209 110.367C50.5134 110.096 51.7102 109.79 52.9975 110.296Z" fill="#202530"/>
<path d="M22.5771 113.814C23.3058 113.676 24.0903 113.745 24.827 113.796C24.0265 114.264 23.1914 114.232 22.2925 114.248C22.3856 114.101 22.4787 113.955 22.5771 113.814Z" fill="#202530"/>
<path d="M42.4232 115.596C43.9844 114.809 45.253 115.692 46.5722 116.474C47.3089 117.029 47.7743 118.067 47.0243 118.827C45.8142 119.854 44.2663 120.588 42.6998 120.854C41.9977 120.974 41.253 120.851 40.6014 120.58C39.6706 120.165 39.2557 118.918 39.5429 117.99C40.2424 116.947 41.2743 116.104 42.4232 115.596Z" fill="#202530"/>
<path d="M43.1649 116.003C43.7474 115.801 44.5665 115.766 45.1676 115.902C45.7474 116.237 46.3006 116.724 46.6171 117.325C46.7128 117.785 46.8272 118.381 46.3857 118.7C45.5825 119.274 44.6596 119.737 43.7447 120.107C42.7288 120.53 41.282 120.407 40.5399 119.532C40.0878 119.088 40.2899 118.232 40.6463 117.788C41.2926 116.987 42.1889 116.336 43.1649 116.003Z" fill="white"/>
<path d="M55.0801 116.332C56.6705 116.266 58.1173 116.136 59.495 117.08C59.5136 117.33 59.5296 117.58 59.5482 117.83C58.6067 117.442 57.7078 116.87 56.6572 116.91C55.8407 116.883 55.0774 117.098 54.3195 117.378C54.3195 117.907 54.2769 118.487 54.4099 119C54.8833 119.931 55.9019 120.356 56.9099 120.332C58.112 120.362 59.1067 119.944 60.2237 119.588C58.9897 120.359 57.6439 120.926 56.1572 120.856C54.5322 120.753 53.1572 119.285 53.3354 117.628C53.4578 116.771 54.2982 116.386 55.0801 116.332Z" fill="#202530"/>
<path d="M140.849 123.093C142.234 122.66 143.771 122.631 145.205 122.779C145.777 122.859 145.934 123.014 146.149 123.548C144.274 123.559 142.713 123.099 140.857 123.819C140.117 124.115 139.67 124.676 139.173 125.266C139.548 126.713 140.896 127.54 142.285 127.774C143.631 127.798 145.037 127.234 146.173 126.54C147.138 125.955 148.083 125.521 148.66 124.498C148.237 124.131 147.803 123.777 147.381 123.412C147.896 123.625 148.415 123.843 148.934 124.056C148.862 125.386 147.843 125.716 146.918 126.423C145.567 127.418 143.95 128.067 142.287 128.282C140.944 128.258 139.559 127.49 138.7 126.474C138.29 126.064 138.38 125.434 138.479 124.915C139.08 124.139 139.952 123.49 140.849 123.093Z" fill="#202530"/>
<path d="M122.051 123.705C123.003 124.78 123.955 125.886 124.849 127.008C125.761 128.309 126.79 129.49 128.022 130.5C129.048 131.333 129.899 132.341 130.95 133.149C132.048 133.992 133.165 134.883 134.061 135.958C132.482 135.141 131.115 133.875 129.713 132.79C128.295 131.708 127.189 130.365 126.008 129.046C124.455 127.468 123.205 125.585 122.051 123.705Z" fill="white"/>
<path d="M156.889 125.679C158.021 126.152 158.745 127.652 159.396 128.636C160.011 129.535 160.279 130.588 159.803 131.612C159.41 132.304 158.338 132.586 157.657 132.931C156.537 133.516 155.253 133.711 154 133.591C152.758 132.985 150.99 132.298 150.49 130.902C150.146 130.051 150.468 129.139 151.176 128.586C152.216 127.804 153.389 127.168 154.577 126.644C155.325 126.312 156.093 125.849 156.889 125.679Z" fill="#202530"/>
<path d="M157.037 126.726C157.867 127.386 158.335 128.508 158.928 129.378C159.428 130.072 159.242 131.197 158.468 131.612C157.335 132.152 156.359 132.742 155.056 132.647C153.976 132.729 152.875 132.099 152.008 131.511C151.319 130.992 151.085 130.394 151.194 129.538C151.463 129.085 151.949 128.78 152.409 128.546C154.018 129.104 155.354 130.484 156.92 131.192C155.963 129.769 154.016 129.179 153.356 127.647C153.803 127.756 154.234 127.822 154.62 128.093C155.923 128.968 157.064 130.115 158.322 131.064C157.26 129.726 156.128 128.53 154.891 127.357C155.481 127.072 156.364 126.439 157.037 126.726Z" fill="white"/>
<path d="M140.458 129.221C141.373 128.833 142.583 129.386 143.495 129.62C144.33 129.862 145.229 129.981 146.032 130.309C146.958 131.348 146.66 132.862 145.849 133.872C145.093 135.008 143.811 135.604 142.551 136.003C141.559 136.059 140.652 135.726 139.859 135.146C139.301 134.729 138.506 134.497 138.258 133.827C138.072 133.407 137.915 132.944 137.907 132.481C138.447 131.245 139.136 129.774 140.458 129.221Z" fill="#202530"/>
<path d="M142.208 129.875C142.279 131.596 141.511 132.907 140.625 134.295C139.785 134.104 139.205 133.838 138.564 133.258C138.976 132.25 139.412 131.043 140.213 130.279C140.811 130.003 141.559 129.947 142.208 129.875Z" fill="white"/>
<path d="M143.681 130.314C143.801 131.716 143.293 132.862 143.021 134.202C143.801 133.093 143.992 131.843 144.596 130.641C144.941 130.774 145.287 130.907 145.633 131.04C145.644 131.713 145.811 132.543 145.343 133.101C144.864 133.75 144.279 134.458 143.519 134.774C142.665 135.146 141.835 135.04 140.952 134.864C141.372 133.793 142.067 132.894 142.42 131.798C142.769 131.056 142.66 130.346 143.681 130.314Z" fill="white"/>
<path d="M141.16 137.623C141.165 138.567 141.194 139.171 140.468 139.865C139.277 139.407 138.138 138.918 136.907 138.617C136.269 138.466 135.646 138.293 135.045 138.016C135.572 137.886 136.043 137.734 136.58 137.899C137.798 138.234 138.958 138.769 140.184 139.091C139.351 138.514 138.455 138.027 137.604 137.476C138.92 137.325 139.942 136.798 141.16 137.623Z" fill="white"/>
<path d="M134.304 138.673C136.216 139.141 138.458 139.33 140.152 140.367C139.468 140.836 138.865 141.362 137.995 141.386C136.442 141.5 134.875 141.298 133.796 140.059C133.296 139.599 134.064 139.072 134.304 138.673Z" fill="white"/>
</svg>
