<svg width="290" height="290" viewBox="0 0 290 290" fill="none" xmlns="http://www.w3.org/2000/svg">
<path d="M43 244.481C56.1335 244.481 62.213 244.481 64.6726 244.435C75.9498 244.481 77.9918 238.819 79.152 234.921C77.2028 229.12 74.6968 227.032 67.5499 226.382V226.289C74.0471 225.222 75.8106 221.463 76.6924 218.539C74.836 212.228 70.6129 210.464 63.6981 210.464H43.0928V210.789L45.6917 216.544L47.1767 227.449L45.5989 238.402L43 244.156V244.481ZM55.9943 212.877H59.5213C63.5124 212.877 66.761 214.919 66.761 219.05C66.761 223.412 63.3268 225.64 59.2429 225.64H54.1844L55.9943 212.877ZM53.9987 228.053H60.4031C65.2295 228.053 68.6637 230.373 68.6637 234.875C68.6637 239.84 64.3942 242.022 60.6815 242.022H55.9943L53.9987 228.053Z" fill="#F04E36"/>
<path d="M107.489 244.481L108.881 231.719H108.556L99.4599 242.068H93.5197L91.4313 227.449L93.0092 216.544L97.9285 210.789V210.464H80.5254V210.789L83.1242 216.544L84.7021 227.449L83.1242 238.402L80.5254 244.156V244.481H107.489Z" fill="#F04E36"/>
<path d="M112.719 238.402L110.12 244.156V244.481H137.965L139.403 232.137H139.078L129.797 242.068H123.114L121.165 228.378L130.214 230.466H130.539V224.108H130.214L121.165 226.382L123.114 212.877H128.869L138.104 222.716H138.429L137.036 210.464H110.12V210.789L112.719 216.544L114.296 227.449L112.719 238.402Z" fill="#F04E36"/>
<path d="M140.802 210.789L145.071 216.544V235.339L143.076 244.156V244.481H154.214V244.156L147.531 238.402V218.307L170.874 244.481H173.334V219.606L175.329 210.789V210.464H164.284V210.789L170.874 216.451V229.723L161.036 224.758L153.332 210.464H140.802V210.789Z" fill="#F04E36"/>
<path d="M193.077 244.481C205.235 244.481 211.176 241.14 213.821 227.449C210.572 215.662 206.117 210.464 193.077 210.464H176.741V210.789L179.34 216.544L180.918 227.449L179.34 238.402L176.741 244.156V244.481H193.077ZM189.735 212.877H191.823C199.713 212.877 203.75 217.889 203.75 227.449C203.75 236.545 200.827 242.068 191.823 242.068H189.735L187.647 227.449L189.735 212.877Z" fill="#F04E36"/>
<path d="M215.218 238.263C215.218 238.263 219.812 244.945 230.625 244.945C240.093 244.945 246.265 241.047 246.265 234.689C246.265 230.605 243.852 228.006 238.283 225.083C230.115 220.813 226.588 219.328 226.588 216.265C226.588 214.641 228.027 212.506 232.76 212.506C236.38 212.506 238.051 213.481 238.051 213.481L240.603 221.463H240.928L244.316 213.341C244.316 213.341 239.582 210 232.296 210C223.107 210 217.121 214.455 217.121 219.189C217.121 223.644 221.065 226.382 225.381 228.795C232.992 233.065 235.22 234.689 235.22 237.659C235.22 239.608 233.549 241.65 228.769 241.65C225.381 241.65 221.576 239.84 220.508 238.959L219.58 230.605H219.255L215.218 238.263Z" fill="#F04E36"/>
<path d="M135.358 75.43L130.328 33H105.337C105.315 33 105.294 33.0001 105.272 33.0003H97C97.5875 34.7679 98.2529 37.7339 98.8413 40.599L103.033 79.5121L102.905 80.4234H124.82V80.422H130.089C132.999 80.422 135.358 78.3191 135.358 75.7249V75.43Z" fill="#F04E36"/>
<path d="M146.625 84.2313L140.27 33.0015H150.938L158.12 93.0436V93.6867C158.12 96.2808 155.761 98.3838 152.851 98.3838H100.387L101.674 89.2076H141.742C143.163 89.2076 144.514 88.6607 145.45 87.7073C146.386 86.7539 146.814 85.4868 146.625 84.2313Z" fill="#F04E36"/>
<path d="M169.387 102.456L160.88 33.0015H162.826L162.823 33.0002H173.205C172.798 34.2104 172.271 38.1382 172.564 41.5018L180.948 110.312C181.446 113.864 178.339 117.001 174.324 117.001H105.338C105.186 117.001 105.035 116.996 104.885 116.987H97.8306L98.6715 110.741C98.68 110.598 98.6942 110.455 98.7144 110.312L99.0696 107.778H164.504C165.925 107.778 167.276 107.193 168.212 106.173C169.147 105.154 169.576 103.799 169.387 102.456Z" fill="#F04E36"/>
<path fill-rule="evenodd" clip-rule="evenodd" d="M182.326 43.3067H169.841V33H192.657V90.6589L186.912 93.4828C182.349 95.7257 179.695 100.601 180.287 105.651L180.511 107.555H170.272L169.185 99.5307C168.501 94.4831 171.127 89.5651 175.702 87.325C179.756 85.3399 182.326 81.2199 182.326 76.7061V43.3067Z" fill="#F04E36"/>
<path d="M158.157 144.705C153.684 144.705 147.836 145.588 142.581 149.23C137.301 152.89 132.742 159.249 130.72 169.96L130.685 170.143L130.719 170.327C132.301 178.861 135.225 185.215 139.658 189.435C144.111 193.674 149.971 195.65 157.182 195.65C163.192 195.65 168.239 193.453 171.844 189.633C175.441 185.821 177.543 180.46 177.811 174.218L177.846 173.403L175.69 172.864L175.365 173.671C173.779 177.604 171.835 180.486 169.397 182.389C166.975 184.279 163.984 185.265 160.172 185.265C153.578 185.265 146.937 179.617 146.937 167.935C146.937 162.651 148.189 158.17 150.358 155.042C152.509 151.94 155.565 150.15 159.327 150.15C162.211 150.15 163.968 150.965 164.983 151.711C165.497 152.088 165.836 152.459 166.041 152.724C166.109 152.811 166.162 152.887 166.202 152.947L166.616 165.1H168.561L177.232 152.591L176.722 152.004L175.967 152.66C176.722 152.004 176.721 152.003 176.721 152.003L176.721 152.002L176.719 152L176.713 151.993L176.694 151.973C176.679 151.956 176.658 151.932 176.63 151.903C176.576 151.844 176.498 151.761 176.395 151.658C176.191 151.451 175.89 151.162 175.495 150.818C174.704 150.131 173.53 149.224 171.978 148.319C168.87 146.506 164.245 144.705 158.157 144.705Z" fill="#F04E36"/>
<path d="M205.178 144.705C200.704 144.705 194.857 145.588 189.602 149.23C184.321 152.89 179.763 159.249 177.741 169.96L177.706 170.143L177.74 170.327C179.321 178.861 182.245 185.215 186.679 189.435C191.132 193.674 196.992 195.65 204.203 195.65C210.213 195.65 215.26 193.453 218.865 189.633C222.462 185.821 224.564 180.46 224.832 174.218L224.867 173.403L222.711 172.864L222.386 173.671C220.8 177.604 218.856 180.486 216.417 182.389C213.996 184.279 211.005 185.265 207.193 185.265C200.599 185.265 193.958 179.617 193.958 167.935C193.958 162.651 195.21 158.17 197.379 155.042C199.53 151.94 202.586 150.15 206.348 150.15C209.232 150.15 210.989 150.965 212.004 151.711C212.518 152.088 212.857 152.459 213.062 152.724C213.13 152.811 213.183 152.887 213.222 152.947L213.637 165.1H215.582L224.253 152.591L223.743 152.004L222.988 152.66C223.743 152.004 223.742 152.003 223.742 152.003L223.741 152.002L223.739 152L223.734 151.993L223.715 151.973L223.689 151.943L223.651 151.903C223.597 151.844 223.518 151.761 223.416 151.658C223.212 151.451 222.911 151.162 222.516 150.818C221.725 150.131 220.551 149.224 218.999 148.319C215.891 146.506 211.266 144.705 205.178 144.705Z" fill="#F04E36"/>
<path fill-rule="evenodd" clip-rule="evenodd" d="M253.239 144.705C246.232 144.705 240.026 146.059 235.092 149.976C230.154 153.895 226.642 160.259 224.762 169.955L224.726 170.145L224.762 170.335C226.642 180.031 230.153 186.41 235.09 190.346C240.024 194.279 246.23 195.65 253.239 195.65C260.249 195.65 266.454 194.279 271.388 190.346C276.325 186.41 279.836 180.031 281.716 170.335L281.753 170.145L281.716 169.955C279.836 160.259 276.325 153.895 271.386 149.976C266.452 146.059 260.247 144.705 253.239 144.705ZM240.914 170.159C241.011 163.135 242.11 158.111 244.155 154.885C246.144 151.748 249.083 150.22 253.225 150.28L253.232 150.28H253.239C257.417 150.28 260.413 151.872 262.421 155.033C264.48 158.273 265.564 163.261 265.564 170.145C265.564 177.029 264.481 182.035 262.42 185.292C260.41 188.47 257.413 190.075 253.239 190.075C249.062 190.075 246.015 188.467 243.982 185.288C241.902 182.035 240.818 177.034 240.914 170.159Z" fill="#F04E36"/>
<path fill-rule="evenodd" clip-rule="evenodd" d="M38.99 145.355H9.13V147.025L12.7988 155.149L14.8402 170.141L12.6704 185.202L9 193.33V195H10.0483C28.3812 195 36.9005 195 40.3623 194.935C48.4218 194.966 53.3553 192.956 56.4852 190.081C59.5947 187.225 60.7766 183.64 61.5935 180.895L61.6838 180.592L61.5829 180.292C60.193 176.155 58.5495 173.165 55.8417 171.126C54.0416 169.77 51.8343 168.882 49.0564 168.304C51.3828 167.394 53.1317 166.16 54.4628 164.755C56.5296 162.574 57.5123 160.06 58.1474 157.954L58.2334 157.669L58.1494 157.383C56.7937 152.774 54.5297 149.705 51.243 147.827C48.0023 145.975 43.8923 145.355 38.99 145.355ZM33.14 150.735H29.0682L26.8168 166.61H32.75C35.4403 166.61 37.8338 165.875 39.5329 164.507C41.2057 163.161 42.28 161.144 42.28 158.38C42.28 155.781 41.2727 153.915 39.6897 152.675C38.0758 151.412 35.7787 150.735 33.14 150.735ZM29.0673 189.555L26.558 171.99H34.375C37.61 171.99 40.2605 172.769 42.0791 174.191C43.8651 175.587 44.945 177.675 44.945 180.545C44.945 183.696 43.6074 185.91 41.6992 187.363C39.759 188.84 37.1881 189.555 34.765 189.555H29.0673Z" fill="#F04E36"/>
<path fill-rule="evenodd" clip-rule="evenodd" d="M85.0486 145.355H60.9086V147.032L64.7081 155.155L66.9428 171.693L64.7789 185.185L60.9086 193.319V195H84.0336V193.33L80.3624 185.201L78.9274 175.5H80.8143L94.0743 195H133.34V193.33L129.669 185.202L127.5 170.21L129.669 155.153L133.34 147.025V145.355H110.215V147.025L113.885 155.153L116.054 170.21L113.885 185.202L111.306 190.913L106.96 186.613L98.1557 176.947L91.8193 174.865C96.9372 173.929 100.337 172.01 102.673 169.616C105.446 166.773 106.606 163.366 107.456 160.554L107.542 160.271L107.459 159.986C105.791 154.25 103.305 150.514 99.5549 148.26C95.8514 146.035 91.0713 145.355 85.0486 145.355ZM88.4699 153.239C86.6785 151.774 84.1671 150.898 81.176 150.756L78.589 170.099C82.2535 169.965 85.4 169.173 87.6656 167.705C90.1082 166.123 91.5886 163.722 91.5886 160.265C91.5886 157.166 90.4091 154.825 88.4699 153.239Z" fill="#F04E36"/>
</svg>
