<svg width="32" height="32" viewBox="0 0 32 32" fill="none" xmlns="http://www.w3.org/2000/svg">
<path d="M12.786 16.1434L11.1094 2H2.77915C2.77183 2 2.76452 2.00003 2.75722 2.00009H0C0.195837 2.58931 0.417648 3.57796 0.61376 4.533L2.01101 17.504L1.96842 17.8078H9.27334V17.8074H11.0297C11.9996 17.8074 12.786 17.1064 12.786 16.2417V16.1434Z" fill="#F04E36"/>
<path d="M16.5416 19.0771L14.4235 2.0005H17.9792L20.3733 22.0146V22.2289C20.3733 23.0936 19.5869 23.7946 18.6169 23.7946H1.12896L1.55785 20.7359H14.9139C15.3876 20.7359 15.8381 20.5536 16.15 20.2358C16.4618 19.918 16.6046 19.4956 16.5416 19.0771Z" fill="#F04E36"/>
<path d="M24.1289 25.1521L21.2932 2.0005H21.942L21.941 2.00008H25.4017C25.2659 2.40347 25.0902 3.71273 25.1879 4.83394L27.9825 27.7706C28.1485 28.9546 27.113 30.0003 25.7746 30.0003H2.77938C2.72863 30.0003 2.67832 29.9988 2.62849 29.9958H0.276858L0.557151 27.9136C0.559994 27.8662 0.564743 27.8185 0.571457 27.7706L0.689883 26.926H22.5012C22.9748 26.926 23.4254 26.7311 23.7373 26.3912C24.0491 26.0513 24.1919 25.5996 24.1289 25.1521Z" fill="#F04E36"/>
<path fill-rule="evenodd" clip-rule="evenodd" d="M28.4418 5.43558H24.2804V2H31.8858V21.2197L30.5441 21.8791C28.6793 22.7957 27.5946 24.7879 27.8368 26.8516V26.8516H24.4239L24.0616 24.1769C23.8337 22.4944 24.709 20.855 26.2339 20.1083V20.1083C27.5852 19.4466 28.4418 18.0733 28.4418 16.5687V5.43558Z" fill="#F04E36"/>
</svg>
