<svg width="236" height="268" viewBox="0 0 236 268" fill="none" xmlns="http://www.w3.org/2000/svg">
<path fill-rule="evenodd" clip-rule="evenodd" d="M67.5183 5.28928C66.417 5.26676 65.3157 5.24424 64.2143 5.06728C62.6528 4.80358 61.2162 5.00318 59.7512 5.20672C58.8703 5.32911 57.9791 5.45292 57.0444 5.47829C56.1664 5.52646 55.3158 5.47417 54.4699 5.42217C53.4373 5.3587 52.4118 5.29566 51.3523 5.41636C49.026 5.7035 46.8009 6.22712 44.6039 7.03787C41.7213 7.843 38.5353 8.92401 36.282 10.9903C34.6063 12.6888 32.8931 14.347 31.1794 16.0058C30.4107 16.7499 29.6418 17.4941 28.8761 18.2421C27.9867 19.1195 27.2113 20.0826 26.4358 21.0458L26.4358 21.0458L26.4358 21.0458L26.4358 21.0458L26.4358 21.0458C25.6338 22.042 24.8317 23.0382 23.9033 23.9399C23.2164 24.614 22.5254 25.2836 21.8344 25.9531L21.8342 25.9533L21.8339 25.9535L21.8337 25.9538L21.8334 25.954C19.7605 27.9625 17.6884 29.9701 15.7332 32.0981C14.9954 32.9279 14.1556 33.5859 13.3219 34.2391C12.2889 35.0484 11.2654 35.8504 10.4569 36.9627C9.19824 38.6011 8.06881 40.4309 7.23157 42.3227C6.59409 45.0219 7.02431 47.3676 7.49804 49.9506L7.49812 49.9511C7.54215 50.1912 7.58656 50.4333 7.63052 50.678C7.82986 53.471 7.11772 56.3014 6.40935 59.1168C5.91967 61.0631 5.43178 63.0022 5.24805 64.9169C5.00643 66.6848 6.25947 68.4864 7.28776 69.8264C9.45109 72.3432 11.4571 74.843 12.7551 77.9453C13.1843 79.0536 14.143 79.4812 15.1348 79.9236L15.135 79.9237C15.4027 80.043 15.6728 80.1635 15.9355 80.2987C17.4639 80.9406 18.8574 81.6725 20.2172 82.6296C20.0203 82.7726 19.8232 82.9132 19.627 83.0531C18.6024 83.7838 17.6 84.4986 16.7559 85.4673C14.2666 88.2317 11.6144 91.2439 9.97366 94.6108C8.36662 98.2311 6.88319 101.879 6.01224 105.764C5.59081 109.3 5.68071 112.932 5.95605 116.479C6.16475 118.451 7.0211 119.932 7.91495 121.478C8.58537 122.638 9.27689 123.834 9.73204 125.301C10.6341 128.169 12.1741 130.38 13.7841 132.692L13.7843 132.692L13.7847 132.693C14.441 133.635 15.109 134.594 15.75 135.622C17.0649 137.491 18.5652 139.18 20.2059 140.773C23.5993 144.401 27.414 147.801 31.1619 151.142L31.162 151.142C31.8701 151.773 32.5758 152.402 33.2759 153.03C34.4897 154.141 35.8011 155.121 37.1128 156.101L37.1129 156.101L37.1132 156.102L37.1133 156.102L37.1134 156.102C38.2606 156.959 39.4081 157.816 40.4907 158.762C41.5947 159.733 42.4221 160.876 43.2478 162.015C44.0443 163.115 44.8393 164.212 45.8794 165.152C47.3797 166.532 48.8687 167.827 50.6106 168.891C51.9314 169.721 53.3246 170.389 54.7199 171.058C55.8119 171.581 56.9052 172.105 57.966 172.708C57.0842 173.21 56.187 173.699 55.2871 174.19L55.2869 174.19C52.763 175.566 50.2182 176.953 47.9359 178.659C44.6432 181.12 42.4967 184.56 40.4064 188.034C38.4454 191.495 37.5454 195.196 36.6267 198.974C36.5293 199.375 36.4317 199.776 36.3326 200.178C36.0982 201.152 36.1321 202.08 36.1674 203.046C36.1778 203.33 36.1883 203.618 36.1921 203.911C36.2142 204.863 36.1984 205.84 36.1824 206.824C36.1496 208.848 36.1164 210.901 36.4113 212.829C36.9928 216.248 37.798 219.599 38.6053 222.958L38.6054 222.959L38.6055 222.959L38.6056 222.96L38.6057 222.96C38.9138 224.242 39.2222 225.526 39.5186 226.815C39.9199 228.655 40.5707 230.386 41.2226 232.121C41.7116 233.422 42.2012 234.725 42.5866 236.077C44.3903 241.082 47.3459 245.687 51.15 249.403L51.5642 249.808C55.4959 253.646 59.2341 257.296 63.9952 260.168C67.1531 261.632 70.6931 263.197 74.1937 263.327C75.158 263.4 76.0919 263.51 77.017 263.62H77.0173H77.0176H77.0178H77.0181C78.6749 263.817 80.3034 264.011 82.0267 263.974C86.4938 263.913 90.9778 263.276 95.2652 261.998C97.3329 261.393 99.2818 260.069 101.112 258.825C101.425 258.613 101.735 258.402 102.042 258.198C106.353 255.09 109.438 251.262 112.625 247.308C113.6 246.099 114.585 244.877 115.617 243.66C115.821 243.384 116.027 243.106 116.234 242.827C117.73 240.814 119.272 238.737 120.264 236.482C120.461 236.066 120.645 235.634 120.829 235.2L120.829 235.199L120.829 235.199L120.83 235.199L120.83 235.198C121.219 234.282 121.613 233.354 122.147 232.541C123.998 232.074 126.127 232.353 128.154 232.62C128.939 232.723 129.708 232.824 130.44 232.879C133.857 233.125 137.271 233.971 140.682 234.815C144.743 235.821 148.802 236.826 152.86 236.82C154.563 236.92 156.068 236.547 157.617 236.162C158.327 235.986 159.047 235.807 159.8 235.671C162.329 235.193 164.767 234.579 167.004 233.25C170.268 231.206 173.05 228.301 175.455 225.312C176.171 224.471 176.962 223.71 177.754 222.948L177.754 222.948L177.754 222.948L177.754 222.948L177.755 222.947C178.385 222.341 179.015 221.735 179.607 221.089C184.175 215.571 189.002 210.222 194.183 205.273C195.829 203.763 197.278 202.081 198.729 200.398L198.73 200.398C200.048 198.868 201.368 197.337 202.836 195.933C206.384 192.374 210.88 189.608 215.288 186.897L215.288 186.897L215.288 186.897L215.288 186.897L215.289 186.897C216.668 186.049 218.038 185.206 219.367 184.346C220.586 183.735 221.687 183.003 222.778 182.277C224.403 181.196 226.005 180.13 227.942 179.504C229.669 178.864 230.367 177.168 231.018 175.585L231.111 175.36C231.327 174.752 231.559 174.134 231.793 173.508L231.793 173.508C232.889 170.583 234.051 167.48 234.005 164.443C234.006 164.112 234.009 163.783 234.011 163.454V163.454C234.037 159.519 234.061 155.728 232.583 151.966L232.484 151.723C231.191 148.562 229.78 145.112 227.397 142.631C224.649 139.619 221.643 136.646 218.21 134.428L218.201 134.423C217.208 133.827 215.931 133.06 214.737 133.201C212.681 133.944 210.7 134.905 208.717 135.866L208.717 135.866C206.42 136.979 204.123 138.094 201.707 138.87C198.573 140.046 195.358 140.685 192.131 141.326C190.307 141.688 188.479 142.051 186.659 142.513C180.635 144.202 174.241 144.698 168.009 144.326C167.735 144.292 167.464 144.257 167.197 144.222C164.746 143.903 162.555 143.618 160.148 144.765C156.839 146.905 154.305 149.725 151.922 152.816C151.452 153.336 150.981 153.849 150.513 154.36C147.799 157.317 145.162 160.191 143.207 163.807C140.319 167.883 136.706 171.723 132.368 174.256C130.727 175.115 129.255 176.193 127.781 177.272L127.781 177.272C126.635 178.111 125.488 178.951 124.259 179.69C121.984 181.142 120.601 183.18 119.152 185.393C118.91 184.99 118.667 184.576 118.421 184.155L118.42 184.154C116.951 181.648 115.354 178.923 113.184 177.111C112.917 176.899 112.653 176.686 112.391 176.474C110.969 175.326 109.584 174.209 107.919 173.372C107.07 172.963 106.262 172.511 105.458 172.062C103.952 171.22 102.462 170.388 100.755 169.859C100.001 169.647 99.2551 169.431 98.5146 169.215C93.7211 167.822 89.1488 166.492 83.9653 167.038C84.1889 166.762 84.4045 166.486 84.6178 166.214L84.618 166.213C85.5832 164.978 86.5006 163.804 87.9042 162.951C88.1116 162.826 88.3191 162.704 88.5258 162.583C89.714 161.884 90.8772 161.201 91.8488 160.169C94.0908 157.777 96.1417 155.373 97.4285 152.315C98.4175 150.26 98.6813 148.19 98.9565 146.03C99.0613 145.208 99.1678 144.373 99.3165 143.521C99.7948 141.193 99.5642 139.024 99.3259 136.783C99.1918 135.522 99.0553 134.239 99.0412 132.891C98.2727 127.935 95.2831 123.152 92.4517 118.622L92.4516 118.622C91.3907 116.925 90.352 115.263 89.4607 113.641C88.7884 112.278 88.0206 110.976 87.2533 109.675C86.3341 108.116 85.4154 106.557 84.662 104.897C83.7743 103.023 82.6437 101.315 81.514 99.6083C80.3126 97.7933 79.1122 95.9798 78.2057 93.969C77.4235 92.2686 76.3583 90.8027 75.2799 89.3187L75.2798 89.3185C74.9406 88.8519 74.6002 88.3834 74.2668 87.9052C75.6139 85.5169 76.6185 83.0009 77.625 80.4803C78.3482 78.669 79.0723 76.8554 79.9252 75.0851C80.5776 73.7034 80.8743 72.2655 81.1702 70.8314L81.1702 70.8313L81.1703 70.8313L81.1703 70.8312L81.1703 70.8311C81.4809 69.3258 81.7906 67.8248 82.5099 66.3976C84.0777 63.346 84.8699 59.7652 84.707 56.3364C84.6361 53.9595 84.6364 51.5911 84.6367 49.2252C84.6371 45.2136 84.6376 41.209 84.2912 37.1822C84.1713 36.1443 84.1777 35.0963 84.1841 34.049V34.0489V34.0488V34.0487V34.0486V34.0485C84.1912 32.8859 84.1982 31.7241 84.0327 30.578C83.6102 28.7195 83.0588 26.8593 82.5078 25.0002C82.0622 23.497 81.6169 21.9944 81.24 20.4942C80.3129 16.8345 78.7677 13.4282 76.9078 10.157C76.5702 9.50153 75.8001 9.15874 75.0878 8.84165L75.0877 8.84163C74.8395 8.73113 74.5983 8.62376 74.3848 8.50737C74.0842 8.77765 73.7835 9.04653 73.4828 9.31541L73.4824 9.31582C73.1819 9.58449 72.8815 9.85317 72.5811 10.1233C74.3623 13.2312 75.5592 16.3559 76.3964 19.8354C76.7989 21.5106 77.3839 23.1849 77.9701 24.8624L77.9701 24.8625L77.9701 24.8626L77.9702 24.8626L77.9702 24.8627C78.8163 27.284 79.6648 29.7122 79.9701 32.1601C79.9715 33.3175 79.9638 34.4781 79.9562 35.6403V35.6406C79.9318 39.3405 79.9073 43.0566 80.1724 46.7368C80.6164 49.4942 80.6904 52.2611 80.7649 55.0462C80.7715 55.2922 80.7781 55.5383 80.7849 55.7846C80.7828 55.9474 80.7845 56.1162 80.7862 56.2882C80.7937 57.02 80.8018 57.8105 80.5152 58.4533C80.0521 59.5173 79.5304 60.5754 79.0052 61.6408L79.0051 61.6409L79.0051 61.641C78.1601 63.355 77.3059 65.0876 76.6718 66.8931L76.5065 67.3627C76.0564 68.6428 75.6053 69.9254 75.1097 71.1946C74.7189 71.323 74.2692 71.3965 73.8115 71.4713H73.8114L73.8113 71.4713C72.6633 71.6589 71.4649 71.8548 71.019 72.9456C70.1589 74.3454 70.4303 76.3619 70.663 78.0919C70.7177 78.4981 70.7702 78.8885 70.8055 79.2515C71.373 77.5174 71.8169 75.7495 72.2496 73.9759C72.5863 74.0081 72.9217 74.0389 73.2565 74.0697C73.6256 74.1037 73.994 74.1376 74.3623 74.173C73.9639 76.1723 73.2493 78.0446 72.5341 79.9184L72.534 79.9185L72.534 79.9186L72.534 79.9187L72.534 79.9187L72.534 79.9188L72.5339 79.9189L72.5339 79.919L72.5339 79.9191C71.9279 81.5067 71.3215 83.0954 70.9066 84.7635C70.4065 84.7917 69.9064 84.8198 69.4063 84.8536C68.3862 81.6168 67.8961 78.1708 67.4186 74.8141L67.3835 74.5671C67.2078 73.2263 66.6616 72.1122 66.1056 70.9779C65.8257 70.407 65.5433 69.831 65.3044 69.2184C65.3462 68.0424 65.7031 66.847 66.0555 65.6669C66.2716 64.943 66.486 64.2249 66.6249 63.5206C66.6331 62.7425 66.5001 61.9583 66.3687 61.1836C66.3204 60.8988 66.2723 60.6153 66.2316 60.3338C65.8675 58.1508 65.8884 55.886 65.9093 53.6281V53.628C65.9287 51.5302 65.948 49.4384 65.6584 47.4237C65.5798 46.6523 65.5179 45.8754 65.4674 45.104C66.6755 46.4327 67.715 47.8459 68.6815 49.3549C68.2214 48.1771 67.8795 47.0145 67.5431 45.8708L67.5431 45.8708L67.5431 45.8707L67.5431 45.8707L67.5431 45.8707C66.9838 43.969 66.4399 42.1198 65.3943 40.3408C64.8294 39.2829 64.1748 38.2826 63.5206 37.283C62.8344 36.2346 62.1488 35.1869 61.5678 34.0743C60.9415 32.8905 60.5504 31.6785 60.1476 30.43C60.0408 30.0991 59.9333 29.7656 59.8202 29.4294L58.1177 30.3077C58.1194 30.7592 58.1244 31.2088 58.1293 31.6569C58.1558 34.0586 58.1819 36.4188 57.7131 38.815C57.4359 40.8211 56.8771 42.6967 56.3132 44.5896L56.3132 44.5897C56.0082 45.6134 55.7017 46.6423 55.4374 47.6996C54.5102 51.1227 53.3864 54.4727 51.8693 57.6876C51.0747 59.4354 51.4058 61.6708 51.7171 63.7728C51.8571 64.7179 51.9931 65.6361 52.021 66.4708C52.1594 69.121 52.729 71.653 53.2993 74.1882L53.2994 74.1883L53.2994 74.1883L53.2994 74.1884L53.2994 74.1885C53.7481 76.1829 54.1972 78.1793 54.4372 80.2368C54.6319 81.6292 54.9101 83.0022 55.1884 84.3764C55.3839 85.3414 55.5795 86.307 55.7464 87.2802C56.149 89.0877 55.4536 91.0396 54.786 92.9135C54.5033 93.7072 54.2255 94.487 54.0382 95.2358C53.7792 95.1804 53.4912 95.1446 53.1943 95.1077C52.3449 95.0022 51.4233 94.8878 50.9028 94.2786C49.3969 92.7247 48.3967 90.5176 47.5876 88.5358C47.2547 87.695 46.8683 86.9006 46.4847 86.1121C45.7998 84.7039 45.1238 83.3144 44.778 81.7119C44.3212 79.5372 43.6098 77.5215 42.9044 75.5229L42.9044 75.5228C41.7617 72.2851 40.6347 69.0919 40.6312 65.3391C40.4969 62.1405 40.9776 58.9669 41.4565 55.8046C41.8594 53.1445 42.261 50.4924 42.2944 47.8403C42.0135 44.3496 41.519 40.6899 38.4004 38.5729C38.6734 39.7348 39.0946 40.8523 39.5152 41.9682L39.5152 41.9683C39.969 43.1722 40.422 44.3741 40.6874 45.6276C41.0414 49.5463 40.7548 53.4424 39.9681 57.2935C39.6857 58.5481 39.6598 59.8133 39.6339 61.0765C39.6098 62.2509 39.5858 63.4237 39.3557 64.5847C38.6528 66.9655 39.5086 69.6911 40.2977 72.2043C40.5368 72.9659 40.7698 73.708 40.9515 74.4151C41.3985 76.2654 42.008 78.0626 42.6172 79.8588C43.2945 81.8559 43.9714 83.8517 44.424 85.9177C43.1444 85.6091 41.8501 85.343 40.5551 85.0768L40.555 85.0768L40.5549 85.0768L40.5549 85.0767H40.5548C38.3529 84.624 36.149 84.1709 34.0119 83.508C32.1858 82.9562 30.9046 81.2615 30.0505 79.64C28.775 77.0782 27.9715 74.2518 27.3927 71.4536C27.0969 69.2183 27.3006 67.0398 27.5054 64.8492C27.6818 62.9624 27.859 61.0666 27.7186 59.1177C27.904 54.591 26.6398 50.4246 24.9934 46.2695L22.8694 46.4384C24.4652 49.9348 25.7913 53.3749 26.0722 57.2541C26.1384 58.8561 26.156 60.458 26.1737 62.06V62.0602C26.1815 62.7722 26.1894 63.4842 26.2015 64.1962C26.1968 65.3491 26.3424 66.4572 26.4872 67.5599C26.6911 69.112 26.8936 70.6532 26.6735 72.2925C26.3029 74.887 27.1385 77.0343 28.0294 79.3238L28.0295 79.324C28.2057 79.7769 28.3842 80.2354 28.5559 80.7041C27.568 81.2168 26.6075 81.7798 25.6456 82.3437L25.6456 82.3437L25.3305 82.5283C25.0761 82.2989 24.8118 82.0695 24.5445 81.8374L24.5441 81.8371C22.9874 80.4857 21.3254 79.0429 20.8746 76.9769C20.512 75.3607 20.2452 73.7256 19.9783 72.09C19.7199 70.5064 19.4614 68.9224 19.1159 67.3548C18.346 63.2165 16.9638 59.3542 15.4241 55.458C15.1797 55.4665 14.9353 55.4735 14.6909 55.4806C14.4464 55.4876 14.202 55.4946 13.9576 55.5031C14.2539 57.038 14.7908 58.4796 15.3275 59.9207C15.8697 61.3764 16.4116 62.8316 16.7053 64.382C16.9896 65.7202 17.2941 67.0563 17.5986 68.3931L17.5986 68.3931C18.2872 71.415 18.9764 74.4401 19.4361 77.5005C19.1231 77.4214 18.8002 77.349 18.4736 77.2758C17.4285 77.0415 16.346 76.7989 15.4298 76.3012C14.2977 74.6653 13.4154 72.7899 12.5534 70.9576C12.3415 70.5071 12.1308 70.0592 11.9179 69.6181C11.6905 69.0884 11.4483 68.5815 11.2111 68.0849L11.211 68.0845L11.2109 68.0844L11.2109 68.0843C10.2759 66.1269 9.41753 64.3297 9.83881 61.9272C9.93423 61.4198 10.0162 60.8758 10.1008 60.3139C10.5193 57.5342 11.0036 54.3183 13.5137 52.9413C13.1882 52.0849 12.8222 51.297 12.4694 50.5375L12.4694 50.5374L12.4693 50.5372L12.4693 50.5372C11.354 48.1364 10.3703 46.019 11.2155 42.9138C11.9505 41.425 13.233 40.1701 14.4786 38.9513C15.0042 38.4371 15.5232 37.9293 15.9917 37.4131C17.1197 36.3344 18.0568 35.1154 18.9922 33.8984L18.9922 33.8984C19.9951 32.5937 20.9961 31.2914 22.2288 30.167C23.9413 28.459 25.7198 26.8221 27.4982 25.1854L27.4983 25.1853C29.5304 23.3151 31.5622 21.4451 33.495 19.4695C34.5388 18.4404 35.7089 17.6463 36.8952 16.8413C37.6949 16.2986 38.502 15.7509 39.2826 15.1229C40.814 13.8128 42.5273 13.1105 44.2961 12.3854C45.3247 11.9638 46.3721 11.5344 47.4134 10.9734C51.3074 9.58275 55.9824 8.61997 60.118 8.70443C62.2633 8.75322 64.3812 8.58147 66.4993 8.40969C68.7808 8.22467 71.0625 8.03963 73.379 8.13014C73.1444 7.91125 72.9032 7.66221 72.6541 7.40487C71.8651 6.58991 70.9956 5.6918 69.9963 5.4051C69.1703 5.32306 68.3443 5.30617 67.5183 5.28928ZM59.7657 35.0305L59.5392 34.8006C59.3257 39.288 58.303 43.4769 56.7915 47.6883C59.1065 46.3596 61.3373 45.1322 63.922 44.4002C63.9061 44.1349 63.8938 43.8723 63.8816 43.6118C63.8254 42.4071 63.7713 41.2474 63.3601 40.0762C62.7134 38.0197 61.238 36.5235 59.7657 35.0305ZM64.3363 52.8667V52.8668V52.8669C64.2975 55.0003 64.2587 57.1343 64.3999 59.2697C64.5353 60.9637 63.526 62.2583 62.534 63.5308C62.1676 64.0008 61.8036 64.4677 61.5004 64.9506C61.1623 65.4207 60.8622 65.963 60.5581 66.5126C59.988 67.5428 59.4037 68.5986 58.528 69.2522C57.5748 69.6717 56.5537 69.9467 55.539 70.2199L55.5388 70.22L55.5386 70.22C55.1238 70.3317 54.71 70.4431 54.3024 70.564C53.6956 67.1577 53.1056 63.6669 53.1056 60.1987C53.0579 58.2278 53.7168 56.5198 54.4011 54.7456L54.4013 54.7451L54.4019 54.7437C54.5247 54.4253 54.6483 54.1048 54.7688 53.7802C54.9152 53.4245 55.051 53.0602 55.1872 52.6948L55.1873 52.6946L55.1873 52.6945L55.1874 52.6943L55.1874 52.6942C55.5061 51.8393 55.8272 50.978 56.2916 50.205C58.3987 47.8853 61.0003 46.185 64.2594 46.2751C64.4162 48.472 64.3763 50.6689 64.3363 52.8666V52.8667V52.8667ZM63.2029 69.0889C63.8379 67.3379 64.3548 65.6432 64.3886 63.7627C63.3846 64.6994 62.4654 65.7116 61.5457 66.7244L61.5455 66.7246L61.5455 66.7246L61.5454 66.7247C61.0444 67.2764 60.5433 67.8282 60.0282 68.3682C61.0846 68.6159 62.1466 68.858 63.2029 69.0889ZM212.608 137.936C214.179 136.986 215.734 138.23 217.039 139.272L217.039 139.273C217.297 139.479 217.546 139.678 217.783 139.85C218.709 140.714 219.711 141.484 220.704 142.248C222.493 143.624 224.252 144.976 225.481 146.809C227.684 149.815 229.038 153.498 230.015 157.062C230.448 162.455 230.398 168.834 227.925 173.772C226.977 175.571 225.553 176.32 224.044 177.113C223.22 177.546 222.37 177.993 221.559 178.631C221.24 178.876 220.924 179.12 220.608 179.363C217.364 181.869 214.269 184.259 210.309 185.686C211.792 183.37 213.674 181.735 215.613 180.048L215.614 180.048C216.504 179.274 217.407 178.489 218.289 177.623C218.68 177.226 219.08 176.862 219.468 176.509L219.469 176.508C220.979 175.133 222.319 173.914 222.368 171.486C220.52 173.152 218.776 174.932 217.031 176.713L217.031 176.713C215.232 178.55 213.432 180.387 211.518 182.099C208.374 185.099 205.359 188.245 202.35 191.384C201.965 191.786 201.58 192.187 201.195 192.588C199.702 194.514 198.019 196.247 196.336 197.98C195.061 199.292 193.786 200.605 192.593 202.002C191.398 203.401 190.187 204.783 188.976 206.165C186.598 208.878 184.221 211.591 181.973 214.423C180.873 215.614 179.783 216.861 178.684 218.119L178.684 218.12L178.684 218.12C175.561 221.694 172.361 225.356 168.633 228.076C165.38 230.593 160.783 231.567 156.799 232.186C154.414 232.353 152.008 232.371 149.607 232.389H149.607C148.609 232.397 147.612 232.404 146.618 232.422C144.618 232.527 143.025 231.83 141.326 231.086C140.838 230.873 140.342 230.655 139.824 230.452C141.094 230.103 142.37 229.781 143.645 229.459C145.294 229.043 146.941 228.628 148.573 228.155C151.107 227.248 153.224 225.63 155.341 224.013C156.459 223.159 157.576 222.305 158.755 221.556C160.12 220.672 161.306 219.664 162.43 218.493C164.576 216.237 167.226 214.425 169.862 212.623C171.884 211.24 173.897 209.863 175.668 208.297L175.342 207.334C173.777 207.258 172.629 208.161 171.475 209.068C171.175 209.305 170.875 209.541 170.566 209.761C169.217 210.848 167.858 211.822 166.518 212.783L166.517 212.783L166.517 212.783C164.193 214.448 161.925 216.074 159.862 218.184C158.598 219.443 157.154 220.346 155.685 221.264L155.685 221.264C154.665 221.902 153.633 222.547 152.641 223.324C150.618 224.889 148.433 226.066 145.943 226.713C145.063 226.944 144.167 227.233 143.263 227.525C141.237 228.178 139.17 228.845 137.138 228.904C133.182 229.067 129.238 229.112 125.282 228.847C125.209 228.48 125.129 228.113 125.049 227.744L125.048 227.743C124.827 226.726 124.604 225.702 124.518 224.67C124.475 223.721 124.634 222.758 124.793 221.8C124.885 221.239 124.977 220.68 125.029 220.126C124.897 220.228 124.761 220.329 124.625 220.431L124.624 220.432C124.065 220.85 123.487 221.283 123.04 221.798C122.803 222.551 122.655 223.334 122.508 224.118L122.508 224.118C122.334 225.043 122.16 225.969 121.838 226.849C121.332 228.289 120.616 229.554 119.886 230.845L119.886 230.845C119.595 231.36 119.301 231.88 119.017 232.417C118.708 232.995 118.417 233.572 118.128 234.144C117.298 235.79 116.487 237.399 115.319 238.903C113.392 241.437 111.341 243.886 109.273 246.307C107.412 248.068 105.193 249.518 103.013 250.943C102.377 251.359 101.745 251.772 101.126 252.19C97.9212 254.474 93.6778 255.571 89.7646 256.584L89.7635 256.584C89.0455 256.77 88.3386 256.952 87.6513 257.139C85.2351 257.894 82.8301 258.018 80.3184 258.096C78.8587 258.179 77.4705 257.925 76.0654 257.667C75.0744 257.486 74.075 257.303 73.0361 257.235C70.4813 257.269 68.2033 256.036 65.9072 254.793L65.907 254.792C64.8197 254.204 63.7283 253.613 62.6016 253.153C59.609 251.974 57.6404 249.846 55.5928 247.632L55.5925 247.632C54.9912 246.982 54.3831 246.325 53.7403 245.682C51.8074 243.835 50.0711 241.802 48.6495 239.528C48.1391 238.684 47.562 237.912 46.9889 237.146C46.0287 235.863 45.0797 234.594 44.4745 233.025C42.8562 229.759 41.9178 226.342 41.0637 222.817C40.1362 220.178 39.6649 217.47 39.1905 214.744C39.001 213.655 38.8111 212.563 38.5914 211.472C38.1924 207.666 38.3722 203.691 38.6869 199.885C39.6815 196.749 41.0862 193.422 43.4687 191.085C43.9838 190.52 44.4639 189.92 44.9439 189.32C45.6314 188.461 46.319 187.602 47.1098 186.846C48.035 186.082 48.9342 185.306 49.828 184.534C52.7885 181.978 55.6898 179.474 59.2807 177.64C61.0114 176.616 62.815 175.753 64.6215 174.888C65.6068 174.416 66.5931 173.944 67.5688 173.446C68.8162 175.101 69.5692 176.886 70.2266 178.839L69.7096 178.648L69.4882 178.555L69.488 178.555C68.9842 178.344 68.4831 178.134 67.9734 177.933C66.203 178.502 64.4845 179.32 62.7799 180.131C62.039 180.484 61.3007 180.835 60.5618 181.165C57.1848 182.724 53.4425 184.464 50.8016 187.144C50.4151 187.529 50.0076 187.905 49.5983 188.282C48.3115 189.47 47.0058 190.675 46.2726 192.217C45.8245 193.119 45.3069 193.928 44.8029 194.716C43.8724 196.17 42.9879 197.553 42.6708 199.317C42.576 199.89 42.455 200.458 42.3348 201.021L42.3348 201.021C41.942 202.863 41.5578 204.664 42.1257 206.518C42.4437 207.617 42.7966 208.706 43.1496 209.795L43.1496 209.795C43.4892 210.842 43.8288 211.89 44.1374 212.947C44.5326 214.438 45.3858 215.436 46.2942 216.5C46.6385 216.903 46.9908 217.315 47.329 217.767C51.6388 223.352 59.1908 226.19 65.9056 227.434C69.5298 228.391 73.2384 228.78 76.9807 228.802C77.7414 228.816 78.5233 228.848 79.316 228.881C82.2235 229.003 85.2758 229.13 87.9603 228.329C88.6874 228.152 89.4086 227.989 90.125 227.827L90.1259 227.827C92.3657 227.32 94.5591 226.824 96.7429 225.936C101.598 223.949 106.593 221.798 110.701 218.459C111.151 218.048 111.603 217.662 112.049 217.283C113.627 215.938 115.11 214.673 116.039 212.649C117.921 208.601 119.719 204.671 120.438 200.229C120.787 197.324 120.309 194.424 118.371 192.132C118.146 193.582 118.213 194.976 118.279 196.362C118.356 197.957 118.431 199.541 118.062 201.186C117.623 203.049 117.095 204.902 116.421 206.692L116.437 206.565C117.056 201.538 117.728 196.089 114.162 191.947C113.91 191.594 113.665 191.239 113.422 190.887C112.365 189.358 111.336 187.869 109.824 186.688C109.098 186.127 108.397 185.529 107.698 184.932C106.237 183.686 104.783 182.446 103.126 181.559C99.558 179.504 95.7539 177.432 91.6577 176.689C91.3461 176.629 91.038 176.567 90.7327 176.506C88.1518 175.989 85.7674 175.512 83.1898 176.7C82.5098 176.779 81.8299 176.863 81.1557 176.97C81.0601 176.221 80.9477 175.475 80.8354 174.729C80.723 173.983 80.6106 173.237 80.5151 172.488C81.1758 172.562 81.8318 172.644 82.4854 172.726L82.487 172.726C84.9458 173.034 87.3712 173.338 89.8877 173.147C95.6753 172.533 101.53 174.712 106.453 177.601C106.559 177.675 106.665 177.749 106.771 177.823L107.051 178.018L107.051 178.018C109.502 179.726 111.971 181.446 114.252 183.383C115.236 184.221 115.912 185.262 116.596 186.313C117.212 187.261 117.833 188.217 118.691 189.041C120.343 190.595 121.495 192.453 122.45 194.497C125.349 193.287 128.389 192.712 131.48 192.262C134.722 191.913 137.459 193.225 139.813 195.336C139.529 195.558 139.244 195.785 138.956 196.013C137.258 197.361 135.48 198.773 133.553 199.683C130.961 200.877 128.422 202.187 125.891 203.492L125.254 203.821C124.962 201.574 124.361 199.632 122.967 197.808C122.233 199.893 122.848 201.596 123.508 203.42L123.508 203.421C123.762 204.123 124.022 204.844 124.214 205.611C124.973 207.921 125.05 210.203 125.129 212.539L125.129 212.539C125.156 213.334 125.183 214.135 125.237 214.946C126.445 212.334 126.293 209.721 126.057 206.917C129.21 206.022 132.255 204.958 135.104 203.32C135.273 203.929 135.424 204.539 135.574 205.145C136.046 207.055 136.509 208.932 137.52 210.65C138.374 212.159 139.583 213.347 140.925 214.417C140.519 212.837 139.906 211.446 139.304 210.081C138.294 207.788 137.316 205.57 137.408 202.661C137.342 201.075 138.32 200.192 139.342 199.268L139.343 199.268C139.631 199.007 139.922 198.744 140.195 198.461C140.427 198.232 140.658 198.004 140.89 197.776L140.89 197.776C143.414 195.29 145.905 192.836 148 189.948C148.474 189.281 149.016 188.69 149.546 188.111C150.668 186.887 151.739 185.719 152.017 184.002C152.489 181.457 153.287 179.07 154.524 176.796C155.145 175.687 155.728 174.536 156.314 173.382C157.545 170.953 158.786 168.505 160.412 166.38C160.955 165.6 161.605 164.848 162.259 164.09L162.259 164.09C163.59 162.55 164.94 160.987 165.453 159.122L165.393 159.147C164.023 159.729 162.754 160.267 161.879 161.543C161.417 162.193 160.952 162.828 160.491 163.459L160.49 163.461C158.864 165.684 157.282 167.848 156.013 170.36C155.384 171.662 154.699 172.914 154.016 174.161C152.622 176.707 151.242 179.227 150.394 182.088C147.259 182.064 144.823 183.517 142.317 185.012C141.319 185.607 140.309 186.209 139.24 186.727C136.498 188.416 133.559 189.548 130.305 189.627C128.503 189.653 126.943 189.133 125.313 188.59L125.313 188.59C124.808 188.423 124.297 188.252 123.771 188.096C123.805 187.841 123.83 187.591 123.854 187.348C123.966 186.231 124.066 185.236 124.984 184.363C126.9 182.505 129.496 181.182 131.868 180.027C134.885 178.31 137.627 176.002 139.83 173.31C140.708 172.257 141.455 171.124 142.203 169.99L142.203 169.99C142.857 168.998 143.513 168.004 144.258 167.061C145.138 165.933 146.043 164.824 146.949 163.716C148.239 162.137 149.529 160.557 150.748 158.92C153.108 155.767 156.08 153.362 159.317 151.161C161.431 149.847 164.188 149.357 166.68 148.914C166.975 148.861 167.267 148.809 167.554 148.757C169.606 148.34 171.62 148.398 173.629 148.456H173.63C175.252 148.503 176.872 148.55 178.506 148.346C179.375 148.174 180.236 147.989 181.096 147.803C183.478 147.29 185.845 146.781 188.305 146.578C192.11 146.151 195.38 144.932 198.771 143.668L198.771 143.668C200.033 143.197 201.311 142.721 202.639 142.277C203.545 141.891 204.455 141.516 205.364 141.141C207.805 140.133 210.245 139.125 212.608 137.936ZM146.814 188.248C147.871 186.958 148.331 185.449 148.759 183.867C146.82 184.408 145.41 185.111 143.842 186.356C141.617 188.135 139.127 189.374 136.543 190.539C138.15 191.665 139.712 192.836 141.162 194.159C143.246 192.403 145.089 190.353 146.814 188.248Z" fill="#F04E36"/>
<path d="M46.8848 26.0851C44.418 27.2449 41.8052 28.2246 39.2541 29.1592C34.5173 30.9609 30.0839 32.8076 24.948 33.0835C24.9256 32.6612 24.9031 32.2333 24.875 31.8054C28.179 31.3381 32.3259 31.4845 35.1691 29.6491C37.4111 28.3654 39.9453 27.7348 42.3278 26.6988C43.8056 26.0401 45.3059 26.0795 46.8848 26.0851Z" fill="#F04E36"/>
<path d="M55.2072 73.0076C57.4211 72.743 59.7361 72.8443 61.9612 72.9063C62.894 79.9947 65.1416 86.5146 66.8442 93.4116C67.4567 95.8777 68.3557 98.2424 69.1087 100.669C70.0302 103.31 68.2995 106.412 66.2036 107.977C63.5851 109.751 60.4441 110.894 57.4716 111.935C57.6458 108.974 57.8706 106.063 57.5784 103.101C57.3312 100.264 56.5782 97.5724 56.0275 94.8023C55.7016 93.2258 56.4265 91.7451 56.7861 90.2249C57.7413 87.0776 56.6962 83.6882 56.2186 80.5184C55.859 78.0467 55.1622 75.5074 55.2072 73.0076Z" fill="#FFAE8B"/>
<path d="M25.9937 84.6677C27.8761 84.7578 29.7247 85.6192 31.5847 85.9627C35.1303 86.6552 38.6703 87.4434 42.1653 88.3668C42.8733 88.6033 43.896 88.8341 44.3118 89.5097C45.7727 91.7956 46.2616 94.2954 48.3013 96.2998C49.8185 97.9157 52.1447 98.1297 54.2013 98.5125C54.3643 102.009 54.5272 105.663 53.9822 109.131C53.7125 110.832 53.4877 112.537 53.291 114.249C55.9601 114.176 58.3257 113.827 60.7868 112.751C64.192 111.648 67.3611 110.353 70.0358 107.893C71.2214 106.654 71.7889 104.773 71.4855 103.084C71.036 100.033 70.4797 97.0205 70.4797 93.9182C72.0586 95.6974 73.4746 97.6004 74.8794 99.526C79.3971 105.629 85.0499 111.597 88.6067 118.303C82.2516 113.557 73.823 112.301 66.3328 114.852C61.6185 116.473 57.2693 118.973 53.8192 122.61C51.4255 125.177 48.6328 127.976 47.3124 131.264C44.3006 138.656 42.6991 146.471 43.7555 154.46L43.8679 154.939C38.4118 150.463 33.3771 145.452 28.1402 140.717C23.7629 135.627 19.0373 131.129 15.4243 125.273C12.0753 120.234 10.5132 114.12 10.5413 108.09C10.3503 102.792 12.9013 97.3808 16.1828 93.3383C17.9641 91.0468 20.1667 89.5886 22.2514 87.6123C23.3921 86.5989 24.5833 85.2814 25.9937 84.6677Z" fill="#FFAE8B"/>
<path d="M6.01176 105.764C5.59033 109.3 5.68024 112.932 5.95557 116.479C6.32081 119.93 8.66957 121.878 9.73157 125.301C11.0015 129.338 13.5357 132.075 15.7496 135.622C13.5694 132.671 11.288 129.958 9.56862 126.681C8.09643 123.849 6.29271 120.882 5.83757 117.706C5.23071 113.821 5.02281 109.599 6.01176 105.764Z" fill="#FFAE8B"/>
<path d="M75.1548 115.589C78.3857 115.871 82.1673 116.332 84.9544 118.112C88.337 120.279 91.0454 123.826 93.6358 126.867C95.5069 128.955 95.9227 131.427 96.3891 134.096C97.1421 138.06 96.4285 142.434 95.8609 146.415C95.4508 149.658 94.1865 152.546 92.6525 155.401C91.7815 156.994 90.6577 158.351 89.1237 159.336C88.5674 158.497 87.9999 157.664 87.4324 156.825C86.449 153.03 83.7182 151.105 81.0772 148.476C78.7116 146.19 76.1887 144.191 73.0588 143.059C69.1255 141.697 65.9283 139.264 61.7702 138.516C57.2974 137.193 52.8584 136.922 48.2227 137.052C48.5092 134.895 48.6947 132.868 49.7005 130.898C51.2401 127.846 53.9035 125.228 56.4377 122.982C61.7028 118.404 68.0804 115.432 75.1548 115.589Z" fill="#FFAE8B"/>
<path d="M61.838 142.232C68.8449 142.609 75.5934 145.03 80.6337 150.046C82.8307 152.383 85.1458 154.584 87.4327 156.825C88.0002 157.664 88.5678 158.497 89.1241 159.336C85.7751 161.38 83.0892 164.375 81.381 167.9C80.791 169.786 80.01 171.644 79.5211 173.547C79.2682 176.255 79.5436 178.609 77.5882 180.788C76.7228 182.071 75.3349 181.84 74.0088 181.61C72.4804 179.363 71.9635 176.835 70.8565 174.476C69.626 172.517 67.9121 170.501 65.7881 169.505C63.7878 168.767 61.6244 168.53 59.6128 167.799C56.0503 166.52 52.3137 164.73 49.7401 161.87C47.5487 159.742 46.0428 157.05 43.8682 154.939L43.7559 154.46C44.284 154.297 44.8179 154.134 45.3517 153.971C45.2393 150.919 45.2112 147.952 45.8237 144.94C46.4867 143.971 47.8016 143.391 48.886 143.048C53.106 141.837 57.4888 142.102 61.838 142.232Z" fill="white"/>
<path d="M91.6574 176.689C95.7536 177.432 99.5577 179.504 103.126 181.559C105.576 182.871 107.582 184.954 109.824 186.688C111.684 188.14 112.813 190.06 114.162 191.947C113.931 192.476 113.707 193.011 113.487 193.54C110.779 189.745 107.267 187.211 103.559 184.492C100.26 182.094 96.9112 179.887 92.8823 178.941C89.5839 178.079 86.3417 178.102 83.1895 176.7C86.072 175.371 88.713 176.126 91.6574 176.689Z" fill="#F04E36"/>
<path d="M81.1559 176.97C81.8302 176.863 82.5101 176.779 83.19 176.7C86.3423 178.102 89.5845 178.079 92.8829 178.941C96.9117 179.887 100.261 182.094 103.559 184.492C107.268 187.212 110.78 189.745 113.488 193.54C113.707 193.011 113.932 192.476 114.162 191.947C117.758 196.124 117.045 201.631 116.421 206.692C115.471 209.091 114.482 211.805 112.741 213.736C108.712 217.666 104.003 220.115 98.9739 222.485C94.9394 224.428 90.6802 225.345 86.3142 226.19C81.937 227.17 76.9529 226.488 72.497 226.19C67.3274 225.903 62.3771 224.546 57.5672 222.682C52.5774 220.633 48.1777 216.911 45.7728 212.035C44.7613 209.547 43.7106 206.963 43.1543 204.333C43.3847 201.253 45.2783 198.174 46.8685 195.589C49.3746 192.262 52.1223 188.675 55.6117 186.345C60.1688 183.541 65.2091 181.542 69.7099 178.648L70.2269 178.839C70.963 180.517 71.6091 183.147 73.1769 184.199C75.1941 184.475 77.4473 184.244 78.8352 182.578C80.3243 180.968 80.7289 179.053 81.1559 176.97Z" fill="#FFAE8B"/>
<path d="M67.9737 177.933C68.5581 178.164 69.1312 178.406 69.71 178.648C65.2091 181.542 60.1689 183.541 55.6118 186.344C52.1224 188.675 49.3747 192.262 46.8686 195.589C45.2784 198.174 43.3848 201.253 43.1544 204.333C43.7107 206.962 44.7614 209.547 45.7729 212.035C48.1778 216.911 52.5775 220.633 57.5672 222.682C62.3771 224.546 67.3275 225.903 72.4971 226.19C76.953 226.488 81.937 227.169 86.3143 226.19C90.6803 225.345 94.9395 224.427 98.974 222.485C104.003 220.115 108.712 217.666 112.741 213.736C114.483 211.804 115.472 209.091 116.421 206.692C117.095 204.902 117.624 203.049 118.062 201.186C118.753 198.112 117.888 195.252 118.371 192.132C120.31 194.424 120.787 197.323 120.439 200.229C119.72 204.671 117.921 208.601 116.039 212.649C114.848 215.245 112.746 216.59 110.701 218.459C106.593 221.798 101.598 223.949 96.7432 225.936C93.8607 227.107 90.9612 227.597 87.9607 228.329C84.5443 229.348 80.5323 228.864 76.981 228.802C73.2388 228.78 69.5302 228.391 65.9059 227.434C59.1911 226.19 51.6392 223.352 47.3293 217.767C46.0988 216.123 44.6828 215.002 44.1377 212.947C43.5084 210.791 42.7498 208.674 42.1261 206.518C41.3844 204.097 42.2666 201.766 42.6712 199.317C43.16 196.597 44.9974 194.784 46.273 192.217C47.2394 190.184 49.2005 188.737 50.8019 187.144C53.4429 184.464 57.1851 182.724 60.5622 181.165C63.0009 180.078 65.4339 178.749 67.9737 177.933Z" fill="#F04E36"/>
<path d="M86.0216 181.159C87.4657 180.906 89.3594 180.63 90.4551 181.851C92.86 184.25 92.7757 187.386 93.0342 190.545C94.0007 188.512 94.9503 185.584 96.9788 184.396C98.7994 183.94 101.098 184.132 102.351 185.714C104.137 187.78 104.227 190.308 104.267 192.904C105.576 192.363 107.183 191.327 108.616 191.811C110.24 192.318 111.875 193.016 112.375 194.807C114.224 199.418 113.864 204.327 112.403 208.984C110.987 212.075 108.144 214.929 104.795 215.813C106.964 213.747 109.745 211.326 110.65 208.387C111.931 204.187 112.251 199.744 110.245 195.702C109.903 194.773 108.627 194.475 107.824 194.024C106.222 198.219 104.43 202.43 101.586 205.943C98.2655 209.395 95.6808 212.79 90.5 213.167C89.9156 212.452 89.4774 211.669 89.0166 210.87C91.8992 209.321 94.5064 207.368 97.0743 205.352C99.9906 202.52 102.204 198.41 102.086 194.261C102.092 192.217 102.216 190.364 101.148 188.535C100.575 187.273 99.1309 186.958 97.9902 186.389C96.7877 188.18 95.9617 190.15 94.9166 192.025C93.3545 194.688 89.9156 196.057 87.2354 197.312C85.4092 198.219 83.5661 198.1 81.5938 197.999C81.8242 196.727 81.7512 195.437 82.8188 194.525C84.4764 193.168 87.1904 193.061 88.8368 191.496C89.792 190.55 90.9158 189.593 90.736 188.112C90.5899 186.547 89.8257 184.571 88.5053 183.653C87.5556 182.831 86.4655 183.738 85.6845 184.363C84.1224 186.119 83.0604 188.473 81.3241 190.122C80.0374 191.068 78.582 191.181 77.0368 191.079C74.6487 190.364 72.7775 188.202 70.9401 186.682C69.2544 186.153 67.1136 187.183 66.4674 188.839C66.2201 190.561 66.5516 193.095 68.1362 194.137C70.2658 195.972 72.8787 195.291 74.2722 198.1C74.9577 199.142 74.4408 200.443 73.0866 200.217C69.9849 199.722 66.9056 198.714 63.8714 197.903C61.7642 197.475 60.2077 195.882 58.2916 197.689C58.1905 199.165 58.1961 200.91 58.8592 202.267C59.5896 203.37 60.5505 204.333 61.4271 205.324C62.4385 206.658 64.1074 206.636 65.6357 207.311C69.1364 208.55 72.0864 210.774 75.6433 211.883C75.6826 212.643 75.7163 213.403 75.7444 214.164C73.7834 214.147 71.9572 214.248 70.0523 213.662C64.9839 211.855 60.528 209.321 55.1731 208.387C54.8584 211.861 56.9431 214.31 59.8369 215.858C63.8882 217.694 68.2374 220.407 72.5303 221.849C79.3181 222.558 86.3195 221.657 92.8038 219.585C95.5965 218.69 97.9565 217.502 100.811 217.007C98.5521 218.645 96.681 220.396 94.0569 221.488C90.7529 222.812 87.1511 223.555 83.6167 223.932C79.3631 224.411 74.4689 224.653 70.5355 222.688C66.4955 221.122 62.1519 220.03 58.2804 218.054C55.2517 216.556 52.7288 213.539 52.6895 210.037C52.785 208.646 53.1334 207.165 53.8638 205.966C55.0214 205.403 56.2913 205.273 57.5499 205.076C56.5273 203.455 55.7013 201.861 55.7687 199.874C55.7575 197.847 56.1058 195.86 58.2074 195.054C61.0337 193.906 63.1858 195.297 65.9167 195.938C65.0907 193.9 64.1355 192.02 63.9894 189.773C64.2197 187.302 65.9616 185.213 68.316 184.475C70.794 183.918 73.4631 184.334 75.2162 186.316C76.2557 187.33 76.9918 188.856 78.6551 188.743C80.6498 188.743 81.3972 186.936 82.2681 185.466C83.1616 183.946 84.1336 181.593 86.0216 181.159Z" fill="#F04E36"/>
<path d="M88.5052 183.653C89.8257 184.571 90.5899 186.547 90.736 188.113C90.9158 189.593 89.792 190.55 88.8367 191.496C87.1904 193.062 84.4763 193.168 82.8187 194.525C81.7511 195.437 81.8242 196.727 81.5938 197.999C83.5661 198.101 85.4091 198.219 87.2353 197.312C89.9156 196.057 93.3544 194.689 94.9165 192.026C95.9617 190.151 96.7877 188.18 97.9902 186.39C99.1308 186.958 100.575 187.274 101.148 188.535C102.216 190.365 102.092 192.217 102.086 194.261C102.204 198.41 99.9905 202.52 97.0743 205.352C94.5063 207.368 91.8991 209.322 89.0165 210.87C89.4773 211.669 89.9156 212.452 90.5 213.167C95.6807 212.79 98.2655 209.395 101.586 205.944C104.43 202.43 106.222 198.219 107.823 194.024C108.627 194.475 109.903 194.773 110.245 195.702C112.251 199.745 111.931 204.187 110.65 208.387C109.745 211.326 106.964 213.747 104.795 215.813C103.486 216.269 102.159 216.675 100.811 217.007C97.9564 217.502 95.5964 218.69 92.8038 219.586C86.3194 221.658 79.3181 222.558 72.5303 221.849C68.2373 220.408 63.8882 217.694 59.8368 215.858C56.943 214.31 54.8583 211.861 55.173 208.387C60.528 209.322 64.9839 211.855 70.0523 213.663C71.9571 214.248 73.7833 214.147 75.7444 214.164C75.7163 213.404 75.6825 212.644 75.6432 211.883C72.0863 210.774 69.1363 208.55 65.6357 207.312C64.1073 206.636 62.4384 206.659 61.427 205.324C60.5504 204.333 59.5896 203.37 58.8591 202.267C58.1961 200.91 58.1904 199.165 58.2916 197.69C60.2077 195.882 61.7642 197.476 63.8713 197.904C66.9056 198.714 69.9848 199.722 73.0865 200.218C74.4407 200.443 74.9577 199.142 74.2722 198.101C72.8786 195.291 70.2658 195.972 68.1362 194.137C66.5516 193.095 66.2201 190.562 66.4673 188.839C67.1135 187.184 69.2543 186.153 70.9401 186.682C72.7775 188.203 74.6486 190.365 77.0367 191.08C78.582 191.181 80.0373 191.068 81.3241 190.123C83.0603 188.473 84.1224 186.119 85.6844 184.363C86.4655 183.738 87.5556 182.831 88.5052 183.653Z" fill="white"/>
<path d="M167.476 191.964C167.712 192.538 167.942 193.112 168.178 193.686C164.745 196.299 161.62 199.266 158.12 201.794C154.973 203.962 153.259 207.312 150.236 209.637C147.972 211.349 145.943 213.156 143.915 215.143C141.437 217.198 138.903 219.726 135.756 220.532C132.969 221.556 130.182 220.441 127.631 219.304C130.176 219.146 133.357 219.918 135.666 218.764C140.156 216.838 143.246 212.559 147.365 209.598C150.826 207.199 152.99 203.641 156.344 201.158C160.188 198.298 163.879 195.128 167.476 191.964Z" fill="#F04E36"/>
<path d="M84.7913 201.36C85.7858 201.659 86.4657 202.588 86.904 203.483C86.9771 204.677 86.2972 205.893 85.1116 206.253C82.9819 206.985 80.9647 207.672 78.6777 207.424C76.8403 207.199 75.0141 206.388 73.2891 205.746C73.3115 204.564 73.3396 203.387 73.3902 202.205C74.6095 202.402 75.8233 202.717 77.0538 202.847C79.8409 202.982 82.1222 201.265 84.7913 201.36Z" fill="#F04E36"/>
</svg>
